<svg width="14" height="16" viewBox="0 0 14 16" fill="none" xmlns="http://www.w3.org/2000/svg">
<path d="M3.37877 15.5C2.93234 15.5 2.55305 15.3436 2.24091 15.0307C1.92805 14.7186 1.77162 14.3393 1.77162 13.8929V3.17857H0.700195V1.57143H4.98591V0.5H9.27162V1.57143H13.5573V3.17857H12.4859V13.8929C12.4859 14.3393 12.3295 14.7186 12.0166 15.0307C11.7045 15.3436 11.3252 15.5 10.8788 15.5H3.37877ZM10.8788 3.17857H3.37877V13.8929H10.8788V3.17857ZM4.98591 12.2857H6.59305V4.78571H4.98591V12.2857ZM7.66448 12.2857H9.27162V4.78571H7.66448V12.2857ZM3.37877 3.17857V13.8929V3.17857Z" fill="#FF1D1D"/>
</svg>
