<svg width="18" height="18" viewBox="0 0 18 18" fill="none" xmlns="http://www.w3.org/2000/svg">
<circle cx="9" cy="9" r="9" fill="#FFD5D5"/>
<path d="M6.78571 14C6.4881 14 6.23524 13.8957 6.02714 13.6871C5.81857 13.479 5.71429 13.2262 5.71429 12.9286V5.78571H5V4.71429H7.85714V4H10.7143V4.71429H13.5714V5.78571H12.8571V12.9286C12.8571 13.2262 12.7529 13.479 12.5443 13.6871C12.3362 13.8957 12.0833 14 11.7857 14H6.78571ZM11.7857 5.78571H6.78571V12.9286H11.7857V5.78571ZM7.85714 11.8571H8.92857V6.85714H7.85714V11.8571ZM9.64286 11.8571H10.7143V6.85714H9.64286V11.8571ZM6.78571 5.78571V12.9286V5.78571Z" fill="#FF1D1D"/>
</svg>
