<svg width="15" height="12" viewBox="0 0 15 12" fill="none" xmlns="http://www.w3.org/2000/svg">
<path fill-rule="evenodd" clip-rule="evenodd" d="M4.64286 4.6197C4.64286 3.04174 5.92204 1.76256 7.5 1.76256C9.07793 1.76256 10.3571 3.04174 10.3571 4.6197V5.33398H11.0714C12.4521 5.33398 13.5714 6.45327 13.5714 7.83398C13.5714 9.2147 12.4521 10.334 11.0714 10.334H11C10.6055 10.334 10.2857 10.6538 10.2857 11.0483C10.2857 11.4428 10.6055 11.7626 11 11.7626H11.0714C13.2411 11.7626 15 10.0037 15 7.83398C15 5.89063 13.5889 4.27682 11.7354 3.9613C11.4187 1.90693 9.64307 0.333984 7.5 0.333984C5.35696 0.333984 3.58129 1.90693 3.26454 3.9613C1.41108 4.27682 0 5.89063 0 7.83398C0 10.0037 1.75888 11.7626 3.92857 11.7626H4C4.39449 11.7626 4.71429 11.4428 4.71429 11.0483C4.71429 10.6538 4.39449 10.334 4 10.334H3.92857C2.54786 10.334 1.42857 9.2147 1.42857 7.83398C1.42857 6.45327 2.54786 5.33398 3.92857 5.33398H4.64286V4.6197ZM8.21429 5.33398C8.21429 4.93948 7.8945 4.6197 7.5 4.6197C7.1055 4.6197 6.78571 4.93948 6.78571 5.33398V9.32384L5.86222 8.40034C5.58327 8.12141 5.13101 8.12141 4.85206 8.40034C4.57312 8.67927 4.57312 9.13156 4.85206 9.41048L6.99493 11.5533C7.27386 11.8323 7.72614 11.8323 8.00507 11.5533L10.1479 9.41048C10.4269 9.13156 10.4269 8.67927 10.1479 8.40034C9.869 8.12141 9.41671 8.12141 9.13779 8.40034L8.21429 9.32384V5.33398Z" fill="white"/>
</svg>
