<svg width="11" height="10" viewBox="0 0 11 10" fill="none" xmlns="http://www.w3.org/2000/svg">
<path d="M4.92682 2.77264C4.81005 2.8894 4.65168 2.955 4.48655 2.955C4.32142 2.955 4.16305 2.8894 4.04629 2.77264C3.92952 2.65587 3.86392 2.4975 3.86392 2.33237C3.86392 2.16724 3.92952 2.00887 4.04629 1.89211L5.10423 0.838236C5.64377 0.301379 6.37393 0 7.13506 0C7.89619 0 8.62636 0.301379 9.1659 0.838236L9.17159 0.844746C9.70591 1.38466 10.0051 2.11389 10.0041 2.8735C10.003 3.63311 9.70173 4.3615 9.1659 4.89991L8.10796 5.95378C7.99119 6.07055 7.83282 6.13614 7.66769 6.13614C7.50256 6.13614 7.34419 6.07055 7.22743 5.95378C7.11066 5.83701 7.04506 5.67865 7.04506 5.51351C7.04506 5.34838 7.11066 5.19001 7.22743 5.07325L8.28537 4.01531C8.58768 3.70942 8.75721 3.2967 8.75721 2.86663C8.75721 2.43657 8.58768 2.02384 8.28537 1.71795L8.27641 1.709C7.96989 1.40819 7.55726 1.24014 7.12779 1.24121C6.69832 1.24227 6.28653 1.41237 5.9815 1.7147L4.92763 2.77264H4.92682ZM6.06614 3.0298C6.18523 2.926 6.33934 2.87136 6.49722 2.87695C6.6551 2.88255 6.80496 2.94796 6.91641 3.05993C7.02786 3.1719 7.09257 3.32205 7.09744 3.47996C7.1023 3.63786 7.04695 3.79171 6.9426 3.91033L3.91038 6.94254C3.79271 7.0543 3.63605 7.11568 3.47378 7.11363C3.31152 7.11157 3.15647 7.04623 3.04166 6.93154C2.92686 6.81684 2.86138 6.66185 2.85917 6.49958C2.85697 6.33732 2.91821 6.1806 3.02985 6.06283L6.06288 3.0298H6.06614ZM5.05377 7.24691C5.17155 7.13526 5.32826 7.07402 5.49053 7.07623C5.65279 7.07844 5.80778 7.14392 5.92248 7.25872C6.03717 7.37352 6.10251 7.52857 6.10457 7.69084C6.10662 7.85311 6.04524 8.00976 5.93349 8.12744L4.89996 9.16178C4.36254 9.69664 3.63579 9.99786 2.87757 9.99999C2.11935 10.0021 1.39092 9.705 0.850497 9.17317L0.82771 9.1512C0.295473 8.61071 -0.00197111 7.88202 9.83154e-06 7.12348C0.00199078 6.36493 0.303237 5.6378 0.83829 5.1001L1.87181 4.06902C1.92827 4.00629 1.99688 3.95569 2.0735 3.92029C2.15011 3.8849 2.23312 3.86545 2.31748 3.86313C2.40184 3.86081 2.48579 3.87567 2.56423 3.9068C2.64267 3.93793 2.71397 3.98469 2.77378 4.04422C2.83359 4.10376 2.88068 4.17484 2.91217 4.25313C2.94366 4.33143 2.95891 4.41531 2.95698 4.49968C2.95505 4.58405 2.93599 4.66715 2.90095 4.74393C2.86591 4.8207 2.81563 4.88955 2.75316 4.94629L1.71882 5.98063C1.41621 6.28669 1.2465 6.69973 1.2465 7.13013C1.2465 7.56052 1.41621 7.97356 1.71882 8.27962C2.02474 8.58311 2.4382 8.75341 2.86913 8.75341C3.30005 8.75341 3.71351 8.58311 4.01943 8.27962L5.05377 7.24691Z" fill="white"/>
</svg>
