<svg width="13" height="15" viewBox="0 0 13 15" fill="none" xmlns="http://www.w3.org/2000/svg">
<path fill-rule="evenodd" clip-rule="evenodd" d="M3.34322 11.5351C3.74211 11.5351 4.0655 11.8596 4.0655 12.2574C4.0655 12.6574 3.74098 12.9808 3.34322 12.9808C2.94321 12.9808 2.61982 12.6562 2.61982 12.2574C2.62094 11.8585 2.94433 11.5351 3.34322 11.5351ZM11.5396 14.9989H0.646785V15C0.471004 15 0.308744 14.9268 0.19043 14.8096V14.8084H0.189303L0.188176 14.8073C0.0721154 14.6901 0 14.529 0 14.3532L0 2.85757C0 2.67954 0.0732422 2.61193 0.19043 2.49474C0.307617 2.37755 0.469877 2.30431 0.647912 2.30431H2.90602V1.98655C2.90602 1.86824 2.95448 1.18314 3.03335 1.10427L3.03448 1.10314L3.03561 1.10201C3.11448 1.02426 3.22266 0.975811 3.34097 0.975811H4.33368V0.481145C4.33368 0.349309 4.38777 0.229868 4.47453 0.141977L4.47566 0.14085C4.56242 0.0540866 4.68187 0 4.8137 0H7.84367C7.97551 0 8.09495 0.0540865 8.18284 0.141977L8.18397 0.14085C8.27073 0.227614 8.32482 0.348182 8.32482 0.481145V0.976938H9.2195C9.33782 0.976938 9.44599 1.02539 9.52487 1.10427L9.52599 1.10539L9.52712 1.10652L9.52824 1.10765C9.60599 1.18652 9.65445 1.87162 9.65445 1.98993V2.30769H12.0444C12.2213 2.30769 12.3836 2.38093 12.5008 2.49812L12.5019 2.497C12.6191 2.61418 12.6923 2.68179 12.6923 2.85983V14.9989H11.5396C11.5396 10.4827 11.5396 8.04306 11.5396 3.52689C11.5396 3.50886 11.5317 3.49309 11.5204 3.48069L11.5216 3.47957H11.5204C11.5092 3.4683 11.4923 3.46154 11.4742 3.46154H9.65557V4.0441C9.65557 4.16241 9.60712 4.27058 9.52824 4.34946H9.52712L9.52599 4.35059L9.52487 4.35171C9.44599 4.42946 9.33782 4.47791 9.2195 4.47791H3.33984C3.2204 4.47791 3.1111 4.42946 3.03335 4.35059C3.02434 4.34157 3.01532 4.33143 3.00856 4.32129C2.94546 4.24579 2.90602 4.14776 2.90602 4.04297V3.46041L1.18765 3.44914C1.16962 3.44914 1.15385 3.45703 1.14145 3.4683C1.12906 3.48069 1.1223 3.49647 1.1223 3.5145V13.7662C1.1223 13.7842 1.12906 13.8011 1.14145 13.8123L1.14258 13.8135C1.15385 13.8247 1.17075 13.8326 1.18878 13.8326V13.8338H11.5396L11.5385 14.9989H11.5396ZM8.11862 2.30431C8.08481 2.30431 8.05213 2.29868 8.02284 2.28741C7.86396 2.28741 7.73438 2.15783 7.73438 1.99895V1.15385H4.93427L4.92413 1.99895C4.92413 2.14881 4.81032 2.27163 4.66271 2.28628C4.63116 2.29755 4.59736 2.30431 4.56355 2.30431L4.03846 2.32459V3.48069L8.65385 3.46154V2.30544L8.11862 2.30431ZM6.02839 9.90798H3.66662V10.9413C3.66662 11.1193 3.52238 11.2635 3.34435 11.2635C3.16631 11.2635 3.02208 11.1193 3.02208 10.9413V9.68262C3.02208 9.66571 3.02321 9.64994 3.02546 9.63416C3.02321 9.61839 3.02208 9.60261 3.02208 9.58571C3.02208 9.40768 3.16631 9.26345 3.34435 9.26345H6.01037L6.00022 8.39581C5.936 8.37665 5.87177 8.35524 5.80867 8.32933C5.74557 8.30228 5.68472 8.27411 5.62613 8.24031L5.42555 8.46116C5.38837 8.49947 5.34217 8.51863 5.28921 8.52088C5.23625 8.52314 5.18893 8.50623 5.14949 8.4713L4.85539 8.19524C4.81595 8.15693 4.79342 8.11185 4.79116 8.05889C4.78891 8.00481 4.80694 7.95974 4.84412 7.92255L5.06385 7.68479C5.03005 7.6262 4.9985 7.56535 4.97371 7.50338C4.94779 7.44141 4.92525 7.37605 4.9061 7.30957L4.612 7.32084C4.55792 7.32309 4.51172 7.30506 4.47115 7.26788C4.43171 7.22957 4.41143 7.18449 4.40918 7.13379L4.3934 6.73039C4.39115 6.67631 4.40805 6.63011 4.44411 6.58954C4.48129 6.5501 4.52524 6.52982 4.58045 6.52757L4.90159 6.51517C4.92075 6.44869 4.94216 6.38446 4.96807 6.32136C4.99399 6.25826 5.02329 6.19742 5.05709 6.13882L4.83962 5.93825C4.80018 5.90107 4.77764 5.85599 4.77539 5.80191C4.77314 5.74895 4.79116 5.70162 4.82835 5.66106L5.09878 5.36696C5.13709 5.32752 5.18104 5.30499 5.23513 5.30273C5.28921 5.30048 5.33428 5.31964 5.37147 5.35569L5.61373 5.57542C5.66894 5.54274 5.72754 5.51119 5.79064 5.48415C5.85261 5.45823 5.91797 5.4357 5.98445 5.41654L5.97318 5.12244C5.97093 5.06836 5.98896 5.02216 6.02614 4.9816C6.06445 4.94216 6.10952 4.92187 6.16023 4.91962L6.56363 4.90497C6.61771 4.90272 6.66391 4.91962 6.70448 4.95568C6.74391 4.99286 6.7642 5.03681 6.76645 5.09202L6.77884 5.41316C6.84307 5.43232 6.9073 5.45373 6.9704 5.47964C7.0335 5.50443 7.09435 5.53485 7.15294 5.56866L7.35351 5.35231C7.3907 5.31287 7.4369 5.29034 7.48986 5.28808C7.54282 5.28583 7.59014 5.30386 7.63071 5.34104L7.63521 5.34443L7.92931 5.61486C7.96875 5.65317 7.99128 5.69711 7.99354 5.7512C7.99579 5.80529 7.97664 5.85036 7.94058 5.88754L7.72085 6.12981C7.75353 6.18727 7.78508 6.24587 7.81212 6.3101C7.83804 6.37432 7.86058 6.43742 7.87973 6.50165L8.17383 6.49038C8.22791 6.48813 8.27411 6.50616 8.31468 6.54334C8.35412 6.58166 8.3744 6.62673 8.37665 6.67743L8.39243 7.08083C8.39468 7.13492 8.37778 7.18111 8.34172 7.22168C8.30454 7.26112 8.26059 7.2814 8.20538 7.28365L7.88424 7.29605C7.86508 7.36028 7.84367 7.4245 7.81776 7.4876C7.79071 7.55071 7.76254 7.61155 7.72874 7.67015L7.94959 7.87072C7.9879 7.9079 8.00706 7.9541 8.00931 8.00706C8.01157 8.06002 7.99466 8.10622 7.95973 8.14678L7.68367 8.44201C7.64874 8.48145 7.60366 8.50285 7.54958 8.50624C7.49549 8.50849 7.44929 8.49046 7.41098 8.45327L7.17323 8.23355C7.11463 8.26735 7.05378 8.2989 6.99068 8.32369C6.92871 8.34961 6.86336 8.37214 6.79687 8.3913L6.80701 9.26232H9.4674C9.64543 9.26232 9.78966 9.40655 9.78966 9.58459C9.78966 9.60149 9.78853 9.61726 9.78628 9.63304C9.78853 9.64881 9.78966 9.66459 9.78966 9.68149V10.9401C9.78966 11.1182 9.64543 11.2624 9.4674 11.2624C9.28936 11.2624 9.14513 11.1182 9.14513 10.9401V9.90798H6.80251V10.8376C6.80251 11.0517 6.62898 11.2252 6.41489 11.2252C6.2008 11.2252 6.02727 11.0517 6.02727 10.8376V9.90798H6.02839ZM6.35742 6.11178C6.46672 6.10727 6.56926 6.12305 6.66842 6.16136C6.76645 6.19967 6.85209 6.2515 6.92758 6.32024C7.00082 6.38897 7.06055 6.47123 7.10674 6.56588C7.15294 6.66279 7.17661 6.76307 7.18111 6.87237C7.18562 6.98167 7.16872 7.08421 7.13153 7.18337C7.09322 7.2814 7.04026 7.36704 6.97265 7.44253C6.90392 7.51577 6.82166 7.5755 6.72701 7.62169C6.63236 7.66677 6.52982 7.69156 6.42052 7.69606C6.31122 7.70057 6.20868 7.68367 6.10952 7.64648C6.01149 7.60817 5.92586 7.55521 5.85036 7.4876C5.77712 7.41887 5.7174 7.33661 5.6712 7.24196C5.62613 7.14731 5.60134 7.04477 5.59683 6.93547C5.59232 6.82617 5.60922 6.72363 5.64641 6.62447C5.68472 6.52644 5.73768 6.4408 5.80529 6.36531C5.87402 6.29207 5.95628 6.23235 6.05093 6.18615C6.14784 6.13995 6.24925 6.11628 6.35742 6.11178ZM9.46289 11.5351C9.8629 11.5351 10.1863 11.8596 10.1863 12.2574C10.1863 12.6574 9.86178 12.9808 9.46289 12.9808C9.064 12.9808 8.74061 12.6562 8.74061 12.2574C8.73948 11.8585 9.064 11.5351 9.46289 11.5351ZM6.3901 11.5351C6.79011 11.5351 7.11351 11.8596 7.11351 12.2574C7.11351 12.6574 6.78899 12.9808 6.3901 12.9808C5.99008 12.9808 5.66669 12.6562 5.66669 12.2574C5.66782 11.8585 5.99121 11.5351 6.3901 11.5351Z" fill="white"/>
</svg>
