<svg width="15" height="17" viewBox="0 0 15 17" fill="none" xmlns="http://www.w3.org/2000/svg">
<path fill-rule="evenodd" clip-rule="evenodd" d="M14.0608 3.18139L13.4145 3.17134C13.399 3.17134 11.9499 3.14117 10.4532 2.55971C8.91827 1.96269 7.92903 1.27702 7.91987 1.2706L7.53046 1L7.14187 1.2706C7.13273 1.277 6.14261 1.96269 4.60851 2.55971C3.11279 3.14207 1.66281 3.17133 1.65003 3.17133L1 3.18139V9.48694C1 12.6529 5.24755 16 7.53132 16C9.81601 16 14.0636 12.6529 14.0636 9.48694L14.0608 3.18139ZM7.53134 15.0638C5.63429 15.0638 1.93619 12.0532 1.93619 9.48689V4.0947C2.47103 4.05815 3.68331 3.92467 4.94769 3.43279C6.24317 2.92812 7.18484 2.35765 7.53225 2.13457C7.90525 2.37686 8.81949 2.92812 10.1141 3.43279C11.383 3.92558 12.598 4.05815 13.1256 4.0947L13.1274 9.48689C13.1274 12.0532 9.42837 15.0638 7.53134 15.0638ZM11.4282 9.11255L8.92413 11.6139L7.87464 10.4236C7.70275 10.2298 7.40742 10.2114 7.21363 10.3815C7.0189 10.5534 7.00063 10.8487 7.17249 11.0425L8.55116 12.6068C8.63704 12.7037 8.75864 12.7604 8.88758 12.7641C8.89307 12.765 8.89764 12.765 8.90226 12.765C9.02652 12.765 9.14544 12.7165 9.23318 12.6288L12.0902 9.77633C12.273 9.59352 12.273 9.29728 12.0911 9.11353C11.9082 8.93057 11.6111 8.93157 11.4282 9.11255ZM9.55753 9.33503C9.33903 9.51603 9.07939 9.74461 8.86727 9.96308C8.42664 9.49958 7.8086 9.20798 7.12105 9.20799C5.78809 9.20799 4.70473 10.2922 4.70473 11.6243C4.70473 11.883 4.49536 12.0924 4.23666 12.0924C3.97793 12.0924 3.76855 11.883 3.76855 11.6243C3.76855 10.2447 4.60693 9.05805 5.79998 8.54424C5.29074 8.14836 4.95705 7.53672 4.95705 6.8437C4.95705 5.6506 5.928 4.67969 7.12107 4.67969C8.31415 4.67969 9.28507 5.65063 9.28507 6.8437C9.28507 7.53856 8.94957 8.15294 8.43757 8.54789C8.86269 8.73344 9.24396 9.00132 9.55753 9.33503ZM8.34895 6.8437C8.34895 6.16719 7.79762 5.61589 7.1211 5.61589C6.44459 5.61589 5.89328 6.16717 5.89328 6.8437C5.89328 7.52024 6.44459 8.07063 7.1211 8.07063C7.79759 8.07063 8.34895 7.52024 8.34895 6.8437Z" fill="white"/>
<path d="M13.4145 3.17134L13.4168 3.02134H13.4145V3.17134ZM14.0608 3.18139L14.2108 3.18133L14.2108 3.03371L14.0632 3.03141L14.0608 3.18139ZM10.4532 2.55971L10.3989 2.6995L10.3989 2.69952L10.4532 2.55971ZM7.91987 1.2706L8.00594 1.14775L8.00547 1.14742L7.91987 1.2706ZM7.53046 1L7.61606 0.876821L7.53037 0.817276L7.44474 0.876906L7.53046 1ZM7.14187 1.2706L7.05615 1.14751L7.05585 1.14772L7.14187 1.2706ZM4.60851 2.55971L4.55411 2.41992L4.55409 2.41993L4.60851 2.55971ZM1.65003 3.17133V3.02131L1.64771 3.02134L1.65003 3.17133ZM1 3.18139L0.997677 3.03141L0.85 3.0337V3.18139H1ZM14.0636 9.48694H14.2136V9.48687L14.0636 9.48694ZM1.93619 4.0947L1.92596 3.94505L1.78619 3.9546V4.0947H1.93619ZM4.94769 3.43279L5.00207 3.57258L5.00213 3.57256L4.94769 3.43279ZM7.53225 2.13457L7.61396 2.00878L7.53272 1.956L7.4512 2.00835L7.53225 2.13457ZM10.1141 3.43279L10.0596 3.57255L10.0598 3.57262L10.1141 3.43279ZM13.1256 4.0947L13.2756 4.09465L13.2755 3.95473L13.1359 3.94506L13.1256 4.0947ZM13.1274 9.48689L13.2774 9.48689V9.48684L13.1274 9.48689ZM8.92413 11.6139L8.81161 11.7131L8.91719 11.8329L9.03013 11.7201L8.92413 11.6139ZM11.4282 9.11255L11.3227 9.00593L11.3222 9.00643L11.4282 9.11255ZM7.87464 10.4236L7.98716 10.3244L7.98687 10.3241L7.87464 10.4236ZM7.21363 10.3815L7.11468 10.2688L7.11437 10.2691L7.21363 10.3815ZM7.17249 11.0425L7.28502 10.9434L7.28472 10.943L7.17249 11.0425ZM8.55116 12.6068L8.43863 12.706L8.4389 12.7063L8.55116 12.6068ZM8.88758 12.7641L8.91216 12.6161L8.90206 12.6144L8.89183 12.6141L8.88758 12.7641ZM9.23318 12.6288L9.1272 12.5226L9.12712 12.5227L9.23318 12.6288ZM12.0902 9.77633L12.1962 9.88248L12.1963 9.8824L12.0902 9.77633ZM12.0911 9.11353L12.1977 9.008L12.1972 9.00747L12.0911 9.11353ZM8.86727 9.96308L8.75856 10.0664L8.86613 10.1796L8.97489 10.0676L8.86727 9.96308ZM9.55753 9.33503L9.65322 9.45054L9.77619 9.34868L9.66684 9.23231L9.55753 9.33503ZM7.12105 9.20799V9.35799H7.12105L7.12105 9.20799ZM5.79998 8.54424L5.85932 8.682L6.09245 8.5816L5.89205 8.42581L5.79998 8.54424ZM8.43757 8.54789L8.34595 8.42912L8.14522 8.58396L8.37756 8.68537L8.43757 8.54789ZM13.4121 3.32132L14.0585 3.33138L14.0632 3.03141L13.4168 3.02136L13.4121 3.32132ZM10.3989 2.69952C11.9198 3.29039 13.3896 3.32134 13.4145 3.32134V3.02134C13.4156 3.02134 13.3262 3.01972 13.1667 3.00795C13.0083 2.99626 12.7825 2.97467 12.5109 2.93514C11.9669 2.85597 11.2422 2.70531 10.5076 2.41989L10.3989 2.69952ZM7.83381 1.39346C7.84925 1.40427 8.84926 2.09679 10.3989 2.6995L10.5076 2.41991C9.74788 2.12442 9.12322 1.80697 8.68772 1.56284C8.47004 1.4408 8.29981 1.33719 8.1838 1.26394C8.1258 1.22732 8.08137 1.1983 8.05136 1.17838C8.02118 1.15834 8.0058 1.14765 8.00594 1.14775L7.83381 1.39346ZM7.44486 1.12318L7.83427 1.39378L8.00547 1.14742L7.61606 0.876821L7.44486 1.12318ZM7.22759 1.3937L7.61618 1.12309L7.44474 0.876906L7.05615 1.14751L7.22759 1.3937ZM4.66291 2.69949C6.21162 2.09679 7.21249 1.40427 7.22789 1.39349L7.05585 1.14772C7.056 1.14762 7.04061 1.15831 7.0104 1.17835C6.98036 1.19827 6.9359 1.22729 6.87786 1.26391C6.76178 1.33716 6.59146 1.44078 6.37372 1.56282C5.9381 1.80697 5.31342 2.12442 4.55411 2.41992L4.66291 2.69949ZM1.65003 3.32133C1.67211 3.32133 3.1429 3.29131 4.66294 2.69948L4.55409 2.41993C3.81996 2.70576 3.09533 2.85642 2.55159 2.93546C2.00744 3.01457 1.64896 3.02133 1.65003 3.02133V3.32133ZM1.00232 3.33138L1.65236 3.32131L1.64771 3.02134L0.997677 3.03141L1.00232 3.33138ZM1.15 9.48694V3.18139H0.85V9.48694H1.15ZM7.53132 15.85C6.9931 15.85 6.32353 15.6515 5.61495 15.2937C4.90878 14.9371 4.17491 14.4278 3.51049 13.82C2.1754 12.5987 1.15 11.0078 1.15 9.48694H0.85C0.85 11.1321 1.94837 12.7977 3.308 14.0414C3.99094 14.6661 4.74717 15.1915 5.47972 15.5614C6.20987 15.9302 6.92766 16.15 7.53132 16.15V15.85ZM13.9136 9.48694C13.9136 11.0078 12.8882 12.5987 11.553 13.82C10.8885 14.4278 10.1545 14.9371 9.44824 15.2937C8.73953 15.6515 8.06978 15.85 7.53132 15.85V16.15C8.1352 16.15 8.85316 15.9302 9.58344 15.5615C10.3161 15.1915 11.0724 14.6661 11.7555 14.0414C13.1152 12.7977 14.2136 11.1321 14.2136 9.48694H13.9136ZM13.9108 3.18146L13.9136 9.487L14.2136 9.48687L14.2108 3.18133L13.9108 3.18146ZM1.78619 9.48689C1.78619 10.8339 2.74941 12.2656 3.92057 13.3479C4.51003 13.8926 5.16077 14.357 5.78701 14.6861C6.41024 15.0136 7.02227 15.2138 7.53134 15.2138V14.9138C7.09188 14.9138 6.53026 14.7377 5.92655 14.4205C5.32585 14.1049 4.69636 13.6563 4.12417 13.1275C2.97202 12.0629 2.08619 10.7061 2.08619 9.48689H1.78619ZM1.78619 4.0947V9.48689H2.08619V4.0947H1.78619ZM4.8933 3.293C3.64868 3.77719 2.45317 3.90902 1.92596 3.94505L1.94642 4.24435C2.48889 4.20728 3.71794 4.07215 5.00207 3.57258L4.8933 3.293ZM7.4512 2.00835C7.10923 2.22794 6.17664 2.79305 4.89324 3.29302L5.00213 3.57256C6.30969 3.06318 7.26045 2.48737 7.6133 2.26079L7.4512 2.00835ZM10.1686 3.29303C8.88573 2.79295 7.98066 2.24698 7.61396 2.00878L7.45054 2.26036C7.82984 2.50675 8.75325 3.06329 10.0596 3.57255L10.1686 3.29303ZM13.1359 3.94506C12.6158 3.90903 11.4176 3.77808 10.1684 3.29296L10.0598 3.57262C11.3485 4.07308 12.5802 4.20728 13.1152 4.24434L13.1359 3.94506ZM13.2774 9.48684L13.2756 4.09465L12.9756 4.09475L12.9774 9.48694L13.2774 9.48684ZM7.53134 15.2138C8.0404 15.2138 8.65249 15.0136 9.27579 14.6861C9.90211 14.357 10.553 13.8926 11.1425 13.3479C12.3139 12.2657 13.2774 10.834 13.2774 9.48689L12.9774 9.48689C12.9774 10.7061 12.0913 12.0629 10.939 13.1275C10.3667 13.6563 9.73705 14.1049 9.13627 14.4205C8.53247 14.7377 7.97079 14.9138 7.53134 14.9138V15.2138ZM9.03013 11.7201L11.5342 9.21868L11.3222 9.00643L8.81812 11.5078L9.03013 11.7201ZM7.76213 10.5228L8.81161 11.7131L9.03664 11.5147L7.98716 10.3244L7.76213 10.5228ZM7.31258 10.4943C7.44422 10.3787 7.64519 10.3909 7.76242 10.5231L7.98687 10.3241C7.76031 10.0686 7.37062 10.0442 7.11468 10.2688L7.31258 10.4943ZM7.28472 10.943C7.16808 10.8115 7.18018 10.6111 7.31289 10.494L7.11437 10.2691C6.85763 10.4957 6.83317 10.886 7.06026 11.1421L7.28472 10.943ZM8.66369 12.5076L7.28502 10.9434L7.05996 11.1417L8.43863 12.706L8.66369 12.5076ZM8.89183 12.6141C8.80432 12.6116 8.72181 12.5732 8.66342 12.5073L8.4389 12.7063C8.55227 12.8342 8.71297 12.9092 8.88332 12.914L8.89183 12.6141ZM8.90226 12.615C8.89742 12.615 8.9041 12.6148 8.91216 12.6161L8.86299 12.912C8.88205 12.9152 8.89786 12.915 8.90226 12.915V12.615ZM9.12712 12.5227C9.06799 12.5818 8.98742 12.615 8.90226 12.615V12.915C9.06562 12.915 9.22289 12.8512 9.33923 12.7349L9.12712 12.5227ZM11.9842 9.67018L9.1272 12.5226L9.33916 12.7349L12.1962 9.88248L11.9842 9.67018ZM11.9845 9.21907C12.1087 9.34446 12.1083 9.54613 11.9841 9.67025L12.1963 9.8824C12.4378 9.6409 12.4374 9.25009 12.1977 9.008L11.9845 9.21907ZM11.5337 9.21917C11.6585 9.09572 11.861 9.09552 11.9851 9.2196L12.1972 9.00747C11.9554 8.76561 11.5637 8.76742 11.3227 9.00593L11.5337 9.21917ZM8.97489 10.0676C9.18173 9.85454 9.43681 9.62981 9.65322 9.45054L9.46184 9.21951C9.24125 9.40224 8.97706 9.63468 8.75966 9.85859L8.97489 10.0676ZM7.12105 9.35799C7.76505 9.35798 8.3445 9.63089 8.75856 10.0664L8.97599 9.85973C8.50877 9.36827 7.85216 9.05797 7.12105 9.05799L7.12105 9.35799ZM4.85473 11.6243C4.85473 10.375 5.87096 9.35799 7.12105 9.35799V9.05799C5.70521 9.05799 4.55473 10.2094 4.55473 11.6243H4.85473ZM4.23666 12.2424C4.57822 12.2424 4.85473 11.9659 4.85473 11.6243H4.55473C4.55473 11.8002 4.41251 11.9424 4.23666 11.9424V12.2424ZM3.61855 11.6243C3.61855 11.9659 3.89509 12.2424 4.23666 12.2424V11.9424C4.06077 11.9424 3.91855 11.8002 3.91855 11.6243H3.61855ZM5.74065 8.40647C4.4948 8.94302 3.61855 10.1824 3.61855 11.6243H3.91855C3.91855 10.307 4.71906 9.17307 5.85932 8.682L5.74065 8.40647ZM4.80705 6.8437C4.80705 7.58647 5.16493 8.24055 5.70792 8.66266L5.89205 8.42581C5.41655 8.05616 5.10705 7.48697 5.10705 6.8437H4.80705ZM7.12107 4.52969C5.84516 4.52969 4.80705 5.56776 4.80705 6.8437H5.10705C5.10705 5.73344 6.01084 4.82969 7.12107 4.82969V4.52969ZM9.43507 6.8437C9.43507 5.56779 8.397 4.52969 7.12107 4.52969V4.82969C8.23131 4.82969 9.13507 5.73348 9.13507 6.8437H9.43507ZM8.52918 8.66666C9.07533 8.24537 9.43507 7.58834 9.43507 6.8437H9.13507C9.13507 7.48879 8.8238 8.06051 8.34595 8.42912L8.52918 8.66666ZM9.66684 9.23231C9.33916 8.88358 8.94104 8.60398 8.49757 8.41041L8.37756 8.68537C8.78433 8.86291 9.14876 9.11906 9.44822 9.43774L9.66684 9.23231ZM7.1211 5.76589C7.71478 5.76589 8.19895 6.25003 8.19895 6.8437H8.49895C8.49895 6.08434 7.88046 5.46589 7.1211 5.46589V5.76589ZM6.04328 6.8437C6.04328 6.25002 6.52742 5.76589 7.1211 5.76589V5.46589C6.36175 5.46589 5.74328 6.08432 5.74328 6.8437H6.04328ZM7.1211 7.92063C6.52729 7.92063 6.04328 7.43725 6.04328 6.8437H5.74328C5.74328 7.60322 6.36189 8.22063 7.1211 8.22063V7.92063ZM8.19895 6.8437C8.19895 7.43724 7.71489 7.92063 7.1211 7.92063V8.22063C7.88028 8.22063 8.49895 7.60323 8.49895 6.8437H8.19895Z" fill="white"/>
</svg>
