<svg width="27" height="26" viewBox="0 0 27 26" fill="none" xmlns="http://www.w3.org/2000/svg">
<path d="M11.9134 1.1059C11.785 1.16172 11.6231 1.29569 11.5505 1.39617L11.4166 1.58597L11.3998 4.41059L11.3831 7.22963L11.5114 7.41943C11.584 7.52549 11.7292 7.67063 11.8296 7.73762L12.0194 7.86601H14.8217H17.624L17.8082 7.73762C18.2157 7.46409 18.2269 7.43059 18.2436 6.10202L18.2604 4.90741L18.6065 5.08046C20.3314 5.9513 21.8665 7.50875 22.7764 9.31181C23.4631 10.6739 23.8538 12.343 23.8315 13.8111C23.8203 14.5145 23.8092 14.5145 23.3068 13.8669C22.8323 13.2529 22.7095 13.158 22.5141 13.2306C22.3745 13.2808 22.2908 13.5264 22.3689 13.6325C22.4024 13.666 22.7318 14.0902 23.1058 14.5647C23.4798 15.0392 23.8482 15.4523 23.9208 15.4802C24.0827 15.5416 24.0492 15.5639 25.2215 14.6373C25.9193 14.0791 26.0141 13.9842 26.0141 13.839C26.0141 13.6771 25.8913 13.5599 25.7183 13.5599C25.6792 13.5599 25.3666 13.7776 25.0317 14.04L24.4232 14.5201L24.3897 13.4929C24.373 12.9347 24.3283 12.2927 24.2892 12.0806C23.731 8.80383 21.7772 6.09085 18.8521 4.54457L18.2548 4.22638V2.96479C18.2548 1.75902 18.2492 1.68645 18.1264 1.47991C18.0483 1.34035 17.9087 1.21196 17.758 1.12823L17.5124 0.999834H14.8273C12.332 0.999834 12.1255 1.011 11.9134 1.1059ZM17.5626 1.69203C17.6631 1.77019 17.6687 1.87067 17.6854 4.38826C17.7022 6.97843 17.6966 7.01192 17.5849 7.15706L17.4677 7.30778H14.8217H12.1757L12.0641 7.16265C11.9469 7.01751 11.9469 6.96168 11.9469 4.4385C11.9469 2.19444 11.958 1.84834 12.0362 1.73669L12.1199 1.61388H14.7882C16.9988 1.61388 17.4677 1.62505 17.5626 1.69203Z" fill="#8E94A9" stroke="#8E94A9" stroke-width="0.3"/>
<path d="M13.3479 2.5856C13.3032 2.63584 13.2865 3.18848 13.2977 4.49473L13.3144 6.33129L13.4595 6.38153C13.5824 6.42061 13.7889 6.32013 15.1231 5.54978C16.647 4.66778 16.8256 4.53381 16.7084 4.32726C16.6358 4.19329 13.694 2.50745 13.5433 2.50745C13.4707 2.50745 13.3814 2.54094 13.3479 2.5856ZM14.95 3.92534C15.4133 4.19329 15.7985 4.43333 15.7985 4.45007C15.7985 4.48357 14.0401 5.51628 13.895 5.56652C13.8671 5.57769 13.8447 5.09203 13.8447 4.43333V3.2778L13.9731 3.35595C14.0401 3.40061 14.4811 3.65739 14.95 3.92534Z" fill="#8E94A9" stroke="#8E94A9" stroke-width="0.3"/>
<path d="M8.18436 3.43392C8.0783 3.53998 8.06714 3.75769 8.16762 3.83026C8.20111 3.86375 8.55837 3.99214 8.95471 4.12612L9.66924 4.36057L9.20592 4.61177C6.89486 5.84545 5.09738 7.98904 4.27678 10.4955C3.75205 12.092 3.62924 13.9453 3.93627 15.5418C3.98092 15.7874 4.02 16.0219 4.02 16.0554C4.02 16.1112 3.75763 16.128 2.89238 16.128C1.61405 16.128 1.41867 16.1782 1.16747 16.5243L1.03349 16.7141L1.01675 19.5387L1 22.3578L1.12839 22.5476C1.20096 22.6536 1.3461 22.7988 1.44658 22.8657L1.63638 22.9941H4.43867H7.24096L7.42518 22.8657C7.52566 22.7988 7.66521 22.6704 7.72662 22.5866C7.84385 22.4303 7.84385 22.3689 7.86059 19.6504L7.87734 16.876L7.74336 16.6304C7.65405 16.4629 7.53682 16.3457 7.36935 16.2564C7.14048 16.1335 7.07349 16.128 5.89006 16.128H4.65079L4.58939 15.8321C4.41076 14.9948 4.38843 14.7547 4.38843 13.6718C4.38843 12.6502 4.40518 12.4548 4.53915 11.824C5.14762 8.94919 6.81113 6.6493 9.32872 5.20907C9.67482 5.01369 9.9651 4.86297 9.98185 4.87414C9.99301 4.89089 9.88695 5.25373 9.74181 5.68357C9.47386 6.49857 9.4627 6.64371 9.70274 6.70512C9.97068 6.77769 10.0209 6.68837 10.4061 5.53843C10.6071 4.92996 10.7745 4.37732 10.7745 4.31591C10.7745 4.24893 10.741 4.16519 10.6964 4.1317C10.6015 4.05355 8.50255 3.3446 8.36858 3.3446C8.31275 3.3446 8.22902 3.38368 8.18436 3.43392ZM7.20747 16.8369C7.26887 16.9095 7.28562 17.4119 7.28562 19.5722V22.2238L7.15165 22.3299C7.02884 22.4303 6.90044 22.4359 4.41076 22.4359H1.79268L1.68104 22.2908C1.56381 22.1456 1.56381 22.0898 1.56381 19.5666C1.56381 17.3226 1.57497 16.9765 1.65312 16.8648L1.73686 16.742H4.43309C6.87811 16.742 7.14048 16.7532 7.20747 16.8369Z" fill="#8E94A9" stroke="#8E94A9" stroke-width="0.3"/>
<path d="M2.98732 17.7971C2.54633 18.0037 2.34537 18.3051 2.30629 18.8354C2.23372 19.7286 2.97616 20.8283 3.96422 21.286C4.36056 21.4703 4.51128 21.4703 4.95228 21.2581C5.8901 20.8116 6.66603 19.6281 6.57113 18.8019C6.44832 17.7971 5.42119 17.3673 4.57269 17.9702L4.4108 18.0874L4.23217 17.9534C3.88049 17.6855 3.36692 17.6241 2.98732 17.7971ZM3.86374 18.4C3.95305 18.4558 4.07586 18.5842 4.14285 18.6791C4.29915 18.9415 4.52244 18.9303 4.72341 18.6624C4.9132 18.4112 5.12533 18.3051 5.41561 18.3051C5.59982 18.3051 5.68355 18.3386 5.81753 18.4726C5.97383 18.6345 5.985 18.6624 5.96267 18.9917C5.91801 19.6337 5.41561 20.365 4.80156 20.6776C4.46662 20.845 4.38847 20.8506 4.10378 20.6999C3.53439 20.3985 3.14921 19.924 2.95383 19.3043C2.83102 18.9136 2.87568 18.6121 3.08222 18.4168C3.23853 18.2772 3.62928 18.266 3.86374 18.4Z" fill="#8E94A9" stroke="#8E94A9" stroke-width="0.3"/>
<path d="M12.9907 8.8263C12.9182 8.88212 12.8791 9.05517 12.8289 9.49059L12.7675 10.0879L12.5386 10.1549C12.4102 10.194 12.1869 10.2833 12.0418 10.3614L11.7738 10.4954L11.3161 10.127C11.0649 9.93159 10.8081 9.76412 10.7467 9.76412C10.6071 9.76412 9.26738 11.0927 9.26738 11.2267C9.26738 11.2769 9.41252 11.5058 9.59115 11.7291C9.76978 11.9524 9.93167 12.1645 9.954 12.198C9.97074 12.2315 9.89259 12.4827 9.77536 12.7562L9.55766 13.253L8.98268 13.3144C8.54169 13.3647 8.39097 13.4038 8.33514 13.4819C8.2849 13.5545 8.26257 13.828 8.26257 14.509C8.26257 15.324 8.27374 15.4524 8.36305 15.5306C8.41888 15.5808 8.67008 15.6422 9.01618 15.6813C9.3232 15.7204 9.57999 15.7539 9.57999 15.7539C9.58557 15.7595 9.67488 15.9883 9.78653 16.2619L9.98749 16.7643L9.62464 17.2108C9.42926 17.4621 9.26738 17.7133 9.26738 17.7747C9.26738 17.903 10.6015 19.254 10.7299 19.254C10.7802 19.254 11.009 19.1088 11.2323 18.9302C11.4556 18.7516 11.6733 18.5897 11.7124 18.5618C11.7515 18.5394 11.9915 18.612 12.2762 18.7292L12.773 18.9413L12.8344 19.4996C12.9182 20.2755 12.8903 20.2588 14.0123 20.2588C15.1399 20.2588 15.112 20.2755 15.1957 19.494L15.2571 18.919L15.4581 18.8576C15.5697 18.8185 15.7763 18.7348 15.9214 18.6622C16.0666 18.5897 16.2061 18.5283 16.234 18.5283C16.2619 18.5283 16.4908 18.6901 16.742 18.8911C16.9988 19.0921 17.2444 19.254 17.2947 19.254C17.4231 19.254 18.7572 17.903 18.7572 17.7747C18.7572 17.7133 18.5953 17.4621 18.4 17.2108L18.0371 16.7643L18.2381 16.2619C18.3497 15.9883 18.439 15.7595 18.4446 15.7539C18.4446 15.7539 18.7014 15.7204 19.0084 15.6813C19.3545 15.6422 19.6057 15.5808 19.6671 15.5306C19.7509 15.4524 19.762 15.324 19.762 14.509C19.762 13.828 19.7397 13.5545 19.6895 13.4819C19.6336 13.4038 19.4829 13.3647 19.0419 13.3144L18.4669 13.253L18.2492 12.7506C18.132 12.4715 18.0315 12.2426 18.0315 12.2371C18.0315 12.2371 18.1822 12.0473 18.3665 11.8184C18.5507 11.5951 18.7181 11.3495 18.7405 11.2769C18.7684 11.1653 18.6679 11.0425 18.0818 10.4563C17.6519 10.0265 17.3505 9.76412 17.2779 9.76412C17.2165 9.76412 16.9597 9.93159 16.7085 10.127L16.2508 10.4954L15.9828 10.3614C15.8377 10.2833 15.6144 10.194 15.486 10.1549L15.2571 10.0879L15.1957 9.49059C15.1455 9.05517 15.1064 8.88212 15.0339 8.8263C14.9669 8.78164 14.6654 8.75931 14.0123 8.75931C13.3592 8.75931 13.0577 8.78164 12.9907 8.8263ZM14.6543 9.88693C14.6878 10.1828 14.738 10.4563 14.7715 10.4898C14.805 10.5233 15.0394 10.6238 15.2851 10.7075C15.5307 10.7968 15.8489 10.9308 15.9828 11.0145C16.1224 11.0927 16.2619 11.1597 16.2954 11.1597C16.3234 11.1597 16.5411 11.009 16.7699 10.8247C17.0044 10.6405 17.2109 10.4898 17.2388 10.4898C17.2612 10.4898 17.4565 10.6629 17.6631 10.875L18.0483 11.2657L17.9087 11.45C17.8306 11.5504 17.6743 11.7458 17.5626 11.8854C17.451 12.0249 17.3617 12.1701 17.3617 12.2147C17.3617 12.2594 17.4231 12.3989 17.4956 12.5218C17.5682 12.6501 17.6966 12.9516 17.7803 13.1972C17.8641 13.4428 17.9813 13.6829 18.0371 13.7331C18.1041 13.7945 18.2995 13.8392 18.64 13.8615L19.148 13.9062V14.4811V15.0561L18.9973 15.0896C18.9079 15.1008 18.6735 15.1342 18.4669 15.151C18.266 15.1733 18.0594 15.218 18.0148 15.2515C17.9701 15.2906 17.8864 15.4692 17.8361 15.6534C17.7859 15.8376 17.6575 16.1502 17.5514 16.3512C17.4454 16.5466 17.3617 16.7419 17.3617 16.781C17.3617 16.8145 17.5124 17.0378 17.6966 17.2667C17.8808 17.5011 18.0315 17.7077 18.0315 17.7356C18.0315 17.7579 17.8585 17.9533 17.6463 18.1598L17.2556 18.545L17.0714 18.4055C16.9709 18.3273 16.7755 18.171 16.6471 18.0594C16.5131 17.9477 16.3513 17.8584 16.2954 17.8584C16.234 17.8584 16.0554 17.931 15.8935 18.0203C15.7372 18.1096 15.4302 18.238 15.2125 18.3106C15.0004 18.3775 14.7994 18.4557 14.7659 18.4836C14.738 18.5115 14.6878 18.7795 14.6543 19.0753L14.5984 19.6168L14.0458 19.6335C13.6662 19.6447 13.4764 19.628 13.4485 19.5833C13.4262 19.5498 13.3927 19.3098 13.3703 19.053C13.348 18.8018 13.3034 18.5562 13.2699 18.5115C13.2308 18.4669 13.0298 18.372 12.8121 18.305C12.6 18.238 12.2874 18.1096 12.1311 18.0203C11.9692 17.931 11.7906 17.8584 11.7403 17.8584C11.6845 17.8584 11.5282 17.9477 11.3886 18.0594C11.2491 18.171 11.0537 18.3273 10.9532 18.4055L10.769 18.545L10.3782 18.1598C10.1661 17.9533 9.99307 17.7579 9.99307 17.73C9.99307 17.7021 10.1215 17.5235 10.2778 17.3337C10.7076 16.8201 10.7132 16.8089 10.4787 16.3679C10.3727 16.1614 10.2387 15.8376 10.1885 15.6534C10.1382 15.4692 10.0545 15.2906 10.0098 15.2515C9.96516 15.218 9.75862 15.1733 9.55766 15.151C9.35111 15.1342 9.11666 15.1008 9.03292 15.0896L8.87662 15.0561V14.4811V13.9062L9.37902 13.8671C9.97633 13.8224 10.0545 13.7666 10.1885 13.3368C10.2443 13.1693 10.3727 12.8623 10.4731 12.6557C10.5792 12.4492 10.6629 12.2426 10.6629 12.198C10.6629 12.1533 10.5736 12.0082 10.462 11.8742C10.3503 11.7458 10.194 11.5504 10.1159 11.45L9.97633 11.2657L10.3615 10.875C10.568 10.6629 10.7634 10.4898 10.7858 10.4898C10.8137 10.4898 11.0202 10.6405 11.2547 10.8247C11.4835 11.009 11.7012 11.1597 11.7292 11.1597C11.7626 11.1597 11.9022 11.0927 12.0418 11.0145C12.1757 10.9308 12.4883 10.7968 12.734 10.7131C12.9796 10.6294 13.214 10.5289 13.2531 10.4954C13.3034 10.4563 13.348 10.2554 13.3703 9.97066C13.4262 9.26172 13.3759 9.31196 14.029 9.3287L14.5984 9.34545L14.6543 9.88693Z" fill="#8E94A9" stroke="#8E94A9" stroke-width="0.3"/>
<path d="M13.3982 11.6678C12.7618 11.7906 11.9691 12.3376 11.6119 12.8959C10.8694 14.0458 10.9923 15.4581 11.9133 16.4518C12.6055 17.1886 13.5266 17.5068 14.4979 17.3338C16.8034 16.9318 17.7021 14.1184 16.0498 12.466C15.3576 11.7682 14.3863 11.478 13.3982 11.6678ZM14.4533 12.2483C15.2124 12.3488 15.9828 13.041 16.2117 13.8337C16.7252 15.5977 15.0785 17.2277 13.3312 16.6862C12.6279 16.4685 12.0138 15.8545 11.8073 15.1623C11.5561 14.3193 11.8463 13.3257 12.5162 12.7563C12.9349 12.399 13.6717 12.1367 14.096 12.1981C14.1574 12.2037 14.3193 12.226 14.4533 12.2483Z" fill="#8E94A9" stroke="#8E94A9" stroke-width="0.3"/>
<path d="M13.0745 12.9235C12.9517 13.0073 12.9517 13.024 12.9517 14.5033C12.9517 16.0943 12.9572 16.1278 13.2308 16.1222C13.3089 16.1222 13.923 15.7984 14.5984 15.4076C15.7428 14.7434 15.8265 14.682 15.8433 14.5256C15.8544 14.3917 15.8265 14.3303 15.7037 14.2465C15.4693 14.0791 13.2978 12.8342 13.2419 12.8342C13.2196 12.8342 13.1415 12.8733 13.0745 12.9235ZM14.2635 14.0735C14.7994 14.3861 14.9445 14.4922 14.8887 14.5424C14.7938 14.6317 13.6215 15.2904 13.5601 15.2904C13.5322 15.2904 13.5099 14.9276 13.5099 14.481C13.5099 14.0344 13.5266 13.6716 13.5434 13.6716C13.5601 13.6716 13.8839 13.8558 14.2635 14.0735Z" fill="#8E94A9" stroke="#8E94A9" stroke-width="0.3"/>
<path d="M19.6224 16.7364C19.4995 16.7922 19.3544 16.8927 19.2986 16.9541C19.053 17.222 19.0418 17.3839 19.0362 19.7955V22.1009L18.4166 22.4135C16.139 23.5523 13.5489 23.7477 11.0871 22.955L10.4786 22.7596L10.6963 22.6368C10.8191 22.5643 11.1597 22.3689 11.4555 22.1958C12.0026 21.8721 12.1142 21.7492 12.0082 21.5483C11.8742 21.3082 11.757 21.3417 10.7298 21.9335C9.64687 22.5643 9.54639 22.6312 9.54639 22.7708C9.54639 22.8824 10.6963 24.8976 10.7968 24.959C10.9699 25.0763 11.2211 24.9255 11.2211 24.7134C11.2211 24.6464 11.0703 24.3394 10.8917 24.0212C10.7075 23.703 10.5679 23.4407 10.5791 23.4407C10.5847 23.4407 10.914 23.53 11.3048 23.636C12.4324 23.9431 13.0744 24.0156 14.375 23.9821C15.2794 23.9598 15.6199 23.9263 16.1669 23.8091C16.9596 23.6416 17.8025 23.3569 18.5282 23.0164C18.8129 22.8824 19.0585 22.7708 19.0641 22.7708C19.0753 22.7708 19.0976 22.8322 19.1144 22.9048C19.1702 23.1169 19.4884 23.4239 19.734 23.4909C20.0857 23.5858 25.026 23.5691 25.3051 23.4742C25.5842 23.3737 25.7293 23.2397 25.8522 22.9662C25.9471 22.7596 25.9582 22.5475 25.9582 20.1025C25.9582 17.8528 25.9471 17.4342 25.8745 17.2611C25.7573 16.982 25.64 16.8592 25.3721 16.7364C25.1655 16.6415 24.9534 16.6303 22.4972 16.6303C20.041 16.6303 19.8289 16.6415 19.6224 16.7364ZM25.2437 17.3393C25.3386 17.423 25.3442 17.5849 25.3442 20.0802C25.3442 22.4694 25.333 22.7429 25.2493 22.8378C25.1655 22.9327 25.0037 22.9383 22.514 22.9383C19.9461 22.9383 19.868 22.9327 19.7619 22.8266C19.6559 22.7206 19.6503 22.6424 19.6503 20.1025C19.6503 17.8305 19.6614 17.4788 19.7396 17.3672L19.8233 17.2444H22.4805C24.8753 17.2444 25.1488 17.2555 25.2437 17.3393Z" fill="#8E94A9" stroke="#8E94A9" stroke-width="0.3"/>
<path d="M22.7931 18.3329L22.1121 18.8074H21.3027C20.8617 18.8074 20.4542 18.8241 20.4039 18.8409C20.2085 18.919 20.1527 19.1647 20.1527 19.9462C20.1527 20.6719 20.1583 20.6998 20.2978 20.8673C20.3872 20.9733 20.4932 21.0403 20.577 21.0403C20.7109 21.0403 20.7109 21.0459 20.7109 21.5929C20.7109 22.1958 20.7668 22.3242 21.0124 22.3242C21.2189 22.3242 21.2636 22.2126 21.2803 21.6209L21.2971 21.0682L21.7157 21.0515L22.1344 21.0403L22.8154 21.5148C23.7477 22.1679 23.8482 22.1568 23.8928 21.392L23.9207 20.9063L24.1161 20.8561C24.7134 20.7054 25.0149 20.0299 24.7302 19.4829C24.5962 19.2205 24.3952 19.053 24.1105 18.9637L23.8928 18.9023V18.4446C23.8928 17.6854 23.7421 17.6686 22.7931 18.3329ZM23.3123 21.085C23.2955 21.0961 23.1336 21.0124 22.9438 20.8952L22.6089 20.6775V19.9238V19.1702L22.9606 18.9302L23.3067 18.6902L23.3234 19.8736C23.329 20.5267 23.3234 21.0682 23.3123 21.085ZM21.9949 19.9238V20.4821H21.3808H20.7668V19.9238V19.3656H21.3808H21.9949V19.9238ZM24.144 19.6447C24.2836 19.7955 24.2668 20.0913 24.1105 20.2141C24.0491 20.2699 23.971 20.3146 23.9431 20.3146C23.9152 20.3146 23.8928 20.136 23.8928 19.9238C23.8928 19.4996 23.9542 19.4326 24.144 19.6447Z" fill="#8E94A9" stroke="#8E94A9" stroke-width="0.3"/>
</svg>
