<svg width="16" height="16" viewBox="0 0 16 16" fill="none" xmlns="http://www.w3.org/2000/svg">
<path d="M4.57045 1.09985C4.50295 1.27985 4.51795 2.13485 4.59295 2.24735C4.63045 2.30735 4.72045 2.33735 4.79545 2.32235C4.92295 2.29985 4.93795 2.22485 4.93795 1.66235C4.93795 1.06985 4.93045 1.02485 4.78045 1.00235C4.68295 0.987349 4.60045 1.03235 4.57045 1.09985Z" fill="white" stroke="white" stroke-width="0.3"/>
<path d="M4.61539 2.87864C4.54789 2.94614 4.52539 3.42614 4.52539 4.67114C4.52539 6.44864 4.55539 6.60614 4.85539 6.49364C4.96789 6.44864 4.97539 6.26114 4.96039 4.63364C4.93789 3.08864 4.92289 2.82614 4.82539 2.80364C4.75789 2.79614 4.66789 2.82614 4.61539 2.87864Z" fill="white" stroke="white" stroke-width="0.3"/>
<path d="M10.585 3.125C9.49 3.335 8.6875 3.755 8.32 4.3175L8.125 4.6175V7.6325V10.655L7.705 10.4C7.4725 10.2575 7.1875 10.1225 7.0675 10.1C6.9475 10.07 6.85 10.0325 6.85 10.01C6.85 9.9875 6.955 9.8525 7.075 9.71C7.3825 9.365 7.285 9.2375 6.73 9.2375H6.325V6.32C6.325 4.715 6.3025 3.35 6.28 3.2825C6.22 3.125 5.905 3.125 5.845 3.2825C5.8225 3.35 5.8 4.775 5.8 6.455C5.8 8.7275 5.8225 9.53 5.89 9.5975C5.9425 9.65 6.1 9.6875 6.2425 9.6875H6.505L6.2125 9.995C6.0475 10.16 5.65 10.5425 5.3275 10.835L4.7425 11.36L3.9175 10.5425L3.0925 9.725L3.3775 9.6875L3.6625 9.65V6.425C3.6625 3.3275 3.655 3.2 3.52 3.1775C3.445 3.1625 3.355 3.1925 3.3175 3.2525C3.28 3.305 3.25 4.6775 3.25 6.29V9.2375H2.8C2.23 9.2375 2.1475 9.365 2.4925 9.7175L2.7325 9.965L2.2375 10.1975C1.66 10.475 1.42 10.6475 1.1725 10.9775C1.0075 11.21 1 11.2625 1 12.6875C1 14.3825 1.0225 14.465 1.6975 14.915C3.325 16.01 6.8575 15.905 8.11 14.735L8.35 14.5025L8.59 14.7275C8.9125 15.0275 9.4225 15.275 10.1275 15.4775C10.6225 15.62 10.8925 15.65 11.9125 15.65C13.2925 15.65 13.7575 15.5525 14.65 15.11C15.04 14.9075 15.28 14.7275 15.4525 14.5025L15.7 14.1725V9.35V4.5275L15.46 4.205C15.1525 3.8075 14.5075 3.4475 13.72 3.23C12.94 3.02 11.425 2.9675 10.585 3.125ZM13.4875 3.65C14.56 3.935 15.25 4.4225 15.25 4.8875C15.25 5.33 14.6575 5.795 13.7125 6.0875C12.9775 6.3125 11.5375 6.3725 10.69 6.215C9.5875 6.005 8.7325 5.5025 8.605 5C8.4625 4.43 9.4375 3.8 10.8775 3.5375C11.4025 3.44 12.9625 3.5075 13.4875 3.65ZM8.8825 6.02C10.18 6.9425 13.195 6.995 14.7775 6.125L15.25 5.8625V6.605C15.25 7.2875 15.235 7.37 15.07 7.565C14.1175 8.6975 10.66 8.87 9.1675 7.8725C8.6575 7.5275 8.575 7.3475 8.575 6.545C8.575 6.17 8.5975 5.8625 8.62 5.8625C8.6425 5.8625 8.7625 5.93 8.8825 6.02ZM9.6475 8.63C10.21 8.8325 11.2375 9.0125 11.8825 9.0125C12.9925 9.0125 14.2675 8.7125 14.8825 8.3075C15.04 8.2025 15.19 8.1125 15.2125 8.1125C15.235 8.1125 15.25 8.45 15.25 8.8625V9.605L14.995 9.86C14.4175 10.4375 13.3375 10.7525 11.9125 10.7525C10.4575 10.7525 9.3475 10.415 8.815 9.8C8.5825 9.5375 8.575 9.515 8.575 8.7875V8.045L8.8975 8.255C9.07 8.375 9.4075 8.54 9.6475 8.63ZM9.385 10.7375C10.015 11.0225 10.555 11.1275 11.635 11.165C13.075 11.2175 14.11 11.015 14.905 10.5125L15.25 10.2875V11.0525V11.81L14.9275 12.125C14.2975 12.725 13.015 13.04 11.5525 12.965C10.2925 12.8975 9.3025 12.5675 8.8225 12.0725C8.62 11.8625 8.6125 11.81 8.59 11.06L8.56 10.265L8.815 10.43C8.95 10.52 9.205 10.6625 9.385 10.7375ZM3.925 11.15C4.36 11.585 4.7425 11.9375 4.7875 11.9375C4.825 11.9375 5.215 11.585 5.6575 11.1425L6.445 10.355L6.895 10.52C7.66 10.805 8.125 11.2175 8.125 11.615C8.125 11.8775 7.6525 12.3425 7.15 12.5675C6.49 12.8675 5.8075 12.9875 4.765 12.9875C2.0275 12.9875 0.49 11.7125 2.095 10.7675C2.365 10.61 2.9125 10.3925 3.1 10.37C3.1225 10.3625 3.49 10.715 3.925 11.15ZM2.62 13.13C3.355 13.3775 4.105 13.46 5.125 13.415C6.22 13.37 6.745 13.2425 7.5475 12.845L8.125 12.5525V13.25C8.125 13.8425 8.1025 13.9775 7.9525 14.195C7.5775 14.7575 6.1225 15.2375 4.7875 15.2375C3.5275 15.2375 2.1325 14.81 1.675 14.285C1.4575 14.045 1.45 14.0075 1.45 13.2875V12.545L1.81 12.7625C2.005 12.8825 2.3725 13.0475 2.62 13.13ZM10.1875 13.2575C10.7875 13.415 12.37 13.475 13.0675 13.37C13.765 13.2575 14.44 13.0325 14.8975 12.755L15.25 12.5375V13.2875C15.25 14.015 15.2425 14.0375 15.0175 14.2925C14.755 14.5925 14.23 14.8625 13.525 15.0575C12.85 15.245 11.065 15.2525 10.375 15.065C9.6625 14.8775 8.95 14.495 8.7475 14.195C8.5975 13.9775 8.575 13.8425 8.575 13.25V12.5525L9.16 12.845C9.475 13.01 9.94 13.19 10.1875 13.2575Z" fill="white" stroke="white" stroke-width="0.3"/>
<path d="M4.60716 7.54203C4.54716 7.60953 4.52466 7.93203 4.53966 8.49453L4.56216 9.34953L4.77216 9.37203L4.97466 9.39453V8.46453C4.97466 7.67703 4.95216 7.51953 4.85466 7.48203C4.69716 7.42203 4.70466 7.42203 4.60716 7.54203Z" fill="white" stroke="white" stroke-width="0.3"/>
</svg>
