<svg width="17" height="13" viewBox="0 0 17 13" fill="none" xmlns="http://www.w3.org/2000/svg">
<path d="M14.875 12.25H6.625C6.00475 12.25 5.5 11.7452 5.5 11.125C5.5 11.089 5.50825 10.2325 6.193 9.38875C6.58675 8.90425 7.12375 8.52025 7.789 8.24725C8.59225 7.91725 9.589 7.75075 10.75 7.75075C11.911 7.75075 12.907 7.918 13.711 8.24725C14.3763 8.52025 14.9132 8.90425 15.307 9.38875C15.9925 10.2325 16 11.089 16 11.125C16 11.7452 15.4952 12.25 14.875 12.25ZM6.25 11.1273C6.25059 11.2263 6.29037 11.3211 6.36063 11.391C6.43089 11.4608 6.52593 11.5 6.625 11.5H14.875C14.9741 11.5 15.0691 11.4608 15.1394 11.391C15.2096 11.3211 15.2494 11.2263 15.25 11.1273C15.2493 11.101 15.226 10.456 14.6958 9.82675C13.9653 8.959 12.601 8.50075 10.75 8.50075C8.899 8.50075 7.53475 8.95975 6.80425 9.82675C6.274 10.4567 6.25075 11.101 6.25 11.1273ZM10.75 7C9.0955 7 7.75 5.6545 7.75 4C7.75 2.3455 9.0955 1 10.75 1C12.4045 1 13.75 2.3455 13.75 4C13.75 5.6545 12.4045 7 10.75 7ZM10.75 1.75C9.5095 1.75 8.5 2.7595 8.5 4C8.5 5.2405 9.5095 6.25 10.75 6.25C11.9905 6.25 13 5.2405 13 4C13 2.7595 11.9905 1.75 10.75 1.75ZM4.375 12.25H2.125C1.50475 12.25 1 11.7452 1 11.125C1 11.0972 1.006 10.4298 1.49725 9.775C1.78075 9.39625 2.16775 9.097 2.647 8.884C3.22 8.629 3.928 8.5 4.75075 8.5C4.885 8.5 5.01775 8.50375 5.146 8.5105C5.24536 8.51577 5.33855 8.5603 5.40508 8.63428C5.47161 8.70826 5.50602 8.80564 5.50075 8.905C5.49548 9.00436 5.45095 9.09755 5.37697 9.16408C5.30299 9.23061 5.20561 9.26502 5.10625 9.25975C4.9881 9.25368 4.86981 9.25068 4.7515 9.25075C1.831 9.25075 1.75375 11.035 1.7515 11.128C1.75209 11.2271 1.79187 11.3219 1.86213 11.3917C1.93239 11.4616 2.02743 11.5008 2.1265 11.5007H4.3765C4.47596 11.5007 4.57134 11.5403 4.64167 11.6106C4.71199 11.6809 4.7515 11.7763 4.7515 11.8757C4.7515 11.9752 4.71199 12.0706 4.64167 12.1409C4.57134 12.2112 4.47596 12.2507 4.3765 12.2507L4.375 12.25ZM4.75 7.75C3.5095 7.75 2.5 6.7405 2.5 5.5C2.5 4.2595 3.5095 3.25 4.75 3.25C5.9905 3.25 7 4.2595 7 5.5C7 6.7405 5.9905 7.75 4.75 7.75ZM4.75 4C3.92275 4 3.25 4.67275 3.25 5.5C3.25 6.32725 3.92275 7 4.75 7C5.57725 7 6.25 6.32725 6.25 5.5C6.25 4.67275 5.57725 4 4.75 4Z" fill="white" stroke="white" stroke-width="0.5"/>
</svg>
