<svg width="18" height="18" viewBox="0 0 18 18" fill="none" xmlns="http://www.w3.org/2000/svg">
<path fill-rule="evenodd" clip-rule="evenodd" d="M15.75 9.75H6.75V8.25H15.75V9.75Z" fill="#001737"/>
<path fill-rule="evenodd" clip-rule="evenodd" d="M13.6553 5.84473L16.2803 8.46972C16.5732 8.76259 16.5732 9.23749 16.2803 9.53037L13.6553 12.1554L12.5947 11.0947L14.6893 9.00004L12.5947 6.90538L13.6553 5.84473Z" fill="#001737"/>
<path fill-rule="evenodd" clip-rule="evenodd" d="M12 3C12 2.58579 11.6642 2.25 11.25 2.25H2.25C1.83578 2.25 1.5 2.58579 1.5 3V15C1.5 15.4142 1.83578 15.75 2.25 15.75H11.25C11.6642 15.75 12 15.4142 12 15V12.75H10.5V14.25H3V3.75H10.5V5.25H12V3Z" fill="#001737"/>
</svg>
