<svg width="22" height="18" viewBox="0 0 22 18" fill="none" xmlns="http://www.w3.org/2000/svg">
<path d="M2.1901 1.1901C1.7601 1.3301 1.4301 1.6001 1.2601 1.9501C1.1201 2.2401 1.1001 3.0701 1.1001 9.0201C1.1001 15.4001 1.1101 15.7701 1.2901 16.1001C1.3901 16.2901 1.6301 16.5401 1.8101 16.6501C2.1401 16.8501 2.3301 16.8501 11.0001 16.8501H19.8501L20.2101 16.6201C20.9301 16.1801 20.9001 16.4901 20.9001 8.9801C20.9001 2.6001 20.8901 2.2301 20.7101 1.9001C20.6101 1.7101 20.3701 1.4601 20.1901 1.3501C19.8601 1.1501 19.6501 1.1501 11.1501 1.1301C6.3701 1.1201 2.3301 1.1501 2.1901 1.1901ZM19.9101 2.1901C20.0901 2.4101 20.1001 2.6701 20.1001 8.9901C20.1001 14.7701 20.0801 15.5801 19.9401 15.7801L19.7901 16.0001H11.0001H2.2101L2.0601 15.7801C1.9201 15.5801 1.9001 14.7701 1.9001 9.0201C1.9001 4.5901 1.9301 2.4201 2.0101 2.2901C2.0701 2.1801 2.2101 2.0501 2.3301 2.0001C2.4501 1.9501 6.3101 1.9201 11.1301 1.9301L19.7201 1.9501L19.9101 2.1901Z" fill="#00072E" stroke="#00072E" stroke-width="0.5"/>
<path d="M9.94996 4.31995C7.79996 4.59995 6.19996 6.76995 6.56996 8.91995C7.02996 11.62 9.90996 13.11 12.34 11.91C13.92 11.14 14.82 9.36995 14.53 7.64995C14.15 5.44995 12.2 4.03995 9.94996 4.31995ZM12.09 5.44995C12.69 5.77995 13.19 6.30995 13.51 6.98995C13.84 7.64995 13.84 8.94995 13.51 9.60995C13.19 10.29 12.69 10.82 12.09 11.15C11.66 11.38 11.4 11.45 10.75 11.48C9.34996 11.55 8.34996 11 7.68996 9.77995C7.18996 8.84995 7.18996 7.74995 7.68996 6.81995C8.34996 5.59995 9.27996 5.07995 10.7 5.12995C11.42 5.14995 11.63 5.20995 12.09 5.44995Z" fill="#00072E"/>
<path d="M9.53029 6.1502C9.31029 6.31019 9.30029 6.3602 9.30029 8.0902C9.30029 9.6902 9.32029 9.8902 9.48029 10.0302C9.58029 10.1302 9.76029 10.2002 9.87029 10.2002C10.1503 10.2002 12.8903 8.6102 13.0103 8.3802C13.2403 7.9502 13.0303 7.7302 11.5603 6.8802C10.7903 6.4302 10.0603 6.0502 9.95029 6.0302C9.84029 6.01019 9.65029 6.06019 9.53029 6.1502ZM11.6203 7.8402C11.8303 7.9602 12.0003 8.0802 12.0003 8.1102C12.0003 8.1502 10.4503 9.0702 10.1803 9.1802C10.1403 9.2002 10.1003 8.7102 10.1003 8.1002V6.9802L10.6803 7.3102C10.9903 7.4902 11.4203 7.7302 11.6203 7.8402Z" fill="#00072E"/>
<path d="M3.6626 13.0899C3.63135 13.1999 3.6001 13.6499 3.6001 14.0899C3.6001 14.7899 3.61885 14.9099 3.7376 15.0399C3.83135 15.1499 3.9001 15.1599 3.9876 15.0899C4.08135 15.0099 4.1001 14.8599 4.1001 14.0699C4.1001 13.4799 4.0751 13.0999 4.0251 13.0199C3.9126 12.8399 3.7376 12.8799 3.6626 13.0899Z" fill="#00072E" stroke="#00072E" stroke-width="0.5"/>
<path d="M5.075 13.1141C5.025 13.1941 5 13.5741 5 14.1641C5 14.9541 5.01875 15.1041 5.1125 15.1841C5.2 15.2541 5.26875 15.2441 5.3625 15.1341C5.48125 15.0041 5.5 14.8841 5.5 14.1841C5.5 13.7441 5.46875 13.2941 5.4375 13.1841C5.3625 12.9741 5.1875 12.9341 5.075 13.1141Z" fill="#00072E" stroke="#00072E" stroke-width="0.5"/>
<path d="M8.91786 13.0703C8.80112 13.1703 8.65102 13.3203 8.58432 13.4203C8.48425 13.5603 8.30915 13.6003 7.8005 13.6203C7.28351 13.6403 7.12508 13.6903 7.05003 13.8203C6.98332 13.9503 6.98332 14.0503 7.05003 14.1703C7.12508 14.3103 7.28351 14.3603 7.8005 14.3803C8.40921 14.4103 8.46758 14.4303 8.6677 14.7103C9.05961 15.2603 9.71835 15.2603 10.1186 14.7003L10.3271 14.4003H14.5797C18.6989 14.4003 18.8407 14.3903 18.9241 14.2103C19.0325 13.9603 19.0325 13.9403 18.874 13.7603C18.7573 13.6203 18.2486 13.6003 14.5047 13.6003C10.3521 13.6003 10.252 13.6003 10.1686 13.4003C9.96017 12.9403 9.28475 12.7603 8.91786 13.0703ZM9.5766 13.8403C9.71002 14.0403 9.60162 14.3003 9.37648 14.3003C9.15134 14.3003 9.07629 14.1303 9.18469 13.8703C9.26807 13.6703 9.44318 13.6503 9.5766 13.8403Z" fill="#00072E"/>
</svg>
