<svg width="18" height="13" viewBox="0 0 18 13" fill="none" xmlns="http://www.w3.org/2000/svg">
<path d="M17.9835 0H0V11.989H17.9835V0Z" fill="#F5F5F5"/>
<path d="M18 0H0V1H18V0Z" fill="#FF4B55"/>
<path d="M18 3.68896H0V4.68897H18V3.68896Z" fill="#FF4B55"/>
<path d="M18 1.84448H0V2.84448H18V1.84448Z" fill="#FF4B55"/>
<path d="M18 5.5332H0V6.5332H18V5.5332Z" fill="#FF4B55"/>
<path d="M18 9.22217H0V10.2222H18V9.22217Z" fill="#FF4B55"/>
<path d="M18 11.0667H0V12.0667H18V11.0667Z" fill="#FF4B55"/>
<path d="M18 7.37769H0V8.37769H18V7.37769Z" fill="#FF4B55"/>
<path d="M9.68344 0H0V6.45563H9.68344V0Z" fill="#41479B"/>
<path d="M1.23817 0.482258L1.31277 0.631414L1.5486 0.632633C1.57911 0.632797 1.59181 0.658766 1.56723 0.670859L1.37753 0.764258L1.44865 0.914164C1.45786 0.93357 1.42474 0.949625 1.39985 0.937789L1.20797 0.846359L1.01609 0.937789C0.991266 0.949648 0.958114 0.93357 0.96729 0.914164L1.03841 0.764258L0.848708 0.670859C0.824169 0.658766 0.83679 0.632797 0.867341 0.632633L1.10317 0.631414L1.17777 0.482258C1.18754 0.462945 1.22854 0.462945 1.23817 0.482258Z" fill="#F5F5F5"/>
<path d="M1.23817 1.72642L1.31277 1.87557L1.5486 1.87679C1.57911 1.87696 1.59181 1.90292 1.56723 1.91502L1.37753 2.00842L1.44865 2.15832C1.45786 2.17773 1.42474 2.19378 1.39985 2.18195L1.20797 2.09052L1.01609 2.18195C0.991266 2.19381 0.958114 2.17773 0.96729 2.15832L1.03841 2.00842L0.848708 1.91502C0.824169 1.90292 0.83679 1.87696 0.867341 1.87679L1.10317 1.87557L1.17777 1.72642C1.18754 1.70708 1.22854 1.70708 1.23817 1.72642Z" fill="#F5F5F5"/>
<path d="M1.23817 3.10653L1.31277 3.25568L1.5486 3.2569C1.57911 3.25706 1.59181 3.28303 1.56723 3.29515L1.37753 3.38855L1.44865 3.53846C1.45786 3.55786 1.42474 3.57392 1.39985 3.56208L1.20797 3.47065L1.01609 3.56208C0.991266 3.57394 0.958114 3.55786 0.96729 3.53846L1.03841 3.38855L0.848708 3.29515C0.824169 3.28306 0.83679 3.25706 0.867341 3.2569L1.10317 3.25568L1.17777 3.10653C1.18754 3.08721 1.22854 3.08721 1.23817 3.10653Z" fill="#F5F5F5"/>
<path d="M1.23817 4.37435L1.31277 4.5235L1.5486 4.52472C1.57911 4.52489 1.59181 4.55086 1.56723 4.56295L1.37753 4.65635L1.44865 4.80625C1.45786 4.82566 1.42474 4.84171 1.39985 4.82988L1.20797 4.73845L1.01609 4.82988C0.991266 4.84174 0.958114 4.82566 0.96729 4.80625L1.03841 4.65635L0.848708 4.56295C0.824169 4.55086 0.83679 4.52489 0.867341 4.52472L1.10317 4.5235L1.17777 4.37435C1.18754 4.35504 1.22854 4.35504 1.23817 4.37435Z" fill="#F5F5F5"/>
<path d="M1.23817 5.52816L1.31277 5.67731L1.5486 5.67853C1.57911 5.6787 1.59181 5.70466 1.56723 5.71676L1.37753 5.81016L1.44865 5.96006C1.45786 5.97947 1.42474 5.99552 1.39985 5.98369L1.20797 5.89226L1.01609 5.98369C0.991266 5.99555 0.958114 5.97947 0.96729 5.96006L1.03841 5.81016L0.848708 5.71676C0.824169 5.70466 0.83679 5.67867 0.867341 5.67853L1.10317 5.67731L1.17777 5.52816C1.18754 5.50884 1.22854 5.50884 1.23817 5.52816Z" fill="#F5F5F5"/>
<path d="M2.14655 1.07137L2.22116 1.22053L2.45698 1.22174C2.4875 1.22191 2.50019 1.24788 2.47562 1.25997L2.28591 1.35337L2.35704 1.50328C2.36625 1.52268 2.33313 1.53874 2.30824 1.5269L2.11636 1.43547L1.92447 1.5269C1.89965 1.53876 1.8665 1.52268 1.87568 1.50328L1.9468 1.35337L1.75709 1.25997C1.73256 1.24788 1.74518 1.22191 1.77573 1.22174L2.01155 1.22053L2.08616 1.07137C2.09593 1.05206 2.13692 1.05206 2.14655 1.07137Z" fill="#F5F5F5"/>
<path d="M2.14655 2.4515L2.22116 2.60065L2.45698 2.60187C2.4875 2.60204 2.50019 2.628 2.47562 2.6401L2.28591 2.7335L2.35704 2.8834C2.36625 2.90281 2.33313 2.91886 2.30824 2.90703L2.11636 2.8156L1.92447 2.90703C1.89965 2.91889 1.8665 2.90281 1.87568 2.8834L1.9468 2.7335L1.75709 2.6401C1.73256 2.628 1.74518 2.60204 1.77573 2.60187L2.01155 2.60065L2.08616 2.4515C2.09593 2.43218 2.13692 2.43218 2.14655 2.4515Z" fill="#F5F5F5"/>
<path d="M2.14655 3.76251L2.22116 3.91167L2.45698 3.91289C2.4875 3.91305 2.50019 3.93902 2.47562 3.95112L2.28591 4.04451L2.35704 4.19442C2.36625 4.21383 2.33313 4.22988 2.30824 4.21805L2.11636 4.12662L1.92447 4.21805C1.89965 4.2299 1.8665 4.21383 1.87568 4.19442L1.9468 4.04451L1.75709 3.95112C1.73256 3.93902 1.74518 3.91305 1.77573 3.91289L2.01155 3.91167L2.08616 3.76251C2.09593 3.74322 2.13692 3.74322 2.14655 3.76251Z" fill="#F5F5F5"/>
<path d="M2.14655 4.93979L2.22116 5.08895L2.45698 5.09017C2.4875 5.09033 2.50019 5.1163 2.47562 5.1284L2.28591 5.22179L2.35704 5.3717C2.36625 5.39111 2.33313 5.40716 2.30824 5.39533L2.11636 5.3039L1.92447 5.39533C1.89965 5.40719 1.8665 5.39111 1.87568 5.3717L1.9468 5.22179L1.75709 5.1284C1.73256 5.1163 1.74518 5.09033 1.77573 5.09017L2.01155 5.08895L2.08616 4.93979C2.09593 4.92046 2.13692 4.92046 2.14655 4.93979Z" fill="#F5F5F5"/>
<path d="M3.055 0.482258L3.1296 0.631414L3.36543 0.632633C3.39595 0.632797 3.40864 0.658766 3.38406 0.670859L3.19436 0.764258L3.26548 0.914164C3.27469 0.93357 3.24158 0.949625 3.21669 0.937789L3.0248 0.846359L2.83292 0.937789C2.8081 0.949648 2.77495 0.93357 2.78412 0.914164L2.85524 0.764258L2.66554 0.670859C2.641 0.658766 2.65362 0.632797 2.68417 0.632633L2.92 0.631414L2.9946 0.482258C3.00438 0.462945 3.04533 0.462945 3.055 0.482258Z" fill="#F5F5F5"/>
<path d="M3.055 1.72642L3.1296 1.87557L3.36543 1.87679C3.39595 1.87696 3.40864 1.90292 3.38406 1.91502L3.19436 2.00842L3.26548 2.15832C3.27469 2.17773 3.24158 2.19378 3.21669 2.18195L3.0248 2.09052L2.83292 2.18195C2.8081 2.19381 2.77495 2.17773 2.78412 2.15832L2.85524 2.00842L2.66554 1.91502C2.641 1.90292 2.65362 1.87696 2.68417 1.87679L2.92 1.87557L2.9946 1.72642C3.00438 1.70708 3.04533 1.70708 3.055 1.72642Z" fill="#F5F5F5"/>
<path d="M3.055 3.10653L3.1296 3.25568L3.36543 3.2569C3.39595 3.25706 3.40864 3.28303 3.38406 3.29515L3.19436 3.38855L3.26548 3.53846C3.27469 3.55786 3.24158 3.57392 3.21669 3.56208L3.0248 3.47065L2.83292 3.56208C2.8081 3.57394 2.77495 3.55786 2.78412 3.53846L2.85524 3.38855L2.66554 3.29515C2.641 3.28306 2.65362 3.25706 2.68417 3.2569L2.92 3.25568L2.9946 3.10653C3.00438 3.08721 3.04533 3.08721 3.055 3.10653Z" fill="#F5F5F5"/>
<path d="M3.05499 4.37435L3.12959 4.52351L3.36542 4.52473C3.39594 4.52489 3.40863 4.55086 3.38406 4.56295L3.19435 4.65635L3.26547 4.80626C3.27468 4.82566 3.24157 4.84172 3.21668 4.82988L3.02486 4.73843L2.83298 4.82986C2.80816 4.84172 2.77501 4.82564 2.78418 4.80623L2.85531 4.65633L2.6656 4.56293C2.64106 4.55083 2.65368 4.52487 2.68424 4.5247L2.92006 4.52348L2.99466 4.37433C3.00437 4.35504 3.04532 4.35504 3.05499 4.37435Z" fill="#F5F5F5"/>
<path d="M3.055 5.52816L3.1296 5.67731L3.36543 5.67853C3.39595 5.6787 3.40864 5.70466 3.38406 5.71676L3.19436 5.81016L3.26548 5.96006C3.27469 5.97947 3.24158 5.99552 3.21669 5.98369L3.0248 5.89226L2.83292 5.98369C2.8081 5.99555 2.77495 5.97947 2.78412 5.96006L2.85524 5.81016L2.66554 5.71676C2.641 5.70466 2.65362 5.67867 2.68417 5.67853L2.92 5.67731L2.9946 5.52816C3.00438 5.50884 3.04533 5.50884 3.055 5.52816Z" fill="#F5F5F5"/>
<path d="M3.96339 1.07137L4.03799 1.22053L4.27382 1.22174C4.30433 1.22191 4.31703 1.24788 4.29245 1.25997L4.10275 1.35337L4.17387 1.50328C4.18308 1.52268 4.14996 1.53874 4.12507 1.5269L3.93319 1.43547L3.74131 1.5269C3.71649 1.53876 3.68333 1.52268 3.69251 1.50328L3.76363 1.35337L3.57393 1.25997C3.54939 1.24788 3.56201 1.22191 3.59256 1.22174L3.82849 1.22053L3.9031 1.07137C3.91276 1.05206 3.95372 1.05206 3.96339 1.07137Z" fill="#F5F5F5"/>
<path d="M3.96339 2.4515L4.03799 2.60065L4.27382 2.60187C4.30433 2.60204 4.31703 2.628 4.29245 2.6401L4.10275 2.7335L4.17387 2.8834C4.18308 2.90281 4.14996 2.91886 4.12507 2.90703L3.93319 2.8156L3.74131 2.90703C3.71649 2.91889 3.68333 2.90281 3.69251 2.8834L3.76363 2.7335L3.57393 2.6401C3.54939 2.628 3.56201 2.60204 3.59256 2.60187L3.82839 2.60065L3.90299 2.4515C3.91276 2.43218 3.95372 2.43218 3.96339 2.4515Z" fill="#F5F5F5"/>
<path d="M3.96339 3.76251L4.03799 3.91167L4.27382 3.91289C4.30433 3.91305 4.31703 3.93902 4.29245 3.95112L4.10275 4.04451L4.17387 4.19442C4.18308 4.21383 4.14996 4.22988 4.12507 4.21805L3.93319 4.12662L3.74131 4.21805C3.71649 4.2299 3.68333 4.21383 3.69251 4.19442L3.76363 4.04451L3.57393 3.95112C3.54939 3.93902 3.56201 3.91305 3.59256 3.91289L3.82839 3.91167L3.90299 3.76251C3.91276 3.74322 3.95372 3.74322 3.96339 3.76251Z" fill="#F5F5F5"/>
<path d="M3.96339 4.93979L4.03799 5.08895L4.27382 5.09017C4.30433 5.09033 4.31703 5.1163 4.29245 5.1284L4.10275 5.22179L4.17387 5.3717C4.18308 5.39111 4.14996 5.40716 4.12507 5.39533L3.93319 5.3039L3.74131 5.39533C3.71649 5.40719 3.68333 5.39111 3.69251 5.3717L3.76363 5.22179L3.57393 5.1284C3.54939 5.1163 3.56201 5.09033 3.59256 5.09017L3.82839 5.08895L3.90299 4.93979C3.91276 4.92046 3.95372 4.92046 3.96339 4.93979Z" fill="#F5F5F5"/>
<path d="M4.87184 0.482258L4.94644 0.631414L5.18227 0.632633C5.21278 0.632797 5.22547 0.658766 5.2009 0.670859L5.0112 0.764258L5.08232 0.914164C5.09153 0.93357 5.05841 0.949625 5.03352 0.937789L4.84164 0.846359L4.64975 0.937789C4.62493 0.949648 4.59178 0.93357 4.60096 0.914164L4.67208 0.764258L4.48237 0.670859C4.45784 0.658766 4.47046 0.632797 4.50101 0.632633L4.73684 0.631414L4.81144 0.482258C4.82121 0.462945 4.86217 0.462945 4.87184 0.482258Z" fill="#F5F5F5"/>
<path d="M4.87184 1.72642L4.94644 1.87557L5.18227 1.87679C5.21278 1.87696 5.22547 1.90292 5.2009 1.91502L5.0112 2.00842L5.08232 2.15832C5.09153 2.17773 5.05841 2.19378 5.03352 2.18195L4.84164 2.09052L4.64975 2.18195C4.62493 2.19381 4.59178 2.17773 4.60096 2.15832L4.67208 2.00842L4.48237 1.91502C4.45784 1.90292 4.47046 1.87696 4.50101 1.87679L4.73684 1.87557L4.81144 1.72642C4.82121 1.70708 4.86217 1.70708 4.87184 1.72642Z" fill="#F5F5F5"/>
<path d="M4.87184 3.10653L4.94644 3.25568L5.18227 3.2569C5.21278 3.25706 5.22547 3.28303 5.2009 3.29515L5.0112 3.38855L5.08232 3.53846C5.09153 3.55786 5.05841 3.57392 5.03352 3.56208L4.84164 3.47065L4.64975 3.56208C4.62493 3.57394 4.59178 3.55786 4.60096 3.53846L4.67208 3.38855L4.48237 3.29515C4.45784 3.28306 4.47046 3.25706 4.50101 3.2569L4.73684 3.25568L4.81144 3.10653C4.82121 3.08721 4.86217 3.08721 4.87184 3.10653Z" fill="#F5F5F5"/>
<path d="M4.87184 4.37435L4.94644 4.5235L5.18227 4.52472C5.21278 4.52489 5.22547 4.55086 5.2009 4.56295L5.0112 4.65635L5.08232 4.80625C5.09153 4.82566 5.05841 4.84171 5.03352 4.82988L4.84164 4.73845L4.64975 4.82988C4.62493 4.84174 4.59178 4.82566 4.60096 4.80625L4.67208 4.65635L4.48237 4.56295C4.45784 4.55086 4.47046 4.52489 4.50101 4.52472L4.73684 4.5235L4.81144 4.37435C4.82121 4.35504 4.86217 4.35504 4.87184 4.37435Z" fill="#F5F5F5"/>
<path d="M4.87184 5.52816L4.94644 5.67731L5.18227 5.67853C5.21278 5.6787 5.22547 5.70466 5.2009 5.71676L5.0112 5.81016L5.08232 5.96006C5.09153 5.97947 5.05841 5.99552 5.03352 5.98369L4.84164 5.89226L4.64975 5.98369C4.62493 5.99555 4.59178 5.97947 4.60096 5.96006L4.67208 5.81016L4.48237 5.71676C4.45784 5.70466 4.47046 5.67867 4.50101 5.67853L4.73684 5.67731L4.81144 5.52816C4.82121 5.50884 4.86217 5.50884 4.87184 5.52816Z" fill="#F5F5F5"/>
<path d="M5.78022 1.07137L5.85483 1.22053L6.09065 1.22174C6.12117 1.22191 6.13386 1.24788 6.10929 1.25997L5.91958 1.35337L5.9907 1.50328C5.99992 1.52268 5.9668 1.53874 5.94191 1.5269L5.75002 1.43547L5.55814 1.5269C5.53332 1.53876 5.50017 1.52268 5.50935 1.50328L5.58047 1.35337L5.39076 1.25997C5.36622 1.24788 5.37884 1.22191 5.40936 1.22174L5.64519 1.22053L5.71979 1.07137C5.7296 1.05206 5.77056 1.05206 5.78022 1.07137Z" fill="#F5F5F5"/>
<path d="M5.78022 2.4515L5.85483 2.60065L6.09065 2.60187C6.12117 2.60204 6.13386 2.628 6.10929 2.6401L5.91958 2.7335L5.9907 2.8834C5.99992 2.90281 5.9668 2.91886 5.94191 2.90703L5.75002 2.8156L5.55814 2.90703C5.53332 2.91889 5.50017 2.90281 5.50935 2.8834L5.58047 2.7335L5.39076 2.6401C5.36622 2.628 5.37884 2.60204 5.40936 2.60187L5.64519 2.60065L5.71979 2.4515C5.7296 2.43218 5.77056 2.43218 5.78022 2.4515Z" fill="#F5F5F5"/>
<path d="M5.78022 3.76251L5.85483 3.91167L6.09065 3.91289C6.12117 3.91305 6.13386 3.93902 6.10929 3.95112L5.91958 4.04451L5.9907 4.19442C5.99992 4.21383 5.9668 4.22988 5.94191 4.21805L5.75002 4.12662L5.55814 4.21805C5.53332 4.2299 5.50017 4.21383 5.50935 4.19442L5.58047 4.04451L5.39076 3.95112C5.36622 3.93902 5.37884 3.91305 5.40936 3.91289L5.64519 3.91167L5.71979 3.76251C5.7296 3.74322 5.77056 3.74322 5.78022 3.76251Z" fill="#F5F5F5"/>
<path d="M5.78022 4.93979L5.85483 5.08895L6.09065 5.09017C6.12117 5.09033 6.13386 5.1163 6.10929 5.1284L5.91958 5.22179L5.9907 5.3717C5.99992 5.39111 5.9668 5.40716 5.94191 5.39533L5.75002 5.3039L5.55814 5.39533C5.53332 5.40719 5.50017 5.39111 5.50935 5.3717L5.58047 5.22179L5.39076 5.1284C5.36622 5.1163 5.37884 5.09033 5.40936 5.09017L5.64519 5.08895L5.71979 4.93979C5.7296 4.92046 5.77056 4.92046 5.78022 4.93979Z" fill="#F5F5F5"/>
<path d="M6.68861 0.482258L6.76321 0.631414L6.99904 0.632633C7.02955 0.632797 7.04224 0.658766 7.01767 0.670859L6.82797 0.764258L6.89909 0.914164C6.9083 0.93357 6.87518 0.949625 6.85029 0.937789L6.65841 0.846359L6.46653 0.937789C6.44171 0.949648 6.40855 0.93357 6.41773 0.914164L6.48885 0.764258L6.29915 0.670859C6.27461 0.658766 6.28723 0.632797 6.31778 0.632633L6.55361 0.631414L6.62821 0.482258C6.63798 0.462945 6.67894 0.462945 6.68861 0.482258Z" fill="#F5F5F5"/>
<path d="M6.68861 1.72642L6.76321 1.87557L6.99904 1.87679C7.02955 1.87696 7.04224 1.90292 7.01767 1.91502L6.82797 2.00842L6.89909 2.15832C6.9083 2.17773 6.87518 2.19378 6.85029 2.18195L6.65841 2.09052L6.46653 2.18195C6.44171 2.19381 6.40855 2.17773 6.41773 2.15832L6.48885 2.00842L6.29915 1.91502C6.27461 1.90292 6.28723 1.87696 6.31778 1.87679L6.55361 1.87557L6.62821 1.72642C6.63798 1.70708 6.67894 1.70708 6.68861 1.72642Z" fill="#F5F5F5"/>
<path d="M6.68861 3.10653L6.76321 3.25568L6.99904 3.2569C7.02955 3.25706 7.04224 3.28303 7.01767 3.29515L6.82797 3.38855L6.89909 3.53846C6.9083 3.55786 6.87518 3.57392 6.85029 3.56208L6.65841 3.47065L6.46653 3.56208C6.44171 3.57394 6.40855 3.55786 6.41773 3.53846L6.48885 3.38855L6.29915 3.29515C6.27461 3.28306 6.28723 3.25706 6.31778 3.2569L6.55361 3.25568L6.62821 3.10653C6.63798 3.08721 6.67894 3.08721 6.68861 3.10653Z" fill="#F5F5F5"/>
<path d="M6.68861 4.37435L6.76321 4.5235L6.99904 4.52472C7.02955 4.52489 7.04224 4.55086 7.01767 4.56295L6.82797 4.65635L6.89909 4.80625C6.9083 4.82566 6.87518 4.84171 6.85029 4.82988L6.65841 4.73845L6.46653 4.82988C6.44171 4.84174 6.40855 4.82566 6.41773 4.80625L6.48885 4.65635L6.29915 4.56295C6.27461 4.55086 6.28723 4.52489 6.31778 4.52472L6.55361 4.5235L6.62821 4.37435C6.63798 4.35504 6.67894 4.35504 6.68861 4.37435Z" fill="#F5F5F5"/>
<path d="M6.68861 5.52816L6.76321 5.67731L6.99904 5.67853C7.02955 5.6787 7.04224 5.70466 7.01767 5.71676L6.82797 5.81016L6.89909 5.96006C6.9083 5.97947 6.87518 5.99552 6.85029 5.98369L6.65841 5.89226L6.46653 5.98369C6.44171 5.99555 6.40855 5.97947 6.41773 5.96006L6.48885 5.81016L6.29915 5.71676C6.27461 5.70466 6.28723 5.67867 6.31778 5.67853L6.55361 5.67731L6.62821 5.52816C6.63798 5.50884 6.67894 5.50884 6.68861 5.52816Z" fill="#F5F5F5"/>
<path d="M7.59706 1.07137L7.67166 1.22053L7.90749 1.22174C7.938 1.22191 7.95069 1.24788 7.92612 1.25997L7.73641 1.35337L7.80754 1.50328C7.81675 1.52268 7.78363 1.53874 7.75874 1.5269L7.56686 1.43547L7.37497 1.5269C7.35015 1.53876 7.317 1.52268 7.32618 1.50328L7.3973 1.35337L7.20759 1.25997C7.18306 1.24788 7.19568 1.22191 7.22623 1.22174L7.46206 1.22053L7.53666 1.07137C7.5464 1.05206 7.58739 1.05206 7.59706 1.07137Z" fill="#F5F5F5"/>
<path d="M7.59706 2.4515L7.67166 2.60065L7.90749 2.60187C7.938 2.60204 7.95069 2.628 7.92612 2.6401L7.73641 2.7335L7.80754 2.8834C7.81675 2.90281 7.78363 2.91886 7.75874 2.90703L7.56686 2.8156L7.37497 2.90703C7.35015 2.91889 7.317 2.90281 7.32618 2.8834L7.3973 2.7335L7.20759 2.6401C7.18306 2.628 7.19568 2.60204 7.22623 2.60187L7.46206 2.60065L7.53666 2.4515C7.5464 2.43218 7.58739 2.43218 7.59706 2.4515Z" fill="#F5F5F5"/>
<path d="M7.59706 3.76251L7.67166 3.91167L7.90749 3.91289C7.938 3.91305 7.95069 3.93902 7.92612 3.95112L7.73641 4.04451L7.80754 4.19442C7.81675 4.21383 7.78363 4.22988 7.75874 4.21805L7.56686 4.12662L7.37497 4.21805C7.35015 4.2299 7.317 4.21383 7.32618 4.19442L7.3973 4.04451L7.20759 3.95112C7.18306 3.93902 7.19568 3.91305 7.22623 3.91289L7.46206 3.91167L7.53666 3.76251C7.5464 3.74322 7.58739 3.74322 7.59706 3.76251Z" fill="#F5F5F5"/>
<path d="M7.59706 4.93979L7.67166 5.08895L7.90749 5.09017C7.938 5.09033 7.95069 5.1163 7.92612 5.1284L7.73641 5.22179L7.80754 5.3717C7.81675 5.39111 7.78363 5.40716 7.75874 5.39533L7.56686 5.3039L7.37497 5.39533C7.35015 5.40719 7.317 5.39111 7.32618 5.3717L7.3973 5.22179L7.20759 5.1284C7.18306 5.1163 7.19568 5.09033 7.22623 5.09017L7.46206 5.08895L7.53666 4.93979C7.5464 4.92046 7.58739 4.92046 7.59706 4.93979Z" fill="#F5F5F5"/>
<path d="M8.50544 0.482258L8.58004 0.631414L8.81587 0.632633C8.84639 0.632797 8.85908 0.658766 8.8345 0.670859L8.6448 0.764258L8.71592 0.914164C8.72513 0.93357 8.69202 0.949625 8.66713 0.937789L8.47524 0.846359L8.28336 0.937789C8.25854 0.949648 8.22539 0.93357 8.23456 0.914164L8.30568 0.764258L8.11598 0.670859C8.09144 0.658766 8.10406 0.632797 8.13461 0.632633L8.37044 0.631414L8.44504 0.482258C8.45478 0.462945 8.49577 0.462945 8.50544 0.482258Z" fill="#F5F5F5"/>
<path d="M8.50544 1.72642L8.58004 1.87557L8.81587 1.87679C8.84639 1.87696 8.85908 1.90292 8.8345 1.91502L8.6448 2.00842L8.71592 2.15832C8.72513 2.17773 8.69202 2.19378 8.66713 2.18195L8.47524 2.09052L8.28336 2.18195C8.25854 2.19381 8.22539 2.17773 8.23456 2.15832L8.30568 2.00842L8.11598 1.91502C8.09144 1.90292 8.10406 1.87696 8.13461 1.87679L8.37044 1.87557L8.44504 1.72642C8.45478 1.70708 8.49577 1.70708 8.50544 1.72642Z" fill="#F5F5F5"/>
<path d="M8.50544 3.10653L8.58004 3.25568L8.81587 3.2569C8.84639 3.25706 8.85908 3.28303 8.8345 3.29515L8.6448 3.38855L8.71592 3.53846C8.72513 3.55786 8.69202 3.57392 8.66713 3.56208L8.47524 3.47065L8.28336 3.56208C8.25854 3.57394 8.22539 3.55786 8.23456 3.53846L8.30568 3.38855L8.11598 3.29515C8.09144 3.28306 8.10406 3.25706 8.13461 3.2569L8.37044 3.25568L8.44504 3.10653C8.45478 3.08721 8.49577 3.08721 8.50544 3.10653Z" fill="#F5F5F5"/>
<path d="M8.50544 4.37435L8.58004 4.5235L8.81587 4.52472C8.84639 4.52489 8.85908 4.55086 8.8345 4.56295L8.6448 4.65635L8.71592 4.80625C8.72513 4.82566 8.69202 4.84171 8.66713 4.82988L8.47524 4.73845L8.28336 4.82988C8.25854 4.84174 8.22539 4.82566 8.23456 4.80625L8.30568 4.65635L8.11598 4.56295C8.09144 4.55086 8.10406 4.52489 8.13461 4.52472L8.37044 4.5235L8.44504 4.37435C8.45478 4.35504 8.49577 4.35504 8.50544 4.37435Z" fill="#F5F5F5"/>
<path d="M8.50544 5.52816L8.58004 5.67731L8.81587 5.67853C8.84639 5.6787 8.85908 5.70466 8.8345 5.71676L8.6448 5.81016L8.71592 5.96006C8.72513 5.97947 8.69202 5.99552 8.66713 5.98369L8.47524 5.89226L8.28336 5.98369C8.25854 5.99555 8.22539 5.97947 8.23456 5.96006L8.30568 5.81016L8.11598 5.71676C8.09144 5.70466 8.10406 5.67867 8.13461 5.67853L8.37044 5.67731L8.44504 5.52816C8.45478 5.50884 8.49577 5.50884 8.50544 5.52816Z" fill="#F5F5F5"/>
</svg>
