<svg width="18" height="15" viewBox="0 0 18 15" fill="none" xmlns="http://www.w3.org/2000/svg">
<path d="M2.32143 1.3811H11.97C11.755 1.70253 11.5964 2.06396 11.5086 2.45253H2.32143C2.00772 2.45254 1.70549 2.57051 1.47472 2.78302C1.24395 2.99552 1.10153 3.28703 1.07571 3.59967L1.07143 3.70253V4.3911L7.85714 7.91967L12.4607 5.52682C12.7693 5.81242 13.1309 6.03471 13.525 6.1811L8.10428 8.99896C8.04095 9.03187 7.97168 9.0518 7.90053 9.05756C7.82939 9.06333 7.75781 9.05482 7.69 9.03253L7.61 8.99896L1.07143 5.59896V11.9168C1.07144 12.2305 1.18941 12.5328 1.40191 12.7635C1.61442 12.9943 1.90593 13.1367 2.21857 13.1625L2.32143 13.1668H13.3929C13.7067 13.1668 14.009 13.0487 14.2398 12.8361C14.4706 12.6234 14.6129 12.3317 14.6386 12.019L14.6429 11.9168V6.3811C15.0186 6.3811 15.38 6.31682 15.715 6.19825L15.7143 11.9168C15.7143 12.5098 15.4875 13.0803 15.0802 13.5113C14.673 13.9423 14.1163 14.2011 13.5243 14.2347L13.3929 14.2382H2.32143C1.72847 14.2383 1.15798 14.0114 0.726978 13.6042C0.295976 13.197 0.0371419 12.6403 0.00357151 12.0482L4.98227e-09 11.9168V3.70253C-3.88191e-05 3.10958 0.226824 2.53908 0.634051 2.10808C1.04128 1.67708 1.598 1.41825 2.19 1.38468L2.32143 1.3811Z" fill="#41479B"/>
<path d="M14.8608 5.05476C16.2566 5.05476 17.3881 3.92321 17.3881 2.52738C17.3881 1.13155 16.2566 0 14.8608 0C13.4649 0 12.3334 1.13155 12.3334 2.52738C12.3334 3.92321 13.4649 5.05476 14.8608 5.05476Z" fill="#44CE42"/>
</svg>
