<svg width="17" height="18" viewBox="0 0 17 18" fill="none" xmlns="http://www.w3.org/2000/svg">
<path d="M8.19019 17.4892C8.5086 17.4818 8.81417 17.3621 9.05283 17.1512C9.29149 16.9403 9.44788 16.6518 9.49431 16.3367H6.83551C6.88326 16.6603 7.04696 16.9556 7.29615 17.1676C7.54534 17.3796 7.86305 17.4939 8.19019 17.4892Z" fill="#41479B"/>
<path d="M15.5246 14.2288C15.0372 13.7942 14.6104 13.2961 14.2559 12.7477C13.8688 11.9908 13.6368 11.1642 13.5735 10.3164V7.81934C13.5714 7.51603 13.5444 7.2134 13.4926 6.91453C13.0948 6.835 12.7124 6.69162 12.3603 6.48993C12.4945 6.92204 12.5627 7.37193 12.5625 7.82439V10.3214C12.6245 11.3557 12.909 12.3643 13.3966 13.2785C13.7456 13.8315 14.1596 14.3406 14.6299 14.7949H1.68469C2.15499 14.3406 2.56907 13.8315 2.91805 13.2785C3.40564 12.3643 3.69013 11.3557 3.75209 10.3214V7.81934C3.74943 7.23434 3.86218 6.65457 4.0839 6.11321C4.30562 5.57186 4.63195 5.07955 5.04419 4.66449C5.45644 4.24943 5.94651 3.91976 6.48634 3.69435C7.02618 3.46895 7.60517 3.35225 8.19017 3.35093C9.04633 3.35161 9.88327 3.6048 10.5962 4.07881C10.5176 3.79018 10.4735 3.49325 10.4648 3.19423V2.87578C9.93702 2.61615 9.37002 2.44536 8.78663 2.3703V1.7334C8.78663 1.55443 8.71553 1.38279 8.58898 1.25624C8.46243 1.12969 8.29079 1.05859 8.11182 1.05859C7.93285 1.05859 7.76121 1.12969 7.63466 1.25624C7.5081 1.38279 7.43701 1.55443 7.43701 1.7334V2.39558C6.13072 2.57985 4.93519 3.23049 4.07116 4.22739C3.20712 5.22428 2.73291 6.50011 2.73608 7.81934V10.3164C2.67277 11.1642 2.44077 11.9908 2.05369 12.7477C1.70536 13.2948 1.28546 13.7929 0.805163 14.2288C0.751244 14.2761 0.708031 14.3344 0.678398 14.3998C0.648765 14.4652 0.633392 14.5361 0.633301 14.6079V15.2953C0.633301 15.4294 0.686556 15.558 0.781351 15.6528C0.876146 15.7475 1.00472 15.8008 1.13878 15.8008H15.191C15.3251 15.8008 15.4536 15.7475 15.5484 15.6528C15.6432 15.558 15.6965 15.4294 15.6965 15.2953V14.6079C15.6964 14.5361 15.681 14.4652 15.6514 14.3998C15.6218 14.3344 15.5785 14.2761 15.5246 14.2288Z" fill="#41479B"/>
<path d="M14.2559 5.72151C15.6517 5.72151 16.7833 4.58996 16.7833 3.19413C16.7833 1.79829 15.6517 0.666748 14.2559 0.666748C12.8601 0.666748 11.7285 1.79829 11.7285 3.19413C11.7285 4.58996 12.8601 5.72151 14.2559 5.72151Z" fill="#FC5A5A"/>
</svg>
