<svg width="15" height="14" viewBox="0 0 15 14" fill="none" xmlns="http://www.w3.org/2000/svg">
<path fill-rule="evenodd" clip-rule="evenodd" d="M5.68265 0.999919C5.68265 0.769228 5.56338 0.554932 5.36733 0.433352C5.17128 0.311773 4.9263 0.30019 4.71965 0.402731C3.5523 0.981974 2.56994 1.87575 1.88329 2.98333C1.19674 4.09074 0.833093 5.36787 0.833314 6.67082C0.832289 8.24934 1.36518 9.78181 2.34537 11.0191C3.32555 12.2565 4.69541 13.1259 6.23228 13.4861C7.76915 13.8463 9.38268 13.6762 10.8106 13.0033C12.2385 12.3304 13.3969 11.1943 14.0974 9.77977C14.1997 9.57313 14.188 9.32827 14.0664 9.13234C13.9448 8.93642 13.7306 8.81725 13.5 8.81725C10.7657 8.81725 8.84494 8.1394 7.60265 6.89703C6.36035 5.65465 5.68265 3.73384 5.68265 0.999919ZM3.01651 3.68588C3.38034 3.09902 3.84674 2.58632 4.39057 2.17065C4.56471 4.5581 5.29442 6.47433 6.65981 7.83981C8.02545 9.20553 9.94212 9.9354 12.3304 10.1094C11.7829 10.8271 11.0683 11.4079 10.2422 11.7972C9.08648 12.3418 7.78049 12.4795 6.53655 12.188C5.29262 11.8964 4.18386 11.1927 3.3905 10.1912C2.59714 9.18971 2.16582 7.94934 2.16665 6.67168C2.16638 5.61689 2.46072 4.58238 3.01651 3.68588Z" fill="#41479B"/>
</svg>
