<svg width="16" height="13" viewBox="0 0 16 13" fill="none" xmlns="http://www.w3.org/2000/svg">
<path fill-rule="evenodd" clip-rule="evenodd" d="M1.38289 1.05446C1.15837 1.15421 1 1.37998 1 1.63955V2.564H2.25444L1.38289 1.05446ZM2.50615 1L3.40915 2.564H5.67308L4.77011 1H2.50615ZM5.92481 1L6.82779 2.564H9.09175L8.18877 1H5.92481ZM9.34347 1L10.2465 2.564H12.5104L11.6074 1H9.34347ZM12.7621 1L13.6651 2.564H14.0166V1.63955C14.0166 1.28894 13.7276 1 13.377 1H12.7621ZM14.0166 3.564H1V10.756C1 11.1066 1.28894 11.3955 1.63956 11.3955H13.377C13.7276 11.3955 14.0166 11.1066 14.0166 10.756V3.564ZM0 1.63955C0 0.736657 0.736657 0 1.63956 0H13.377C14.2799 0 15.0166 0.736657 15.0166 1.63955V10.756C15.0166 11.6589 14.2799 12.3955 13.377 12.3955H1.63956C0.736657 12.3955 0 11.6589 0 10.756V1.63955ZM4.51773 5.83279C3.79278 6.31609 3.42236 6.92885 3.42236 7.53809C3.42236 8.14732 3.79278 8.76008 4.51773 9.24338C5.23919 9.72435 6.26467 10.0381 7.42236 10.0381C8.58006 10.0381 9.60554 9.72435 10.327 9.24338C11.0519 8.76008 11.4224 8.14732 11.4224 7.53809C11.4224 6.92885 11.0519 6.31609 10.327 5.83279C9.60554 5.35182 8.58006 5.03809 7.42236 5.03809C6.26467 5.03809 5.23919 5.35182 4.51773 5.83279ZM3.96303 5.00074C4.87026 4.39592 6.09478 4.03809 7.42236 4.03809C8.74995 4.03809 9.97447 4.39592 10.8817 5.00074C11.7854 5.60323 12.4224 6.49047 12.4224 7.53809C12.4224 8.5857 11.7854 9.47294 10.8817 10.0754C9.97447 10.6802 8.74995 11.0381 7.42236 11.0381C6.09478 11.0381 4.87026 10.6802 3.96303 10.0754C3.0593 9.47294 2.42236 8.5857 2.42236 7.53809C2.42236 6.49047 3.0593 5.60323 3.96303 5.00074ZM6.42236 7.82009C6.42236 7.3882 6.77248 7.03809 7.20437 7.03809C7.63626 7.03809 7.98637 7.3882 7.98637 7.82009C7.98637 8.25198 7.63626 8.60209 7.20437 8.60209C6.77248 8.60209 6.42236 8.25198 6.42236 7.82009ZM7.20437 6.03809C6.22019 6.03809 5.42236 6.83592 5.42236 7.82009C5.42236 8.80426 6.22019 9.60209 7.20437 9.60209C8.18854 9.60209 8.98637 8.80426 8.98637 7.82009C8.98637 6.83592 8.18854 6.03809 7.20437 6.03809Z" fill="black"/>
</svg>
