<svg width="25" height="25" viewBox="0 0 25 25" fill="none" xmlns="http://www.w3.org/2000/svg">
<g clip-path="url(#clip0_1059_10907)">
<path d="M2.06075 0.592232C1.37775 0.729982 0.71975 1.25023 0.419 1.89548L0.25 2.25273V12.4977V22.7427L0.45675 23.1625C0.7825 23.8205 1.3715 24.2652 2.111 24.4032C2.537 24.4847 22.463 24.4847 22.889 24.4032C23.6222 24.2655 24.2675 23.7705 24.5807 23.1L24.75 22.7425V12.4975V2.25248L24.5432 1.83273C24.2175 1.16848 23.641 0.72998 22.9077 0.59198C22.5005 0.516981 2.44925 0.516981 2.06075 0.592232ZM23.0582 1.65123C23.3777 1.79548 23.691 2.14623 23.7725 2.45323C23.8602 2.76648 23.8665 22.21 23.7787 22.5232C23.6973 22.8302 23.3652 23.2062 23.0645 23.344C22.8202 23.4567 22.394 23.463 12.5 23.463C2.606 23.463 2.18 23.4567 1.9355 23.344C1.63475 23.2062 1.30275 22.8302 1.22125 22.5232C1.1335 22.21 1.13975 2.76648 1.2275 2.45323C1.309 2.14623 1.62225 1.79523 1.94175 1.65123C2.17975 1.53848 2.66225 1.53223 12.5 1.53223C22.3377 1.53223 22.82 1.53848 23.0582 1.65123Z" fill="#00072E" stroke="#00072E" stroke-width="0.5"/>
<path d="M3.05759 3.16145C2.98234 3.1927 2.89459 3.2742 2.85709 3.3432C2.80684 3.43095 2.78809 5.71795 2.78809 10.7684V18.0684L2.95109 18.1937L3.12034 18.3252H12.5003H21.8806L22.0498 18.1937L22.2128 18.0684V10.7434C22.2128 3.63145 22.2066 3.4247 22.0938 3.2807L21.9748 3.1302L12.5821 3.1177C7.24934 3.11145 3.13884 3.1302 3.05759 3.16145ZM21.2728 10.7434V17.3854H12.5003H3.72784V10.7434V4.10145H12.5003H21.2728V10.7434Z" fill="#00072E" stroke="#00072E" stroke-width="0.5"/>
<path d="M3.97789 19.4466C3.67714 19.5093 3.42014 19.6533 3.18214 19.9041C2.21089 20.9128 3.15089 22.6361 4.52314 22.3478C5.66989 22.1098 6.11464 20.8001 5.34389 19.9291C5.00539 19.5406 4.46039 19.3526 3.97789 19.4466ZM4.62964 20.5868C4.81764 20.8061 4.83014 20.8938 4.69864 21.1383C4.59839 21.3388 4.49189 21.3951 4.22239 21.3951C4.00314 21.3951 3.72739 21.1506 3.72739 20.9566C3.72739 20.7936 3.88414 20.4741 3.99064 20.4366C4.22864 20.3426 4.47289 20.3988 4.62964 20.5868Z" fill="#00072E"/>
<path d="M7.86346 19.4466C6.88596 19.6471 6.38471 20.7061 6.84846 21.5896C7.16171 22.1974 7.79471 22.4919 8.45871 22.3416C8.75321 22.2726 8.87846 22.2039 9.14796 21.9406C9.49896 21.5959 9.61796 21.3266 9.61796 20.8629C9.61796 20.5559 9.38621 20.0421 9.14171 19.8164C8.82196 19.5216 8.28321 19.3651 7.86346 19.4466ZM8.47121 20.5306C8.65921 20.7436 8.69671 20.9254 8.59021 21.1321C8.48371 21.3451 8.37721 21.3954 8.08271 21.3954C7.83196 21.3954 7.61271 21.1574 7.61271 20.8816C7.61271 20.4616 8.18921 20.2299 8.47121 20.5306Z" fill="#00072E"/>
<path d="M12.3433 20.4555C12.1741 20.5183 12.0801 20.6373 12.0301 20.844C11.9926 20.9818 12.0238 21.0508 12.1741 21.2075L12.3621 21.3955H17.1368H21.9053L22.0558 21.2388C22.3253 20.9755 22.2376 20.5808 21.8928 20.4618C21.6546 20.3803 12.5438 20.3678 12.3433 20.4555Z" fill="#00072E"/>
<path fill-rule="evenodd" clip-rule="evenodd" d="M12.5012 6.6665V14.9998V6.6665Z" fill="#00072E"/>
<path d="M12.5012 6.6665V14.9998" stroke="#00072E" stroke-linecap="round" stroke-linejoin="round"/>
<path fill-rule="evenodd" clip-rule="evenodd" d="M16.6673 10.8335H8.33398H16.6673Z" fill="#00072E"/>
<path d="M16.6673 10.8335H8.33398" stroke="#00072E" stroke-linecap="round" stroke-linejoin="round"/>
</g>
<defs>
<clipPath id="clip0_1059_10907">
<rect width="25" height="25" fill="white"/>
</clipPath>
</defs>
</svg>
