<svg width="15" height="15" viewBox="0 0 15 15" fill="none" xmlns="http://www.w3.org/2000/svg">
<g clip-path="url(#clip0_1057_3343)">
<path d="M13.6816 0.908203H1.31836C0.591416 0.908203 0 1.49962 0 2.22656V12.7734C0 13.5004 0.591416 14.0918 1.31836 14.0918H13.6816C14.4086 14.0918 15 13.5004 15 12.7734V2.22656C15 1.49962 14.4086 0.908203 13.6816 0.908203ZM14.1211 12.7734C14.1211 13.0158 13.924 13.2129 13.6816 13.2129H1.31836C1.07604 13.2129 0.878906 13.0158 0.878906 12.7734V11.4551H9.77285C9.95426 11.9665 10.4427 12.334 11.0156 12.334C11.5885 12.334 12.077 11.9665 12.2584 11.4551H14.1211V12.7734ZM10.5762 11.0156C10.5762 10.7733 10.7733 10.5762 11.0156 10.5762C11.2579 10.5762 11.4551 10.7733 11.4551 11.0156C11.4551 11.2579 11.2579 11.4551 11.0156 11.4551C10.7733 11.4551 10.5762 11.2579 10.5762 11.0156ZM14.1211 10.5762H12.2584C12.077 10.0647 11.5885 9.69727 11.0156 9.69727C10.4427 9.69727 9.95426 10.0647 9.77285 10.5762H0.878906V2.22656C0.878906 1.98425 1.07604 1.78711 1.31836 1.78711H13.6816C13.924 1.78711 14.1211 1.98425 14.1211 2.22656V10.5762Z" fill="black"/>
<path d="M10.3628 5.8048L5.9683 3.16808C5.6758 2.99268 5.30273 3.20376 5.30273 3.54492V8.81836C5.30273 9.16222 5.67832 9.36917 5.9683 9.19518L10.3628 6.55846C10.647 6.38789 10.6468 5.97522 10.3628 5.8048ZM6.18164 8.0422V4.32109L9.2826 6.18164L6.18164 8.0422Z" fill="black"/>
</g>
<defs>
<clipPath id="clip0_1057_3343">
<rect width="15" height="15" fill="white"/>
</clipPath>
</defs>
</svg>
