<svg width="24" height="24" viewBox="0 0 24 24" fill="none" xmlns="http://www.w3.org/2000/svg">
<path d="M11.9538 2.48807L11.9538 2.48807C12.5171 1.56248 13.9443 2.03027 13.8504 3.10981L13.339 8.99139L13.3296 9.10005H13.4386H17.7776C18.5772 9.10005 19.0689 9.97493 18.6532 10.658L12.0464 21.5121C11.483 22.4377 10.0558 21.9698 10.1497 20.8903L10.6612 15.0087L10.6706 14.9001H10.5615H6.22246C5.42282 14.9001 4.93114 14.0252 5.34691 13.3422L11.9538 2.48807ZM11.7335 6.67643L11.5484 6.61578L7.694 12.9481L7.60148 13.1001H7.77942H11.5158C12.117 13.1001 12.5891 13.6149 12.537 14.2139L12.2666 17.3237L12.4517 17.3844L16.306 11.0521L16.3986 10.9001H16.2206H12.4842C11.8831 10.9001 11.4109 10.3851 11.4631 9.78627L11.4631 9.78626L11.7335 6.67643Z" fill="#00072E" stroke="#EFF3FF" stroke-width="0.2"/>
</svg>
