<svg width="34" height="19" viewBox="0 0 34 19" fill="none" xmlns="http://www.w3.org/2000/svg">
<path fill-rule="evenodd" clip-rule="evenodd" d="M18.2427 5.68909C17.067 5.68911 15.9136 6.00936 14.9061 6.61548C13.8987 7.22159 13.0754 8.09066 12.5247 9.12937C12.0869 8.30318 11.4752 7.58169 10.7318 7.01456C9.98839 6.44744 9.13091 6.04817 8.2184 5.84423C7.30588 5.64029 6.36001 5.63653 5.4459 5.83321C4.5318 6.02989 3.67117 6.42234 2.92329 6.98354V1.53076C2.91228 1.19461 2.771 0.875905 2.52932 0.642008C2.28763 0.40811 1.96448 0.277344 1.62815 0.277344C1.29181 0.277344 0.968659 0.40811 0.726976 0.642008C0.485293 0.875905 0.344017 1.19461 0.333008 1.53076V12.2696H0.335785C0.35944 13.705 0.859592 15.0917 1.75756 16.2116C2.65552 17.3316 3.90034 18.1213 5.29617 18.4564C6.69201 18.7915 8.15965 18.6531 9.4682 18.0629C10.7768 17.4726 11.852 16.4642 12.5247 15.196C13.0619 16.2081 13.8582 17.0594 14.8322 17.6629C15.8062 18.2664 16.9229 18.6006 18.0683 18.6312C19.2137 18.6619 20.3467 18.3879 21.3516 17.8372C22.3564 17.2866 23.1971 16.4791 23.7876 15.4972C24.3782 14.5153 24.6975 13.3942 24.713 12.2485C24.7284 11.1028 24.4394 9.97354 23.8755 8.97609C23.3116 7.97864 22.493 7.14877 21.5034 6.57127C20.5138 5.99377 19.3885 5.68934 18.2427 5.68909ZM6.80662 16.046C5.7767 16.046 4.78895 15.6369 4.06069 14.9086C3.33242 14.1804 2.92329 13.1926 2.92329 12.1627C2.92329 11.1328 3.33242 10.145 4.06069 9.41677C4.78895 8.68851 5.7767 8.27937 6.80662 8.27937C7.83654 8.27937 8.82428 8.68851 9.55255 9.41677C10.2808 10.145 10.69 11.1328 10.69 12.1627C10.69 13.1926 10.2808 14.1804 9.55255 14.9086C8.82428 15.6369 7.83654 16.046 6.80662 16.046ZM18.2427 16.046C17.213 16.046 16.2254 15.637 15.4973 14.9088C14.7692 14.1807 14.3601 13.1931 14.3601 12.1634C14.3601 11.1337 14.7692 10.1461 15.4973 9.41796C16.2254 8.68982 17.213 8.28076 18.2427 8.28076C19.2723 8.28076 20.2597 8.68975 20.9877 9.41776C21.7157 10.1458 22.1247 11.1331 22.1247 12.1627C22.1247 13.1923 21.7157 14.1796 20.9877 14.9077C20.2597 15.6357 19.2723 16.046 18.2427 16.046ZM33.4233 16.5988C33.611 16.8742 33.6854 17.2114 33.631 17.5402C33.5766 17.869 33.3976 18.1642 33.1311 18.3645C32.8647 18.5648 32.5314 18.6547 32.2004 18.6155C31.8694 18.5764 31.5662 18.4112 31.3538 18.1544L28.4913 14.3294L25.6302 18.1544C25.424 18.429 25.117 18.6104 24.777 18.6587C24.437 18.707 24.0916 18.6183 23.817 18.412C23.5424 18.2057 23.361 17.8988 23.3127 17.5588C23.2644 17.2187 23.3531 16.8734 23.5594 16.5988L26.8733 12.1683L23.558 7.73632C23.3517 7.46171 23.263 7.1164 23.3113 6.77636C23.3596 6.43632 23.541 6.1294 23.8156 5.92312C24.0903 5.71684 24.4356 5.6281 24.7756 5.67641C25.1156 5.72473 25.4226 5.90615 25.6288 6.18076L28.49 10.0058L31.3511 6.18076C31.5573 5.90633 31.8656 5.72509 32.2055 5.67691C32.5454 5.62872 32.8905 5.71754 33.165 5.92382C33.4394 6.13009 33.6206 6.43694 33.6688 6.77685C33.717 7.11676 33.6282 7.46189 33.4219 7.73632H33.4233L30.108 12.1669L33.4233 16.5988Z" fill="#41479B"/>
</svg>
