<svg width="22" height="16" viewBox="0 0 22 16" fill="none" xmlns="http://www.w3.org/2000/svg">
<path fill-rule="evenodd" clip-rule="evenodd" d="M16.2231 7.27754L18.9716 10.7953H22L17.5124 5.27165L21.6202 0H18.7718L16.2531 3.29611L13.9944 0H11.1259L14.9038 5.27165L10.7961 10.7953H13.7544L16.2231 7.27754ZM5.33522 0.00530449C3.82076 0.0433313 2.56243 0.567838 1.56008 1.57865C0.557742 2.58952 0.037693 3.85864 0 5.38591V15.1145H2.11978V10.7908H5.33522C6.85062 10.7517 8.11302 10.2232 9.12228 9.2054C10.1316 8.1875 10.6556 6.91443 10.6943 5.38609C10.6556 3.85876 10.1316 2.58969 9.12228 1.57883C8.11302 0.567958 6.85068 0.0433909 5.33522 0.00530449ZM2.11978 8.6527V5.38591C2.14214 4.4626 2.45472 3.697 3.0576 3.08893C3.66049 2.48092 4.41971 2.16568 5.33522 2.14315C6.2621 2.16568 7.0283 2.48092 7.63369 3.08893C8.23902 3.69694 8.55265 4.4626 8.57446 5.38591C8.55265 6.32073 8.23902 7.09336 7.63369 7.70394C7.0283 8.31451 6.2621 8.63076 5.33522 8.6527H2.11978Z" fill="#41479B"/>
</svg>
