<svg width="24" height="24" viewBox="0 0 24 24" fill="none" xmlns="http://www.w3.org/2000/svg">
<g clip-path="url(#clip0_1463_1094)">
<path d="M21.414 1.50623H19.4813V0.703125C19.4813 0.314812 19.1664 0 18.7781 0C18.3898 0 18.075 0.314812 18.075 0.703125V1.50623H14.9625V0.703125C14.9625 0.314812 14.6477 0 14.2594 0C13.8711 0 13.5563 0.314812 13.5563 0.703125V1.50623H10.4438V0.703125C10.4438 0.314812 10.1289 0 9.74063 0C9.35231 0 9.0375 0.314812 9.0375 0.703125V1.50623H5.925V0.703125C5.925 0.314812 5.61019 0 5.22188 0C4.83356 0 4.51875 0.314812 4.51875 0.703125V1.50623H2.58591C1.16006 1.50623 0 2.66625 0 4.09219V21.414C0 22.8399 1.16006 24 2.58591 24H21.414C22.8399 24 24 22.8399 24 21.414V4.09219C24 2.66625 22.8399 1.50623 21.414 1.50623ZM2.58591 2.91248H4.51875V3.71564C4.51875 4.10395 4.83356 4.41877 5.22188 4.41877C5.61019 4.41877 5.925 4.10395 5.925 3.71564V2.91248H9.03741V3.71564C9.03741 4.10395 9.35222 4.41877 9.74053 4.41877C10.1288 4.41877 10.4437 4.10395 10.4437 3.71564V2.91248H13.5562V3.71564C13.5562 4.10395 13.871 4.41877 14.2593 4.41877C14.6476 4.41877 14.9624 4.10395 14.9624 3.71564V2.91248H18.0749V3.71564C18.0749 4.10395 18.3897 4.41877 18.778 4.41877C19.1663 4.41877 19.4812 4.10395 19.4812 3.71564V2.91248H21.4139C22.0645 2.91248 22.5938 3.4417 22.5938 4.09219V6.02498H1.40625V4.09219C1.40625 3.4417 1.93547 2.91248 2.58591 2.91248ZM21.414 22.5938H2.58591C1.93547 22.5938 1.40625 22.0645 1.40625 21.414V7.43123H22.5938V21.414C22.5938 22.0645 22.0645 22.5938 21.414 22.5938Z" fill="#8E94A9"/>
<path d="M7.10468 9.79102H4.09216C3.70385 9.79102 3.38904 10.1058 3.38904 10.4941V13.5066C3.38904 13.8949 3.70385 14.2097 4.09216 14.2097H7.10473C7.49304 14.2097 7.80785 13.8949 7.80785 13.5066V10.4941C7.8078 10.1058 7.49304 9.79102 7.10468 9.79102ZM6.40155 12.8035H4.79524V11.1973H6.40155V12.8035ZM19.9078 9.79102H16.8953C16.507 9.79102 16.1922 10.1058 16.1922 10.4941V13.5066C16.1922 13.8949 16.507 14.2097 16.8953 14.2097H19.9078C20.2961 14.2097 20.6109 13.8949 20.6109 13.5066V10.4941C20.6109 10.1058 20.2961 9.79102 19.9078 9.79102ZM19.2047 12.8035H17.5984V11.1973H19.2047V12.8035ZM7.10468 15.816H4.09216C3.70385 15.816 3.38904 16.1308 3.38904 16.5191V19.5316C3.38904 19.9199 3.70385 20.2347 4.09216 20.2347H7.10473C7.49304 20.2347 7.80785 19.9199 7.80785 19.5316V16.5191C7.8078 16.1308 7.49304 15.816 7.10468 15.816ZM6.40155 18.8285H4.79524V17.2222H6.40155V18.8285ZM19.9078 15.816H16.8953C16.507 15.816 16.1922 16.1308 16.1922 16.5191V19.5316C16.1922 19.9199 16.507 20.2347 16.8953 20.2347H19.9078C20.2961 20.2347 20.6109 19.9199 20.6109 19.5316V16.5191C20.6109 16.1308 20.2961 15.816 19.9078 15.816ZM19.2047 18.8285H17.5984V17.2222H19.2047V18.8285ZM13.5063 15.816H10.4937C10.1054 15.816 9.79057 16.1308 9.79057 16.5191V19.5316C9.79057 19.9199 10.1054 20.2347 10.4937 20.2347H13.5063C13.8946 20.2347 14.2094 19.9199 14.2094 19.5316V16.5191C14.2094 16.1308 13.8946 15.816 13.5063 15.816ZM12.8031 18.8285H11.1968V17.2222H12.8031V18.8285ZM13.1004 10.4382L11.4676 12.0711L10.8996 11.5032C10.6251 11.2286 10.1799 11.2286 9.90527 11.5032C9.63068 11.7778 9.63068 12.2229 9.90527 12.4975L10.9704 13.5627C11.1023 13.6945 11.2811 13.7686 11.4676 13.7686C11.6541 13.7686 11.8329 13.6945 11.9648 13.5627L14.0948 11.4325C14.3694 11.1579 14.3694 10.7128 14.0948 10.4382C13.8202 10.1636 13.375 10.1636 13.1004 10.4382Z" fill="#8E94A9"/>
</g>
<defs>
<clipPath id="clip0_1463_1094">
<rect width="24" height="24" fill="white"/>
</clipPath>
</defs>
</svg>
