<svg width="24" height="24" viewBox="0 0 24 24" fill="none" xmlns="http://www.w3.org/2000/svg">
<path fill-rule="evenodd" clip-rule="evenodd" d="M10.4307 1.8569e-05H14.0309C14.1589 1.8569e-05 14.2816 0.0508585 14.3721 0.141354C14.4626 0.23185 14.5135 0.354588 14.5135 0.482569V1.67845H20.2034C20.2991 1.40164 20.457 1.15045 20.6649 0.944138C20.8459 0.762207 21.061 0.617832 21.2979 0.519316C21.5348 0.420799 21.7889 0.370082 22.0454 0.370082C22.302 0.370082 22.5561 0.420799 22.793 0.519316C23.0299 0.617832 23.245 0.762207 23.4259 0.944138C23.6079 1.12507 23.7523 1.34018 23.8508 1.5771C23.9493 1.81401 24 2.06807 24 2.32465C24 2.58123 23.9493 2.83529 23.8508 3.07221C23.7523 3.30912 23.6079 3.52423 23.4259 3.70516C23.245 3.88709 23.0299 4.03147 22.793 4.12999C22.5561 4.2285 22.302 4.27922 22.0454 4.27922C21.7889 4.27922 21.5348 4.2285 21.2979 4.12999C21.061 4.03147 20.8459 3.88709 20.6649 3.70516C20.4531 3.48885 20.295 3.22583 20.2034 2.93728H17.2661C18.2148 3.48553 19.0726 4.17774 19.8089 4.98917C21.278 6.61203 22.2483 8.62392 22.6035 10.784H23.3924C23.4693 10.7823 23.5457 10.796 23.6172 10.8244C23.6887 10.8528 23.7538 10.8953 23.8085 10.9493C23.8633 11.0033 23.9067 11.0677 23.9361 11.1388C23.9655 11.2099 23.9804 11.2861 23.9798 11.363V14.0024C23.9804 14.0782 23.9659 14.1534 23.9373 14.2236C23.9086 14.2939 23.8664 14.3577 23.8129 14.4116C23.7595 14.4654 23.6959 14.5081 23.6259 14.5373C23.5559 14.5664 23.4808 14.5814 23.405 14.5814H20.7824C20.7064 14.5814 20.6311 14.5664 20.5608 14.5373C20.4906 14.5082 20.4267 14.4656 20.373 14.4118C20.3192 14.358 20.2765 14.2942 20.2474 14.224C20.2183 14.1537 20.2034 14.0784 20.2034 14.0024V11.363C20.2034 11.2094 20.2644 11.0622 20.373 10.9536C20.4816 10.845 20.6288 10.784 20.7824 10.784H21.3866C21.0407 8.92995 20.1865 7.20849 18.9194 5.8116C17.7381 4.50688 16.21 3.56525 14.5135 3.09673V4.12477C14.5146 4.18884 14.5029 4.2525 14.4792 4.31201C14.4554 4.37153 14.42 4.42572 14.3751 4.47142C14.3302 4.51713 14.2766 4.55342 14.2175 4.5782C14.1584 4.60297 14.095 4.61572 14.0309 4.61571H10.4307C10.3671 4.61627 10.3041 4.60417 10.2453 4.58012C10.1865 4.55607 10.1331 4.52055 10.0882 4.47563C10.0433 4.43071 10.0078 4.37729 9.98371 4.31849C9.95965 4.25969 9.94756 4.19669 9.94812 4.13316V3.09673C8.20698 3.57973 6.64587 4.56309 5.4583 5.92489C4.24985 7.30484 3.43145 8.98221 3.08751 10.784H3.67916C3.7552 10.784 3.8305 10.7989 3.90076 10.828C3.97101 10.8571 4.03485 10.8998 4.08862 10.9536C4.14239 11.0073 4.18504 11.0712 4.21414 11.1414C4.24324 11.2117 4.25822 11.287 4.25822 11.363V14.0024C4.25822 14.0784 4.24324 14.1537 4.21414 14.224C4.18504 14.2942 4.14239 14.358 4.08862 14.4118C4.03485 14.4656 3.97101 14.5082 3.90076 14.5373C3.8305 14.5664 3.7552 14.5814 3.67916 14.5814H1.0692C0.992449 14.5825 0.916246 14.5684 0.84502 14.5398C0.773794 14.5112 0.708965 14.4687 0.654302 14.4148C0.599639 14.3609 0.556233 14.2967 0.526609 14.2259C0.496985 14.1551 0.481734 14.0791 0.481742 14.0024V11.363C0.481734 11.2863 0.496985 11.2103 0.526609 11.1395C0.556233 11.0687 0.599639 11.0045 0.654302 10.9506C0.708965 10.8967 0.773794 10.8542 0.84502 10.8256C0.916246 10.797 0.992449 10.7828 1.0692 10.784H1.87065C2.22885 8.68712 3.16134 6.73062 4.56453 5.13183C5.31602 4.26178 6.20473 3.52048 7.19548 2.93728H3.80085C3.70506 3.21285 3.54713 3.46267 3.33928 3.6674C3.15855 3.84966 2.9435 3.99431 2.70655 4.09298C2.4696 4.19165 2.21544 4.24239 1.95877 4.24226C1.43952 4.2404 0.94195 4.03384 0.574057 3.6674C0.392125 3.48647 0.24775 3.27136 0.149233 3.03444C0.0507161 2.79752 0 2.54347 0 2.28689C0 2.0303 0.0507161 1.77625 0.149233 1.53933C0.24775 1.30241 0.392125 1.08731 0.574057 0.906373C0.754989 0.724442 0.970096 0.580068 1.20701 0.481551C1.44393 0.383034 1.69798 0.332318 1.95457 0.332318C2.21115 0.332318 2.46521 0.383034 2.70212 0.481551C2.93904 0.580068 3.15415 0.724442 3.33508 0.906373C3.5495 1.12305 3.70917 1.38773 3.80085 1.67845H9.94812V0.482569C9.94756 0.419043 9.95965 0.356043 9.98371 0.297245C10.0078 0.238446 10.0433 0.185027 10.0882 0.140107C10.1331 0.0951858 10.1865 0.0596626 10.2453 0.0356104C10.3041 0.0115582 10.3671 -0.000541157 10.4307 1.8569e-05ZM17.543 17.0949L15.6758 21.9523L8.78999 21.8642L6.88497 17.0949C8.52144 14.1576 10.1873 10.5951 11.0433 7.44388L11.9496 7.54458L11.9161 15.9871C11.7166 16.0595 11.5496 16.2008 11.4452 16.3855C11.3408 16.5702 11.3058 16.7861 11.3466 16.9943C11.3874 17.2025 11.5012 17.3893 11.6676 17.521C11.834 17.6526 12.042 17.7204 12.254 17.7122C12.466 17.704 12.6681 17.6203 12.8238 17.4762C12.9795 17.332 13.0786 17.137 13.1031 16.9262C13.1277 16.7155 13.0761 16.5029 12.9577 16.3268C12.8393 16.1508 12.6618 16.0229 12.4574 15.9661L12.4826 7.61172L13.5232 7.55298C14.2827 10.7042 15.9317 14.2667 17.543 17.0823V17.0949ZM15.5121 24H8.82356V22.6656H15.5121V24Z" fill="#8E94A9"/>
</svg>
