<svg width="24" height="26" viewBox="0 0 24 26" fill="none" xmlns="http://www.w3.org/2000/svg">
<path d="M23 8.02709V23.4002C23 24.2823 22.1418 25 21.087 25H2.91304C1.85818 25 1 24.2823 1 23.4002V2.60276C1 1.72062 1.85818 1.00296 2.91304 1.00296C18.2673 1.00296 17.3341 0.982359 17.4857 1.0499C17.5849 1.0943 22.869 5.5214 22.9109 5.57044C23.0683 5.75497 23.0097 6.00964 22.7885 6.13417C22.6209 6.22851 22.8401 6.20227 18.6957 6.20227C17.6408 6.20227 16.7826 5.4846 16.7826 4.60246C16.7826 4.49639 16.833 4.39466 16.9227 4.31965C17.0124 4.24465 17.134 4.20251 17.2609 4.20251C17.3877 4.20251 17.5094 4.24465 17.5991 4.31965C17.6887 4.39466 17.7391 4.49639 17.7391 4.60246C17.7391 5.04351 18.1683 5.40236 18.6957 5.40236H21.3671L17.0627 1.80281H2.91304C2.38564 1.80281 1.95652 2.16166 1.95652 2.60271V23.4001C1.95652 23.8412 2.38564 24.2001 2.91304 24.2001H21.087C21.6144 24.2001 22.0435 23.8412 22.0435 23.4001V8.02704C22.0435 7.97452 22.0559 7.92251 22.0799 7.87399C22.1039 7.82547 22.1392 7.78138 22.1836 7.74424C22.228 7.7071 22.2807 7.67765 22.3387 7.65755C22.3968 7.63745 22.459 7.62711 22.5218 7.62712C22.5846 7.62712 22.6468 7.63747 22.7048 7.65757C22.7628 7.67767 22.8155 7.70713 22.8599 7.74428C22.9043 7.78142 22.9396 7.82551 22.9636 7.87404C22.9876 7.92256 23 7.97457 23 8.02709ZM4.46739 11.8016C4.46739 11.6956 4.51778 11.5938 4.60747 11.5188C4.69716 11.4438 4.81881 11.4017 4.94565 11.4017H12.7174C12.8442 11.4017 12.9659 11.4438 13.0556 11.5188C13.1453 11.5938 13.1957 11.6956 13.1957 11.8016C13.1957 11.9077 13.1453 12.0094 13.0556 12.0844C12.9659 12.1594 12.8442 12.2016 12.7174 12.2016H5.42391V14.1193H14.6304V11.8016C14.6304 11.6956 14.6808 11.5938 14.7705 11.5188C14.8602 11.4438 14.9819 11.4017 15.1087 11.4017H19.0543C19.1812 11.4017 19.3028 11.4438 19.3925 11.5188C19.4822 11.5938 19.5326 11.6956 19.5326 11.8016V20.0006C19.5326 20.1067 19.4822 20.2084 19.3925 20.2834C19.3028 20.3584 19.1812 20.4006 19.0543 20.4006H4.94565C4.81881 20.4006 4.69716 20.3584 4.60747 20.2834C4.51778 20.2084 4.46739 20.1067 4.46739 20.0006V11.8016ZM15.587 14.1193H16.8424C16.9692 14.1193 17.0909 14.1615 17.1806 14.2365C17.2703 14.3115 17.3207 14.4132 17.3207 14.5193C17.3207 14.6254 17.2703 14.7271 17.1806 14.8021C17.0909 14.8771 16.9692 14.9192 16.8424 14.9192H15.587V16.8831H16.8424C16.9692 16.8831 17.0909 16.9252 17.1806 17.0002C17.2703 17.0752 17.3207 17.1769 17.3207 17.283C17.3207 17.3891 17.2703 17.4908 17.1806 17.5658C17.0909 17.6408 16.9692 17.683 16.8424 17.683H15.587V18.5008C15.587 18.6069 15.5366 18.7086 15.4469 18.7836C15.3572 18.8586 15.2355 18.9008 15.1087 18.9008C14.9819 18.9008 14.8602 18.8586 14.7705 18.7836C14.6808 18.7086 14.6304 18.6069 14.6304 18.5008V17.683H5.42391V19.6007H18.5761V12.2016H15.587V14.1193ZM5.42391 14.9192V16.8831H14.6304V14.9192H5.42391ZM4.94565 6.50228H9.19022C9.31706 6.50228 9.43871 6.46014 9.5284 6.38514C9.61809 6.31013 9.66848 6.2084 9.66848 6.10233C9.66848 5.99625 9.61809 5.89453 9.5284 5.81952C9.43871 5.74451 9.31706 5.70238 9.19022 5.70238H4.94565C4.81881 5.70238 4.69716 5.74451 4.60747 5.81952C4.51778 5.89453 4.46739 5.99625 4.46739 6.10233C4.46739 6.2084 4.51778 6.31013 4.60747 6.38514C4.69716 6.46014 4.81881 6.50228 4.94565 6.50228ZM4.94565 9.00197H11.5815C11.7084 9.00197 11.83 8.95983 11.9197 8.88483C12.0094 8.80982 12.0598 8.70809 12.0598 8.60202C12.0598 8.49595 12.0094 8.39422 11.9197 8.31921C11.83 8.24421 11.7084 8.20207 11.5815 8.20207H4.94565C4.81881 8.20207 4.69716 8.24421 4.60747 8.31921C4.51778 8.39422 4.46739 8.49595 4.46739 8.60202C4.46739 8.70809 4.51778 8.80982 4.60747 8.88483C4.69716 8.95983 4.81881 9.00197 4.94565 9.00197Z" fill="#8E94A9" stroke="#8E94A9" stroke-width="0.5"/>
</svg>
