<svg width="16" height="19" viewBox="0 0 16 19" fill="none" xmlns="http://www.w3.org/2000/svg">
<path fill-rule="evenodd" clip-rule="evenodd" d="M9.02204 1.69952L8.01152 2.71005L7.00099 1.69952L8.01152 0.688995L9.02204 1.69952ZM8.01152 0C7.82778 0 7.64405 0.045933 7.55219 0.183732L6.54166 1.19426C6.26606 1.46986 6.26606 1.88325 6.54166 2.15885L7.55219 3.16938L7.55297 3.17016V5.91215C6.66229 6.03951 5.88371 6.53136 5.37483 7.23012L3.13772 5.92428C3.13412 5.86425 3.12135 5.80295 3.09837 5.74165L2.7309 4.36366C2.68497 4.04213 2.40937 3.8584 2.08784 3.8584H1.90411L0.526118 4.22586C0.158654 4.31773 -0.0710108 4.68519 0.0667882 5.05266L0.434252 6.43065C0.526118 6.75218 0.801716 6.93591 1.07731 6.93591H1.26105L2.63904 6.56845C2.68995 6.55572 2.73822 6.5377 2.78324 6.51512L5.02991 7.82654C4.8507 8.22927 4.75094 8.67413 4.75094 9.14081C4.75094 9.59329 4.84381 10.0458 5.02953 10.4728L2.67326 11.8344C2.64717 11.8226 2.62025 11.8127 2.59266 11.8048L1.21467 11.4374C1.16874 11.3914 1.1228 11.3914 1.03094 11.3914C0.75534 11.3914 0.479742 11.5752 0.387876 11.8967L0.0204123 13.2747C-0.0714536 13.6422 0.158211 14.0096 0.479742 14.1015L1.85773 14.4689C1.8807 14.4689 1.91515 14.4804 1.9496 14.4919C1.98405 14.5034 2.0185 14.5149 2.04146 14.5149C2.31706 14.5149 2.59266 14.3311 2.68453 14.0096L3.05199 12.6316C3.0714 12.554 3.07646 12.4763 3.06932 12.4013L5.96177 10.7299L5.68952 10.2587C5.54291 9.90063 5.43994 9.53788 5.43994 9.14081C5.43994 7.87369 6.34928 6.82481 7.55297 6.60917V6.61468H8.24197V3.31817C8.3342 3.28994 8.422 3.24264 8.47085 3.16938L9.48137 2.15885C9.75697 1.88325 9.75697 1.46986 9.48137 1.19426L8.47085 0.183732C8.37898 0.045933 8.19525 0 8.01152 0ZM7.55297 11.7586H8.05909C9.46194 11.7345 10.5859 10.5955 10.5859 9.18676C10.5859 8.79337 10.4848 8.43368 10.3404 8.07883L10.0615 7.59619L12.9096 5.95043C12.9054 5.88252 12.9095 5.81202 12.9271 5.74151L13.2946 4.36352C13.3864 4.04199 13.662 3.85825 13.9376 3.85825C14.0295 3.85825 14.0754 3.85825 14.1214 3.90419L15.4993 4.27165C15.6831 4.31758 15.8209 4.45538 15.9127 4.59318C15.9587 4.73098 16.0046 4.91471 15.9587 5.09845L15.5912 6.47644C15.4993 6.79797 15.2237 6.9817 14.9481 6.9817C14.9252 6.9817 14.8907 6.97021 14.8563 6.95873C14.8218 6.94725 14.7874 6.93577 14.7644 6.93577L13.3864 6.5683C13.3499 6.55918 13.3152 6.54642 13.2824 6.53076L10.9953 7.85233C11.1817 8.28011 11.2749 8.73343 11.2749 9.18676C11.2749 9.65426 11.1748 10.0999 10.995 10.5032L13.2404 11.8138C13.2862 11.7906 13.3354 11.7721 13.3874 11.7591L14.7654 11.3916H14.9492C15.2707 11.3916 15.5463 11.6213 15.5922 11.8969L15.9597 13.2749C16.0975 13.6423 15.8678 14.0098 15.5004 14.1016L14.1224 14.4691H13.9386C13.8468 14.4691 13.709 14.4232 13.6171 14.3772C13.4334 14.2854 13.3415 14.1476 13.2956 13.9638L12.9281 12.5859C12.9055 12.5257 12.8928 12.4655 12.889 12.4065L10.6497 11.0993C10.0972 11.8568 9.22758 12.3707 8.24197 12.44V15.0222C8.3367 15.0624 8.41862 15.1259 8.47085 15.2043L9.48137 16.1689C9.75697 16.4445 9.75697 16.8579 9.48137 17.1335L8.47085 18.144C8.37898 18.2818 8.14931 18.3277 8.01152 18.3277C7.87372 18.3277 7.68998 18.2818 7.55219 18.144L6.54166 17.1335C6.26606 16.8579 6.26606 16.4445 6.54166 16.1689L7.55219 15.1583L7.55297 15.1572V11.7586ZM6.22175 9.14061C6.22175 8.17602 7.00261 7.39516 7.9672 7.39516C8.93179 7.39516 9.71266 8.17602 9.71266 9.14061C9.71266 10.1052 8.93179 10.8861 7.9672 10.8861C7.00261 10.8861 6.22175 10.1052 6.22175 9.14061ZM9.02204 16.6741L8.01152 15.6636L7.00099 16.6741L8.01152 17.6847L9.02204 16.6741ZM13.9376 4.54725L15.3156 4.91471L14.9481 6.2927L13.5702 5.92524L13.9376 4.54725ZM2.45486 12.4479L1.07687 12.0804L0.709407 13.4584L2.0874 13.8259L2.45486 12.4479ZM14.9492 12.0806L15.3166 13.4586L13.9386 13.8261L13.5712 12.4481L14.9492 12.0806ZM2.4553 5.92538L2.08784 4.54739L0.70985 4.91486L1.07731 6.29285L2.4553 5.92538Z" fill="#7D87A9"/>
</svg>
