<svg width="22" height="25" viewBox="0 0 22 25" fill="none" xmlns="http://www.w3.org/2000/svg">
<path fill-rule="evenodd" clip-rule="evenodd" d="M16.2743 0.945312H2.97448C1.34129 0.945312 0 2.28613 0 3.91979V21.9713C0 23.6026 1.34316 24.9453 2.97448 24.9453H19.1883C20.8177 24.9453 22 23.6007 22 21.9713L21.9986 6.63052C21.9986 6.49067 21.9437 6.35035 21.8348 6.24569L16.6718 1.12224C16.5737 1.01336 16.4315 0.945312 16.2743 0.945312ZM16.9332 5.20973V3.78444L19.472 6.34847L19.445 6.35035C19.1906 6.34598 18.9492 6.35468 18.7238 6.36281C17.714 6.39923 17.0253 6.42406 16.9332 5.20973ZM19.7541 7.41849C19.8428 7.41849 19.9263 7.3969 20 7.35889V11.9397H18V10.9453C18 10.393 17.5523 9.94531 17 9.94531C16.4477 9.94531 16 10.393 16 10.9453V11.9397H14V8.94531C14 8.39303 13.5523 7.94531 13 7.94531C12.4477 7.94531 12 8.39303 12 8.94531V11.9397H10V5.94531C10 5.39303 9.55228 4.94531 9 4.94531C8.44772 4.94531 8 5.39303 8 5.94531V11.9397H6V7.94531C6 7.39303 5.55228 6.94531 5 6.94531C4.44772 6.94531 4 7.39303 4 7.94531V11.9397H2V4.8493C2 3.79992 2.85461 2.94531 3.90399 2.94531H15.8623V5.20973L15.8679 5.28717C16.0242 7.3418 17.4753 7.3847 19.436 7.41615L19.7541 7.41849ZM2 21.0418V13.7354L20 13.741V21.0418C20 22.0818 19.1365 22.9453 18.0965 22.9453H3.90399C2.85696 22.9453 2 22.0893 2 21.0418ZM14.3147 19.4464L11.4843 19.3962L12.9828 21.9605C13.8153 21.3945 14.3147 20.462 14.3147 19.4464ZM13.0105 15.4488C12.4097 15.149 11.9606 15.0673 11.2951 15.0161L11.3613 18.7293H11.5453L14.8257 18.8297H15.0421L15.0257 18.6134C14.9595 17.2472 14.1598 16.0486 13.0105 15.4488ZM14.6094 18.4135L11.7283 18.3299L11.695 15.4319C13.2784 15.7492 14.4376 16.7516 14.6094 18.4135ZM12.1497 21.8995L10.5344 19.1015L10.4011 15.8703C8.66935 15.9374 7.30366 17.3697 7.30366 19.1015C7.30366 20.8839 8.75242 22.3331 10.5344 22.3331C11.1013 22.3331 11.6504 22.1825 12.1497 21.8995Z" fill="#8E94A9"/>
</svg>
