<svg width="24" height="24" viewBox="0 0 24 24" fill="none" xmlns="http://www.w3.org/2000/svg">
<path d="M0 1.26426C0 0.566034 0.546372 0 1.19016 0H22.8098C23.4672 0 24 0.561638 24 1.26426V18.7357C24 19.434 23.4536 20 22.8098 20H1.19016C0.53286 20 0 19.4384 0 18.7357L0 1.26426ZM3.08421 2C2.53193 2 2.08421 2.44772 2.08421 3V17C2.08421 17.5523 2.53193 18 3.08421 18H21C21.5523 18 22 17.5523 22 17V3C22 2.44772 21.5523 2 21 2H3.08421ZM3 23C3 22.4477 3.44772 22 4 22H20C20.5523 22 21 22.4477 21 23V23C21 23.5523 20.5523 24 20 24H4C3.44772 24 3 23.5523 3 23V23Z" fill="#8E94A9"/>
</svg>
