<svg width="30" height="30" viewBox="0 0 30 30" fill="none" xmlns="http://www.w3.org/2000/svg">
<circle cx="15" cy="15" r="15" fill="#8E94A9"/>
<path d="M14.9268 12.7726C14.8101 12.8894 14.6517 12.955 14.4866 12.955C14.3214 12.955 14.1631 12.8894 14.0463 12.7726C13.9295 12.6559 13.8639 12.4975 13.8639 12.3324C13.8639 12.1672 13.9295 12.0089 14.0463 11.8921L15.1042 10.8382C15.6438 10.3014 16.3739 10 17.1351 10C17.8962 10 18.6264 10.3014 19.1659 10.8382L19.1716 10.8447C19.7059 11.3847 20.0051 12.1139 20.0041 12.8735C20.003 13.6331 19.7017 14.3615 19.1659 14.8999L18.108 15.9538C17.9912 16.0705 17.8328 16.1361 17.6677 16.1361C17.5026 16.1361 17.3442 16.0705 17.2274 15.9538C17.1107 15.837 17.0451 15.6786 17.0451 15.5135C17.0451 15.3484 17.1107 15.19 17.2274 15.0732L18.2854 14.0153C18.5877 13.7094 18.7572 13.2967 18.7572 12.8666C18.7572 12.4366 18.5877 12.0238 18.2854 11.718L18.2764 11.709C17.9699 11.4082 17.5573 11.2401 17.1278 11.2412C16.6983 11.2423 16.2865 11.4124 15.9815 11.7147L14.9276 12.7726H14.9268ZM16.0661 13.0298C16.1852 12.926 16.3393 12.8714 16.4972 12.877C16.6551 12.8825 16.805 12.948 16.9164 13.0599C17.0279 13.1719 17.0926 13.322 17.0974 13.48C17.1023 13.6379 17.0469 13.7917 16.9426 13.9103L13.9104 16.9425C13.7927 17.0543 13.6361 17.1157 13.4738 17.1136C13.3115 17.1116 13.1565 17.0462 13.0417 16.9315C12.9269 16.8168 12.8614 16.6618 12.8592 16.4996C12.857 16.3373 12.9182 16.1806 13.0299 16.0628L16.0629 13.0298H16.0661ZM15.0538 17.2469C15.1715 17.1353 15.3283 17.074 15.4905 17.0762C15.6528 17.0784 15.8078 17.1439 15.9225 17.2587C16.0372 17.3735 16.1025 17.5286 16.1046 17.6908C16.1066 17.8531 16.0452 18.0098 15.9335 18.1274L14.9 19.1618C14.3625 19.6966 13.6358 19.9979 12.8776 20C12.1194 20.0021 11.3909 19.705 10.8505 19.1732L10.8277 19.1512C10.2955 18.6107 9.99803 17.882 10 17.1235C10.002 16.3649 10.3032 15.6378 10.8383 15.1001L11.8718 14.069C11.9283 14.0063 11.9969 13.9557 12.0735 13.9203C12.1501 13.8849 12.2331 13.8655 12.3175 13.8631C12.4018 13.8608 12.4858 13.8757 12.5642 13.9068C12.6427 13.9379 12.714 13.9847 12.7738 14.0442C12.8336 14.1038 12.8807 14.1748 12.9122 14.2531C12.9437 14.3314 12.9589 14.4153 12.957 14.4997C12.9551 14.5841 12.936 14.6672 12.901 14.7439C12.8659 14.8207 12.8156 14.8896 12.7532 14.9463L11.7188 15.9806C11.4162 16.2867 11.2465 16.6997 11.2465 17.1301C11.2465 17.5605 11.4162 17.9736 11.7188 18.2796C12.0247 18.5831 12.4382 18.7534 12.8691 18.7534C13.3 18.7534 13.7135 18.5831 14.0194 18.2796L15.0538 17.2469Z" fill="white"/>
</svg>
