<svg width="75" height="75" viewBox="0 0 75 75" fill="none" xmlns="http://www.w3.org/2000/svg">
<circle cx="37.5" cy="37.5" r="37.5" fill="#EFF3FF"/>
<path d="M24.4868 43.4476C24.4868 46.063 22.3745 48.1769 19.7613 48.1769C17.1479 48.1769 15.0356 46.063 15.0356 43.4476C15.0356 40.8321 17.1479 38.7183 19.7613 38.7183H24.4868V43.4476Z" fill="#E01E5A"/>
<path d="M26.8496 43.4476C26.8496 40.8321 28.9617 38.7183 31.5751 38.7183C34.1885 38.7183 36.3005 40.8321 36.3005 43.4476V55.2708C36.3005 57.8862 34.1885 60.0001 31.5751 60.0001C28.9617 60.0001 26.8496 57.8862 26.8496 55.2708V43.4476Z" fill="#E01E5A"/>
<path d="M31.5753 24.4586C28.9619 24.4586 26.8499 22.3448 26.8499 19.7293C26.8499 17.1139 28.9619 15 31.5753 15C34.1887 15 36.3008 17.1139 36.3008 19.7293V24.4586H31.5753Z" fill="#36C5F0"/>
<path d="M31.5752 26.8594C34.1886 26.8594 36.3007 28.9732 36.3007 31.5887C36.3007 34.2041 34.1886 36.318 31.5752 36.318H19.7255C17.1123 36.318 15 34.2041 15 31.5887C15 28.9732 17.1123 26.8594 19.7255 26.8594H31.5752Z" fill="#36C5F0"/>
<path d="M50.5129 31.5887C50.5129 28.9732 52.625 26.8594 55.2384 26.8594C57.8518 26.8594 59.9641 28.9732 59.9641 31.5887C59.9641 34.2041 57.8518 36.318 55.2384 36.318H50.5129V31.5887Z" fill="#2EB67D"/>
<path d="M48.1501 31.5884C48.1501 34.2039 46.0381 36.3177 43.4247 36.3177C40.8112 36.3177 38.699 34.2039 38.699 31.5884V19.7293C38.699 17.1139 40.8112 15 43.4247 15C46.0381 15 48.1501 17.1139 48.1501 19.7293V31.5884Z" fill="#2EB67D"/>
<path d="M43.4247 50.5415C46.0381 50.5415 48.1501 52.6554 48.1501 55.2708C48.1501 57.8863 46.0381 60.0001 43.4247 60.0001C40.8112 60.0001 38.699 57.8863 38.699 55.2708V50.5415H43.4247Z" fill="#ECB22E"/>
<path d="M43.4247 48.1769C40.8112 48.1769 38.699 46.063 38.699 43.4476C38.699 40.8321 40.8112 38.7183 43.4247 38.7183H55.2742C57.8876 38.7183 59.9999 40.8321 59.9999 43.4476C59.9999 46.063 57.8876 48.1769 55.2742 48.1769H43.4247Z" fill="#ECB22E"/>
</svg>
