<svg width="100" height="100" viewBox="0 0 100 100" fill="none" xmlns="http://www.w3.org/2000/svg">
<rect width="100" height="100" rx="50" fill="#D9E7FF"/>
<path d="M49.9999 87.0001C48.9277 87.0001 48.0518 86.1318 48.0518 85.052V73.3705C48.0518 72.2983 48.9201 71.4224 49.9999 71.4224C51.0722 71.4224 51.9481 72.2907 51.9481 73.3705V85.052C51.9481 86.1318 51.0722 87.0001 49.9999 87.0001Z" fill="#0162FF"/>
<path d="M49.9999 28.5778C48.9277 28.5778 48.0518 27.7094 48.0518 26.6296V14.9482C48.0518 13.8759 48.9201 13 49.9999 13C51.0722 13 51.9481 13.8684 51.9481 14.9482V26.6296C51.9481 27.7094 51.0722 28.5778 49.9999 28.5778Z" fill="#0162FF"/>
<path d="M26.6296 51.9481H14.9482C13.8684 51.9481 13 51.0722 13 49.9999C13 48.9277 13.8684 48.0518 14.9482 48.0518H26.6296C27.7018 48.0518 28.5778 48.9201 28.5778 49.9999C28.5778 51.0722 27.7094 51.9481 26.6296 51.9481Z" fill="#0162FF"/>
<path d="M85.052 51.9481H73.3705C72.2983 51.9481 71.4224 51.0797 71.4224 49.9999C71.4224 48.9277 72.2907 48.0518 73.3705 48.0518H85.052C86.1242 48.0518 87.0001 48.9201 87.0001 49.9999C87.0001 51.0722 86.1318 51.9481 85.052 51.9481Z" fill="#0162FF"/>
<path d="M25.2175 76.7305C24.7191 76.7305 24.2208 76.5417 23.8432 76.1641C23.0806 75.4015 23.0806 74.1707 23.8432 73.408L32.104 65.1472C32.8667 64.3845 34.0975 64.3845 34.8602 65.1472C35.6228 65.9098 35.6228 67.1407 34.8602 67.9033L26.5918 76.1641C26.2143 76.5417 25.7159 76.7305 25.2175 76.7305Z" fill="#0162FF"/>
<path d="M66.5217 35.4265C66.0233 35.4265 65.525 35.2377 65.1474 34.8526C64.3848 34.0899 64.3848 32.8591 65.1474 32.0965L73.4082 23.8357C74.1709 23.073 75.4017 23.073 76.1644 23.8357C76.927 24.5983 76.927 25.8291 76.1644 26.5918L67.9036 34.8526C67.5184 35.2302 67.0201 35.4265 66.5217 35.4265Z" fill="#0162FF"/>
<path d="M33.4783 35.4265C32.9799 35.4265 32.4816 35.2377 32.104 34.8526L23.8357 26.5918C23.073 25.8291 23.073 24.5983 23.8357 23.8357C24.5983 23.073 25.8291 23.073 26.5918 23.8357L34.8526 32.0965C35.6153 32.8591 35.6153 34.0899 34.8526 34.8526C34.475 35.2302 33.9767 35.4265 33.4783 35.4265Z" fill="#0162FF"/>
<path d="M74.7825 76.7305C74.2842 76.7305 73.7858 76.5417 73.4082 76.1641L65.1474 67.9033C64.3848 67.1407 64.3848 65.9098 65.1474 65.1472C65.9101 64.3845 67.1409 64.3845 67.9036 65.1472L76.1644 73.408C76.927 74.1707 76.927 75.4015 76.1644 76.1641C75.7793 76.5417 75.2809 76.7305 74.7825 76.7305Z" fill="#0162FF"/>
<path d="M50.0001 68.4772C39.8137 68.4772 31.5227 60.1861 31.5227 49.9998C31.5227 39.8135 39.8137 31.5225 50.0001 31.5225C60.1864 31.5225 68.4774 39.8135 68.4774 49.9998C68.4774 60.1861 60.1864 68.4772 50.0001 68.4772ZM50.0001 35.4188C41.9582 35.4188 35.419 41.958 35.419 49.9998C35.419 58.0416 41.9582 64.5808 50.0001 64.5808C58.0419 64.5808 64.5811 58.0416 64.5811 49.9998C64.5811 41.958 58.0419 35.4188 50.0001 35.4188Z" fill="#0162FF"/>
</svg>
