<svg width="25" height="26" viewBox="0 0 25 26" fill="none" xmlns="http://www.w3.org/2000/svg">
<path d="M11.6448 1.16722C11.4478 1.26278 10.8866 1.6032 10.403 1.92569L9.51941 2.51097L8.70151 2.45722C8.25375 2.42736 7.61494 2.40347 7.28659 2.40944C6.7433 2.40944 6.65375 2.42736 6.37316 2.58264C5.96719 2.80361 5.80599 3.03056 5.19704 4.225C4.92241 4.76847 4.64779 5.25819 4.58809 5.31194C4.52839 5.36569 4.05078 5.62847 3.52541 5.89125C2.3672 6.47055 2.13437 6.6318 1.91347 7.04389C1.75228 7.33055 1.74034 7.41417 1.73437 7.95764C1.73437 8.28611 1.75825 8.92514 1.7881 9.37305L1.84183 10.1912L1.25676 11.0751C0.0328811 12.9265 0.026911 13.0818 1.21497 14.8735C1.51944 15.3274 1.78213 15.7693 1.80004 15.8529C1.82392 15.9425 1.80601 16.48 1.76422 17.0474C1.68064 18.2657 1.71049 18.6061 1.94332 19.0182C2.15228 19.3885 2.44481 19.5856 3.61496 20.1708C4.09257 20.4097 4.52839 20.6486 4.59406 20.7024C4.65376 20.7561 4.9045 21.1981 5.14928 21.6937C5.75226 22.9001 5.94928 23.1868 6.31942 23.3958C6.73136 23.6287 7.0836 23.6646 8.30151 23.575C8.86867 23.5332 9.40598 23.5153 9.48359 23.5392C9.56717 23.5571 10.009 23.8199 10.4627 24.1244C11.603 24.8829 11.9373 25.0262 12.409 24.9964C12.8627 24.9665 13.1254 24.8411 14.2298 24.1065C14.6657 23.8139 15.0955 23.5571 15.1791 23.5392C15.2567 23.5153 15.794 23.5332 16.3612 23.575C17.5851 23.6646 17.9313 23.6347 18.3492 23.3899C18.7253 23.1749 18.8806 22.9479 19.5134 21.6937C19.7582 21.1981 20.0089 20.7561 20.0686 20.7024C20.1343 20.6486 20.6119 20.3858 21.1373 20.1231C22.3194 19.5258 22.5224 19.3825 22.7492 18.9704C22.9104 18.6718 22.9223 18.6001 22.9283 18.0507C22.9283 17.7222 22.9044 17.0832 22.8746 16.6353L22.8209 15.8171L23.4059 14.9332C24.1582 13.7985 24.3313 13.4342 24.3313 13.0042C24.3313 12.5682 24.1701 12.2397 23.4238 11.111L22.8209 10.1972L22.8746 9.37903C22.9044 8.92514 22.9283 8.28611 22.9283 7.95764C22.9223 7.41417 22.9104 7.33055 22.7492 7.04389C22.5283 6.63778 22.3015 6.47653 21.1074 5.86736C20.5641 5.59264 20.0746 5.32389 20.0209 5.25819C19.9671 5.19847 19.7104 4.72069 19.4477 4.19514C18.8627 3.03653 18.6955 2.80361 18.2895 2.58264C18.0089 2.42736 17.9194 2.40944 17.3761 2.40944C17.0477 2.40347 16.4089 2.42736 15.9612 2.45722L15.1433 2.51097L14.2597 1.92569C13.1313 1.17319 12.7612 1 12.3313 1C12.0925 1 11.9015 1.04778 11.6448 1.16722ZM12.5881 2.52889C12.6896 2.58264 13.1493 2.88125 13.603 3.18583C14.7313 3.95028 14.7791 3.96222 16.2358 3.86667C16.8686 3.81889 17.4477 3.80694 17.5373 3.82486C17.6686 3.86069 17.7821 4.03986 18.2656 4.98944C18.6179 5.68819 18.9104 6.18389 19.0418 6.30931C19.1552 6.41681 19.7522 6.76917 20.3731 7.08569L21.4955 7.65903L21.4895 8.22639C21.4895 8.53694 21.4776 9.18194 21.4597 9.65972C21.4298 10.6929 21.4358 10.7108 22.2 11.8217C22.8149 12.7175 22.9164 12.9146 22.8746 13.0997C22.8507 13.1774 22.5761 13.6253 22.2597 14.0911C21.4179 15.3453 21.4298 15.3094 21.4597 16.3486C21.4776 16.8264 21.4895 17.4714 21.4895 17.7819L21.4955 18.3493L20.3671 18.9286C19.7045 19.269 19.1552 19.5856 19.0358 19.711C18.9104 19.8304 18.594 20.3799 18.2537 21.0428L17.6746 22.1715L17.0776 22.1656C16.7492 22.1656 16.1045 22.1536 15.6448 22.1357C14.6478 22.1058 14.6895 22.0939 13.5672 22.8464C12.6 23.4974 12.4149 23.5929 12.2418 23.5511C12.1642 23.5332 11.6985 23.2465 11.203 22.9121C9.95523 22.0819 10.0209 22.1058 9.01792 22.1357C8.55822 22.1536 7.91345 22.1656 7.58509 22.1656L6.98808 22.1715L6.40898 21.0428C6.06868 20.3799 5.75226 19.8304 5.62689 19.711C5.50749 19.5856 4.95824 19.269 4.29555 18.9286L3.1672 18.3493L3.17317 17.7819C3.17317 17.4714 3.19108 16.8264 3.20302 16.3486C3.23287 15.3154 3.23287 15.3214 2.46869 14.1986C1.85377 13.2908 1.74631 13.0878 1.7881 12.9206C1.80601 12.8429 2.10452 12.3651 2.45078 11.8456C3.26869 10.6153 3.29854 10.5257 3.20302 9.30139C3.1075 7.94569 3.11347 7.79041 3.27466 7.64708C3.3463 7.57541 3.84182 7.30667 4.37913 7.03792C4.91047 6.76917 5.45376 6.45861 5.5851 6.33916C5.75823 6.17792 5.96719 5.83153 6.39107 4.99542C6.88062 4.03389 6.98808 3.86069 7.12539 3.82486C7.21494 3.80694 7.78211 3.81889 8.39106 3.86069C9.88956 3.96222 9.99105 3.93833 11.0955 3.16792C11.7105 2.74389 12.2239 2.43333 12.3194 2.43333C12.3612 2.43333 12.4806 2.47514 12.5881 2.52889Z" fill="#8E94A9" stroke="#8E94A9" stroke-width="0.5"/>
<path d="M10.7448 5.9352C7.88713 6.45045 5.58415 8.76907 5.07985 11.6365C4.97338 12.275 4.97338 13.4175 5.07985 14.056C5.46648 16.2402 6.90094 18.1556 8.90694 19.1469C9.88753 19.6285 10.8513 19.8525 12 19.8525C13.1711 19.8525 14.1237 19.6285 15.1379 19.1189C17.1327 18.1108 18.5391 16.2346 18.9202 14.056C19.0266 13.4175 19.0266 12.275 18.9202 11.6365C18.5391 9.48034 17.1327 7.58176 15.1771 6.59607C14.5551 6.28244 13.8491 6.04161 13.2103 5.9296C12.594 5.82319 11.35 5.82879 10.7448 5.9352ZM12.65 7.18972C13.9668 7.35774 15.1155 7.91219 16.0232 8.81948C18.2534 11.0541 18.259 14.644 16.0288 16.8731C13.8043 19.0965 10.1957 19.0965 7.97118 16.8675C6.07164 14.9745 5.75785 11.9614 7.23154 9.73237C8.43066 7.92339 10.5487 6.9265 12.65 7.18972Z" fill="#8E94A9"/>
<path d="M14.9335 10.3823C14.8678 10.4182 14.0317 11.2483 13.0702 12.2218L11.3323 13.9895L10.5618 13.2012C9.93476 12.5502 9.76157 12.4069 9.57643 12.377C9.02101 12.2755 8.56115 12.8787 8.81796 13.3804C8.85379 13.452 9.35546 13.9895 9.93476 14.5689C11.0277 15.6737 11.1591 15.7573 11.5293 15.6677C11.6727 15.6319 15.7039 11.6245 15.8413 11.3737C15.9428 11.1945 15.9368 10.884 15.8293 10.675C15.6741 10.3704 15.2262 10.227 14.9335 10.3823Z" fill="#8E94A9"/>
</svg>
