<svg width="24" height="24" viewBox="0 0 24 24" fill="none" xmlns="http://www.w3.org/2000/svg">
<path d="M22 0H2C0.89543 0 0 0.89543 0 2V22C0 23.1046 0.89543 24 2 24H22C23.1046 24 24 23.1046 24 22V2C24 0.89543 23.1046 0 22 0Z" fill="white"/>
<path d="M12.4289 12.4211V12.5711H12.5789H15.9474C17.2598 12.5711 18.3237 13.6349 18.3237 14.9474V17.4737C18.3237 18.7861 17.2598 19.85 15.9474 19.85H7.52632C6.21391 19.85 5.15 18.7861 5.15 17.4737V9.05263C5.15 7.74023 6.21392 6.67632 7.52632 6.67632H10.0526C11.3651 6.67632 12.4289 7.74023 12.4289 9.05263V12.4211ZM10.8947 12.5711H11.0447V12.4211V9.05263C11.0447 8.50471 10.6006 8.06053 10.0526 8.06053H7.52632C6.9784 8.06053 6.53421 8.50471 6.53421 9.05263V12.4211V12.5711H6.68421H10.8947ZM6.68421 13.9553H6.53421V14.1053V17.4737C6.53421 18.0216 6.9784 18.4658 7.52632 18.4658H10.8947H11.0447V18.3158V14.1053V13.9553H10.8947H6.68421ZM12.4289 18.3158V18.4658H12.5789H15.9474C16.4953 18.4658 16.9395 18.0216 16.9395 17.4737V14.9474C16.9395 14.3994 16.4953 13.9553 15.9474 13.9553H12.5789H12.4289V14.1053V18.3158ZM16.7895 5.53421C16.2415 5.53421 15.7974 5.9784 15.7974 6.52632V8.21053C15.7974 8.75844 16.2415 9.20263 16.7895 9.20263H18.4737C19.0216 9.20263 19.4658 8.75844 19.4658 8.21053V6.52632C19.4658 5.9784 19.0216 5.53421 18.4737 5.53421H16.7895ZM14.4132 6.52632C14.4132 5.21391 15.477 4.15 16.7895 4.15H18.4737C19.7861 4.15 20.85 5.21391 20.85 6.52632V8.21053C20.85 9.52293 19.7861 10.5868 18.4737 10.5868H16.7895C15.477 10.5868 14.4132 9.52293 14.4132 8.21053V6.52632Z" fill="#00072E" stroke="white" stroke-width="0.3"/>
</svg>
