<svg width="24" height="24" viewBox="0 0 24 24" fill="none" xmlns="http://www.w3.org/2000/svg">
<path d="M9.26067 22.4162C9.26067 22.8424 9.11022 23.206 8.80515 23.5027C8.50009 23.7994 8.13234 23.9457 7.70608 23.9457H1.52951C1.10326 23.9457 0.739682 23.7994 0.442973 23.5027C0.146264 23.206 0 22.8424 0 22.4162V16.2229C0 15.7966 0.146264 15.4331 0.442973 15.1363C0.739682 14.8396 1.10326 14.6934 1.52951 14.6934H7.7019C8.12816 14.6934 8.49591 14.8396 8.80097 15.1363C9.10604 15.4331 9.25649 15.7966 9.25649 16.2229L9.26067 22.4162ZM9.26067 10.0505C9.26067 10.4768 9.11022 10.8445 8.80515 11.1496C8.50009 11.4546 8.13234 11.6051 7.70608 11.6051H1.52951C1.10326 11.6051 0.739682 11.4546 0.442973 11.1496C0.146264 10.8445 0 10.4768 0 10.0505V3.87811C0 3.45185 0.146264 3.08828 0.442973 2.79157C0.739682 2.49486 1.10326 2.3486 1.52951 2.3486H7.7019C8.12816 2.3486 8.49591 2.49486 8.80097 2.79157C9.10604 3.08828 9.25649 3.45185 9.25649 3.87811L9.26067 10.0505ZM21.6054 22.4162C21.6054 22.8424 21.4592 23.206 21.1625 23.5027C20.8657 23.7994 20.5022 23.9457 20.0759 23.9457H13.8994C13.4731 23.9457 13.1053 23.7994 12.8003 23.5027C12.4952 23.206 12.3448 22.8424 12.3448 22.4162V16.2229C12.3448 15.7966 12.4952 15.4331 12.8003 15.1363C13.1053 14.8396 13.4731 14.6934 13.8994 14.6934H20.0717C20.498 14.6934 20.8616 14.8396 21.1583 15.1363C21.455 15.4331 21.6013 15.7966 21.6013 16.2229V22.4162H21.6054ZM23.5069 7.35922L18.9142 11.9478C18.584 12.2779 18.2037 12.4409 17.7649 12.4409C17.3303 12.4409 16.9458 12.2779 16.6157 11.9478L12.023 7.35922C11.7096 7.0458 11.5549 6.66968 11.5549 6.22253C11.5549 5.77956 11.7096 5.39091 12.023 5.06077L16.6157 0.468048C16.9458 0.154623 17.3261 0 17.7649 0C18.1995 0 18.584 0.154623 18.9142 0.468048L23.5069 5.06077C23.837 5.39091 24 5.77538 24 6.22253C24 6.66551 23.8328 7.0458 23.5069 7.35922Z" fill="#8E94A9"/>
</svg>
