<svg width="24" height="22" viewBox="0 0 24 22" fill="none" xmlns="http://www.w3.org/2000/svg">
<path d="M1.2 0C0.52 0 0 0.52 0 1.2V15.6C0 16.28 0 18 1.2 18H1.6V20.8C1.6 21.12 1.72016 21.4398 1.96016 21.6398C2.20016 21.8798 2.48 22 2.8 22H22.8C23.48 22 24 21.48 24 20.8V2.8C24 2.12 23.48 1.6 22.8 1.6H21V1.2C21 0.52 20.48 0 19.8 0H1.2ZM2 1.6C2.24 1.6 19.3 1.6 19.3 1.6C19.54 1.6 19.7 1.76 19.7 2V16.1C19.7 16.34 19.54 16.5 19.3 16.5H2C1.76 16.5 1.6 16.3 1.6 16.1C1.6 16.1 1.6 2.24 1.6 2C1.6 1.76 1.76 1.6 2 1.6ZM7 2.6C6.76 2.6 6.6 2.76 6.6 3V3.8C6.6 4.04 6.76 4.2 7 4.2C7.24 4.2 7.4 4.04 7.4 3.8V3C7.4 2.76 7.24 2.6 7 2.6ZM9.04531 3.10625C8.88781 3.0875 8.72984 3.17031 8.63984 3.32031L8.23984 4C8.15984 4.24 8.2 4.44016 8.4 4.56016C8.48 4.60016 8.56 4.64 8.6 4.6C8.72 4.6 8.88016 4.52 8.96016 4.4L9.36016 3.72031C9.48016 3.52031 9.44 3.28016 9.2 3.16016C9.15 3.13016 9.09781 3.1125 9.04531 3.10625ZM4.97188 3.14609C4.9175 3.15234 4.86 3.17 4.8 3.2C4.6 3.32 4.55984 3.56016 4.63984 3.76016L5.03984 4.43984C5.11984 4.55984 5.24 4.63984 5.4 4.63984C5.44 4.63984 5.52 4.64 5.6 4.6C5.8 4.48 5.84016 4.23984 5.76016 4.03984L5.36016 3.36016C5.27016 3.21016 5.135 3.12734 4.97188 3.14609ZM20.8699 2.8H22.4C22.64 2.8 22.8 2.96 22.8 3.2V19.76C22.8 20 22.64 20.16 22.4 20.16H3.4C3.28 20.16 3.20031 20.1197 3.12031 20.0397C3.04031 19.9597 3 19.88 3 19.76V18H19.8C21.4 18 21 16.28 21 15.6L20.8699 2.8ZM10.4352 4.56328C10.3827 4.56766 10.3297 4.58 10.2797 4.6L9.6 5C9.36 5.16 9.31984 5.4 9.43984 5.6C9.51984 5.72 9.64 5.8 9.8 5.8C9.88 5.8 9.92 5.76031 10 5.72031L10.6797 5.32031C10.8797 5.20031 10.9598 5.00016 10.8398 4.76016C10.7498 4.61016 10.5927 4.55016 10.4352 4.56328ZM3.60469 4.58047C3.44719 4.55234 3.29 4.62 3.2 4.8C3.08 5 3.16031 5.24016 3.32031 5.36016L4 5.76016C4.08 5.80016 4.15984 5.8 4.23984 5.8C4.39984 5.8 4.52 5.72 4.6 5.6C4.72 5.4 4.63984 5.15984 4.43984 5.03984L3.76016 4.63984C3.71016 4.60984 3.65719 4.58984 3.60469 4.58047ZM7.03984 5C5.91984 5 5.03984 5.88 5.03984 7C5.03984 8.12 5.91984 9 7.03984 9C8.15984 9 9.03984 8.12 9.03984 7C9.03984 5.88 8.15984 5 7.03984 5ZM7.03984 5.67969C7.75984 5.67969 8.36016 6.28 8.36016 7C8.36016 7.72 7.75984 8.32031 7.03984 8.32031C6.31984 8.32031 5.72031 7.72 5.72031 7C5.72031 6.28 6.31984 5.67969 7.03984 5.67969ZM3 6.6C2.76 6.6 2.6 6.76 2.6 7C2.6 7.24 2.76 7.4 3 7.4H3.8C4.04 7.4 4.2 7.24 4.2 7C4.2 6.76 4.04 6.6 3.8 6.6H3ZM10.2 6.6C9.96 6.6 9.8 6.76 9.8 7C9.8 7.24 9.96 7.4 10.2 7.4H11C11.24 7.4 11.4 7.24 11.4 7C11.4 6.76 11.24 6.6 11 6.6H10.2ZM4.18906 8.20234C4.13969 8.20734 4.08984 8.21984 4.03984 8.23984L3.36016 8.63984C3.16016 8.75984 3.08 8.96 3.2 9.2C3.28 9.32 3.40016 9.4 3.56016 9.4C3.64016 9.4 3.68016 9.36031 3.76016 9.32031L4.43984 8.92031C4.63984 8.80031 4.72 8.60016 4.6 8.36016C4.48 8.24016 4.33719 8.18734 4.18906 8.20234ZM9.80469 8.22031C9.64719 8.19219 9.49 8.25984 9.4 8.43984C9.32 8.59984 9.36016 8.84016 9.56016 8.96016L10.2398 9.36016C10.3198 9.40016 10.3598 9.43984 10.4398 9.43984C10.5998 9.43984 10.72 9.35984 10.8 9.23984C10.92 9.03984 10.8398 8.79969 10.6398 8.67969L9.96016 8.27969C9.91016 8.24969 9.85719 8.22969 9.80469 8.22031ZM5.44531 9.38594C5.28781 9.36719 5.12984 9.45 5.03984 9.6L4.63984 10.2797C4.51984 10.4797 4.56 10.7198 4.8 10.8398C4.88 10.8798 4.96 10.9197 5 10.8797C5.12 10.8797 5.28016 10.7997 5.36016 10.6797L5.76016 10C5.84016 9.76 5.8 9.55984 5.6 9.43984C5.55 9.40984 5.49781 9.39219 5.44531 9.38594ZM8.57187 9.38594C8.5175 9.39219 8.46 9.40984 8.4 9.43984C8.2 9.55984 8.15984 9.8 8.23984 10L8.63984 10.6797C8.71984 10.7997 8.84 10.8797 9 10.8797C9.04 10.8797 9.12 10.8798 9.2 10.8398C9.4 10.7198 9.44016 10.4797 9.36016 10.2797L8.96016 9.6C8.87016 9.45 8.735 9.36719 8.57187 9.38594ZM16.1798 9.77016C15.8698 9.77016 15.56 9.87984 15.34 10.0998L13 12.4398L11.6398 11.0797C11.1998 10.5997 10.4402 10.5997 9.96016 11.0797L8.63984 14.4H7.2C6.96 14.4 6.8 14.56 6.8 14.8C6.8 15.04 7 15.2 7.2 15.2H18.4C18.6 15.2 18.8 15.04 18.8 14.8C18.8 14.56 18.6 14.4 18.4 14.4H12.1602L15.9002 10.66C16.0602 10.5 16.2995 10.5 16.4595 10.66L17.1002 13.2998C17.2602 13.4598 17.4995 13.4598 17.6595 13.2998C17.8195 13.1398 17.8195 12.9005 17.6595 12.7405L17.0197 10.0998C16.7997 9.87984 16.4898 9.77016 16.1798 9.77016ZM7 9.8C6.76 9.8 6.6 9.96 6.6 10.2V11C6.6 11.24 6.76 11.4 7 11.4C7.24 11.4 7.4 11.24 7.4 11V10.2C7.4 9.96 7.24 9.8 7 9.8ZM10.8 11.5203C10.9 11.5203 10.9997 11.5598 11.0797 11.6398L12.4398 13L11.0398 14.4H9.76016L10.5203 11.6398C10.6003 11.5598 10.7 11.5203 10.8 11.5203ZM3 14.4C2.76 14.4 2.6 14.56 2.6 14.8C2.6 15.04 2.76 15.2 3 15.2H4.6C4.84 15.2 5 15.04 5 14.8C5 14.56 4.84 14.4 4.6 14.4H3Z" fill="#8E94A9"/>
</svg>
