<svg width="24" height="24" viewBox="0 0 24 24" fill="none" xmlns="http://www.w3.org/2000/svg">
<path d="M22 0H2C0.89543 0 0 0.89543 0 2V22C0 23.1046 0.89543 24 2 24H22C23.1046 24 24 23.1046 24 22V2C24 0.89543 23.1046 0 22 0Z" fill="white"/>
<path d="M4.00001 4.80003V19.1969C3.99831 19.6388 4.35502 19.9984 4.79711 20H19.1982C19.7808 20.0026 20.0025 19.7749 20 19.2015C20 14.6714 20 10.1342 20 5.60159C20.0025 5.15917 19.6454 4.79867 19.2029 4.79691H16.7975C16.3549 4.79867 15.9978 5.15916 16.0004 5.60159V18.4H15.197V10.4016C15.1987 9.95976 14.8418 9.60022 14.3999 9.59845H12.0023C11.5573 9.59589 11.1957 9.95671 11.1974 10.4016V18.4H10.4003V15.1969C10.3985 14.7551 10.0389 14.3983 9.59694 14.4H7.19937C6.75743 14.3983 6.39778 14.7551 6.39601 15.1969V18.4H5.60047V4.80003C5.61377 3.74378 4.01479 3.72291 4.00001 4.80003Z" fill="#00072E"/>
</svg>
