<svg width="24" height="24" viewBox="0 0 24 24" fill="none" xmlns="http://www.w3.org/2000/svg">
<path d="M22 0H2C0.89543 0 0 0.89543 0 2V22C0 23.1046 0.89543 24 2 24H22C23.1046 24 24 23.1046 24 22V2C24 0.89543 23.1046 0 22 0Z" fill="white"/>
<path d="M18.1796 7.3765L18.1324 7.33741L18.0772 7.31086L12.4619 4.61002C12.3217 4.521 12.1705 4.5 12.061 4.5C11.9249 4.5 11.7902 4.53126 11.669 4.58147L11.6573 4.58632L11.6459 4.59175L5.92497 7.30983L5.86854 7.33663L5.82045 7.3765C5.81764 7.37883 5.81435 7.3815 5.81063 7.38452C5.73779 7.44366 5.5 7.63674 5.5 7.99277C5.5 8.3488 5.73779 8.54188 5.81063 8.60102C5.81435 8.60404 5.81764 8.60672 5.82045 8.60904L5.86761 8.64813L5.92281 8.67469L11.574 11.3928L11.6767 11.4422H11.6802L11.7499 11.5L11.9302 11.5L11.9302 11C11.9302 11.5 11.9303 11.5 11.9304 11.5H11.9306L11.9311 11.5L11.932 11.5L11.934 11.5L11.9387 11.4999L11.951 11.4997C11.9604 11.4994 11.9724 11.4989 11.9865 11.4979C12.0126 11.4961 12.0543 11.4922 12.1015 11.4824C12.1406 11.4743 12.2252 11.4542 12.312 11.4002C12.3336 11.3868 12.3592 11.3685 12.3858 11.345L17.9025 8.69158C18.055 8.64259 18.1878 8.5661 18.2916 8.46292C18.394 8.36103 18.5 8.19764 18.5 7.99277C18.5 7.63674 18.2622 7.44366 18.1894 7.38452C18.1856 7.3815 18.1824 7.37883 18.1796 7.3765Z" fill="white" stroke="#00072E"/>
<path d="M11.8376 12.8507L5.5439 10.0448C5.3885 9.98507 5.2331 9.98507 5.1554 10.0448C5.0777 10.1045 5 10.2239 5 10.2836V15.8955C5 16.0149 5.0777 16.0746 5.1554 16.1343L11.4491 18.9403C11.5268 18.9403 11.6045 19 11.6045 19C11.6045 19 11.7599 19 11.7599 18.9403C11.8376 18.8806 11.9153 18.8209 11.9153 18.7015V13.0896C12.0707 12.9701 11.993 12.9104 11.8376 12.8507Z" fill="#00072E"/>
<path d="M18.8893 10.0448C18.811 9.98507 18.6544 9.98507 18.4978 10.0448L12.1566 12.8507C12.0783 12.9104 12 12.9701 12 13.0896V18.7015C12 18.8209 12.0783 18.8806 12.1566 18.9403C12.2349 18.9403 12.3131 19 12.3131 19C12.3131 19 12.4697 19 12.4697 18.9403L18.811 16.1343C18.8893 16.0746 18.9676 16.0149 18.9676 15.8955V10.2836C19.0459 10.2239 18.9676 10.1045 18.8893 10.0448Z" fill="#00072E"/>
</svg>
