<svg width="23" height="24" viewBox="0 0 23 24" fill="none" xmlns="http://www.w3.org/2000/svg">
<path d="M5.86717 3.00463C2.85075 4.65567 0.297072 6.05533 0.194239 6.10675L0 6.20387L5.69007 9.32313L11.3859 12.4424L17.0702 9.32884C22.349 6.43239 22.7489 6.20387 22.6289 6.13531C22.5546 6.10104 20.001 4.70137 16.956 3.0332C13.911 1.36502 11.403 -0.000367817 11.3859 -0.000367817C11.363 -0.000367817 8.8836 1.3536 5.86717 3.00463Z" fill="#8E94A9"/>
<path d="M1.96505 10.9284C0.919585 11.4997 0.0683594 11.9796 0.0683594 11.9967C0.0683594 12.0138 2.61632 13.4249 5.72416 15.1274L11.3857 18.2295L17.0357 15.1274C20.1493 13.4249 22.6915 12.0138 22.6915 11.9967C22.6915 11.951 18.9839 9.9229 18.8982 9.9229C18.8639 9.9229 17.1614 10.8427 15.1105 11.9624L11.3857 14.0076L7.65512 11.9624C5.60418 10.8427 3.90744 9.91719 3.89031 9.90576C3.87317 9.89434 3.0048 10.3571 1.96505 10.9284Z" fill="#8E94A9"/>
<path d="M1.93668 16.7274L0 17.7901L0.165675 17.87C0.251369 17.9157 2.73649 19.2754 5.69007 20.8922C8.63794 22.5089 11.1288 23.8686 11.2316 23.9143L11.4087 24L16.9502 20.9664C20.001 19.2925 22.5546 17.8929 22.6289 17.8586C22.7546 17.7901 22.6346 17.7158 20.8579 16.7389C19.8067 16.1676 18.9269 15.6934 18.8926 15.6991C18.8641 15.6991 17.1673 16.6132 15.1335 17.7329C13.094 18.8527 11.4087 19.7667 11.3859 19.7667C11.3516 19.7667 5.49583 16.5789 4.1533 15.8305L3.86765 15.6706L1.93668 16.7274Z" fill="#8E94A9"/>
</svg>
