<svg width="24" height="24" viewBox="0 0 24 24" fill="none" xmlns="http://www.w3.org/2000/svg">
<path d="M22 0H2C0.89543 0 0 0.89543 0 2V22C0 23.1046 0.89543 24 2 24H22C23.1046 24 24 23.1046 24 22V2C24 0.89543 23.1046 0 22 0Z" fill="white"/>
<path d="M17.1432 11.4362C17.1432 11.0182 16.8047 10.681 16.388 10.681C15.9701 10.681 15.6328 11.0195 15.6328 11.4362C15.6328 12.9245 15.276 14.1536 14.5534 14.974C13.8984 15.7161 12.9089 16.1445 11.5716 16.1445C10.2344 16.1445 9.24479 15.7174 8.58984 14.9753C7.86589 14.1549 7.51042 12.9258 7.51042 11.4362C7.51042 11.0182 7.17187 10.681 6.75521 10.681C6.33724 10.681 6 11.0195 6 11.4362C6 13.2917 6.48047 14.8646 7.45703 15.9727C8.17578 16.7878 9.14453 17.3398 10.3646 17.5547V18.7943H8.51302C8.18229 18.7943 7.91146 19.0651 7.91146 19.3958V19.9987H15.2344V19.3958C15.2344 19.0651 14.9635 18.7943 14.6328 18.7943H12.7773V17.5547C13.9974 17.3385 14.9648 16.7878 15.6849 15.9714C16.6615 14.8646 17.1432 13.2917 17.1432 11.4362ZM11.5703 4C13.112 4 14.3724 5.26172 14.3724 6.80208V6.875H12.8659V8.66016H14.3737V9.56901H12.8659V11.3542H14.3737V11.9961C14.3737 13.5378 13.112 14.7982 11.5716 14.7982C10.0299 14.7982 8.76953 13.5365 8.76953 11.9961V11.3542H10.2773V9.56901H8.76823V8.66016H10.276V6.875H8.76823V6.80208C8.76823 5.26172 10.0286 4 11.5703 4Z" fill="#00072E"/>
</svg>
