<svg width="17" height="15" viewBox="0 0 17 15" fill="none" xmlns="http://www.w3.org/2000/svg">
<path fill-rule="evenodd" clip-rule="evenodd" d="M15.7001 8.2499H6.10007V6.6499H15.7001V8.2499Z" fill="#8E94A9"/>
<path fill-rule="evenodd" clip-rule="evenodd" d="M13.4658 4.08447L16.2658 6.88446C16.5782 7.19686 16.5782 7.70342 16.2658 8.01582L13.4658 10.8158L12.3344 9.68446L14.5687 7.45014L12.3344 5.21584L13.4658 4.08447Z" fill="#8E94A9"/>
<path fill-rule="evenodd" clip-rule="evenodd" d="M11.7001 1.05C11.7001 0.608176 11.3419 0.25 10.9001 0.25H1.30007C0.858233 0.25 0.500073 0.608176 0.500073 1.05V13.85C0.500073 14.2918 0.858233 14.65 1.30007 14.65H10.9001C11.3419 14.65 11.7001 14.2918 11.7001 13.85V11.45H10.1001V13.05H2.10007V1.85H10.1001V3.45H11.7001V1.05Z" fill="#8E94A9"/>
</svg>
