<svg width="24" height="24" viewBox="0 0 24 24" fill="none" xmlns="http://www.w3.org/2000/svg">
<path d="M22 0H2C0.89543 0 0 0.89543 0 2V22C0 23.1046 0.89543 24 2 24H22C23.1046 24 24 23.1046 24 22V2C24 0.89543 23.1046 0 22 0Z" fill="white"/>
<path fill-rule="evenodd" clip-rule="evenodd" d="M8.05469 16.2253C8.51563 16.2253 8.88932 16.6003 8.88932 17.0599C8.88932 17.5221 8.51432 17.8958 8.05469 17.8958C7.59245 17.8958 7.21875 17.5208 7.21875 17.0599C7.22005 16.599 7.59375 16.2253 8.05469 16.2253ZM17.5091 19.9987H5.7474V20C5.54427 20 5.35677 19.9154 5.22005 19.7799V19.7786H5.21875L5.21745 19.7773C5.08333 19.6419 5 19.4557 5 19.2526V6.63542C5 6.42969 5.08464 6.24219 5.22005 6.10677C5.35547 5.97135 5.54297 5.88672 5.7487 5.88672H7.69141V5.51953C7.69141 5.38281 7.7474 5.25781 7.83854 5.16667L7.83984 5.16536L7.84115 5.16406C7.93229 5.07422 8.05729 5.01823 8.19401 5.01823H9.34115V4.55599C9.34115 4.40365 9.40365 4.26563 9.50391 4.16406L9.50521 4.16276C9.60547 4.0625 9.74349 4 9.89583 4H13.3971C13.5495 4 13.6875 4.0625 13.7891 4.16406L13.7904 4.16276C13.8906 4.26302 13.9531 4.40234 13.9531 4.55599V5.01953H14.987C15.1237 5.01953 15.2487 5.07552 15.3398 5.16667L15.3411 5.16797L15.3424 5.16927L15.3438 5.17057C15.4336 5.26172 15.4896 5.38672 15.4896 5.52344V5.89063H17.4323C17.6367 5.89063 17.8242 5.97526 17.9596 6.11068L17.9609 6.10938C18.0964 6.24479 18.181 6.43229 18.181 6.63802V19.9987H17.5091C17.5091 14.78 17.5091 11.8541 17.5091 6.63542C17.5091 6.61458 17.5 6.59635 17.487 6.58203L17.4883 6.58073H17.487C17.474 6.56771 17.4544 6.5599 17.4336 6.5599H15.4909V7.23307C15.4909 7.36979 15.4349 7.49479 15.3438 7.58594H15.3424L15.3411 7.58724L15.3398 7.58854C15.2487 7.67839 15.1237 7.73438 14.987 7.73438H8.19271C8.05469 7.73438 7.92839 7.67839 7.83854 7.58724C7.82813 7.57682 7.81771 7.5651 7.8099 7.55339C7.73698 7.46615 7.69141 7.35286 7.69141 7.23177V6.55859H5.7474C5.72656 6.55859 5.70833 6.56771 5.69401 6.58073C5.67969 6.59505 5.67188 6.61328 5.67188 6.63411V19.25C5.67188 19.2708 5.67969 19.2904 5.69401 19.3034L5.69531 19.3047C5.70833 19.3177 5.72786 19.3268 5.7487 19.3268V19.3281L17.5078 19.3294V19.9987H17.5091ZM13.7148 5.6875C13.6758 5.6875 13.638 5.68099 13.6042 5.66797C13.4206 5.66797 13.2708 5.51823 13.2708 5.33464V4.67448H10.0234V5.33464C10.0234 5.50781 9.89193 5.64974 9.72135 5.66667C9.6849 5.67969 9.64583 5.6875 9.60677 5.6875H8.38542V7.04948H14.7969V5.6875H13.7148ZM11.1576 14.3451H8.42839V15.5391C8.42839 15.7448 8.26172 15.9115 8.05599 15.9115C7.85026 15.9115 7.68359 15.7448 7.68359 15.5391V14.0846C7.68359 14.0651 7.6849 14.0469 7.6875 14.0286C7.6849 14.0104 7.68359 13.9922 7.68359 13.9727C7.68359 13.7669 7.85026 13.6003 8.05599 13.6003H11.1367L11.125 12.5977C11.0508 12.5755 10.9766 12.5508 10.9036 12.5208C10.8307 12.4896 10.7604 12.457 10.6927 12.418L10.4609 12.6732C10.418 12.7174 10.3646 12.7396 10.3034 12.7422C10.2422 12.7448 10.1875 12.7253 10.1419 12.6849L9.80208 12.3659C9.75651 12.3216 9.73047 12.2695 9.72787 12.2083C9.72526 12.1458 9.74609 12.0938 9.78906 12.0508L10.043 11.776C10.0039 11.7083 9.96745 11.638 9.9388 11.5664C9.90885 11.4948 9.88281 11.4193 9.86068 11.3424L9.52083 11.3555C9.45833 11.3581 9.40495 11.3372 9.35807 11.2943C9.3125 11.25 9.28906 11.1979 9.28646 11.1393L9.26823 10.6732C9.26563 10.6107 9.28516 10.5573 9.32682 10.5104C9.36979 10.4648 9.42057 10.4414 9.48438 10.4388L9.85547 10.4245C9.8776 10.3477 9.90234 10.2734 9.93229 10.2005C9.96224 10.1276 9.99609 10.0573 10.0352 9.98958L9.78385 9.75781C9.73828 9.71484 9.71224 9.66276 9.70964 9.60026C9.70703 9.53906 9.72786 9.48438 9.77083 9.4375L10.0833 9.09766C10.1276 9.05208 10.1784 9.02604 10.2409 9.02344C10.3034 9.02083 10.3555 9.04297 10.3984 9.08464L10.6784 9.33854C10.7422 9.30078 10.8099 9.26432 10.8828 9.23307C10.9544 9.20313 11.0299 9.17708 11.1068 9.15495L11.0938 8.8151C11.0911 8.7526 11.112 8.69922 11.1549 8.65234C11.1992 8.60677 11.2513 8.58333 11.3099 8.58073L11.776 8.5638C11.8385 8.5612 11.8919 8.58073 11.9388 8.6224C11.9844 8.66536 12.0078 8.71615 12.0104 8.77995L12.0247 9.15104C12.099 9.17318 12.1732 9.19792 12.2461 9.22787C12.319 9.25651 12.3893 9.29167 12.457 9.33073L12.6888 9.08073C12.7318 9.03516 12.7852 9.00911 12.8464 9.00651C12.9076 9.00391 12.9622 9.02474 13.0091 9.06771L13.0143 9.07162L13.3542 9.38411C13.3997 9.42839 13.4258 9.47917 13.4284 9.54167C13.431 9.60417 13.4089 9.65625 13.3672 9.69922L13.1133 9.97917C13.151 10.0456 13.1875 10.1133 13.2188 10.1875C13.2487 10.2617 13.2747 10.3346 13.2969 10.4089L13.6367 10.3958C13.6992 10.3932 13.7526 10.4141 13.7995 10.457C13.8451 10.5013 13.8685 10.5534 13.8711 10.612L13.8893 11.0781C13.8919 11.1406 13.8724 11.194 13.8307 11.2409C13.7878 11.2865 13.737 11.3099 13.6732 11.3125L13.3021 11.3268C13.2799 11.401 13.2552 11.4753 13.2253 11.5482C13.194 11.6211 13.1615 11.6914 13.1224 11.7591L13.3776 11.9909C13.4219 12.0339 13.444 12.0872 13.4466 12.1484C13.4492 12.2096 13.4297 12.263 13.3893 12.3099L13.0703 12.651C13.0299 12.6966 12.9779 12.7214 12.9154 12.7253C12.8529 12.7279 12.7995 12.707 12.7552 12.6641L12.4805 12.4102C12.4128 12.4492 12.3424 12.4857 12.2695 12.5143C12.1979 12.5443 12.1224 12.5703 12.0456 12.5924L12.0573 13.599H15.1315C15.3372 13.599 15.5039 13.7656 15.5039 13.9714C15.5039 13.9909 15.5026 14.0091 15.5 14.0273C15.5026 14.0456 15.5039 14.0638 15.5039 14.0833V15.5378C15.5039 15.7435 15.3372 15.9102 15.1315 15.9102C14.9258 15.9102 14.7591 15.7435 14.7591 15.5378V14.3451H12.0521V15.4193C12.0521 15.6667 11.8516 15.8672 11.6042 15.8672C11.3568 15.8672 11.1563 15.6667 11.1563 15.4193V14.3451H11.1576ZM11.5378 9.95833C11.6641 9.95313 11.7826 9.97135 11.8971 10.0156C12.0104 10.0599 12.1094 10.1198 12.1966 10.1992C12.2813 10.2786 12.3503 10.3737 12.4036 10.4831C12.457 10.5951 12.4844 10.7109 12.4896 10.8372C12.4948 10.9635 12.4753 11.082 12.4323 11.1966C12.388 11.3099 12.3268 11.4089 12.2487 11.4961C12.1693 11.5807 12.0742 11.6497 11.9648 11.7031C11.8555 11.7552 11.737 11.7839 11.6107 11.7891C11.4844 11.7943 11.3659 11.7747 11.2513 11.7318C11.138 11.6875 11.0391 11.6263 10.9518 11.5482C10.8672 11.4688 10.7982 11.3737 10.7448 11.2643C10.6927 11.1549 10.6641 11.0365 10.6589 10.9102C10.6536 10.7839 10.6732 10.6654 10.7161 10.5508C10.7604 10.4375 10.8216 10.3385 10.8997 10.2513C10.9792 10.1667 11.0742 10.0977 11.1836 10.0443C11.2956 9.99089 11.4128 9.96354 11.5378 9.95833ZM15.1263 16.2253C15.5885 16.2253 15.9622 16.6003 15.9622 17.0599C15.9622 17.5221 15.5872 17.8958 15.1263 17.8958C14.6654 17.8958 14.2917 17.5208 14.2917 17.0599C14.2904 16.599 14.6654 16.2253 15.1263 16.2253ZM11.5755 16.2253C12.0378 16.2253 12.4115 16.6003 12.4115 17.0599C12.4115 17.5221 12.0365 17.8958 11.5755 17.8958C11.1133 17.8958 10.7396 17.5208 10.7396 17.0599C10.7409 16.599 11.1146 16.2253 11.5755 16.2253Z" fill="#00072E"/>
<path d="M17.5091 19.9987H5.7474V20C5.54427 20 5.35677 19.9154 5.22005 19.7799V19.7786H5.21875L5.21745 19.7773C5.08333 19.6419 5 19.4557 5 19.2526V6.63542C5 6.42969 5.08464 6.24219 5.22005 6.10677C5.35547 5.97135 5.54297 5.88672 5.7487 5.88672H7.69141V5.51953C7.69141 5.38281 7.7474 5.25781 7.83854 5.16667L7.83984 5.16536L7.84115 5.16406C7.93229 5.07422 8.05729 5.01823 8.19401 5.01823H9.34115V4.55599C9.34115 4.40365 9.40365 4.26563 9.50391 4.16406L9.50521 4.16276C9.60547 4.0625 9.74349 4 9.89583 4H13.3971C13.5495 4 13.6875 4.0625 13.7891 4.16406L13.7904 4.16276C13.8906 4.26302 13.9531 4.40234 13.9531 4.55599V5.01953H14.987C15.1237 5.01953 15.2487 5.07552 15.3398 5.16667L15.3411 5.16797L15.3424 5.16927L15.3438 5.17057C15.4336 5.26172 15.4896 5.38672 15.4896 5.52344V5.89063H17.4323C17.6367 5.89063 17.8242 5.97526 17.9596 6.11068L17.9609 6.10938C18.0964 6.24479 18.181 6.43229 18.181 6.63802V19.9987H17.5091ZM17.5091 19.9987C17.5091 14.78 17.5091 11.8541 17.5091 6.63542C17.5091 6.61458 17.5 6.59635 17.487 6.58203L17.4883 6.58073H17.487C17.474 6.56771 17.4544 6.5599 17.4336 6.5599H15.4909V7.23307C15.4909 7.36979 15.4349 7.49479 15.3438 7.58594H15.3424L15.3411 7.58724L15.3398 7.58854C15.2487 7.67839 15.1237 7.73438 14.987 7.73438H8.19271C8.05469 7.73438 7.92839 7.67839 7.83854 7.58724C7.82813 7.57682 7.81771 7.5651 7.8099 7.55339C7.73698 7.46615 7.69141 7.35286 7.69141 7.23177V6.55859H5.7474C5.72656 6.55859 5.70833 6.56771 5.69401 6.58073C5.67969 6.59505 5.67188 6.61328 5.67188 6.63411V19.25C5.67188 19.2708 5.67969 19.2904 5.69401 19.3034L5.69531 19.3047C5.70833 19.3177 5.72786 19.3268 5.7487 19.3268V19.3281L17.5078 19.3294V19.9987H17.5091ZM8.05469 16.2253C8.51563 16.2253 8.88932 16.6003 8.88932 17.0599C8.88932 17.5221 8.51432 17.8958 8.05469 17.8958C7.59245 17.8958 7.21875 17.5208 7.21875 17.0599C7.22005 16.599 7.59375 16.2253 8.05469 16.2253ZM13.7148 5.6875C13.6758 5.6875 13.638 5.68099 13.6042 5.66797C13.4206 5.66797 13.2708 5.51823 13.2708 5.33464V4.67448H10.0234V5.33464C10.0234 5.50781 9.89193 5.64974 9.72135 5.66667C9.6849 5.67969 9.64583 5.6875 9.60677 5.6875H8.38542V7.04948H14.7969V5.6875H13.7148ZM11.1576 14.3451H8.42839V15.5391C8.42839 15.7448 8.26172 15.9115 8.05599 15.9115C7.85026 15.9115 7.68359 15.7448 7.68359 15.5391V14.0846C7.68359 14.0651 7.6849 14.0469 7.6875 14.0286C7.6849 14.0104 7.68359 13.9922 7.68359 13.9727C7.68359 13.7669 7.85026 13.6003 8.05599 13.6003H11.1367L11.125 12.5977C11.0508 12.5755 10.9766 12.5508 10.9036 12.5208C10.8307 12.4896 10.7604 12.457 10.6927 12.418L10.4609 12.6732C10.418 12.7174 10.3646 12.7396 10.3034 12.7422C10.2422 12.7448 10.1875 12.7253 10.1419 12.6849L9.80208 12.3659C9.75651 12.3216 9.73047 12.2695 9.72787 12.2083C9.72526 12.1458 9.74609 12.0938 9.78906 12.0508L10.043 11.776C10.0039 11.7083 9.96745 11.638 9.9388 11.5664C9.90885 11.4948 9.88281 11.4193 9.86068 11.3424L9.52083 11.3555C9.45833 11.3581 9.40495 11.3372 9.35807 11.2943C9.3125 11.25 9.28906 11.1979 9.28646 11.1393L9.26823 10.6732C9.26563 10.6107 9.28516 10.5573 9.32682 10.5104C9.36979 10.4648 9.42057 10.4414 9.48438 10.4388L9.85547 10.4245C9.8776 10.3477 9.90234 10.2734 9.93229 10.2005C9.96224 10.1276 9.99609 10.0573 10.0352 9.98958L9.78385 9.75781C9.73828 9.71484 9.71224 9.66276 9.70964 9.60026C9.70703 9.53906 9.72786 9.48438 9.77083 9.4375L10.0833 9.09766C10.1276 9.05208 10.1784 9.02604 10.2409 9.02344C10.3034 9.02083 10.3555 9.04297 10.3984 9.08464L10.6784 9.33854C10.7422 9.30078 10.8099 9.26432 10.8828 9.23307C10.9544 9.20313 11.0299 9.17708 11.1068 9.15495L11.0938 8.8151C11.0911 8.7526 11.112 8.69922 11.1549 8.65234C11.1992 8.60677 11.2513 8.58333 11.3099 8.58073L11.776 8.5638C11.8385 8.5612 11.8919 8.58073 11.9388 8.6224C11.9844 8.66536 12.0078 8.71615 12.0104 8.77995L12.0247 9.15104C12.099 9.17318 12.1732 9.19792 12.2461 9.22787C12.319 9.25651 12.3893 9.29167 12.457 9.33073L12.6888 9.08073C12.7318 9.03516 12.7852 9.00911 12.8464 9.00651C12.9076 9.00391 12.9622 9.02474 13.0091 9.06771L13.0143 9.07162L13.3542 9.38411C13.3997 9.42839 13.4258 9.47917 13.4284 9.54167C13.431 9.60417 13.4089 9.65625 13.3672 9.69922L13.1133 9.97917C13.151 10.0456 13.1875 10.1133 13.2188 10.1875C13.2487 10.2617 13.2747 10.3346 13.2969 10.4089L13.6367 10.3958C13.6992 10.3932 13.7526 10.4141 13.7995 10.457C13.8451 10.5013 13.8685 10.5534 13.8711 10.612L13.8893 11.0781C13.8919 11.1406 13.8724 11.194 13.8307 11.2409C13.7878 11.2865 13.737 11.3099 13.6732 11.3125L13.3021 11.3268C13.2799 11.401 13.2552 11.4753 13.2253 11.5482C13.194 11.6211 13.1615 11.6914 13.1224 11.7591L13.3776 11.9909C13.4219 12.0339 13.444 12.0872 13.4466 12.1484C13.4492 12.2096 13.4297 12.263 13.3893 12.3099L13.0703 12.651C13.0299 12.6966 12.9779 12.7214 12.9154 12.7253C12.8529 12.7279 12.7995 12.707 12.7552 12.6641L12.4805 12.4102C12.4128 12.4492 12.3424 12.4857 12.2695 12.5143C12.1979 12.5443 12.1224 12.5703 12.0456 12.5924L12.0573 13.599H15.1315C15.3372 13.599 15.5039 13.7656 15.5039 13.9714C15.5039 13.9909 15.5026 14.0091 15.5 14.0273C15.5026 14.0456 15.5039 14.0638 15.5039 14.0833V15.5378C15.5039 15.7435 15.3372 15.9102 15.1315 15.9102C14.9258 15.9102 14.7591 15.7435 14.7591 15.5378V14.3451H12.0521V15.4193C12.0521 15.6667 11.8516 15.8672 11.6042 15.8672C11.3568 15.8672 11.1563 15.6667 11.1563 15.4193V14.3451H11.1576ZM11.5378 9.95833C11.6641 9.95313 11.7826 9.97135 11.8971 10.0156C12.0104 10.0599 12.1094 10.1198 12.1966 10.1992C12.2813 10.2786 12.3503 10.3737 12.4036 10.4831C12.457 10.5951 12.4844 10.7109 12.4896 10.8372C12.4948 10.9635 12.4753 11.082 12.4323 11.1966C12.388 11.3099 12.3268 11.4089 12.2487 11.4961C12.1693 11.5807 12.0742 11.6497 11.9648 11.7031C11.8555 11.7552 11.737 11.7839 11.6107 11.7891C11.4844 11.7943 11.3659 11.7747 11.2513 11.7318C11.138 11.6875 11.0391 11.6263 10.9518 11.5482C10.8672 11.4688 10.7982 11.3737 10.7448 11.2643C10.6927 11.1549 10.6641 11.0365 10.6589 10.9102C10.6536 10.7839 10.6732 10.6654 10.7161 10.5508C10.7604 10.4375 10.8216 10.3385 10.8997 10.2513C10.9792 10.1667 11.0742 10.0977 11.1836 10.0443C11.2956 9.99089 11.4128 9.96354 11.5378 9.95833ZM15.1263 16.2253C15.5885 16.2253 15.9622 16.6003 15.9622 17.0599C15.9622 17.5221 15.5872 17.8958 15.1263 17.8958C14.6654 17.8958 14.2917 17.5208 14.2917 17.0599C14.2904 16.599 14.6654 16.2253 15.1263 16.2253ZM11.5755 16.2253C12.0378 16.2253 12.4115 16.6003 12.4115 17.0599C12.4115 17.5221 12.0365 17.8958 11.5755 17.8958C11.1133 17.8958 10.7396 17.5208 10.7396 17.0599C10.7409 16.599 11.1146 16.2253 11.5755 16.2253Z" stroke="#00072E" stroke-width="0.2"/>
</svg>
