<svg width="15" height="16" viewBox="0 0 15 16" fill="none" xmlns="http://www.w3.org/2000/svg">
<g clip-path="url(#clip0_1059_6318)">
<path d="M1.23684 0.682586C0.827041 0.765236 0.432241 1.07739 0.251791 1.46454L0.150391 1.67889V7.82588V13.9729L0.274441 14.2247C0.469891 14.6195 0.823291 14.8864 1.26699 14.9692C1.52259 15.0181 13.4782 15.0181 13.7338 14.9692C14.1737 14.8865 14.5609 14.5895 14.7488 14.1872L14.8504 13.9727V7.82574V1.67874L14.7263 1.42689C14.5309 1.02834 14.185 0.765235 13.745 0.682435C13.5007 0.637435 1.46994 0.637436 1.23684 0.682586ZM13.8353 1.31799C14.027 1.40454 14.215 1.61499 14.2639 1.79918C14.3165 1.98713 14.3203 13.6532 14.2676 13.8412C14.2187 14.0254 14.0195 14.251 13.8391 14.3336C13.6925 14.4013 13.4368 14.405 7.50039 14.405C1.56399 14.405 1.30839 14.4013 1.16169 14.3336C0.981241 14.251 0.782041 14.0254 0.733141 13.8412C0.680491 13.6532 0.684241 1.98713 0.736891 1.79918C0.785791 1.61499 0.973741 1.40439 1.16544 1.31799C1.30824 1.25034 1.59774 1.24659 7.50039 1.24659C13.403 1.24659 13.6924 1.25034 13.8353 1.31799Z" fill="#7D87A9"/>
<path d="M1.83455 2.22402C1.7894 2.24277 1.73675 2.29167 1.71425 2.33307C1.6841 2.38572 1.67285 3.75792 1.67285 6.78822V11.1682L1.77065 11.2434L1.8722 11.3223H7.5002H13.1284L13.2299 11.2434L13.3277 11.1682V6.77322C13.3277 2.50602 13.324 2.38197 13.2563 2.29557L13.1849 2.20527L7.54925 2.19777C4.3496 2.19402 1.8833 2.20527 1.83455 2.22402ZM12.7637 6.77322V10.7584H7.5002H2.2367V6.77322V2.78802H7.5002H12.7637V6.77322Z" fill="#7D87A9"/>
<path d="M2.38771 11.9954C2.20726 12.033 2.05306 12.1194 1.91026 12.2699C1.32751 12.8751 1.89151 13.9091 2.71486 13.7361C3.40291 13.5933 3.66976 12.8075 3.20731 12.2849C3.00421 12.0518 2.67721 11.939 2.38771 11.9954ZM2.77876 12.6795C2.89156 12.8111 2.89906 12.8637 2.82016 13.0104C2.76001 13.1307 2.69611 13.1645 2.53441 13.1645C2.40286 13.1645 2.23741 13.0178 2.23741 12.9014C2.23741 12.8036 2.33146 12.6119 2.39536 12.5894C2.53816 12.533 2.68471 12.5667 2.77876 12.6795Z" fill="#7D87A9"/>
<path d="M4.71866 11.9951C4.13216 12.1154 3.83141 12.7508 4.10966 13.2809C4.29761 13.6456 4.67741 13.8223 5.07581 13.7321C5.25251 13.6907 5.32766 13.6495 5.48936 13.4915C5.69996 13.2847 5.77136 13.1231 5.77136 12.8449C5.77136 12.6607 5.63231 12.3524 5.48561 12.217C5.29376 12.0401 4.97051 11.9462 4.71866 11.9951ZM5.08331 12.6455C5.19611 12.7733 5.21861 12.8824 5.15471 13.0064C5.09081 13.1342 5.02691 13.1644 4.85021 13.1644C4.69976 13.1644 4.56821 13.0216 4.56821 12.8561C4.56821 12.6041 4.91411 12.4651 5.08331 12.6455Z" fill="#7D87A9"/>
<path d="M7.40658 12.6006C7.30503 12.6382 7.24863 12.7096 7.21863 12.8337C7.19613 12.9163 7.21488 12.9577 7.30503 13.0518L7.41783 13.1646H10.2827H13.1438L13.2341 13.0705C13.3958 12.9126 13.3431 12.6757 13.1363 12.6043C12.9933 12.5554 7.52688 12.5479 7.40658 12.6006Z" fill="#7D87A9"/>
<path fill-rule="evenodd" clip-rule="evenodd" d="M7.50033 4.32715V9.32715V4.32715Z" fill="#7D87A9"/>
<path d="M7.50033 4.32715V9.32715" stroke="#7D87A9" stroke-width="0.7" stroke-linecap="round" stroke-linejoin="round"/>
<path fill-rule="evenodd" clip-rule="evenodd" d="M10 6.82764H5H10Z" fill="#7D87A9"/>
<path d="M10 6.82764H5" stroke="#7D87A9" stroke-width="0.7" stroke-linecap="round" stroke-linejoin="round"/>
</g>
<defs>
<clipPath id="clip0_1059_6318">
<rect width="15" height="15" fill="white" transform="translate(0 0.327637)"/>
</clipPath>
</defs>
</svg>
