<svg width="18" height="19" viewBox="0 0 18 19" fill="none" xmlns="http://www.w3.org/2000/svg">
<g clip-path="url(#clip0_1059_6314)">
<path d="M13.3219 9.78586L13.2855 9.78253L13.2492 9.78586L13.1722 9.79289L13.1547 9.79449L13.1374 9.79761C12.7978 9.85898 12.5317 10.1259 12.4704 10.4645L12.4673 10.4818L12.4657 10.4994L12.4586 10.5764L12.457 10.5945L12.457 10.6127L12.4567 12.3557L10.712 12.3562L10.6938 12.3562L10.6757 12.3579L10.5987 12.3649L10.5813 12.3665L10.564 12.3696C10.2247 12.431 9.95829 12.6973 9.89696 13.0367L9.89384 13.0539L9.89224 13.0714L9.88521 13.1484L9.88189 13.1848L9.88521 13.2212L9.89224 13.2982L9.89384 13.3156L9.89696 13.3329C9.95834 13.6725 10.2253 13.9386 10.5638 13.9999L10.5812 14.003L10.5987 14.0047L10.6757 14.0117L10.6939 14.0133L10.7122 14.0133L12.4578 14.0128L12.458 15.7593L12.458 15.7775L12.4597 15.7957L12.4667 15.8726L12.4683 15.8901L12.4715 15.9074C12.5328 16.247 12.7998 16.5131 13.1383 16.5744L13.1557 16.5775L13.1732 16.5791L13.2502 16.5862L13.2866 16.5895L13.323 16.5862L13.4 16.5791L13.4175 16.5775L13.4347 16.5744C13.7744 16.513 14.0404 16.2461 14.1017 15.9075L14.105 15.8893L14.1066 15.8708L14.1133 15.7938L14.1148 15.7766L14.1148 15.7592L14.1145 14.0128L15.8606 14.0133L15.8789 14.0133L15.8971 14.0117L15.9741 14.0047L15.9916 14.0031L16.0089 13.9999C16.3485 13.9386 16.6146 13.6716 16.6759 13.3331L16.679 13.3157L16.6806 13.2982L16.6876 13.2212L16.691 13.1848L16.6876 13.1484L16.6806 13.0714L16.679 13.0539L16.6759 13.0367C16.6145 12.697 16.3476 12.431 16.009 12.3697L15.9917 12.3665L15.9741 12.3649L15.8971 12.3579L15.879 12.3562L15.8609 12.3562L14.1138 12.3557L14.1141 10.6128L14.1141 10.5946L14.1124 10.5764L14.1054 10.4994L14.1038 10.4819L14.1007 10.4646C14.0394 10.1253 13.773 9.85893 13.4337 9.79761L13.4164 9.79449L13.3989 9.79289L13.3219 9.78586ZM10.5032 7.15647H10.5033C10.8674 7.15647 11.2021 7.28371 11.4649 7.49663C9.05723 8.2668 7.31434 10.522 7.31434 13.1851C7.31434 14.0887 7.51525 14.9461 7.87491 15.7143C6.30013 15.3911 5.11586 13.9974 5.11586 12.327V8.68479C5.11586 7.84048 5.80019 7.15613 6.6445 7.15611C6.64451 7.15611 6.64452 7.15611 6.64453 7.15611L10.5032 7.15647ZM3.84865 7.15636C3.6321 7.55169 3.49676 7.99814 3.46559 8.47295L3.46536 8.47294L3.46493 8.48629L3.45896 8.67191L3.45875 8.67191V8.68479V12.327C3.45875 12.9322 3.56398 13.5135 3.75739 14.0532C3.64985 14.0648 3.54043 14.0708 3.42949 14.0708C1.75657 14.0708 0.4 12.7143 0.4 11.041V8.68479C0.4 7.87817 1.02537 7.21697 1.81727 7.1602L1.93556 7.15611L3.84865 7.15636ZM13.2995 7.15671L15.2142 7.15647C15.2142 7.15647 15.2143 7.15647 15.2143 7.15647C15.9172 7.15649 16.5092 7.63082 16.6878 8.27689C15.7338 7.61444 14.5772 7.22275 13.33 7.21373C13.32 7.19461 13.3098 7.17561 13.2995 7.15671ZM13.2855 8.87068C15.6683 8.87068 17.6 10.8024 17.6 13.1851C17.6 15.5679 15.6683 17.4996 13.2855 17.4996C10.9028 17.4996 8.97109 15.5679 8.97109 13.1851C8.97109 10.8024 10.9031 8.87068 13.2855 8.87068ZM14.143 2.01346C15.1055 2.01346 15.8858 2.79379 15.8858 3.75623C15.8858 4.71868 15.1055 5.499 14.143 5.499C13.1806 5.499 12.4002 4.71868 12.4002 3.75623C12.4002 2.79374 13.1803 2.01346 14.143 2.01346ZM8.57145 1.15635C9.77081 1.15635 10.7428 2.12859 10.7428 3.32768C10.7428 4.52704 9.77053 5.499 8.57145 5.499C7.3724 5.499 6.40012 4.52672 6.40012 3.32768C6.40012 2.12859 7.37208 1.15635 8.57145 1.15635ZM2.99988 2.01346C3.96233 2.01346 4.74266 2.79378 4.74266 3.75623C4.74266 4.7188 3.96255 5.49936 2.99988 5.49936C2.03713 5.49936 1.25711 4.71907 1.25711 3.75658C1.25711 2.79405 2.03752 2.01346 2.99988 2.01346Z" stroke="#7D87A9" stroke-width="0.8"/>
</g>
<defs>
<clipPath id="clip0_1059_6314">
<rect width="18" height="18" fill="white" transform="translate(0 0.327637)"/>
</clipPath>
</defs>
</svg>
