<svg width="24" height="24" viewBox="0 0 24 24" fill="none" xmlns="http://www.w3.org/2000/svg">
<path d="M22 0H2C0.89543 0 0 0.89543 0 2V22C0 23.1046 0.89543 24 2 24H22C23.1046 24 24 23.1046 24 22V2C24 0.89543 23.1046 0 22 0Z" fill="white"/>
<path d="M4 15.8824H11.0588V17.2941H4V15.8824ZM4 10.9412H13.8824V12.3529H4V10.9412ZM4 6H18.1176V7.41176H4V6ZM16 13.8852V9.52941H19.5294V10.9412H17.4118V15.8824C17.4118 17.0519 16.4637 18 15.2941 18C14.1245 18 13.1765 17.0519 13.1765 15.8824C13.1765 14.7128 14.1245 13.7647 15.2941 13.7647C15.5416 13.7647 15.7792 13.8072 16 13.8852ZM15.2941 16.5882C15.684 16.5882 16 16.2722 16 15.8824C16 15.4925 15.684 15.1765 15.2941 15.1765C14.9043 15.1765 14.5882 15.4925 14.5882 15.8824C14.5882 16.2722 14.9043 16.5882 15.2941 16.5882Z" fill="#00072E"/>
</svg>
