<svg width="24" height="24" viewBox="0 0 24 24" fill="none" xmlns="http://www.w3.org/2000/svg">
<path fill-rule="evenodd" clip-rule="evenodd" d="M0 1.25C0 0.559644 0.559644 0 1.25 0H22.75C23.4404 0 24 0.559644 24 1.25C24 1.94036 23.4404 2.5 22.75 2.5H1.25C0.559644 2.5 0 1.94036 0 1.25ZM23.9373 9.42965C23.823 9.81058 23.5 9.99958 23.5 9.99958C23.1498 10.1881 22.449 10.0343 22.0681 9.92004L19 8.99958L19.002 19.4963C19.0025 20.4519 18.6988 21.3829 18.1349 22.1544C17.5711 22.926 16.7763 23.498 15.8656 23.7877C14.955 24.0775 13.9758 24.0698 13.0697 23.766C12.1637 23.4621 11.3779 22.8777 10.8261 22.0975C10.2744 21.3173 9.98521 20.3817 10.0006 19.4262C10.016 18.4707 10.335 17.5449 10.9116 16.7828C11.4882 16.0208 12.2924 15.462 13.2077 15.1874C14.123 14.9128 15.5991 14.9371 16.5 15.256V7.49958C16.5 7.26581 16.5547 7.03528 16.6596 6.82639C16.7646 6.6175 16.9169 6.43604 17.1044 6.29649C17.292 6.15695 17.5096 6.06318 17.7398 6.02268C17.97 5.98218 18.2066 5.99606 18.4305 6.06323L22.9319 7.56238C23.3128 7.67668 23.6328 7.93761 23.8213 8.28779C24.0099 8.63797 24.0516 9.0487 23.9373 9.42965ZM16.0028 19.4963C16.0028 19.1997 15.9149 18.9098 15.7501 18.6632C15.5853 18.4166 15.3511 18.2244 15.0771 18.1109C14.8031 17.9974 14.5016 17.9677 14.2107 18.0256C13.9198 18.0834 13.6526 18.2262 13.4429 18.436C13.2332 18.6457 13.0904 18.9129 13.0325 19.2038C12.9747 19.4946 13.0043 19.7962 13.1178 20.0702C13.2313 20.3442 13.4236 20.5784 13.6702 20.7432C13.9168 20.9079 14.2067 20.9959 14.5033 20.9959C14.9008 20.9954 15.282 20.8373 15.5631 20.5562C15.8443 20.2751 16.0024 19.8939 16.0028 19.4963ZM1.25 7C0.559644 7 0 7.55964 0 8.25C0 8.94036 0.559644 9.5 1.25 9.5H12.75C13.4404 9.5 14 8.94036 14 8.25C14 7.55964 13.4404 7 12.75 7H1.25ZM0 15.25C0 14.5596 0.559644 14 1.25 14H7.75C8.44036 14 9 14.5596 9 15.25C9 15.9404 8.44036 16.5 7.75 16.5H1.25C0.559644 16.5 0 15.9404 0 15.25ZM1.25 21.5C0.559644 21.5 0 22.0596 0 22.75C0 23.4404 0.559644 24 1.25 24H5.75C6.44036 24 7 23.4404 7 22.75C7 22.0596 6.44036 21.5 5.75 21.5H1.25Z" fill="#8E94A9"/>
</svg>
