<svg width="24" height="24" viewBox="0 0 24 24" fill="none" xmlns="http://www.w3.org/2000/svg">
<path d="M22 0H2C0.89543 0 0 0.89543 0 2V22C0 23.1046 0.89543 24 2 24H22C23.1046 24 24 23.1046 24 22V2C24 0.89543 23.1046 0 22 0Z" fill="white"/>
<path d="M14.0859 4.09375C14.0234 4.03776 13.9349 4 13.8477 4C13.8294 4 13.8099 4 13.7917 4.00651H5.79427C5.58073 4.00651 5.37891 4.09505 5.23438 4.23958C5.08854 4.38411 5 4.57943 5 4.79948V19.207C5 19.4271 5.08854 19.6224 5.23307 19.7669C5.3776 19.9115 5.57292 20 5.79297 20C9.83333 20 13.5208 20 17.5404 20C17.7604 20 17.9557 19.9115 18.1003 19.7669C18.2448 19.6224 18.3333 19.4271 18.3333 19.207V8.625C18.3398 8.59375 18.3464 8.56901 18.3464 8.53646C18.3464 8.42969 18.2956 8.33464 18.2266 8.26563L14.1302 4.11979C14.1172 4.10677 14.1107 4.10156 14.099 4.09505H14.0859V4.09375ZM11.3164 12.4284V19.5755C11.3164 19.7695 11.4727 19.9258 11.6719 19.9258C11.8659 19.9258 12.0273 19.7695 12.0273 19.5755V12.4323L13.6576 13.8555C13.8021 13.9831 14.0247 13.9714 14.1523 13.8268C14.2799 13.6823 14.2682 13.4635 14.1237 13.3359L11.9076 11.401C11.7708 11.2813 11.569 11.2852 11.4375 11.4049L9.22526 13.3359C9.08073 13.4635 9.0638 13.6823 9.19661 13.8268C9.32422 13.9714 9.54688 13.9831 9.69141 13.8555L11.3216 12.4323L11.3164 12.4284ZM13.4883 4.71745V7.82031C13.4883 8.11589 13.6081 8.38672 13.8034 8.58203C13.9987 8.77734 14.2695 8.89714 14.5651 8.89714H17.6107V19.2083C17.6107 19.2279 17.6042 19.2526 17.5859 19.2643C17.5729 19.2773 17.5547 19.2891 17.5299 19.2891C14.3307 19.2891 8.89974 19.2891 5.78776 19.2891C5.76823 19.2891 5.74349 19.2826 5.73177 19.2643C5.71875 19.2513 5.70703 19.2266 5.70703 19.2083V4.79948C5.70703 4.77474 5.71354 4.75521 5.73177 4.74349C5.74479 4.73047 5.76302 4.71875 5.78776 4.71875H13.4831H13.4883V4.71745ZM14.1992 7.82031V5.22135L17.125 8.1849H14.5638C14.4635 8.1849 14.375 8.14063 14.306 8.07813C14.2435 8.01432 14.1992 7.92057 14.1992 7.82031Z" fill="#00072E" stroke="#00072E" stroke-width="0.3"/>
</svg>
