<svg width="24" height="24" viewBox="0 0 24 24" fill="none" xmlns="http://www.w3.org/2000/svg">
<path d="M22 0H2C0.89543 0 0 0.89543 0 2V22C0 23.1046 0.89543 24 2 24H22C23.1046 24 24 23.1046 24 22V2C24 0.89543 23.1046 0 22 0Z" fill="white"/>
<path d="M7.98299 4H14.1829C14.2877 4 14.3825 4.04537 14.4479 4.11795L17.998 7.53358C18.0706 7.60336 18.1072 7.6969 18.1072 7.79014L18.1082 18.0173C18.1082 19.1036 17.2118 20 16.1255 20H7.98299C6.89544 20 6 19.1049 6 18.0173V5.98299C6 4.89388 6.89419 4 7.98299 4ZM14.6221 5.27308V6.22327C14.6972 7.21352 15.3674 7.5874 16.2966 7.60336L17.0425 7.6021L14.6221 5.27308ZM17.3945 8.27572C17.3454 8.30106 17.2897 8.31545 17.2306 8.31545L16.2907 8.31389C14.9835 8.29293 14.0161 7.64465 13.9119 6.2749L13.9082 6.22327V4.71366H7.98299C7.2834 4.71366 6.71366 5.2834 6.71366 5.98299V11.8203L17.3945 11.8165V8.27572ZM6.71366 12.5267V18.0173C6.71366 18.7157 7.28497 19.2863 7.98299 19.2863H16.1255C16.8188 19.2863 17.3945 18.7107 17.3945 18.0173V12.5305L6.71366 12.5267ZM7.99675 8.47252H8.94413C8.97949 8.47252 9.00295 8.49598 9.00295 8.53134V11.2724C9.00295 11.3075 8.97949 11.3312 8.94413 11.3312H7.99675C7.96109 11.3312 7.93731 11.3075 7.93731 11.2724V8.53134C7.92604 8.49598 7.96109 8.47252 7.99675 8.47252ZM9.78951 7.34743H10.7366C10.7722 7.34743 10.7954 7.37058 10.7954 7.40625V11.2724C10.7954 11.3075 10.7722 11.3312 10.7366 11.3312H9.78951C9.75447 11.3312 9.73069 11.3075 9.73069 11.2724V7.40625C9.73069 7.37058 9.75447 7.34743 9.78951 7.34743ZM15.1669 9.82287H16.1142C16.1499 9.82287 16.1734 9.84665 16.1734 9.88201V11.2605C16.1734 11.2956 16.1499 11.3187 16.1142 11.3187H15.1669C15.1321 11.3187 15.109 11.2956 15.109 11.2605V9.88201C15.109 9.85823 15.1321 9.82287 15.1669 9.82287ZM11.582 9.15333H12.5293C12.565 9.15333 12.5882 9.17679 12.5882 9.21215V11.2605C12.5882 11.2956 12.565 11.3187 12.5293 11.3187H11.582C11.5472 11.3187 11.5241 11.2956 11.5241 11.2605V9.21215C11.5241 9.18868 11.5472 9.15333 11.582 9.15333ZM13.3741 8.6762H14.3215C14.3568 8.6762 14.3806 8.70091 14.3806 8.73533V11.2724C14.3806 11.3075 14.3568 11.3312 14.3215 11.3312H13.3741C13.3387 11.3312 13.3153 11.3075 13.3153 11.2724V8.73533C13.3153 8.70091 13.3387 8.6762 13.3741 8.6762ZM12.3228 16.3006L14.2098 16.3341C14.2098 17.0111 13.8769 17.6328 13.3218 18.0101L12.3228 16.3006ZM12.1968 13.3806C12.6404 13.4147 12.9398 13.4691 13.3403 13.669C14.1065 14.0689 14.6397 14.8679 14.6838 15.7787L14.6947 15.923H14.5505L12.3635 15.856H12.2409L12.1968 13.3806ZM12.4855 15.5897L14.4063 15.6454C14.2918 14.5376 13.519 13.8693 12.4633 13.6578L12.4855 15.5897ZM11.6896 16.1041L12.7665 17.9695C12.4336 18.1581 12.0675 18.2586 11.6896 18.2586C10.5016 18.2586 9.53578 17.2924 9.53578 16.1041C9.53578 14.9496 10.4462 13.9947 11.6007 13.95L11.6896 16.1041Z" fill="#00072E"/>
</svg>
