<svg width="26" height="25" viewBox="0 0 26 25" fill="none" xmlns="http://www.w3.org/2000/svg">
<path d="M14.6044 1.79095C14.6044 1.35544 15.034 1 15.5691 1C16.1042 1 16.5339 1.35349 16.5339 1.79095V5.25161C16.5339 5.68712 16.1042 6.04256 15.5691 6.04256C15.034 6.04256 14.6044 5.68907 14.6044 5.25161V1.79095ZM18.8442 12.1378C19.6762 12.1378 20.4711 12.3038 21.1976 12.6045C21.9534 12.917 22.6311 13.374 23.1974 13.9404C23.7638 14.5067 24.2208 15.1863 24.5332 15.9382C24.834 16.6647 25 17.4596 25 18.2916C25 19.1235 24.834 19.9184 24.5332 20.6449C24.2208 21.4007 23.7638 22.0784 23.1974 22.6447C22.6311 23.2111 21.9514 23.6681 21.1995 23.9806C20.473 24.2813 19.6782 24.4473 18.8462 24.4473C18.0142 24.4473 17.2194 24.2813 16.4929 23.9806C15.7371 23.6681 15.0594 23.2111 14.493 22.6447C13.9267 22.0784 13.4697 21.3987 13.1572 20.6449C12.8565 19.9184 12.6905 19.1235 12.6905 18.2916C12.6905 17.4596 12.8565 16.6647 13.1572 15.9382C13.4697 15.1824 13.9267 14.5048 14.493 13.9384C15.0594 13.372 15.739 12.915 16.4909 12.6026C17.2174 12.3038 18.0103 12.1378 18.8442 12.1378ZM18.3834 15.7195C18.3834 15.5711 18.4439 15.4363 18.5415 15.3387C18.6392 15.241 18.7739 15.1805 18.9243 15.1805C19.0747 15.1805 19.2095 15.241 19.3071 15.3387C19.4048 15.4363 19.4653 15.5711 19.4653 15.7215V18.6001L21.6175 19.8774L21.635 19.8891C21.7542 19.9653 21.8323 20.0805 21.8635 20.2074C21.8967 20.3402 21.8811 20.4847 21.8089 20.6097L21.8049 20.6156C21.801 20.6234 21.7971 20.6293 21.7913 20.6351C21.7151 20.7523 21.5999 20.8304 21.4749 20.8617C21.3421 20.8949 21.1976 20.8792 21.0726 20.807L18.6665 19.3833C18.5826 19.3384 18.5122 19.27 18.4615 19.1899C18.4107 19.1079 18.3814 19.0122 18.3814 18.9107L18.3834 15.7195ZM22.4338 14.702C21.9651 14.2333 21.4065 13.8564 20.7875 13.6005C20.1898 13.3525 19.5336 13.2178 18.8442 13.2178C18.1549 13.2178 17.4987 13.3545 16.901 13.6005C16.282 13.8564 15.7234 14.2333 15.2547 14.702C14.786 15.1707 14.4091 15.7293 14.1532 16.3484C13.9052 16.946 13.7704 17.6022 13.7704 18.2916C13.7704 18.981 13.9072 19.6372 14.1532 20.2348C14.4091 20.8539 14.786 21.4124 15.2547 21.8811C15.7234 22.3498 16.282 22.7267 16.901 22.9826C17.4987 23.2306 18.1549 23.3654 18.8442 23.3654C19.5336 23.3654 20.1898 23.2287 20.7875 22.9826C21.4065 22.7267 21.9651 22.3498 22.4338 21.8811C23.3536 20.9613 23.92 19.6938 23.92 18.2916C23.92 17.6022 23.7833 16.946 23.5372 16.3484C23.2794 15.7293 22.9025 15.1707 22.4338 14.702ZM3.62674 12.2022C3.57206 12.2022 3.52323 11.962 3.52323 11.6671C3.52323 11.3722 3.5662 11.1339 3.62674 11.1339H6.25934C6.31402 11.1339 6.36284 11.3742 6.36284 11.6671C6.36284 11.962 6.31988 12.2022 6.25934 12.2022H3.62674ZM7.82366 12.2022C7.76898 12.2022 7.72016 11.962 7.72016 11.6671C7.72016 11.3722 7.76312 11.1339 7.82366 11.1339H10.4563C10.5109 11.1339 10.5598 11.3742 10.5598 11.6671C10.5598 11.962 10.5168 12.2022 10.4563 12.2022H7.82366ZM12.0206 12.2022C11.9659 12.2022 11.9171 11.962 11.9171 11.6671C11.9171 11.3722 11.96 11.1339 12.0206 11.1339H14.6532C14.7079 11.1339 14.7567 11.3722 14.7567 11.6651C14.493 11.8292 14.2392 12.0089 13.997 12.2022H12.0206ZM3.6326 15.2645C3.57792 15.2645 3.52909 15.0242 3.52909 14.7294C3.52909 14.4345 3.57206 14.1942 3.6326 14.1942H6.2652C6.31988 14.1942 6.3687 14.4345 6.3687 14.7294C6.3687 15.0242 6.32574 15.2645 6.2652 15.2645H3.6326ZM7.82952 15.2645C7.77484 15.2645 7.72601 15.0242 7.72601 14.7294C7.72601 14.4345 7.76898 14.1942 7.82952 14.1942H10.4621C10.5168 14.1942 10.5656 14.4345 10.5656 14.7294C10.5656 15.0242 10.5227 15.2645 10.4621 15.2645H7.82952ZM3.63846 18.3287C3.58377 18.3287 3.53495 18.0885 3.53495 17.7936C3.53495 17.4987 3.57792 17.2584 3.63846 17.2584H6.27106C6.32574 17.2584 6.37456 17.4987 6.37456 17.7936C6.37456 18.0885 6.3316 18.3287 6.27106 18.3287H3.63846ZM7.83538 18.3287C7.7807 18.3287 7.73187 18.0885 7.73187 17.7936C7.73187 17.4987 7.77484 17.2584 7.83538 17.2584H10.468C10.5227 17.2584 10.5715 17.4987 10.5715 17.7936C10.5715 18.0885 10.5285 18.3287 10.468 18.3287H7.83538ZM5.93905 1.79095C5.93905 1.35544 6.3687 1 6.90382 1C7.43893 1 7.86858 1.35349 7.86858 1.79095V5.25161C7.86858 5.68712 7.43698 6.04256 6.90382 6.04256C6.3687 6.04256 5.93905 5.68907 5.93905 5.25161V1.79095ZM2.06241 8.56579H20.4359V4.58174C20.4359 4.44503 20.3812 4.3259 20.2934 4.23802C20.2055 4.15013 20.0805 4.09545 19.9496 4.09545H18.1881C17.8932 4.09545 17.6529 3.85524 17.6529 3.56034C17.6529 3.26544 17.8932 3.02523 18.1881 3.02523H19.9496C20.3812 3.02523 20.7679 3.19904 21.0511 3.48222C21.3343 3.7654 21.5081 4.15209 21.5081 4.58369V10.9094C21.1566 10.7883 20.7953 10.6906 20.4242 10.6184V9.63016H20.4359H2.06241V19.9477C2.06241 20.0844 2.1171 20.2035 2.20498 20.2914C2.29286 20.3793 2.41785 20.434 2.5487 20.434H11.2804C11.38 20.805 11.505 21.1663 11.6554 21.514H2.55847C2.12881 21.514 1.74017 21.3401 1.45699 21.057C1.17381 20.7757 1 20.389 1 19.9574V4.58565C1 4.15599 1.17381 3.76735 1.45699 3.48417C1.74017 3.20099 2.12686 3.02718 2.55847 3.02718H4.43917C4.73407 3.02718 4.97429 3.26739 4.97429 3.56229C4.97429 3.85719 4.73407 4.0974 4.43917 4.0974H2.55847C2.42176 4.0974 2.30263 4.15209 2.21474 4.23997C2.12686 4.32785 2.07218 4.45284 2.07218 4.58369V8.56774H2.06241V8.56579ZM9.41142 4.09545C9.11653 4.09545 8.87631 3.85524 8.87631 3.56034C8.87631 3.26544 9.11653 3.02523 9.41142 3.02523H12.9971C13.292 3.02523 13.5322 3.26544 13.5322 3.56034C13.5322 3.85524 13.292 4.09545 12.9971 4.09545H9.41142Z" fill="#8E94A9" stroke="#8E94A9" stroke-width="0.3"/>
</svg>
