<svg width="24" height="24" viewBox="0 0 24 24" fill="none" xmlns="http://www.w3.org/2000/svg">
<path d="M22 0H2C0.89543 0 0 0.89543 0 2V22C0 23.1046 0.89543 24 2 24H22C23.1046 24 24 23.1046 24 22V2C24 0.89543 23.1046 0 22 0Z" fill="white"/>
<path d="M5 5.73748C5 5.33019 5.31872 5 5.69426 5H18.3057C18.6892 5 19 5.32762 19 5.73748V16.052C19 16.4593 18.6813 16.7895 18.3057 16.7895H5.69426C5.31084 16.7895 5 16.4619 5 16.052V5.73748ZM6.4 6.47368V15.3158H17.6V6.47368H6.4ZM7.1 17.5263H16.9V19H7.1V17.5263Z" fill="#00072E"/>
</svg>
