<svg width="16" height="17" viewBox="0 0 16 17" fill="none" xmlns="http://www.w3.org/2000/svg">
<path d="M14.7025 9.28843L14.4019 9.11471C14.0442 8.90843 13.8305 8.53814 13.8305 8.125C13.8305 7.71186 14.0442 7.34157 14.4019 7.13529L14.7025 6.96157C15.523 6.48729 15.8036 5.44043 15.3299 4.61986L14.7585 3.63014C14.2859 2.81129 13.235 2.53014 12.4167 3.00271L12.1162 3.17586C11.7585 3.38271 11.3305 3.38271 10.9733 3.17586C10.6156 2.969 10.4019 2.59929 10.4019 2.18614V1.83929C10.4019 0.894143 9.63274 0.125 8.6876 0.125H7.54474C6.5996 0.125 5.83046 0.894143 5.83046 1.83929V2.18671C5.83046 2.59986 5.61674 2.96957 5.25903 3.17643C4.90131 3.38271 4.47388 3.38329 4.11617 3.17643L3.8156 3.00271C2.99731 2.53014 1.94646 2.81129 1.47331 3.63014L0.901884 4.61986C0.42817 5.44043 0.708741 6.48786 1.52931 6.96157L1.83046 7.13529C2.18817 7.34157 2.40188 7.71186 2.40188 8.125C2.40188 8.53814 2.18817 8.90843 1.83046 9.11471L1.52988 9.28843C0.709313 9.76214 0.428741 10.8096 0.902456 11.6301L1.47388 12.6199C1.94703 13.4387 2.99788 13.7199 3.8156 13.2473L4.11617 13.0741C4.47388 12.8667 4.90131 12.8679 5.25903 13.0741C5.61674 13.281 5.83046 13.6507 5.83046 14.0639V14.4107C5.83046 15.3559 6.5996 16.125 7.54474 16.125H8.6876C9.63274 16.125 10.4019 15.3559 10.4019 14.4107V14.0633C10.4019 13.6501 10.6156 13.2804 10.9733 13.0736C11.3305 12.8673 11.7585 12.8667 12.1162 13.0736L12.4167 13.2473C13.235 13.7193 14.2859 13.4381 14.7585 12.6199L15.3299 11.6301C15.8036 10.8096 15.523 9.76214 14.7025 9.28843ZM8.11617 10.9821C6.54074 10.9821 5.25903 9.70043 5.25903 8.125C5.25903 6.54957 6.54074 5.26786 8.11617 5.26786C9.6916 5.26786 10.9733 6.54957 10.9733 8.125C10.9733 9.70043 9.6916 10.9821 8.11617 10.9821Z" fill="#8E94A9"/>
</svg>
