<?xml version="1.0" standalone="no"?>
<!DOCTYPE svg PUBLIC "-//W3C//DTD SVG 20010904//EN"
 "http://www.w3.org/TR/2001/REC-SVG-20010904/DTD/svg10.dtd">
<svg version="1.0" xmlns="http://www.w3.org/2000/svg"
 width="980.000000pt" height="944.000000pt" viewBox="0 0 980.000000 944.000000"
 preserveAspectRatio="xMidYMid meet">

<g transform="translate(0.000000,944.000000) scale(0.100000,-0.100000)"
fill="#8E94A9" stroke="none">
<path d="M7063 9415 c-278 -49 -550 -258 -662 -509 -92 -204 -102 -432 -30
-651 36 -107 72 -175 146 -273 31 -40 53 -78 50 -86 -3 -8 -97 -169 -210 -358
-112 -188 -232 -391 -266 -450 -35 -60 -69 -108 -75 -108 -7 0 -60 20 -117 43
-194 81 -369 130 -589 164 -160 25 -519 24 -680 0 -467 -73 -826 -225 -1208
-512 -47 -36 -88 -65 -92 -65 -3 0 -64 52 -134 116 -97 88 -126 120 -120 132
78 179 99 290 91 465 -11 245 -93 427 -267 591 -40 37 -97 83 -127 102 -238
153 -532 183 -804 84 -241 -88 -445 -312 -525 -575 -24 -80 -27 -107 -28 -235
0 -158 11 -222 65 -352 42 -103 95 -183 173 -266 123 -129 254 -207 427 -254
67 -18 110 -22 214 -22 149 0 199 11 374 81 l113 46 122 -122 123 -122 -82
-123 c-145 -217 -246 -424 -323 -667 -122 -381 -142 -736 -68 -1221 l13 -88
-458 -150 c-251 -82 -459 -150 -463 -150 -3 0 -47 43 -98 96 -185 192 -384
288 -623 301 -342 19 -670 -176 -829 -493 -110 -219 -124 -468 -40 -703 44
-125 101 -206 229 -330 86 -83 119 -107 197 -145 444 -219 971 -48 1188 384
50 100 76 188 99 338 10 68 22 127 27 132 11 10 863 289 894 292 19 3 30 -11
70 -82 186 -328 283 -463 465 -646 281 -282 599 -477 985 -604 266 -88 346
-101 737 -114 197 -6 346 -15 352 -21 11 -11 129 -510 133 -564 3 -33 -1 -38
-65 -82 -196 -134 -340 -353 -384 -584 -19 -98 -13 -279 12 -375 95 -365 428
-641 801 -667 421 -28 816 267 915 684 18 75 20 109 16 228 -5 150 -28 247
-85 360 -123 245 -358 427 -617 480 -127 25 -153 34 -159 53 -10 31 -94 415
-110 501 -11 58 -13 88 -6 96 6 7 39 23 73 35 170 62 502 248 656 368 261 202
524 526 681 837 91 179 210 515 210 591 0 51 24 51 464 3 98 -10 182 -19 186
-19 4 0 20 -39 35 -87 82 -265 249 -466 480 -578 130 -64 151 -67 401 -63
l219 3 78 34 c362 156 585 502 564 876 -16 282 -171 542 -420 703 -136 88
-264 122 -454 122 -358 -1 -635 -163 -798 -467 -15 -29 -38 -62 -51 -74 -24
-22 -25 -22 -168 -10 -271 24 -458 48 -466 60 -4 7 -10 61 -14 119 -29 457
-174 894 -416 1256 -108 161 -351 426 -509 556 l-90 74 18 30 c11 17 119 197
241 400 121 204 241 399 266 433 l46 64 46 -8 c26 -4 115 -8 197 -7 132 1 160
4 238 28 289 87 512 305 596 582 47 152 45 432 -3 559 -50 130 -108 220 -209
324 -207 212 -496 306 -784 256z m-1947 -2676 c402 -39 806 -196 1072 -418
172 -144 337 -322 437 -471 80 -120 183 -333 230 -475 67 -205 95 -389 95
-622 0 -385 -99 -723 -315 -1071 -58 -95 -101 -152 -114 -152 -5 0 -16 30 -26
66 -25 91 -69 177 -111 213 -44 39 -128 81 -219 111 -117 38 -209 77 -404 170
-103 50 -201 93 -217 96 l-30 6 -88 -274 c-176 -546 -228 -703 -237 -712 -10
-11 -31 36 -90 205 l-43 127 51 98 c73 140 84 232 37 286 -51 57 -186 79 -276
45 -54 -21 -103 -71 -113 -116 -7 -32 25 -122 88 -246 l34 -68 -34 -96 c-61
-173 -85 -231 -94 -231 -4 0 -13 9 -19 20 -10 18 -189 570 -283 873 -17 53
-36 97 -43 97 -6 0 -108 -47 -225 -104 -118 -58 -259 -121 -314 -141 -230 -82
-266 -99 -311 -138 -51 -45 -68 -75 -114 -204 l-33 -93 -32 43 c-152 202 -261
433 -330 700 -86 337 -86 645 1 988 154 613 559 1078 1164 1337 298 128 610
180 906 151z"/>
<path d="M4838 6250 c-195 -35 -458 -258 -559 -473 -33 -71 -36 -93 -47 -318
-8 -139 -9 -148 -35 -178 -23 -28 -27 -42 -27 -95 0 -106 54 -277 115 -366 13
-19 44 -88 69 -152 66 -174 94 -225 170 -305 187 -199 499 -240 742 -98 111
65 206 203 269 389 25 74 35 92 60 106 40 22 86 101 121 208 32 96 37 193 16
327 -6 39 -11 142 -12 230 -1 279 -28 376 -119 434 -27 18 -93 70 -147 116
-104 89 -183 136 -274 161 -66 17 -276 27 -342 14z"/>
</g>
</svg>
