<svg width="16" height="16" viewBox="0 0 16 16" fill="none" xmlns="http://www.w3.org/2000/svg">
<path d="M14.2863 8V7.9987H14.2889C14.2889 6.26563 13.5832 4.69401 12.4439 3.55469C11.3046 2.41667 9.73425 1.71094 8.00378 1.71094V1.71354H7.99988H7.99858V1.71094C6.26681 1.71094 4.69389 2.41667 3.55457 3.55599C2.41654 4.69531 1.71082 6.26563 1.71082 7.9974H1.71342V8.0013V8.0026H1.71082C1.71082 9.15885 2.02462 10.2448 2.56889 11.1745C3.66003 13.0378 5.68347 14.2891 7.99597 14.2904V14.2878H7.99988H8.00118V14.2904C9.73425 14.2904 11.3059 13.5846 12.4452 12.4453C12.6327 12.2578 12.8072 12.0612 12.966 11.8568C13.7928 10.7917 14.2863 9.45313 14.2863 8ZM8.90352 9.61719H6.75248V9.40234C6.75248 9.03776 6.79155 8.73958 6.87488 8.51042C6.95821 8.27995 7.08191 8.07422 7.24597 7.88412C7.41134 7.69531 7.78113 7.36328 8.35405 6.88672C8.65873 6.63672 8.81238 6.40885 8.81238 6.20313C8.81238 5.99349 8.74988 5.83333 8.62878 5.71745C8.50639 5.60286 8.32019 5.54427 8.06889 5.54427C7.79936 5.54427 7.57931 5.63411 7.40483 5.8099C7.22905 5.98698 7.11707 6.29818 7.06889 6.73958L4.86967 6.46615C4.94519 5.65885 5.23946 5.00781 5.74988 4.51563C6.2629 4.02214 7.04675 3.77604 8.10405 3.77604C8.92696 3.77604 9.59233 3.94922 10.0988 4.29037C10.7876 4.75521 11.1301 5.375 11.1301 6.14714C11.1301 6.47005 11.0402 6.77995 10.8645 7.07813C10.6874 7.3776 10.3241 7.74089 9.77592 8.17057C9.39571 8.47526 9.15483 8.71615 9.05457 8.89974C8.95431 9.08333 8.90352 9.32292 8.90352 9.61719ZM6.67566 10.1901H8.98295V12.2227H6.67566V10.1901ZM15.996 7.9987H15.9999V8C15.9999 9.84766 15.3723 11.5508 14.3176 12.9063C14.1106 13.1719 13.8892 13.4232 13.6561 13.6563C12.2108 15.1016 10.2121 15.9961 8.00118 15.9974V16.0013H7.99988H7.99597V15.9974C5.05457 15.9961 2.48295 14.4063 1.09623 12.0391C0.402222 10.8542 0.00378418 9.47396 0.00378418 8.0026H-0.00012207V8.0013V7.9974H0.00378418C0.00378418 5.78646 0.898315 3.78776 2.34363 2.34375C3.78764 0.898438 5.78764 0.00390625 7.99858 0.00390625V0H7.99988H8.00378V0.00390625C10.2134 0.00520833 12.2121 0.898438 13.6561 2.34375C15.1014 3.78776 15.996 5.78776 15.996 7.9987Z" fill="#8E94A9"/>
</svg>
