<svg width="18" height="16" viewBox="0 0 18 16" fill="none" xmlns="http://www.w3.org/2000/svg">
<path d="M16.8954 9.31418L14.904 4.60578C14.8849 4.55998 14.856 4.51845 14.819 4.48384L13.7329 3.45028L12.6131 0.619576C12.5939 0.571218 12.5639 0.527386 12.5251 0.491106C12.1277 0.173938 11.6249 0 11.1054 0C10.5859 0 10.0831 0.173938 9.68576 0.491106C9.61417 0.559119 9.57396 0.651256 9.57394 0.74732V3.97722C9.57401 4.02651 9.56349 4.0753 9.54301 4.1206C9.52253 4.16591 9.49252 4.20679 9.45483 4.24075C9.41713 4.27471 9.37253 4.30103 9.32374 4.31812C9.27495 4.33521 9.223 4.3427 9.17106 4.34013C9.03243 4.3336 8.91448 4.3307 8.80878 4.33142C8.70721 4.33142 8.6098 4.29319 8.53798 4.22513C8.46616 4.15707 8.42582 4.06476 8.42582 3.96851V0.748046C8.42559 0.651878 8.3851 0.559726 8.31323 0.491831C7.9159 0.174664 7.41309 0.000725855 6.89358 0.000725855C6.37407 0.000725855 5.87127 0.174664 5.47394 0.491831C5.43536 0.528154 5.40556 0.571989 5.38662 0.620302L4.26607 3.45028L3.17846 4.48384C3.14145 4.51828 3.11272 4.55987 3.09421 4.60578L1.10357 9.31418C0.641217 9.79336 0.309184 10.3722 0.136256 11.0004C-0.0366725 11.6287 -0.0452755 12.2875 0.111193 12.9196C0.267661 13.5518 0.584477 14.1382 1.03417 14.6281C1.48387 15.1179 2.05287 15.4965 2.69184 15.7308C3.33081 15.9652 4.02047 16.0484 4.70101 15.9731C5.38156 15.8978 6.03245 15.6663 6.59726 15.2987C7.16206 14.9312 7.62373 14.4386 7.94224 13.8637C8.26074 13.2888 8.42647 12.649 8.42505 11.9997V8.32416C8.42505 8.22791 8.4654 8.1356 8.53722 8.06754C8.60904 7.99949 8.70645 7.96125 8.80801 7.96125C8.94894 7.96064 9.0898 7.96694 9.23004 7.98012C9.32483 7.98915 9.41267 8.03133 9.4764 8.09844C9.54013 8.16555 9.57518 8.25275 9.57471 8.34303V11.9997C9.57329 12.649 9.73901 13.2888 10.0575 13.8637C10.376 14.4386 10.8377 14.9312 11.4025 15.2987C11.9673 15.6663 12.6182 15.8978 13.2987 15.9731C13.9793 16.0484 14.6689 15.9652 15.3079 15.7308C15.9469 15.4965 16.5159 15.1179 16.9656 14.6281C17.4153 14.1382 17.7321 13.5518 17.8886 12.9196C18.045 12.2875 18.0364 11.6287 17.8635 11.0004C17.6906 10.3722 17.3585 9.79336 16.8962 9.31418H16.8954ZM6.8932 11.9983C6.8932 12.5007 6.73598 12.9919 6.44141 13.4096C6.14685 13.8274 5.72818 14.153 5.23833 14.3453C4.74849 14.5375 4.20949 14.5878 3.68947 14.4898C3.16946 14.3918 2.6918 14.1499 2.31689 13.7946C1.94198 13.4393 1.68667 12.9867 1.58323 12.4939C1.47979 12.0011 1.53288 11.4903 1.73578 11.0261C1.93868 10.5619 2.28228 10.1652 2.72312 9.88602C3.16397 9.60688 3.68226 9.45789 4.21246 9.45789C4.92344 9.45789 5.60529 9.72554 6.10803 10.202C6.61077 10.6784 6.8932 11.3245 6.8932 11.9983V11.9983ZM13.7865 14.5386C13.2563 14.5386 12.738 14.3896 12.2972 14.1105C11.8563 13.8314 11.5127 13.4346 11.3098 12.9704C11.107 12.5062 11.0539 11.9954 11.1573 11.5027C11.2607 11.0099 11.5161 10.5572 11.891 10.202C12.2659 9.84667 12.7435 9.60473 13.2635 9.50671C13.7836 9.40869 14.3226 9.45899 14.8124 9.65127C15.3022 9.84354 15.7209 10.1691 16.0155 10.5869C16.31 11.0047 16.4673 11.4958 16.4673 11.9983C16.4673 12.672 16.1848 13.3182 15.6821 13.7946C15.1794 14.271 14.4975 14.5386 13.7865 14.5386V14.5386Z" fill="#8E94A9"/>
</svg>
