<svg width="17" height="17" viewBox="0 0 17 17" fill="none" xmlns="http://www.w3.org/2000/svg">
<path d="M12.2499 3.45H16.2499V5.05H14.6499V15.45C14.6499 15.8918 14.2917 16.25 13.8499 16.25H2.64988C2.20805 16.25 1.84988 15.8918 1.84988 15.45V5.05H0.249878V3.45H4.24988V1.05C4.24988 0.608176 4.60805 0.25 5.04988 0.25H11.4499C11.8917 0.25 12.2499 0.608176 12.2499 1.05V3.45ZM13.0499 5.05H3.44988V14.65H13.0499V5.05ZM5.84988 7.45H7.44988V12.25H5.84988V7.45ZM9.04988 7.45H10.6499V12.25H9.04988V7.45ZM5.84988 1.85V3.45H10.6499V1.85H5.84988Z" fill="#8E94A9"/>
</svg>
