<svg width="24" height="27" viewBox="0 0 24 27" fill="none" xmlns="http://www.w3.org/2000/svg">
<path fill-rule="evenodd" clip-rule="evenodd" d="M11.9285 1.93982L13.3069 3.31823L11.9285 4.69663L10.5501 3.31823L11.9285 1.93982ZM11.9285 1C11.6779 1 11.4273 1.06265 11.302 1.25062L9.92358 2.62902C9.54765 3.00495 9.54765 3.56885 9.92358 3.94478L11.302 5.32318L11.3026 5.32381V9.06445C10.0877 9.23818 9.02567 9.90909 8.33152 10.8622L5.27918 9.08052C5.27425 8.99869 5.25685 8.91512 5.22551 8.83154L4.72427 6.9519C4.66162 6.51331 4.28569 6.2627 3.8471 6.2627H3.59648L1.71684 6.76393C1.2156 6.88924 0.902328 7.39048 1.09029 7.89172L1.59153 9.77136C1.71684 10.2099 2.09277 10.4606 2.4687 10.4606H2.71932L4.59896 9.95933C4.66846 9.94195 4.73434 9.91735 4.79578 9.88653L7.86103 11.6758C7.61659 12.2251 7.48052 12.8319 7.48052 13.4685C7.48052 14.0857 7.60719 14.703 7.86055 15.2855L4.64657 17.1427C4.61094 17.1267 4.57419 17.1131 4.53651 17.1024L2.65687 16.6011C2.59421 16.5385 2.53156 16.5385 2.40625 16.5385C2.03032 16.5385 1.65439 16.7891 1.52908 17.2277L1.02784 19.1073C0.902534 19.6085 1.21581 20.1098 1.65439 20.2351L3.53403 20.7363C3.56536 20.7363 3.61235 20.752 3.65934 20.7677C3.70634 20.7833 3.75333 20.799 3.78465 20.799C4.16058 20.799 4.53651 20.5484 4.66182 20.1098L5.16306 18.2301C5.18953 18.1243 5.19643 18.0184 5.18671 17.916L9.1325 15.6359L8.75977 14.9909C8.56033 14.5033 8.42034 14.0092 8.42034 13.4685C8.42034 11.7401 9.66072 10.3094 11.3026 10.0152V10.0227H12.2424V5.52628C12.3684 5.48779 12.4884 5.42324 12.5551 5.32318L13.9335 3.94478C14.3094 3.56885 14.3094 3.00495 13.9335 2.62902L12.5551 1.25062C12.4298 1.06265 12.1792 1 11.9285 1ZM11.3026 17.0393H11.9651C13.8914 17.0209 15.4393 15.4616 15.4393 13.5308C15.4393 12.9958 15.3023 12.5066 15.1062 12.0239L14.7236 11.3618L18.6093 9.11649C18.6035 9.02391 18.6091 8.9278 18.6332 8.83169L19.1344 6.95205C19.2597 6.51346 19.6357 6.26284 20.0116 6.26284C20.1369 6.26284 20.1995 6.26284 20.2622 6.3255L22.1418 6.82674C22.3925 6.88939 22.5804 7.07736 22.7057 7.26532C22.7684 7.45328 22.831 7.7039 22.7684 7.95452L22.2672 9.83417C22.1418 10.2728 21.7659 10.5234 21.39 10.5234C21.3587 10.5234 21.3117 10.5077 21.2647 10.492L21.2647 10.492L21.2647 10.492C21.2177 10.4764 21.1707 10.4607 21.1394 10.4607L19.2597 9.95948C19.2099 9.94701 19.1625 9.92959 19.1176 9.90819L15.9979 11.7109C16.2521 12.2943 16.3792 12.9126 16.3792 13.5308C16.3792 14.1686 16.2426 14.7765 15.9973 15.3266L19.0602 17.1145C19.1227 17.0828 19.1899 17.0575 19.2608 17.0398L21.1404 16.5386H21.391C21.8296 16.5386 22.2056 16.8518 22.2682 17.2278L22.7695 19.1074C22.9574 19.6087 22.6441 20.1099 22.1429 20.2352L20.2633 20.7364H20.0126C19.8873 20.7364 19.6994 20.6738 19.5741 20.6111C19.3234 20.4858 19.1981 20.2979 19.1355 20.0472L18.6342 18.1676C18.6034 18.0855 18.5861 18.0033 18.5808 17.9229L15.5262 16.1398C14.7726 17.1729 13.5867 17.8738 12.2424 17.9684V21.491C12.3718 21.5458 12.4838 21.6325 12.5551 21.7395L13.9335 23.0552C14.3094 23.4312 14.3094 23.995 13.9335 24.371L12.5551 25.7494C12.4298 25.9373 12.1165 26 11.9285 26C11.7406 26 11.49 25.9373 11.302 25.7494L9.92358 24.371C9.54765 23.995 9.54765 23.4312 9.92358 23.0552L11.302 21.6768L11.3026 21.6759V17.0393ZM9.48633 13.4683C9.48633 12.1525 10.5515 11.0874 11.8672 11.0874C13.183 11.0874 14.2481 12.1525 14.2481 13.4683C14.2481 14.784 13.183 15.8492 11.8672 15.8492C10.5515 15.8492 9.48633 14.784 9.48633 13.4683ZM13.3069 23.7444L11.9285 22.366L10.5501 23.7444L11.9285 25.1228L13.3069 23.7444ZM20.0116 7.20267L21.8912 7.7039L21.39 9.58355L19.5103 9.08231L20.0116 7.20267ZM4.34855 17.9795L2.4689 17.4783L1.96767 19.3579L3.84731 19.8592L4.34855 17.9795ZM21.391 17.4784L21.8923 19.358L20.0126 19.8593L19.5114 17.9796L21.391 17.4784ZM4.34834 9.08216L3.8471 7.20252L1.96746 7.70376L2.4687 9.5834L4.34834 9.08216Z" fill="#00072E"/>
<path d="M13.3069 3.31823L13.4837 3.495L13.6605 3.31823L13.4837 3.14145L13.3069 3.31823ZM11.9285 1.93982L12.1053 1.76305L11.9285 1.58627L11.7518 1.76305L11.9285 1.93982ZM11.9285 4.69663L11.7518 4.87341L11.9285 5.05019L12.1053 4.87341L11.9285 4.69663ZM10.5501 3.31823L10.3734 3.14145L10.1966 3.31823L10.3734 3.495L10.5501 3.31823ZM11.302 1.25062L11.4788 1.4274L11.4963 1.40989L11.51 1.38929L11.302 1.25062ZM9.92358 2.62902L9.7468 2.45225V2.45225L9.92358 2.62902ZM9.92358 3.94478L9.7468 4.12155V4.12155L9.92358 3.94478ZM11.302 5.32318L11.1252 5.49996L11.1253 5.50002L11.302 5.32318ZM11.3026 5.32381H11.5526V5.2202L11.4793 5.14696L11.3026 5.32381ZM11.3026 9.06445L11.338 9.31193L11.5526 9.28125V9.06445H11.3026ZM8.33152 10.8622L8.20549 11.0781L8.40061 11.192L8.53361 11.0094L8.33152 10.8622ZM5.27918 9.08052L5.02963 9.09553L5.03766 9.22902L5.15315 9.29643L5.27918 9.08052ZM5.22551 8.83154L4.98395 8.89596L4.98711 8.90782L4.99143 8.91932L5.22551 8.83154ZM4.72427 6.9519L4.47678 6.98725L4.47888 7.00196L4.48271 7.01631L4.72427 6.9519ZM3.59648 6.2627V6.0127H3.56372L3.53207 6.02114L3.59648 6.2627ZM1.71684 6.76393L1.77748 7.0065L1.78126 7.00549L1.71684 6.76393ZM1.09029 7.89172L1.33185 7.8273L1.32869 7.81544L1.32437 7.80394L1.09029 7.89172ZM1.59153 9.77136L1.34993 9.83579L1.35115 9.84004L1.59153 9.77136ZM2.71932 10.4606V10.7106H2.75208L2.78373 10.7021L2.71932 10.4606ZM4.59896 9.95933L4.53832 9.71676L4.53455 9.71777L4.59896 9.95933ZM4.79578 9.88653L4.92181 9.67062L4.80478 9.6023L4.68366 9.66308L4.79578 9.88653ZM7.86103 11.6758L8.08944 11.7774L8.1805 11.5728L7.98706 11.4599L7.86103 11.6758ZM7.86055 15.2855L7.98563 15.502L8.17877 15.3904L8.08981 15.1858L7.86055 15.2855ZM4.64657 17.1427L4.54375 17.3706L4.66063 17.4233L4.77165 17.3592L4.64657 17.1427ZM4.53651 17.1024L4.6052 16.8619L4.60093 16.8608L4.53651 17.1024ZM2.65687 16.6011L2.48009 16.7779L2.52757 16.8254L2.59245 16.8427L2.65687 16.6011ZM1.52908 17.2277L1.28866 17.159L1.28752 17.1632L1.52908 17.2277ZM1.02784 19.1073L0.786255 19.0429L0.785308 19.0467L1.02784 19.1073ZM1.65439 20.2351L1.5857 20.4755L1.58998 20.4767L1.65439 20.2351ZM3.53403 20.7363L3.46962 20.9779L3.50127 20.9863H3.53403V20.7363ZM3.65934 20.7677L3.73841 20.5305L3.7384 20.5305L3.65934 20.7677ZM4.66182 20.1098L4.90224 20.1785L4.90338 20.1742L4.66182 20.1098ZM5.16306 18.2301L5.40465 18.2946L5.40559 18.2908L5.16306 18.2301ZM5.18671 17.916L5.06163 17.6996L4.92265 17.7799L4.93783 17.9397L5.18671 17.916ZM9.1325 15.6359L9.25758 15.8524L9.47404 15.7273L9.34896 15.5109L9.1325 15.6359ZM8.75977 14.9909L8.52837 15.0856L8.53481 15.1013L8.54331 15.116L8.75977 14.9909ZM11.3026 10.0152H11.5526V9.71646L11.2585 9.76915L11.3026 10.0152ZM11.3026 10.0227H11.0526V10.2727H11.3026V10.0227ZM12.2424 10.0227V10.2727H12.4924V10.0227H12.2424ZM12.2424 5.52628L12.1694 5.28719L11.9924 5.34126V5.52628H12.2424ZM12.5551 5.32318L12.3783 5.1464L12.3608 5.16391L12.3471 5.18451L12.5551 5.32318ZM13.9335 3.94478L13.7567 3.768L13.9335 3.94478ZM13.9335 2.62902L14.1103 2.45225V2.45225L13.9335 2.62902ZM12.5551 1.25062L12.3471 1.38929L12.3608 1.40989L12.3783 1.4274L12.5551 1.25062ZM11.9651 17.0393V17.2893L11.9675 17.2893L11.9651 17.0393ZM11.3026 17.0393V16.7893H11.0526V17.0393H11.3026ZM15.1062 12.0239L15.3379 11.9298L15.3313 11.9138L15.3227 11.8989L15.1062 12.0239ZM14.7236 11.3618L14.5986 11.1454L14.3821 11.2704L14.5072 11.4869L14.7236 11.3618ZM18.6093 9.11649L18.7344 9.33295L18.8684 9.25548L18.8588 9.10096L18.6093 9.11649ZM18.6332 8.83169L18.3916 8.76727L18.3906 8.77106L18.6332 8.83169ZM19.1344 6.95205L18.894 6.88336L18.8929 6.88763L19.1344 6.95205ZM20.2622 6.3255L20.0854 6.50227L20.1329 6.54976L20.1978 6.56706L20.2622 6.3255ZM22.1418 6.82674L22.0774 7.06833L22.0812 7.06927L22.1418 6.82674ZM22.7057 7.26532L22.9429 7.18626L22.9323 7.1545L22.9137 7.12664L22.7057 7.26532ZM22.7684 7.95452L23.01 8.01895L23.0109 8.01516L22.7684 7.95452ZM22.2672 9.83417L22.5076 9.90286L22.5087 9.89858L22.2672 9.83417ZM21.2647 10.492L21.3438 10.2549L21.3346 10.2518L21.3253 10.2495L21.2647 10.492ZM21.2647 10.492L21.1856 10.7292L21.1947 10.7322L21.204 10.7346L21.2647 10.492ZM21.1394 10.4607L21.075 10.7023L21.1066 10.7107H21.1394V10.4607ZM19.2597 9.95948L19.3241 9.71789L19.3204 9.71694L19.2597 9.95948ZM19.1176 9.90819L19.2251 9.6825L19.1064 9.62591L18.9925 9.69173L19.1176 9.90819ZM15.9979 11.7109L15.8728 11.4944L15.6795 11.6061L15.7687 11.8108L15.9979 11.7109ZM15.9973 15.3266L15.7689 15.2248L15.6777 15.4295L15.8712 15.5425L15.9973 15.3266ZM19.0602 17.1145L18.9342 17.3304L19.0518 17.3991L19.1733 17.3375L19.0602 17.1145ZM19.2608 17.0398L19.3214 17.2824L19.3252 17.2814L19.2608 17.0398ZM21.1404 16.5386V16.2886H21.1077L21.076 16.297L21.1404 16.5386ZM22.2682 17.2278L22.0216 17.2689L22.0236 17.2807L22.0267 17.2922L22.2682 17.2278ZM22.7695 19.1074L22.5279 19.1718L22.5311 19.1837L22.5354 19.1952L22.7695 19.1074ZM22.1429 20.2352L22.0823 19.9926L22.0785 19.9937L22.1429 20.2352ZM20.2633 20.7364V20.9864H20.296L20.3277 20.978L20.2633 20.7364ZM19.5741 20.6111L19.6859 20.3875V20.3875L19.5741 20.6111ZM19.1355 20.0472L19.378 19.9866L19.377 19.9828L19.1355 20.0472ZM18.6342 18.1676L18.8758 18.1032L18.8726 18.0913L18.8683 18.0798L18.6342 18.1676ZM18.5808 17.9229L18.8303 17.9066L18.8216 17.7739L18.7069 17.707L18.5808 17.9229ZM15.5262 16.1398L15.6522 15.9239L15.4572 15.8101L15.3242 15.9925L15.5262 16.1398ZM12.2424 17.9684L12.2249 17.719L11.9924 17.7353V17.9684H12.2424ZM12.2424 21.491H11.9924V21.6565L12.1449 21.7212L12.2424 21.491ZM12.5551 21.7395L12.3471 21.8781L12.3624 21.9012L12.3825 21.9203L12.5551 21.7395ZM13.9335 23.0552L14.1103 22.8784L14.1061 22.8744L13.9335 23.0552ZM13.9335 24.371L14.1103 24.5478L13.9335 24.371ZM12.5551 25.7494L12.3783 25.5726L12.3608 25.5901L12.3471 25.6107L12.5551 25.7494ZM11.302 25.7494L11.4788 25.5726L11.302 25.7494ZM9.92358 24.371L9.7468 24.5478L9.92358 24.371ZM9.92358 23.0552L9.7468 22.8784L9.92358 23.0552ZM11.302 21.6768L11.4788 21.8536L11.4962 21.8362L11.5099 21.8157L11.302 21.6768ZM11.3026 21.6759L11.5105 21.8148L11.5526 21.7517V21.6759H11.3026ZM11.9285 22.366L12.1053 22.1892L11.9285 22.0125L11.7518 22.1892L11.9285 22.366ZM13.3069 23.7444L13.4837 23.9212L13.6605 23.7444L13.4837 23.5676L13.3069 23.7444ZM10.5501 23.7444L10.3734 23.5676L10.1966 23.7444L10.3734 23.9212L10.5501 23.7444ZM11.9285 25.1228L11.7518 25.2996L11.9285 25.4764L12.1053 25.2996L11.9285 25.1228ZM21.8912 7.7039L22.1328 7.76832L22.1972 7.52676L21.9556 7.46235L21.8912 7.7039ZM20.0116 7.20267L20.076 6.96111L19.8344 6.89669L19.77 7.13825L20.0116 7.20267ZM21.39 9.58355L21.3256 9.82511L21.5671 9.88952L21.6315 9.64796L21.39 9.58355ZM19.5103 9.08231L19.2688 9.01789L19.2044 9.25945L19.4459 9.32387L19.5103 9.08231ZM2.4689 17.4783L2.53332 17.2367L2.29176 17.1723L2.22734 17.4139L2.4689 17.4783ZM4.34855 17.9795L4.59011 18.0439L4.65452 17.8024L4.41296 17.738L4.34855 17.9795ZM1.96767 19.3579L1.72611 19.2935L1.66169 19.5351L1.90325 19.5995L1.96767 19.3579ZM3.84731 19.8592L3.78289 20.1007L4.02445 20.1651L4.08887 19.9236L3.84731 19.8592ZM21.8923 19.358L21.9567 19.5996L22.1983 19.5352L22.1338 19.2936L21.8923 19.358ZM21.391 17.4784L21.6326 17.414L21.5682 17.1724L21.3266 17.2368L21.391 17.4784ZM20.0126 19.8593L19.7711 19.9237L19.8355 20.1653L20.0771 20.1008L20.0126 19.8593ZM19.5114 17.9796L19.447 17.7381L19.2054 17.8025L19.2698 18.0441L19.5114 17.9796ZM3.8471 7.20252L4.08866 7.1381L4.02425 6.89654L3.78269 6.96096L3.8471 7.20252ZM4.34834 9.08216L4.41276 9.32372L4.65432 9.2593L4.5899 9.01775L4.34834 9.08216ZM1.96746 7.70376L1.90304 7.4622L1.66149 7.52661L1.7259 7.76817L1.96746 7.70376ZM2.4687 9.5834L2.22714 9.64782L2.29155 9.88937L2.53311 9.82496L2.4687 9.5834ZM13.4837 3.14145L12.1053 1.76305L11.7518 2.1166L13.1302 3.495L13.4837 3.14145ZM12.1053 4.87341L13.4837 3.495L13.1302 3.14145L11.7518 4.51986L12.1053 4.87341ZM10.3734 3.495L11.7518 4.87341L12.1053 4.51986L10.7269 3.14145L10.3734 3.495ZM11.7518 1.76305L10.3734 3.14145L10.7269 3.495L12.1053 2.1166L11.7518 1.76305ZM11.51 1.38929C11.5622 1.31092 11.6979 1.25 11.9285 1.25V0.75C11.658 0.75 11.2923 0.814385 11.094 1.11194L11.51 1.38929ZM10.1004 2.8058L11.4788 1.4274L11.1252 1.07384L9.7468 2.45225L10.1004 2.8058ZM10.1004 3.768C9.82206 3.4897 9.82206 3.0841 10.1004 2.8058L9.7468 2.45225C9.27324 2.92581 9.27324 3.64799 9.7468 4.12155L10.1004 3.768ZM11.4788 5.1464L10.1004 3.768L9.7468 4.12155L11.1252 5.49996L11.4788 5.1464ZM11.4793 5.14696L11.4787 5.14634L11.1253 5.50002L11.1259 5.50065L11.4793 5.14696ZM11.5526 9.06445V5.32381H11.0526V9.06445H11.5526ZM8.53361 11.0094C9.18964 10.1086 10.1926 9.47572 11.338 9.31193L11.2672 8.81697C9.98277 9.00064 8.86169 9.70958 8.12943 10.7151L8.53361 11.0094ZM5.15315 9.29643L8.20549 11.0781L8.45755 10.6463L5.40521 8.86461L5.15315 9.29643ZM5.52873 9.06551C5.52228 8.95841 5.49955 8.85033 5.45959 8.74376L4.99143 8.91932C5.01414 8.9799 5.02623 9.03897 5.02963 9.09553L5.52873 9.06551ZM5.46707 8.76713L4.96583 6.88748L4.48271 7.01631L4.98395 8.89596L5.46707 8.76713ZM4.97176 6.91654C4.88727 6.3251 4.37754 6.0127 3.8471 6.0127V6.5127C4.19383 6.5127 4.43597 6.70153 4.47678 6.98725L4.97176 6.91654ZM3.8471 6.0127H3.59648V6.5127H3.8471V6.0127ZM3.53207 6.02114L1.65242 6.52238L1.78126 7.00549L3.6609 6.50425L3.53207 6.02114ZM1.65621 6.5214C1.02976 6.67801 0.608954 7.32015 0.85621 7.9795L1.32437 7.80394C1.1957 7.46081 1.40145 7.10048 1.77747 7.00647L1.65621 6.5214ZM0.848734 7.95614L1.34997 9.83578L1.83309 9.70695L1.33185 7.8273L0.848734 7.95614ZM1.35115 9.84004C1.50744 10.3871 1.9823 10.7106 2.4687 10.7106V10.2106C2.20324 10.2106 1.92624 10.0328 1.83191 9.70268L1.35115 9.84004ZM2.4687 10.7106H2.71932V10.2106H2.4687V10.7106ZM2.78373 10.7021L4.66338 10.2009L4.53455 9.71777L2.6549 10.219L2.78373 10.7021ZM4.65959 10.2019C4.74692 10.18 4.83007 10.149 4.9079 10.11L4.68366 9.66308C4.63862 9.68568 4.59 9.70388 4.53833 9.71679L4.65959 10.2019ZM7.98706 11.4599L4.92181 9.67062L4.66975 10.1024L7.735 11.8917L7.98706 11.4599ZM7.73052 13.4685C7.73052 12.8679 7.85885 12.2956 8.08944 11.7774L7.63262 11.5741C7.37432 12.1546 7.23052 12.796 7.23052 13.4685H7.73052ZM8.08981 15.1858C7.85012 14.6347 7.73052 14.0514 7.73052 13.4685H7.23052C7.23052 14.1201 7.36427 14.7713 7.6313 15.3852L8.08981 15.1858ZM4.77165 17.3592L7.98563 15.502L7.73547 15.0691L4.52149 16.9263L4.77165 17.3592ZM4.46783 17.3427C4.49355 17.3501 4.51891 17.3594 4.54375 17.3706L4.74938 16.9149C4.70297 16.8939 4.65482 16.8762 4.60519 16.862L4.46783 17.3427ZM2.59245 16.8427L4.4721 17.3439L4.60093 16.8608L2.72128 16.3596L2.59245 16.8427ZM2.40625 16.7885C2.43899 16.7885 2.461 16.7885 2.47947 16.7892C2.49749 16.79 2.50452 16.7911 2.50602 16.7914C2.5061 16.7915 2.50012 16.7902 2.49192 16.7858C2.48372 16.7815 2.47963 16.7774 2.48009 16.7779L2.83365 16.4243C2.68631 16.277 2.51129 16.2885 2.40625 16.2885V16.7885ZM1.76946 17.2963C1.86379 16.9662 2.14079 16.7885 2.40625 16.7885V16.2885C1.91985 16.2885 1.44499 16.612 1.2887 17.159L1.76946 17.2963ZM1.2694 19.1717L1.77064 17.2921L1.28752 17.1632L0.786285 19.0429L1.2694 19.1717ZM1.72307 19.9947C1.41434 19.9065 1.17772 19.5386 1.27038 19.1679L0.785308 19.0467C0.627351 19.6785 1.01727 20.3131 1.58571 20.4755L1.72307 19.9947ZM3.59845 20.4948L1.71881 19.9935L1.58998 20.4767L3.46962 20.9779L3.59845 20.4948ZM3.7384 20.5305C3.71651 20.5232 3.6861 20.513 3.65659 20.5049C3.63044 20.4978 3.58439 20.4863 3.53403 20.4863V20.9863C3.52772 20.9863 3.52304 20.9859 3.52041 20.9857C3.51771 20.9854 3.51619 20.9851 3.51606 20.9851C3.51589 20.9851 3.51656 20.9852 3.51821 20.9856C3.51984 20.9859 3.52208 20.9865 3.52504 20.9873C3.5386 20.991 3.55519 20.9965 3.58029 21.0048L3.7384 20.5305ZM3.78465 20.549C3.79097 20.549 3.79565 20.5494 3.79829 20.5496C3.80098 20.5499 3.8025 20.5502 3.80264 20.5502C3.8028 20.5503 3.80213 20.5501 3.80049 20.5498C3.79886 20.5494 3.79661 20.5488 3.79366 20.548C3.78009 20.5443 3.76351 20.5389 3.73841 20.5305L3.58028 21.0048C3.60217 21.0121 3.63258 21.0223 3.66209 21.0304C3.68824 21.0375 3.7343 21.049 3.78465 21.049V20.549ZM4.42144 20.0411C4.32711 20.3713 4.05011 20.549 3.78465 20.549V21.049C4.27105 21.049 4.74591 20.7255 4.9022 20.1785L4.42144 20.0411ZM4.9215 18.1657L4.42026 20.0454L4.90338 20.1742L5.40462 18.2946L4.9215 18.1657ZM4.93783 17.9397C4.94495 18.0146 4.93991 18.092 4.92052 18.1695L5.40559 18.2908C5.43916 18.1565 5.44791 18.0221 5.43559 17.8924L4.93783 17.9397ZM9.00742 15.4195L5.06163 17.6996L5.31179 18.1325L9.25758 15.8524L9.00742 15.4195ZM8.54331 15.116L8.91604 15.761L9.34896 15.5109L8.97623 14.8658L8.54331 15.116ZM8.17034 13.4685C8.17034 14.0537 8.32221 14.5815 8.52837 15.0856L8.99116 14.8963C8.79845 14.4251 8.67034 13.9647 8.67034 13.4685H8.17034ZM11.2585 9.76915C9.49932 10.0843 8.17034 11.6172 8.17034 13.4685H8.67034C8.67034 11.863 9.82213 10.5344 11.3467 10.2613L11.2585 9.76915ZM11.5526 10.0227V10.0152H11.0526V10.0227H11.5526ZM12.2424 9.77274H11.3026V10.2727H12.2424V9.77274ZM11.9924 5.52628V10.0227H12.4924V5.52628H11.9924ZM12.3471 5.18451C12.3272 5.21434 12.2725 5.25567 12.1694 5.28719L12.3155 5.76537C12.4643 5.71991 12.6496 5.63214 12.7631 5.46186L12.3471 5.18451ZM13.7567 3.768L12.3783 5.1464L12.7319 5.49996L14.1103 4.12155L13.7567 3.768ZM13.7567 2.8058C14.035 3.0841 14.035 3.4897 13.7567 3.768L14.1103 4.12155C14.5838 3.64799 14.5838 2.92581 14.1103 2.45225L13.7567 2.8058ZM12.3783 1.4274L13.7567 2.8058L14.1103 2.45225L12.7319 1.07384L12.3783 1.4274ZM11.9285 1.25C12.1592 1.25 12.2948 1.31092 12.3471 1.38929L12.7631 1.11194C12.5647 0.814385 12.1991 0.75 11.9285 0.75V1.25ZM11.9651 16.7893H11.3026V17.2893H11.9651V16.7893ZM15.1893 13.5308C15.1893 15.3244 13.752 16.7723 11.9627 16.7893L11.9675 17.2893C14.0308 17.2696 15.6893 15.5989 15.6893 13.5308H15.1893ZM14.8746 12.118C15.0639 12.584 15.1893 13.0398 15.1893 13.5308H15.6893C15.6893 12.9518 15.5407 12.4291 15.3379 11.9298L14.8746 12.118ZM14.5072 11.4869L14.8898 12.149L15.3227 11.8989L14.9401 11.2367L14.5072 11.4869ZM18.4842 8.90003L14.5986 11.1454L14.8487 11.5783L18.7344 9.33295L18.4842 8.90003ZM18.3906 8.77106C18.3593 8.89648 18.3528 9.01885 18.3598 9.13202L18.8588 9.10096C18.8543 9.02897 18.859 8.95912 18.8757 8.89232L18.3906 8.77106ZM18.8929 6.88763L18.3916 8.76727L18.8747 8.89611L19.376 7.01646L18.8929 6.88763ZM20.0116 6.01284C19.5252 6.01284 19.0503 6.33636 18.894 6.88337L19.3748 7.02073C19.4691 6.69057 19.7461 6.51284 20.0116 6.51284V6.01284ZM20.439 6.14872C20.2916 6.00138 20.1166 6.01284 20.0116 6.01284V6.51284C20.0443 6.51284 20.0663 6.51288 20.0848 6.51362C20.1028 6.51434 20.1099 6.51552 20.1114 6.51582C20.1114 6.51584 20.1055 6.51456 20.0973 6.51022C20.089 6.50588 20.085 6.50182 20.0854 6.50227L20.439 6.14872ZM22.2063 6.58518L20.3266 6.08394L20.1978 6.56706L22.0774 7.0683L22.2063 6.58518ZM22.9137 7.12664C22.7716 6.91346 22.5385 6.66821 22.2025 6.5842L22.0812 7.06927C22.2464 7.11058 22.3892 7.24125 22.4977 7.404L22.9137 7.12664ZM23.0109 8.01516C23.0917 7.69187 23.0086 7.38336 22.9429 7.18626L22.4686 7.34438C22.5282 7.52321 22.5703 7.71594 22.5259 7.89389L23.0109 8.01516ZM22.5087 9.89858L23.0099 8.01894L22.5268 7.89011L22.0256 9.76975L22.5087 9.89858ZM21.39 10.7734C21.8764 10.7734 22.3512 10.4499 22.5075 9.90285L22.0268 9.76549C21.9324 10.0956 21.6554 10.2734 21.39 10.2734V10.7734ZM21.1856 10.7292C21.2075 10.7365 21.2379 10.7467 21.2674 10.7548C21.2936 10.7619 21.3396 10.7734 21.39 10.7734V10.2734C21.3963 10.2734 21.401 10.2738 21.4036 10.274C21.4063 10.2743 21.4078 10.2746 21.408 10.2746C21.4081 10.2746 21.4075 10.2745 21.4058 10.2741C21.4042 10.2738 21.402 10.2732 21.399 10.2724C21.3854 10.2687 21.3689 10.2632 21.3438 10.2549L21.1856 10.7292ZM21.204 10.7346L21.2041 10.7346L21.3253 10.2495L21.3253 10.2495L21.204 10.7346ZM21.204 10.7346L21.204 10.7346L21.3253 10.2495L21.3253 10.2495L21.204 10.7346ZM21.1394 10.7107C21.1331 10.7107 21.1284 10.7103 21.1257 10.7101C21.123 10.7098 21.1215 10.7095 21.1214 10.7095C21.1212 10.7094 21.1219 10.7096 21.1235 10.7099C21.1252 10.7103 21.1274 10.7109 21.1304 10.7117C21.1439 10.7154 21.1605 10.7208 21.1856 10.7292L21.3437 10.2549C21.3218 10.2476 21.2914 10.2374 21.2619 10.2293C21.2358 10.2222 21.1897 10.2107 21.1394 10.2107V10.7107ZM19.1953 10.201L21.075 10.7023L21.2038 10.2192L19.3241 9.71792L19.1953 10.201ZM19.01 10.1339C19.0691 10.162 19.1321 10.1853 19.1991 10.202L19.3204 9.71694C19.2876 9.70875 19.2559 9.69717 19.2251 9.6825L19.01 10.1339ZM16.1229 11.9274L19.2427 10.1246L18.9925 9.69173L15.8728 11.4944L16.1229 11.9274ZM16.6292 13.5308C16.6292 12.8782 16.495 12.2259 16.2271 11.611L15.7687 11.8108C16.0092 12.3627 16.1292 12.947 16.1292 13.5308H16.6292ZM16.2256 15.4284C16.4848 14.8471 16.6292 14.2046 16.6292 13.5308H16.1292C16.1292 14.1326 16.0003 14.7058 15.7689 15.2248L16.2256 15.4284ZM19.1862 16.8986L16.1233 15.1107L15.8712 15.5425L18.9342 17.3304L19.1862 16.8986ZM19.2002 16.7973C19.111 16.8196 19.0263 16.8514 18.9471 16.8916L19.1733 17.3375C19.2191 17.3142 19.2687 17.2955 19.3214 17.2824L19.2002 16.7973ZM21.076 16.297L19.1964 16.7983L19.3252 17.2814L21.2048 16.7801L21.076 16.297ZM21.391 16.2886H21.1404V16.7886H21.391V16.2886ZM22.5148 17.1867C22.4301 16.6783 21.9394 16.2886 21.391 16.2886V16.7886C21.7199 16.7886 21.981 17.0254 22.0216 17.2689L22.5148 17.1867ZM23.011 19.043L22.5098 17.1634L22.0267 17.2922L22.5279 19.1718L23.011 19.043ZM22.2035 20.4777C22.83 20.3211 23.2508 19.679 23.0035 19.0196L22.5354 19.1952C22.664 19.5383 22.4583 19.8987 22.0823 19.9927L22.2035 20.4777ZM20.3277 20.978L22.2073 20.4768L22.0785 19.9937L20.1988 20.4949L20.3277 20.978ZM20.0126 20.9864H20.2633V20.4864H20.0126V20.9864ZM19.4623 20.8347C19.6017 20.9045 19.8307 20.9864 20.0126 20.9864V20.4864C19.944 20.4864 19.797 20.4431 19.6859 20.3875L19.4623 20.8347ZM18.8929 20.1079C18.9703 20.4173 19.1361 20.6716 19.4623 20.8347L19.6859 20.3875C19.5108 20.3 19.426 20.1784 19.378 19.9866L18.8929 20.1079ZM18.3927 18.232L18.8939 20.1117L19.377 19.9828L18.8758 18.1032L18.3927 18.232ZM18.3314 17.9392C18.3383 18.0445 18.3609 18.1507 18.4002 18.2554L18.8683 18.0798C18.846 18.0203 18.8339 17.9622 18.8303 17.9066L18.3314 17.9392ZM15.4001 16.3557L18.4548 18.1388L18.7069 17.707L15.6522 15.9239L15.4001 16.3557ZM12.26 18.2177C13.6812 18.1178 14.9333 17.3769 15.7281 16.2871L15.3242 15.9925C14.612 16.9689 13.4921 17.6298 12.2249 17.719L12.26 18.2177ZM12.4924 21.491V17.9684H11.9924V21.491H12.4924ZM12.7631 21.6008C12.6603 21.4466 12.5065 21.3314 12.34 21.2608L12.1449 21.7212C12.2371 21.7602 12.3072 21.8183 12.3471 21.8781L12.7631 21.6008ZM14.1061 22.8744L12.7277 21.5586L12.3825 21.9203L13.7609 23.2361L14.1061 22.8744ZM14.1103 24.5478C14.5838 24.0742 14.5838 23.352 14.1103 22.8784L13.7567 23.232C14.035 23.5103 14.035 23.9159 13.7567 24.1942L14.1103 24.5478ZM12.7319 25.9262L14.1103 24.5478L13.7567 24.1942L12.3783 25.5726L12.7319 25.9262ZM11.9285 26.25C12.0461 26.25 12.1984 26.231 12.3444 26.1823C12.4856 26.1353 12.6561 26.0485 12.7631 25.8881L12.3471 25.6107C12.3287 25.6382 12.28 25.6768 12.1862 25.708C12.0972 25.7377 11.9989 25.75 11.9285 25.75V26.25ZM11.1252 25.9262C11.372 26.1729 11.6933 26.25 11.9285 26.25V25.75C11.7879 25.75 11.6079 25.7018 11.4788 25.5726L11.1252 25.9262ZM9.7468 24.5478L11.1252 25.9262L11.4788 25.5726L10.1004 24.1942L9.7468 24.5478ZM9.7468 22.8784C9.27324 23.352 9.27324 24.0742 9.7468 24.5478L10.1004 24.1942C9.82206 23.9159 9.82206 23.5103 10.1004 23.232L9.7468 22.8784ZM11.1252 21.5L9.7468 22.8784L10.1004 23.232L11.4788 21.8536L11.1252 21.5ZM11.0947 21.537L11.0941 21.5379L11.5099 21.8157L11.5105 21.8148L11.0947 21.537ZM11.0526 17.0393V21.6759H11.5526V17.0393H11.0526ZM11.8672 10.8374C10.4134 10.8374 9.23633 12.0145 9.23633 13.4683H9.73633C9.73633 12.2906 10.6895 11.3374 11.8672 11.3374V10.8374ZM14.4981 13.4683C14.4981 12.0145 13.321 10.8374 11.8672 10.8374V11.3374C13.0449 11.3374 13.9981 12.2906 13.9981 13.4683H14.4981ZM11.8672 16.0992C13.321 16.0992 14.4981 14.9221 14.4981 13.4683H13.9981C13.9981 14.646 13.0449 15.5992 11.8672 15.5992V16.0992ZM9.23633 13.4683C9.23633 14.9221 10.4134 16.0992 11.8672 16.0992V15.5992C10.6895 15.5992 9.73633 14.646 9.73633 13.4683H9.23633ZM11.7518 22.5428L13.1302 23.9212L13.4837 23.5676L12.1053 22.1892L11.7518 22.5428ZM10.7269 23.9212L12.1053 22.5428L11.7518 22.1892L10.3734 23.5676L10.7269 23.9212ZM12.1053 24.9461L10.7269 23.5676L10.3734 23.9212L11.7518 25.2996L12.1053 24.9461ZM13.1302 23.5676L11.7518 24.9461L12.1053 25.2996L13.4837 23.9212L13.1302 23.5676ZM21.9556 7.46235L20.076 6.96111L19.9472 7.44422L21.8268 7.94546L21.9556 7.46235ZM21.6315 9.64796L22.1328 7.76832L21.6497 7.63949L21.1484 9.51913L21.6315 9.64796ZM19.4459 9.32387L21.3256 9.82511L21.4544 9.34199L19.5748 8.84075L19.4459 9.32387ZM19.77 7.13825L19.2688 9.01789L19.7519 9.14673L20.2531 7.26708L19.77 7.13825ZM2.40449 17.7198L4.28413 18.2211L4.41296 17.738L2.53332 17.2367L2.40449 17.7198ZM2.20922 19.4223L2.71046 17.5427L2.22734 17.4139L1.72611 19.2935L2.20922 19.4223ZM3.91172 19.6176L2.03208 19.1164L1.90325 19.5995L3.78289 20.1007L3.91172 19.6176ZM4.10699 17.9151L3.60575 19.7948L4.08887 19.9236L4.59011 18.0439L4.10699 17.9151ZM22.1338 19.2936L21.6326 17.414L21.1495 17.5428L21.6507 19.4225L22.1338 19.2936ZM20.0771 20.1008L21.9567 19.5996L21.8279 19.1165L19.9482 19.6177L20.0771 20.1008ZM19.2698 18.0441L19.7711 19.9237L20.2542 19.7949L19.753 17.9152L19.2698 18.0441ZM21.3266 17.2368L19.447 17.7381L19.5758 18.2212L21.4555 17.72L21.3266 17.2368ZM3.60554 7.26693L4.10678 9.14658L4.5899 9.01775L4.08866 7.1381L3.60554 7.26693ZM2.03188 7.94531L3.91152 7.44408L3.78269 6.96096L1.90304 7.4622L2.03188 7.94531ZM2.71026 9.51898L2.20902 7.63934L1.7259 7.76817L2.22714 9.64782L2.71026 9.51898ZM4.28393 8.8406L2.40428 9.34184L2.53311 9.82496L4.41276 9.32372L4.28393 8.8406Z" fill="#00072E"/>
</svg>
