<svg width="14" height="16" viewBox="0 0 14 16" fill="none" xmlns="http://www.w3.org/2000/svg">
<path d="M0.708256 1.88333L5.33326 7.16667V15.5L8.66659 13.8333V7.16667L13.2916 1.88333C13.3973 1.76302 13.4661 1.6148 13.4897 1.45641C13.5134 1.29802 13.4909 1.13616 13.425 0.990221C13.359 0.844278 13.2524 0.720426 13.1179 0.633486C12.9834 0.546547 12.8267 0.500203 12.6666 0.5H1.33326C1.17311 0.500203 1.01641 0.546547 0.881917 0.633486C0.747423 0.720426 0.640828 0.844278 0.57489 0.990221C0.508952 1.13616 0.486463 1.29802 0.510116 1.45641C0.533768 1.6148 0.602559 1.76302 0.708256 1.88333Z" stroke="black" stroke-linecap="round" stroke-linejoin="round"/>
</svg>
