<svg width="23" height="24" viewBox="0 0 23 24" fill="none" xmlns="http://www.w3.org/2000/svg">
<path d="M17.5043 7.02664L17.5041 7.02634C17.2361 6.71115 17.1009 6.29871 17.1305 5.87971C17.1602 5.46077 17.352 5.07309 17.6607 4.80104C17.9691 4.52928 18.369 4.39472 18.7725 4.42432C19.1759 4.45393 19.5535 4.64557 19.8211 4.96034C21.1957 6.58035 22.0865 8.56832 22.3871 10.6893C22.6877 12.8104 22.3851 14.9746 21.5158 16.9254C20.6465 18.8762 19.2471 20.5314 17.4846 21.6959C15.7221 22.8604 13.6698 23.4861 11.5704 23.4998C9.47104 23.5135 7.41106 22.9147 5.63413 21.7733C3.85711 20.6318 2.43711 18.9952 1.54334 17.0559C0.649531 15.1166 0.319798 12.9566 0.593657 10.8317C0.867513 8.70688 1.73331 6.70734 3.08748 5.06944C3.35118 4.75111 3.72632 4.55449 4.12934 4.51954C4.5324 4.48459 4.93397 4.61384 5.24573 4.88144C5.55781 5.14931 5.75454 5.53435 5.78955 5.95285C5.82456 6.37142 5.69461 6.78569 5.43064 7.1045L5.43049 7.10467C4.45518 8.28369 3.83276 9.72151 3.63572 11.2478C3.43869 12.774 3.67512 14.326 4.31752 15.7204C4.95996 17.1149 5.98194 18.2942 7.26373 19.1178C8.54561 19.9414 10.0333 20.3743 11.5506 20.3645C13.0679 20.3547 14.55 19.9025 15.8214 19.0624C17.0928 18.2224 18.0999 17.03 18.7248 15.6274C19.3498 14.2248 19.5668 12.6699 19.3507 11.1463C19.1347 9.62268 18.4943 8.19299 17.5043 7.02664ZM13.0409 8.27812C13.0409 8.69958 12.8763 9.10202 12.5863 9.39734C12.2965 9.69237 11.9055 9.85643 11.4996 9.85643C11.0938 9.85643 10.7027 9.69237 10.413 9.39734C10.1229 9.10202 9.95838 8.69958 9.95838 8.27812V2.07831C9.95838 1.65684 10.1229 1.25441 10.413 0.959082C10.7027 0.664059 11.0938 0.5 11.4996 0.5C11.9055 0.5 12.2965 0.664059 12.5863 0.959082C12.8763 1.25441 13.0409 1.65684 13.0409 2.07831V8.27812Z" fill="#00072E" stroke="white"/>
</svg>
