<svg width="15" height="12" viewBox="0 0 15 12" fill="none" xmlns="http://www.w3.org/2000/svg">
<path d="M1.5 6C1.5 3.51472 3.51472 1.5 6 1.5C6.95708 1.5 7.8423 1.79795 8.57092 2.30615C8.91068 2.54313 9.37815 2.45982 9.61515 2.12009C9.85207 1.78036 9.76882 1.31285 9.42908 1.07588C8.45692 0.397778 7.2738 0 6 0C2.68629 0 0 2.68629 0 6C0 9.31373 2.68629 12 6 12C7.2738 12 8.45692 11.6022 9.42908 10.9241C9.76882 10.6871 9.85207 10.2197 9.61515 9.8799C9.37815 9.54015 8.91068 9.4569 8.57092 9.69382C7.8423 10.202 6.95708 10.5 6 10.5C3.51472 10.5 1.5 8.48528 1.5 6Z" fill="#19191B"/>
<path d="M4.5 6C4.5 5.58578 4.83579 5.25 5.25 5.25H12.4394L11.4697 4.28033C11.1768 3.98744 11.1768 3.51257 11.4697 3.21967C11.7625 2.92678 12.2375 2.92678 12.5303 3.21967L14.7803 5.46968C14.8519 5.5413 14.9061 5.62388 14.9427 5.71193C14.9789 5.79893 14.9993 5.89425 15 5.99423V5.99775V6V6.00225C15 6.00855 14.9998 6.01485 14.9997 6.02108C14.9971 6.11513 14.9772 6.20483 14.9431 6.2871C14.9073 6.3735 14.8542 6.4551 14.7847 6.5259L14.7803 6.53033L12.5303 8.78033C12.2375 9.0732 11.7625 9.0732 11.4697 8.78033C11.1768 8.48745 11.1768 8.01255 11.4697 7.71968L12.4394 6.75H5.25C4.83579 6.75 4.5 6.41423 4.5 6Z" fill="#19191B"/>
</svg>
