<svg width="19" height="19" viewBox="0 0 19 19" fill="none" xmlns="http://www.w3.org/2000/svg">
<path d="M10.8636 1.57346C10.8636 1.2577 11.1751 1 11.5631 1C11.951 1 12.2625 1.25629 12.2625 1.57346V4.08254C12.2625 4.3983 11.951 4.65601 11.5631 4.65601C11.1751 4.65601 10.8636 4.39972 10.8636 4.08254V1.57346ZM13.9376 9.07521C14.5408 9.07521 15.1171 9.19557 15.6438 9.41363C16.1918 9.64018 16.6832 9.97151 17.0938 10.3821C17.5044 10.7928 17.8358 11.2855 18.0623 11.8307C18.2804 12.3574 18.4007 12.9337 18.4007 13.5369C18.4007 14.1401 18.2804 14.7164 18.0623 15.2431C17.8358 15.7911 17.5044 16.2824 17.0938 16.6931C16.6832 17.1037 16.1904 17.435 15.6453 17.6616C15.1185 17.8796 14.5422 18 13.939 18C13.3358 18 12.7595 17.8796 12.2328 17.6616C11.6848 17.435 11.1935 17.1037 10.7829 16.6931C10.3722 16.2824 10.0409 15.7897 9.81434 15.2431C9.59629 14.7164 9.47593 14.1401 9.47593 13.5369C9.47593 12.9337 9.59629 12.3574 9.81434 11.8307C10.0409 11.2827 10.3722 10.7914 10.7829 10.3807C11.1935 9.9701 11.6862 9.63876 12.2314 9.41221C12.7581 9.19557 13.333 9.07521 13.9376 9.07521ZM13.6034 11.6721C13.6034 11.5645 13.6473 11.4668 13.7181 11.396C13.7889 11.3252 13.8866 11.2813 13.9957 11.2813C14.1047 11.2813 14.2024 11.3252 14.2732 11.396C14.344 11.4668 14.3879 11.5645 14.3879 11.6735V13.7606L15.9483 14.6867L15.961 14.6952C16.0474 14.7504 16.104 14.8339 16.1267 14.926C16.1508 15.0222 16.1394 15.127 16.087 15.2176L16.0842 15.2219C16.0814 15.2276 16.0785 15.2318 16.0743 15.236C16.0191 15.321 15.9355 15.3776 15.8449 15.4003C15.7486 15.4244 15.6438 15.413 15.5532 15.3607L13.8088 14.3284C13.7479 14.2959 13.6969 14.2463 13.6601 14.1882C13.6233 14.1288 13.602 14.0594 13.602 13.9858L13.6034 11.6721ZM16.5401 10.9344C16.2003 10.5945 15.7954 10.3213 15.3465 10.1358C14.9132 9.95594 14.4374 9.85824 13.9376 9.85824C13.4378 9.85824 12.962 9.95735 12.5287 10.1358C12.0799 10.3213 11.6749 10.5945 11.3351 10.9344C10.9953 11.2742 10.722 11.6792 10.5365 12.128C10.3567 12.5613 10.259 13.0371 10.259 13.5369C10.259 14.0367 10.3581 14.5125 10.5365 14.9458C10.722 15.3946 10.9953 15.7996 11.3351 16.1394C11.6749 16.4793 12.0799 16.7525 12.5287 16.938C12.962 17.1179 13.4378 17.2156 13.9376 17.2156C14.4374 17.2156 14.9132 17.1164 15.3465 16.938C15.7954 16.7525 16.2003 16.4793 16.5401 16.1394C17.2071 15.4725 17.6177 14.5536 17.6177 13.5369C17.6177 13.0371 17.5186 12.5613 17.3402 12.128C17.1533 11.6792 16.88 11.2742 16.5401 10.9344ZM2.90446 9.12194C2.86482 9.12194 2.82942 8.94778 2.82942 8.73397C2.82942 8.52016 2.86057 8.34741 2.90446 8.34741H4.81318C4.85282 8.34741 4.88822 8.52157 4.88822 8.73397C4.88822 8.94778 4.85707 9.12194 4.81318 9.12194H2.90446ZM5.94736 9.12194C5.90771 9.12194 5.87231 8.94778 5.87231 8.73397C5.87231 8.52016 5.90347 8.34741 5.94736 8.34741H7.85607C7.89572 8.34741 7.93112 8.52157 7.93112 8.73397C7.93112 8.94778 7.89997 9.12194 7.85607 9.12194H5.94736ZM8.99026 9.12194C8.95061 9.12194 8.91521 8.94778 8.91521 8.73397C8.91521 8.52016 8.94636 8.34741 8.99026 8.34741H10.899C10.9386 8.34741 10.974 8.52016 10.974 8.73255C10.7829 8.85149 10.5988 8.98176 10.4232 9.12194H8.99026ZM2.90871 11.3422C2.86907 11.3422 2.83367 11.168 2.83367 10.9542C2.83367 10.7404 2.86482 10.5662 2.90871 10.5662H4.81743C4.85707 10.5662 4.89247 10.7404 4.89247 10.9542C4.89247 11.168 4.86132 11.3422 4.81743 11.3422H2.90871ZM5.95161 11.3422C5.91196 11.3422 5.87656 11.168 5.87656 10.9542C5.87656 10.7404 5.90771 10.5662 5.95161 10.5662H7.86032C7.89997 10.5662 7.93537 10.7404 7.93537 10.9542C7.93537 11.168 7.90422 11.3422 7.86032 11.3422H5.95161ZM2.91296 13.5638C2.87331 13.5638 2.83791 13.3896 2.83791 13.1758C2.83791 12.962 2.86907 12.7879 2.91296 12.7879H4.82167C4.86132 12.7879 4.89672 12.962 4.89672 13.1758C4.89672 13.3896 4.86557 13.5638 4.82167 13.5638H2.91296ZM5.95586 13.5638C5.91621 13.5638 5.88081 13.3896 5.88081 13.1758C5.88081 12.962 5.91196 12.7879 5.95586 12.7879H7.86457C7.90422 12.7879 7.93961 12.962 7.93961 13.1758C7.93961 13.3896 7.90846 13.5638 7.86457 13.5638H5.95586ZM4.58096 1.57346C4.58096 1.2577 4.89247 1 5.28044 1C5.66842 1 5.97993 1.25629 5.97993 1.57346V4.08254C5.97993 4.3983 5.667 4.65601 5.28044 4.65601C4.89247 4.65601 4.58096 4.39972 4.58096 4.08254V1.57346ZM1.77028 6.48542H15.0916V3.59687C15.0916 3.49775 15.052 3.41138 14.9883 3.34766C14.9245 3.28394 14.8339 3.24429 14.739 3.24429H13.4619C13.248 3.24429 13.0739 3.07013 13.0739 2.85632C13.0739 2.64251 13.248 2.46835 13.4619 2.46835H14.739C15.052 2.46835 15.3323 2.59437 15.5376 2.79968C15.743 3.005 15.869 3.28536 15.869 3.59828V8.18457C15.6141 8.09679 15.3522 8.02599 15.0831 7.9736V7.25712H15.0916H1.77028V14.7376C1.77028 14.8367 1.80993 14.9231 1.87365 14.9868C1.93736 15.0506 2.02799 15.0902 2.12286 15.0902H8.45361C8.52582 15.3592 8.61644 15.6212 8.72547 15.8732H2.12994C1.81842 15.8732 1.53665 15.7472 1.33133 15.5419C1.12602 15.338 1 15.0576 1 14.7447V3.5997C1 3.28819 1.12602 3.00641 1.33133 2.8011C1.53665 2.59579 1.81701 2.46977 2.12994 2.46977H3.4935C3.70731 2.46977 3.88148 2.64393 3.88148 2.85774C3.88148 3.07155 3.70731 3.24571 3.4935 3.24571H2.12994C2.03082 3.24571 1.94444 3.28536 1.88073 3.34908C1.81701 3.41279 1.77736 3.50342 1.77736 3.59828V6.48684H1.77028V6.48542ZM7.09853 3.24429C6.88473 3.24429 6.71056 3.07013 6.71056 2.85632C6.71056 2.64251 6.88473 2.46835 7.09853 2.46835H9.69824C9.91205 2.46835 10.0862 2.64251 10.0862 2.85632C10.0862 3.07013 9.91205 3.24429 9.69824 3.24429H7.09853Z" fill="black" stroke="black" stroke-width="0.4"/>
</svg>
