<svg width="20" height="25" viewBox="0 0 20 25" fill="none" xmlns="http://www.w3.org/2000/svg">
<mask id="path-1-inside-1_1059_10919" fill="white">
<path d="M12.4972 11.2498C16.2941 11.2498 19.3723 14.328 19.3723 18.1249C19.3723 21.9218 16.2941 25 12.4972 25C8.70024 25 5.62209 21.9218 5.62209 18.1249C5.62209 14.328 8.70076 11.2498 12.4972 11.2498ZM12.4972 13.7486L12.3849 13.7589C12.1296 13.805 11.9286 14.0065 11.8825 14.2613L11.8722 14.3736L11.8717 17.4984L8.74434 17.4994L8.63206 17.5097C8.37674 17.5558 8.17577 17.7568 8.12963 18.0121L8.11937 18.1244L8.12963 18.2367C8.17577 18.492 8.37725 18.693 8.63206 18.7391L8.74434 18.7494L11.8732 18.7483L11.8738 21.8788L11.884 21.9911C11.9302 22.2464 12.1316 22.4473 12.3864 22.4935L12.4987 22.5037L12.611 22.4935C12.8663 22.4473 13.0673 22.2459 13.1134 21.9911L13.1232 21.8788L13.1227 18.7483L16.2526 18.7494L16.3649 18.7391C16.6202 18.693 16.8212 18.4915 16.8673 18.2367L16.8776 18.1244L16.8673 18.0121C16.8212 17.7568 16.6197 17.5558 16.3649 17.5097L16.2526 17.4994L13.1216 17.4984L13.1221 14.3736L13.1119 14.2613C13.0657 14.006 12.8648 13.805 12.6095 13.7589L12.4972 13.7486ZM8.4398 8.74997C9.48311 8.74997 10.3936 9.31803 10.8792 10.1614C7.16681 10.912 4.37268 14.1921 4.37268 18.1249C4.37268 19.7363 4.84179 21.2384 5.6508 22.5012L5.62619 22.4996C2.51881 22.4996 0 19.9808 0 16.8734V11.562C0 10.0086 1.25915 8.74946 2.81258 8.74946L8.4398 8.74997ZM15.3098 8.74997C16.8632 8.74997 18.1223 10.0091 18.1223 11.5626L18.1234 12.2629C16.6632 10.8612 14.6812 9.9999 12.4977 9.9999L12.1937 10.0055C11.9994 9.53694 11.7189 9.11142 11.3718 8.75049L15.3098 8.74997ZM13.7476 1.24992C15.4733 1.24992 16.8724 2.64904 16.8724 4.37473C16.8724 6.10042 15.4733 7.49954 13.7476 7.49954C12.0219 7.49954 10.6228 6.10042 10.6228 4.37473C10.6228 2.64904 12.0214 1.24992 13.7476 1.24992ZM5.6226 0C7.69385 0 9.37237 1.67904 9.37237 3.74977C9.37237 5.82101 7.69333 7.49954 5.6226 7.49954C3.55187 7.49954 1.87283 5.8205 1.87283 3.74977C1.87283 1.67904 3.55136 0 5.6226 0Z"/>
</mask>
<path d="M12.4972 13.7486L12.6154 12.454L12.4972 12.4432L12.3789 12.454L12.4972 13.7486ZM12.3849 13.7589L12.2666 12.4643L12.2098 12.4695L12.1537 12.4796L12.3849 13.7589ZM11.8825 14.2613L10.6033 14.0297L10.5931 14.086L10.5879 14.1431L11.8825 14.2613ZM11.8722 14.3736L10.5776 14.2554L10.5722 14.3143L10.5722 14.3734L11.8722 14.3736ZM11.8717 17.4984L11.8721 18.7984L13.1715 18.798L13.1717 17.4986L11.8717 17.4984ZM8.74434 17.4994L8.74391 16.1994L8.68488 16.1995L8.6261 16.2048L8.74434 17.4994ZM8.63206 17.5097L8.51383 16.2151L8.45701 16.2203L8.40086 16.2304L8.63206 17.5097ZM8.12963 18.0121L6.85035 17.7809L6.8402 17.8371L6.83501 17.8939L8.12963 18.0121ZM8.11937 18.1244L6.82476 18.0062L6.81397 18.1244L6.82476 18.2426L8.11937 18.1244ZM8.12963 18.2367L6.83501 18.3549L6.8402 18.4117L6.85035 18.4679L8.12963 18.2367ZM8.63206 18.7391L8.40041 20.0183L8.45678 20.0285L8.51383 20.0337L8.63206 18.7391ZM8.74434 18.7494L8.6261 20.044L8.68531 20.0494L8.74476 20.0494L8.74434 18.7494ZM11.8732 18.7483L13.1732 18.7481L13.173 17.4479L11.8728 17.4483L11.8732 18.7483ZM11.8738 21.8788L10.5738 21.879L10.5738 21.9381L10.5791 21.997L11.8738 21.8788ZM11.884 21.9911L10.5894 22.1093L10.5946 22.1661L10.6047 22.2223L11.884 21.9911ZM12.3864 22.4935L12.1548 23.7727L12.2112 23.7829L12.2682 23.7881L12.3864 22.4935ZM12.4987 22.5037L12.3805 23.7984L12.4987 23.8092L12.6169 23.7984L12.4987 22.5037ZM12.611 22.4935L12.7292 23.7881L12.786 23.7829L12.8422 23.7728L12.611 22.4935ZM13.1134 21.9911L14.3926 22.2227L14.4034 22.1634L14.4086 22.1034L13.1134 21.9911ZM13.1232 21.8788L14.4183 21.9911L14.4232 21.935L14.4232 21.8786L13.1232 21.8788ZM13.1227 18.7483L13.1231 17.4483L11.8224 17.4479L11.8227 18.7485L13.1227 18.7483ZM16.2526 18.7494L16.2522 20.0494L16.3116 20.0494L16.3708 20.044L16.2526 18.7494ZM16.3649 18.7391L16.4831 20.0337L16.5399 20.0285L16.5961 20.0184L16.3649 18.7391ZM16.8673 18.2367L18.1465 18.4683L18.1567 18.4119L18.1619 18.3549L16.8673 18.2367ZM16.8776 18.1244L18.1722 18.2426L18.183 18.1244L18.1722 18.0062L16.8776 18.1244ZM16.8673 18.0121L18.1619 17.8939L18.1567 17.8371L18.1466 17.7809L16.8673 18.0121ZM16.3649 17.5097L16.5965 16.2305L16.5401 16.2203L16.4831 16.2151L16.3649 17.5097ZM16.2526 17.4994L16.3708 16.2048L16.312 16.1995L16.253 16.1994L16.2526 17.4994ZM13.1216 17.4984L11.8216 17.4982L11.8214 18.798L13.1212 18.7984L13.1216 17.4984ZM13.1221 14.3736L14.4221 14.3738L14.4222 14.3145L14.4168 14.2554L13.1221 14.3736ZM13.1119 14.2613L14.4065 14.1431L14.4013 14.0863L14.3912 14.0301L13.1119 14.2613ZM12.6095 13.7589L12.8407 12.4796L12.7845 12.4695L12.7277 12.4643L12.6095 13.7589ZM8.4398 8.74997L8.43968 10.05H8.4398V8.74997ZM10.8792 10.1614L11.1368 11.4356L12.9067 11.0778L12.0058 9.5128L10.8792 10.1614ZM5.6508 22.5012L5.56965 23.7986L8.12853 23.9587L6.74541 21.7999L5.6508 22.5012ZM5.62619 22.4996L5.70734 21.2022L5.66681 21.1996H5.62619V22.4996ZM2.81258 8.74946L2.8127 7.44946H2.81258V8.74946ZM15.3098 8.74997V7.44997L15.3096 7.44997L15.3098 8.74997ZM18.1223 11.5626H16.8223L16.8223 11.5645L18.1223 11.5626ZM18.1234 12.2629L17.2231 13.2007L19.4278 15.3172L19.4234 12.261L18.1234 12.2629ZM12.4977 9.9999V8.6999H12.4856L12.4736 8.70012L12.4977 9.9999ZM12.1937 10.0055L10.9928 10.5035L11.3321 11.3217L12.2178 11.3053L12.1937 10.0055ZM11.3718 8.75049L11.3717 7.45049L8.31851 7.45088L10.4348 9.65158L11.3718 8.75049ZM1.87283 3.74977H3.17283H1.87283ZM12.4972 12.5498C15.5761 12.5498 18.0723 15.0459 18.0723 18.1249H20.6723C20.6723 13.61 17.0121 9.94982 12.4972 9.94982V12.5498ZM18.0723 18.1249C18.0723 21.2039 15.5761 23.7 12.4972 23.7V26.3C17.0121 26.3 20.6723 22.6398 20.6723 18.1249H18.0723ZM12.4972 23.7C9.41821 23.7 6.92209 21.2039 6.92209 18.1249H4.32209C4.32209 22.6398 7.98227 26.3 12.4972 26.3V23.7ZM6.92209 18.1249C6.92209 15.046 9.41866 12.5498 12.4972 12.5498V9.94982C7.98285 9.94982 4.32209 13.6099 4.32209 18.1249H6.92209ZM12.3789 12.454L12.2666 12.4643L12.5032 15.0535L12.6154 15.0433L12.3789 12.454ZM12.1537 12.4796C11.3636 12.6224 10.7458 13.2424 10.6033 14.0297L13.1617 14.493C13.1114 14.7707 12.8955 14.9877 12.6161 15.0382L12.1537 12.4796ZM10.5879 14.1431L10.5776 14.2554L13.1668 14.4918L13.1771 14.3796L10.5879 14.1431ZM10.5722 14.3734L10.5717 17.4982L13.1717 17.4986L13.1722 14.3738L10.5722 14.3734ZM11.8713 16.1984L8.74391 16.1994L8.74476 18.7994L11.8721 18.7984L11.8713 16.1984ZM8.6261 16.2048L8.51383 16.2151L8.75029 18.8043L8.86257 18.794L8.6261 16.2048ZM8.40086 16.2304C7.61173 16.373 6.99296 16.9918 6.85035 17.7809L9.4089 18.2433C9.35857 18.5218 9.14175 18.7386 8.86325 18.789L8.40086 16.2304ZM6.83501 17.8939L6.82476 18.0062L9.41399 18.2426L9.42424 18.1303L6.83501 17.8939ZM6.82476 18.2426L6.83501 18.3549L9.42424 18.1185L9.41399 18.0062L6.82476 18.2426ZM6.85035 18.4679C6.99314 19.258 7.61312 19.8757 8.40041 20.0183L8.8637 17.4599C9.14139 17.5102 9.3584 17.726 9.4089 18.0055L6.85035 18.4679ZM8.51383 20.0337L8.6261 20.044L8.86257 17.4547L8.75029 17.4445L8.51383 20.0337ZM8.74476 20.0494L11.8737 20.0483L11.8728 17.4483L8.74391 17.4494L8.74476 20.0494ZM10.5732 18.7485L10.5738 21.879L13.1738 21.8786L13.1732 18.7481L10.5732 18.7485ZM10.5791 21.997L10.5894 22.1093L13.1786 21.8728L13.1684 21.7605L10.5791 21.997ZM10.6047 22.2223C10.7475 23.0123 11.3675 23.6301 12.1548 23.7727L12.6181 21.2143C12.8958 21.2646 13.1128 21.4804 13.1633 21.7599L10.6047 22.2223ZM12.2682 23.7881L12.3805 23.7984L12.617 21.2091L12.5047 21.1989L12.2682 23.7881ZM12.6169 23.7984L12.7292 23.7881L12.4928 21.1989L12.3805 21.2091L12.6169 23.7984ZM12.8422 23.7728C13.6323 23.63 14.2501 23.01 14.3926 22.2227L11.8342 21.7594C11.8845 21.4817 12.1003 21.2647 12.3798 21.2142L12.8422 23.7728ZM14.4086 22.1034L14.4183 21.9911L11.828 21.7664L11.8183 21.8787L14.4086 22.1034ZM14.4232 21.8786L14.4227 18.7481L11.8227 18.7485L11.8232 21.879L14.4232 21.8786ZM13.1222 20.0483L16.2522 20.0494L16.253 17.4494L13.1231 17.4483L13.1222 20.0483ZM16.3708 20.044L16.4831 20.0337L16.2466 17.4445L16.1344 17.4547L16.3708 20.044ZM16.5961 20.0184C17.3862 19.8756 18.0039 19.2556 18.1465 18.4683L15.5881 18.005C15.6384 17.7273 15.8542 17.5103 16.1337 17.4598L16.5961 20.0184ZM18.1619 18.3549L18.1722 18.2426L15.5829 18.0062L15.5727 18.1185L18.1619 18.3549ZM18.1722 18.0062L18.1619 17.8939L15.5727 18.1303L15.5829 18.2426L18.1722 18.0062ZM18.1466 17.7809C18.0038 16.9908 17.3838 16.3731 16.5965 16.2305L16.1332 18.7889C15.8555 18.7386 15.6385 18.5228 15.588 18.2433L18.1466 17.7809ZM16.4831 16.2151L16.3708 16.2048L16.1344 18.794L16.2466 18.8043L16.4831 16.2151ZM16.253 16.1994L13.1221 16.1984L13.1212 18.7984L16.2522 18.7994L16.253 16.1994ZM14.4216 17.4986L14.4221 14.3738L11.8221 14.3734L11.8216 17.4982L14.4216 17.4986ZM14.4168 14.2554L14.4065 14.1431L11.8173 14.3795L11.8275 14.4918L14.4168 14.2554ZM14.3912 14.0301C14.2486 13.241 13.6298 12.6222 12.8407 12.4796L12.3783 15.0382C12.0998 14.9878 11.8829 14.771 11.8326 14.4925L14.3912 14.0301ZM12.7277 12.4643L12.6154 12.454L12.3789 15.0433L12.4912 15.0535L12.7277 12.4643ZM8.4398 10.05C8.99925 10.05 9.48945 10.353 9.75251 10.81L12.0058 9.5128C11.2978 8.28301 9.96697 7.44997 8.4398 7.44997V10.05ZM10.6215 8.88717C6.31479 9.75792 3.07268 13.5613 3.07268 18.1249H5.67268C5.67268 14.8229 8.01882 12.066 11.1368 11.4356L10.6215 8.88717ZM3.07268 18.1249C3.07268 19.9921 3.617 21.7366 4.55619 23.2025L6.74541 21.7999C6.06657 20.7403 5.67268 19.4805 5.67268 18.1249H3.07268ZM5.73195 21.2037L5.70734 21.2022L5.54504 23.7971L5.56965 23.7986L5.73195 21.2037ZM5.62619 21.1996C3.23678 21.1996 1.3 19.2629 1.3 16.8734H-1.3C-1.3 20.6988 1.80084 23.7996 5.62619 23.7996V21.1996ZM1.3 16.8734V11.562H-1.3V16.8734H1.3ZM1.3 11.562C1.3 10.7266 1.97712 10.0495 2.81258 10.0495V7.44946C0.541181 7.44946 -1.3 9.29064 -1.3 11.562H1.3ZM2.81246 10.0495L8.43968 10.05L8.43992 7.44997L2.8127 7.44946L2.81246 10.0495ZM15.3098 10.05C16.1452 10.05 16.8223 10.7271 16.8223 11.5626H19.4223C19.4223 9.29116 17.5812 7.44997 15.3098 7.44997V10.05ZM16.8223 11.5645L16.8234 12.2648L19.4234 12.261L19.4223 11.5607L16.8223 11.5645ZM19.0237 11.3251C17.3312 9.70036 15.0301 8.6999 12.4977 8.6999V11.2999C14.3323 11.2999 15.9953 12.022 17.2231 13.2007L19.0237 11.3251ZM12.4736 8.70012L12.1696 8.70576L12.2178 11.3053L12.5218 11.2997L12.4736 8.70012ZM13.3945 9.50759C13.1375 8.88766 12.767 8.32577 12.3089 7.84939L10.4348 9.65158C10.6709 9.89706 10.8613 10.1862 10.9928 10.5035L13.3945 9.50759ZM11.372 10.0505L15.3099 10.05L15.3096 7.44997L11.3717 7.45049L11.372 10.0505ZM13.7476 2.54992C14.7553 2.54992 15.5724 3.36701 15.5724 4.37473H18.1724C18.1724 1.93107 16.1913 -0.0500767 13.7476 -0.0500767V2.54992ZM15.5724 4.37473C15.5724 5.38245 14.7553 6.19954 13.7476 6.19954V8.79954C16.1913 8.79954 18.1724 6.81839 18.1724 4.37473H15.5724ZM13.7476 6.19954C12.7399 6.19954 11.9228 5.38245 11.9228 4.37473H9.32281C9.32281 6.81839 11.304 8.79954 13.7476 8.79954V6.19954ZM11.9228 4.37473C11.9228 3.36687 12.7395 2.54992 13.7476 2.54992V-0.0500767C11.3033 -0.0500767 9.32281 1.93121 9.32281 4.37473H11.9228ZM5.6226 1.3C6.97576 1.3 8.07237 2.39689 8.07237 3.74977H10.6724C10.6724 0.961185 8.41193 -1.3 5.6226 -1.3V1.3ZM8.07237 3.74977C8.07237 5.10293 6.97548 6.19954 5.6226 6.19954V8.79954C8.41119 8.79954 10.6724 6.5391 10.6724 3.74977H8.07237ZM5.6226 6.19954C4.26984 6.19954 3.17283 5.10253 3.17283 3.74977H0.572834C0.572834 6.53847 2.8339 8.79954 5.6226 8.79954V6.19954ZM3.17283 3.74977C3.17283 2.39689 4.26945 1.3 5.6226 1.3V-1.3C2.83327 -1.3 0.572834 0.961185 0.572834 3.74977H3.17283Z" fill="#00072E" mask="url(#path-1-inside-1_1059_10919)"/>
</svg>
