<svg width="17" height="17" viewBox="0 0 17 17" fill="none" xmlns="http://www.w3.org/2000/svg">
<path d="M9.70315 1.506C9.70315 1.22739 9.97801 1 10.3203 1C10.6627 1 10.9375 1.22614 10.9375 1.506V3.71989C10.9375 3.9985 10.6627 4.22589 10.3203 4.22589C9.97801 4.22589 9.70315 3.99975 9.70315 3.71989V1.506ZM12.4155 8.12519C12.9478 8.12519 13.4563 8.23138 13.921 8.42379C14.4045 8.62369 14.8381 8.91604 15.2004 9.27836C15.5627 9.64068 15.8551 10.0755 16.055 10.5565C16.2474 11.0212 16.3536 11.5297 16.3536 12.062C16.3536 12.5942 16.2474 13.1027 16.055 13.5675C15.8551 14.051 15.5627 14.4845 15.2004 14.8468C14.8381 15.2091 14.4033 15.5015 13.9223 15.7014C13.4575 15.8938 12.949 16 12.4168 16C11.8846 16 11.3761 15.8938 10.9113 15.7014C10.4278 15.5015 9.99425 15.2091 9.63194 14.8468C9.26962 14.4845 8.97726 14.0497 8.77736 13.5675C8.58496 13.1027 8.47876 12.5942 8.47876 12.062C8.47876 11.5297 8.58496 11.0212 8.77736 10.5565C8.97726 10.073 9.26962 9.63943 9.63194 9.27711C9.99425 8.91479 10.429 8.62244 10.91 8.42254C11.3748 8.23138 11.8821 8.12519 12.4155 8.12519ZM12.1207 10.4165C12.1207 10.3216 12.1594 10.2354 12.2219 10.1729C12.2844 10.1104 12.3706 10.0717 12.4668 10.0717C12.563 10.0717 12.6492 10.1104 12.7116 10.1729C12.7741 10.2354 12.8128 10.3216 12.8128 10.4178V12.2594L14.1897 13.0765L14.2009 13.084C14.2771 13.1327 14.3271 13.2064 14.3471 13.2876C14.3683 13.3726 14.3583 13.465 14.3121 13.545L14.3096 13.5487C14.3071 13.5537 14.3046 13.5575 14.3009 13.5612C14.2521 13.6362 14.1784 13.6862 14.0985 13.7061C14.0135 13.7274 13.921 13.7174 13.8411 13.6712L12.3019 12.7604C12.2481 12.7316 12.2032 12.6879 12.1707 12.6367C12.1382 12.5842 12.1194 12.523 12.1194 12.458L12.1207 10.4165ZM14.7119 9.76562C14.412 9.46577 14.0547 9.22464 13.6587 9.06097C13.2764 8.9023 12.8566 8.81609 12.4155 8.81609C11.9745 8.81609 11.5547 8.90355 11.1724 9.06097C10.7764 9.22464 10.419 9.46577 10.1192 9.76562C9.81934 10.0655 9.57821 10.4228 9.41454 10.8188C9.25587 11.2011 9.16967 11.6209 9.16967 12.062C9.16967 12.503 9.25712 12.9228 9.41454 13.3051C9.57821 13.7011 9.81934 14.0585 10.1192 14.3583C10.419 14.6582 10.7764 14.8993 11.1724 15.063C11.5547 15.2216 11.9745 15.3078 12.4155 15.3078C12.8566 15.3078 13.2764 15.2204 13.6587 15.063C14.0547 14.8993 14.412 14.6582 14.7119 14.3583C15.3004 13.7699 15.6627 12.959 15.6627 12.062C15.6627 11.6209 15.5752 11.2011 15.4178 10.8188C15.2529 10.4228 15.0117 10.0655 14.7119 9.76562ZM2.68041 8.16642C2.64543 8.16642 2.61419 8.01274 2.61419 7.82409C2.61419 7.63543 2.64168 7.48301 2.68041 7.48301H4.36457C4.39955 7.48301 4.43078 7.63668 4.43078 7.82409C4.43078 8.01274 4.4033 8.16642 4.36457 8.16642H2.68041ZM5.36532 8.16642C5.33034 8.16642 5.2991 8.01274 5.2991 7.82409C5.2991 7.63543 5.32659 7.48301 5.36532 7.48301H7.04948C7.08446 7.48301 7.11569 7.63668 7.11569 7.82409C7.11569 8.01274 7.08821 8.16642 7.04948 8.16642H5.36532ZM8.05023 8.16642C8.01524 8.16642 7.98401 8.01274 7.98401 7.82409C7.98401 7.63543 8.0115 7.48301 8.05023 7.48301H9.73438C9.76937 7.48301 9.8006 7.63543 9.8006 7.82284C9.63194 7.92779 9.46952 8.04273 9.31459 8.16642H8.05023ZM2.68416 10.1254C2.64918 10.1254 2.61794 9.97176 2.61794 9.78311C2.61794 9.59445 2.64543 9.44078 2.68416 9.44078H4.36832C4.4033 9.44078 4.43453 9.59445 4.43453 9.78311C4.43453 9.97176 4.40705 10.1254 4.36832 10.1254H2.68416ZM5.36907 10.1254C5.33408 10.1254 5.30285 9.97176 5.30285 9.78311C5.30285 9.59445 5.33034 9.44078 5.36907 9.44078H7.05322C7.08821 9.44078 7.11944 9.59445 7.11944 9.78311C7.11944 9.97176 7.09196 10.1254 7.05322 10.1254H5.36907ZM2.68791 12.0857C2.65292 12.0857 2.62169 11.932 2.62169 11.7434C2.62169 11.5547 2.64918 11.401 2.68791 11.401H4.37206C4.40705 11.401 4.43828 11.5547 4.43828 11.7434C4.43828 11.932 4.41079 12.0857 4.37206 12.0857H2.68791ZM5.37281 12.0857C5.33783 12.0857 5.3066 11.932 5.3066 11.7434C5.3066 11.5547 5.33408 11.401 5.37281 11.401H7.05697C7.09195 11.401 7.12319 11.5547 7.12319 11.7434C7.12319 11.932 7.0957 12.0857 7.05697 12.0857H5.37281ZM4.15967 1.506C4.15967 1.22739 4.43453 1 4.77686 1C5.11919 1 5.39405 1.22614 5.39405 1.506V3.71989C5.39405 3.9985 5.11794 4.22589 4.77686 4.22589C4.43453 4.22589 4.15967 3.99975 4.15967 3.71989V1.506ZM1.67966 5.84008H13.4338V3.29135C13.4338 3.2039 13.3988 3.12769 13.3426 3.07146C13.2864 3.01524 13.2064 2.98026 13.1227 2.98026H11.9958C11.8071 2.98026 11.6534 2.82659 11.6534 2.63793C11.6534 2.44928 11.8071 2.2956 11.9958 2.2956H13.1227C13.3988 2.2956 13.6462 2.4068 13.8273 2.58796C14.0085 2.76912 14.1197 3.01649 14.1197 3.2926V7.33933C13.8948 7.26187 13.6637 7.1994 13.4263 7.15317V6.52099H13.4338H1.67966V13.1214C1.67966 13.2089 1.71464 13.2851 1.77086 13.3413C1.82709 13.3976 1.90705 13.4325 1.99075 13.4325H7.57671C7.64043 13.6699 7.72039 13.901 7.81659 14.1234H1.997C1.72214 14.1234 1.47351 14.0122 1.29235 13.8311C1.11119 13.6512 1 13.4038 1 13.1277V3.29385C1 3.01899 1.11119 2.77036 1.29235 2.58921C1.47351 2.40805 1.72089 2.29685 1.997 2.29685H3.20015C3.38881 2.29685 3.54248 2.45052 3.54248 2.63918C3.54248 2.82784 3.38881 2.98151 3.20015 2.98151H1.997C1.90955 2.98151 1.83333 3.01649 1.77711 3.07271C1.72089 3.12894 1.68591 3.2089 1.68591 3.2926V5.84133H1.67966V5.84008ZM6.38106 2.98026C6.1924 2.98026 6.03873 2.82659 6.03873 2.63793C6.03873 2.44928 6.1924 2.2956 6.38106 2.2956H8.67491C8.86357 2.2956 9.01724 2.44928 9.01724 2.63793C9.01724 2.82659 8.86357 2.98026 8.67491 2.98026H6.38106Z" fill="black" stroke="black" stroke-width="0.4"/>
</svg>
