<svg width="15" height="15" viewBox="0 0 15 15" fill="none" xmlns="http://www.w3.org/2000/svg">
<path d="M9.61928 14.8178C9.47445 14.9687 9.25215 14.9545 9.12265 14.7856C8.99315 14.6166 9.00546 14.3572 9.15029 14.2062L13.9092 9.24938L13.9107 9.24797C13.9793 9.17715 14.0307 9.10069 14.0653 9.01847C14.0992 8.93764 14.1187 8.84542 14.124 8.74207C14.1293 8.639 14.1191 8.54439 14.0933 8.45822C14.0676 8.37303 14.0242 8.29038 13.9633 8.21026L13.9575 8.20252L8.55615 1.34732C8.42436 1.18019 8.43365 0.919988 8.57691 0.766374C8.72016 0.612759 8.94307 0.62346 9.07486 0.790592L14.4766 7.64664C14.4812 7.65213 14.4856 7.65762 14.4901 7.66339C14.6113 7.82207 14.7006 7.99709 14.758 8.18816C14.8152 8.37852 14.8383 8.57916 14.8274 8.79037C14.8165 9.00115 14.7733 9.19728 14.6969 9.3792C14.621 9.55985 14.5145 9.72092 14.3768 9.86285L14.3766 9.86271L9.61928 14.8178ZM6.56336 0.440841H6.65243V0.441686C6.74753 0.441686 6.84239 0.48632 6.91179 0.574321L12.3135 7.43051C12.3181 7.436 12.3225 7.44149 12.3269 7.44726C12.4482 7.60609 12.5375 7.78096 12.5949 7.97203C12.6521 8.16239 12.6752 8.36303 12.6643 8.57438C12.6533 8.78502 12.6101 8.98129 12.5337 9.16307C12.458 9.34372 12.3514 9.50479 12.2136 9.64672L7.47165 14.5855C7.46852 14.5894 7.46502 14.5932 7.46164 14.597C7.32731 14.7423 7.17851 14.8486 7.01534 14.9161C6.85362 14.9828 6.68055 15.0098 6.49614 14.997C6.31149 14.9842 6.1418 14.9335 5.98696 14.8455C5.83164 14.7571 5.69309 14.6328 5.57096 14.4728L0.492087 7.827L0.492207 7.82686C0.43126 7.74703 0.396865 7.6396 0.403864 7.52456L0.414244 7.35827L0.000770044 0.438447C-0.000195452 0.420988 -0.000316139 0.403247 0.000770044 0.385365C0.0129594 0.158815 0.180232 -0.0135255 0.374538 0.000836259L6.45088 0.453372C6.45849 0.451964 6.46621 0.450556 6.47406 0.44943C6.50918 0.443657 6.53911 0.440841 6.56336 0.440841ZM6.50773 1.27678C6.48419 1.27945 6.46078 1.27931 6.43785 1.2765L0.732133 0.851418L1.1193 7.33209C1.12038 7.35109 1.12038 7.36996 1.11918 7.38841H1.1193L1.11797 7.40925L6.09763 13.9255C6.15774 14.0042 6.22375 14.0641 6.2958 14.1051C6.36821 14.1462 6.44871 14.1701 6.5373 14.1762C6.62636 14.1824 6.70746 14.1702 6.7806 14.1401C6.85229 14.1105 6.91927 14.0621 6.9813 13.995C6.98842 13.9872 6.99579 13.98 7.00327 13.9731L11.7458 9.03353L11.7472 9.03198L11.7471 9.03184C11.8158 8.96116 11.8673 8.8847 11.9017 8.80262C11.9357 8.72166 11.9552 8.62957 11.9606 8.52608C11.9659 8.42302 11.9555 8.3284 11.9297 8.24223C11.904 8.15704 11.8608 8.07439 11.7997 7.99428L11.7939 7.98653L6.50773 1.27678ZM2.92888 1.72256C3.10677 1.72819 3.27078 1.76972 3.42104 1.84717C3.57262 1.92531 3.70972 2.03866 3.8321 2.18692L3.83367 2.18903C3.95508 2.33575 4.0468 2.49936 4.10859 2.67972C4.17123 2.86248 4.20261 3.05707 4.20261 3.26335C4.20261 3.28123 4.20164 3.29883 4.19971 3.31615C4.19114 3.50581 4.15506 3.68293 4.0917 3.84725L4.09109 3.84866L4.0917 3.84894C4.02375 4.02508 3.92515 4.18489 3.7965 4.32823C3.78889 4.33668 3.78105 4.3447 3.77296 4.35216C3.6495 4.48212 3.51409 4.5804 3.36709 4.64644C3.2137 4.71529 3.05162 4.74782 2.8806 4.74359V4.745C2.70404 4.745 2.53809 4.70586 2.38301 4.62785C2.23034 4.55126 2.09107 4.43721 1.96555 4.28655L1.96411 4.28486C1.84004 4.13463 1.74735 3.96862 1.68604 3.78685C1.62522 3.60592 1.59698 3.41189 1.6018 3.20491C1.60651 2.99442 1.64211 2.80039 1.70946 2.6227C1.77752 2.44276 1.87685 2.28055 2.00791 2.13595C2.1356 1.99515 2.27729 1.88955 2.43285 1.81957C2.58842 1.74959 2.75388 1.71707 2.92888 1.72256ZM3.13682 2.60031C3.06803 2.56497 2.9932 2.54582 2.91234 2.54329C2.83015 2.54061 2.75485 2.55483 2.68666 2.58553C2.61811 2.6165 2.5527 2.66621 2.49054 2.73464C2.4302 2.8011 2.38506 2.87431 2.35489 2.95429C2.32387 3.03623 2.30734 3.12635 2.30517 3.22434C2.30287 3.31924 2.31542 3.40696 2.34258 3.4875C2.36961 3.5679 2.41282 3.64379 2.47159 3.71518C2.53013 3.78516 2.59349 3.83725 2.66156 3.87133C2.72709 3.90427 2.8001 3.92075 2.88048 3.92075V3.9223L2.88881 3.92244C2.97184 3.92511 3.04751 3.91089 3.11594 3.8802C3.17966 3.85161 3.24049 3.80726 3.29842 3.74742C3.3024 3.74235 3.30663 3.73757 3.31097 3.73278C3.37204 3.66477 3.41814 3.59071 3.44892 3.51088L3.4494 3.51116C3.47643 3.44047 3.49224 3.36374 3.49671 3.28081C3.49647 3.27503 3.49635 3.26912 3.49635 3.26321C3.49635 3.15901 3.48247 3.06637 3.45471 2.9854C3.42683 2.90388 3.38399 2.82841 3.32642 2.75914L3.32425 2.7566C3.26728 2.68747 3.20477 2.63537 3.13682 2.60031ZM6.3267 4.41552C6.19491 4.24839 6.2042 3.98819 6.34733 3.83458C6.49059 3.68082 6.7135 3.69166 6.84529 3.8588L9.85414 7.66607C9.98593 7.8332 9.97663 8.09326 9.83338 8.24701C9.69012 8.40077 9.46721 8.39007 9.33542 8.2228L6.3267 4.41552ZM4.88666 6.00672C4.75487 5.83959 4.76416 5.57953 4.9073 5.42578C5.05055 5.27202 5.27346 5.28272 5.40525 5.44985L8.4141 9.25712C8.54589 9.42425 8.5366 9.68431 8.39334 9.83807C8.24996 9.99183 8.02706 9.98112 7.89527 9.81399L4.88666 6.00672ZM3.38821 7.59792C3.25642 7.43079 3.26571 7.17059 3.40885 7.01697C3.5521 6.86322 3.77513 6.87406 3.9068 7.04105L6.91565 10.8483C7.04744 11.0156 7.03827 11.2755 6.89501 11.4293C6.75176 11.583 6.52885 11.5723 6.39706 11.4052L3.38821 7.59792Z" fill="black"/>
</svg>
