<svg width="18" height="18" viewBox="0 0 18 18" fill="none" xmlns="http://www.w3.org/2000/svg">
<path d="M15.4392 3.7252L15.4392 3.72521L16.9849 6.40248C17.0992 6.60052 17.1296 6.83175 17.0705 7.0526L16.9739 7.02673L17.0705 7.0526C17.0113 7.27347 16.8693 7.45852 16.6713 7.57283M15.4392 3.7252L16.0561 7.81256M15.4392 3.7252C15.3248 3.5272 15.1398 3.38519 14.9189 3.32603L14.8931 3.42262L14.9189 3.32603C14.6981 3.26688 14.4669 3.29729 14.2688 3.41163L14.3188 3.49824L14.2688 3.41163L13.765 3.70253C13.0707 3.10382 12.2624 2.63612 11.4025 2.33563V1.75676C11.4025 1.28425 11.0182 0.9 10.5457 0.9H7.4543C6.98179 0.9 6.59754 1.28425 6.59754 1.75676V2.33569C5.74197 2.63518 4.93483 3.10354 4.23834 3.70445L3.7312 3.41164L3.7312 3.41163C3.53315 3.29729 3.30191 3.26684 3.08104 3.32603C2.86019 3.38523 2.67518 3.52719 2.56083 3.7252L2.56083 3.72521L1.01512 6.40248L15.4392 3.7252ZM16.6713 7.57283L16.6213 7.48622L16.6713 7.57282L16.6713 7.57283ZM16.6713 7.57283L16.1679 7.86347M16.1679 7.86347C16.1634 7.83995 16.1588 7.81644 16.1541 7.79294L16.0561 7.81256M16.1679 7.86347C16.2538 8.31531 16.2973 8.77309 16.2973 9.22773C16.2973 9.67639 16.253 10.1337 16.1656 10.5906M16.1679 7.86347L16.1061 7.89916L16.0561 7.81256M16.0561 7.81256L16.1656 10.5906M16.1656 10.5906L16.1037 10.5549L16.0537 10.6415L16.1517 10.6612C16.1565 10.6377 16.1611 10.6141 16.1656 10.5906ZM16.1656 10.5906L16.6713 10.8826C17.0805 11.1189 17.2211 11.6437 16.9849 12.053L16.9849 12.053L15.4392 14.7303L15.3526 14.6803L15.4392 14.7303C15.2029 15.1394 14.678 15.2801 14.2688 15.0438L13.7617 14.751C13.0652 15.3519 12.2581 15.8203 11.4025 16.1198V16.6987C11.4025 17.1712 11.0182 17.5555 10.5457 17.5555H7.4543C6.98179 17.5555 6.59754 17.1712 6.59754 16.6987V16.1199C5.73761 15.8193 4.92933 15.3516 4.235 14.7529L3.7312 15.0438L3.73119 15.0438C3.32196 15.2801 2.79709 15.1394 2.56083 14.7303L2.64743 14.6803L2.56083 14.7303L1.01511 12.053L1.01511 12.053C0.778897 11.6437 0.919509 11.1189 1.32872 10.8826L1.83212 10.592C1.74625 10.1401 1.70276 9.68232 1.70276 9.22773C1.70276 8.77904 1.74707 8.3217 1.83441 7.86482L1.32869 7.57283L1.32869 7.57282L1.37869 7.48622C1.20364 7.38517 1.0784 7.22197 1.0261 7.02673C0.973806 6.83148 1.00063 6.62754 1.10171 6.45249L16.1656 10.5906ZM16.3934 11.7115L16.3934 11.7114C16.4412 11.6286 16.4127 11.522 16.3299 11.4741C16.3298 11.4741 16.3298 11.4741 16.3298 11.4741L15.6102 11.0586L15.6102 11.0586C15.4807 10.9838 15.4149 10.8336 15.4478 10.6877L15.4478 10.6877C15.5584 10.1975 15.6143 9.70624 15.6143 9.22773C15.6143 8.74058 15.5591 8.24889 15.4503 7.76634M16.3934 11.7115L15.5478 7.74433M16.3934 11.7115L14.8477 14.3887L14.8476 14.3887M16.3934 11.7115L14.8476 14.3887M15.4503 7.76634L15.5478 7.74433M15.4503 7.76634C15.4503 7.76634 15.4503 7.76634 15.4503 7.76634L15.5478 7.74433M15.4503 7.76634C15.4173 7.62048 15.4831 7.47017 15.6126 7.3954L16.3299 6.98131L16.3799 7.06791M15.5478 7.74433C15.5245 7.64118 15.5711 7.53488 15.6626 7.482L16.3799 7.06791M16.3799 7.06791L16.3299 6.98131C16.3702 6.95803 16.3987 6.92085 16.4108 6.87582C16.4229 6.83084 16.4167 6.78436 16.3934 6.74401L14.8477 4.06676M16.3799 7.06791L14.8477 4.06676M14.8477 4.06676C14.8244 4.0264 14.7872 3.99787 14.7422 3.98579L14.7422 3.98579C14.6973 3.97374 14.6508 3.97985 14.6104 4.00316L13.8926 4.41756L13.8426 4.33096L13.8926 4.41756C13.763 4.49238 13.5998 4.47413 13.4899 4.37248C12.7671 3.70376 11.8921 3.19759 10.9599 2.90881L10.9599 2.90881C10.817 2.8645 10.7195 2.73228 10.7195 2.58259V1.75676C10.7195 1.66105 10.6415 1.58304 10.5458 1.58304H7.45433C7.35862 1.58304 7.28061 1.66105 7.28061 1.75676V2.58259C7.28061 2.73228 7.18311 2.86451 7.04015 2.90881L7.04014 2.90881C6.11386 3.19577 5.23993 3.70253 4.51343 4.37442C4.51342 4.37442 4.51342 4.37443 4.51342 4.37443L14.8477 4.06676ZM14.8476 14.3887C14.7998 14.4716 14.6933 14.5002 14.6104 14.4523L14.6104 14.4523M14.8476 14.3887L14.6104 14.4523M14.6104 14.4523L13.8893 14.036M14.6104 14.4523L10.9895 15.6421M10.9895 15.6421L10.9599 15.5466C11.8862 15.2597 12.7602 14.7529 13.4866 14.081C13.5965 13.9794 13.7597 13.9612 13.8893 14.036M10.9895 15.6421L10.9599 15.5466C10.817 15.5909 10.7195 15.7231 10.7195 15.8728V16.6987C10.7195 16.7944 10.6414 16.8724 10.5457 16.8724H7.4543C7.35859 16.8724 7.28058 16.7944 7.28058 16.6987V15.8729C7.28058 15.7232 7.18308 15.591 7.04015 15.5467L7.04014 15.5467C6.10791 15.2578 5.2329 14.7517 4.51016 14.083C4.44543 14.0231 4.36209 13.9921 4.27817 13.9921C4.21961 13.9921 4.16067 14.0072 4.10747 14.0379L3.3897 14.4523C3.30676 14.5001 3.20021 14.4716 3.15238 14.3887L3.15238 14.3887L1.60666 11.7115C1.55883 11.6286 1.58738 11.522 1.67024 11.4741C1.67025 11.4741 1.67025 11.4741 1.67026 11.4741L2.38745 11.06C2.51695 10.9853 2.58275 10.835 2.54983 10.6891C2.44095 10.2065 2.3858 9.71479 2.3858 9.22773C2.3858 8.74922 2.44174 8.25798 2.55232 7.76771L2.55232 7.7677C2.58519 7.62187 2.51941 7.47155 2.38992 7.39681M10.9895 15.6421L4.11077 4.41945L3.38971 4.00315C3.38971 4.00315 3.38971 4.00315 3.38971 4.00315C3.34936 3.97985 3.30285 3.97374 3.25791 3.98579L3.25785 3.98581C3.21285 3.99785 3.17567 4.02638 3.15238 4.06673L3.15238 4.06673L1.60666 6.74401C1.58339 6.78432 1.57726 6.83079 1.58931 6.87582C1.60138 6.92085 1.62991 6.95803 1.67024 6.98131L1.62024 7.06791M13.8893 14.036L13.8393 14.1226L13.8893 14.036L13.8893 14.036ZM2.38992 7.39681L2.38993 7.39682L2.33993 7.48342L2.38992 7.39681ZM2.38992 7.39681L1.67024 6.98131L1.62024 7.06791M1.62024 7.06791C1.55693 7.03136 1.51165 6.97234 1.49272 6.90172M1.62024 7.06791L1.49272 6.90172M1.49272 6.90172C1.47381 6.8311 1.48351 6.75732 1.52006 6.69401L1.49272 6.90172Z" fill="white" stroke="white" stroke-width="0.2"/>
<path d="M8.96572 4.91992C6.51353 4.91992 4.51855 6.91492 4.51855 9.36708C4.51855 11.8192 6.51353 13.8142 8.96572 13.8142C11.4179 13.8142 13.4129 11.8192 13.4129 9.36708C13.4129 6.91492 11.4179 4.91992 8.96572 4.91992ZM8.96572 13.3739C6.75634 13.3739 4.95887 11.5765 4.95887 9.36708C4.95887 7.15771 6.75634 5.36023 8.96572 5.36023C11.1751 5.36023 12.9726 7.15771 12.9726 9.36708C12.9726 11.5765 11.1751 13.3739 8.96572 13.3739Z" fill="white"/>
<path d="M9.78719 8.20703H8.96527C8.84369 8.20703 8.74512 8.3056 8.74512 8.42719V10.3059C8.74512 10.4274 8.84369 10.526 8.96527 10.526C9.08686 10.526 9.18543 10.4274 9.18543 10.3059V9.82151H9.78719C10.2323 9.82151 10.5944 9.4594 10.5944 9.01427C10.5944 8.56914 10.2323 8.20703 9.78719 8.20703ZM9.78719 9.3812H9.18543V8.64734H9.78719C9.98953 8.64734 10.1541 8.81193 10.1541 9.01427C10.1541 9.21661 9.98953 9.3812 9.78719 9.3812Z" fill="white"/>
<path d="M7.76215 8.3499C7.72992 8.26398 7.64779 8.20703 7.55603 8.20703H7.32119C7.22943 8.20703 7.14727 8.26395 7.11507 8.3499L6.41057 10.2286C6.36786 10.3424 6.42557 10.4693 6.5394 10.512C6.65324 10.5547 6.78014 10.497 6.82285 10.3832L6.94537 10.0563H7.93182L8.05437 10.3831C8.08751 10.4715 8.17141 10.5261 8.26053 10.5261C8.28621 10.5261 8.31234 10.5216 8.33779 10.512C8.45162 10.4693 8.50933 10.3424 8.46662 10.2286L7.76215 8.3499ZM7.11049 9.61603L7.43861 8.74107L7.76673 9.61603H7.11049Z" fill="white"/>
<path d="M11.0786 8.20703C10.957 8.20703 10.8584 8.3056 10.8584 8.42719V10.3059C10.8584 10.4274 10.957 10.526 11.0786 10.526C11.2001 10.526 11.2987 10.4274 11.2987 10.3059V8.42719C11.2987 8.3056 11.2001 8.20703 11.0786 8.20703Z" fill="white"/>
<path d="M10.5401 4.42996C10.6929 4.47866 10.8452 4.53522 10.9928 4.59804C11.0209 4.61002 11.0501 4.61568 11.0789 4.61568C11.1645 4.61568 11.2459 4.56543 11.2815 4.48171C11.3292 4.36984 11.2771 4.24053 11.1652 4.19292C11.005 4.12473 10.8397 4.06332 10.6738 4.01046C10.558 3.97353 10.4341 4.03752 10.3972 4.15335C10.3603 4.26918 10.4243 4.39303 10.5401 4.42996Z" fill="white"/>
<path d="M4.41347 11.8452C4.35523 11.7385 4.22146 11.6992 4.11476 11.7574C4.00803 11.8156 3.9687 11.9494 4.02693 12.0561C4.11828 12.2235 4.21941 12.3883 4.32749 12.5457C4.37017 12.6078 4.43907 12.6412 4.50917 12.6412C4.55211 12.6412 4.5955 12.6287 4.6336 12.6025C4.73384 12.5337 4.75929 12.3966 4.69046 12.2964C4.59086 12.1513 4.49766 11.9995 4.41347 11.8452Z" fill="white"/>
<path d="M8.5147 14.5289C7.33498 14.4273 6.21518 13.916 5.36159 13.0893C5.27423 13.0048 5.13486 13.007 5.05029 13.0943C4.96572 13.1817 4.96792 13.3211 5.05528 13.4056C5.9814 14.3026 7.19658 14.8573 8.47689 14.9676C8.48332 14.9681 8.48969 14.9684 8.49603 14.9684C8.60907 14.9684 8.70524 14.8818 8.71513 14.7671C8.72555 14.646 8.63582 14.5394 8.5147 14.5289Z" fill="white"/>
<path d="M12.1335 4.722C12.0331 4.6534 11.8961 4.67917 11.8275 4.77954C11.7589 4.87993 11.7846 5.01692 11.885 5.08552C12.9078 5.78454 13.6477 6.8247 13.9683 8.01437C13.9948 8.11259 14.0837 8.17729 14.1808 8.17729C14.1997 8.17729 14.219 8.17482 14.2382 8.16965C14.3556 8.13801 14.4251 8.01719 14.3935 7.8998C14.0456 6.6088 13.2429 5.48025 12.1335 4.722Z" fill="white"/>
</svg>
