<svg width="14" height="15" viewBox="0 0 14 15" fill="none" xmlns="http://www.w3.org/2000/svg">
<path d="M12.8571 13.9286V8.4375C12.8571 8.33094 12.8148 8.22874 12.7395 8.15339C12.6641 8.07804 12.5619 8.03571 12.4554 8.03571C12.3488 8.03571 12.2466 8.07804 12.1713 8.15339C12.0959 8.22874 12.0536 8.33094 12.0536 8.4375V13.9286C12.0536 13.9996 12.0254 14.0677 11.9751 14.118C11.9249 14.1682 11.8568 14.1964 11.7857 14.1964H1.07143C1.00039 14.1964 0.932258 14.1682 0.882025 14.118C0.831792 14.0677 0.803571 13.9996 0.803571 13.9286V1.07143C0.803571 1.00039 0.831792 0.932258 0.882025 0.882025C0.932258 0.831792 1.00039 0.803571 1.07143 0.803571H6.5625C6.66906 0.803571 6.77126 0.761241 6.84661 0.685891C6.92196 0.610542 6.96429 0.508346 6.96429 0.401786C6.96429 0.295226 6.92196 0.19303 6.84661 0.11768C6.77126 0.0423308 6.66906 0 6.5625 0H1.07143C0.787268 0 0.514746 0.112882 0.313814 0.313814C0.112882 0.514746 0 0.787268 0 1.07143V13.9286C0 14.2127 0.112882 14.4853 0.313814 14.6862C0.514746 14.8871 0.787268 15 1.07143 15H11.7857C12.0699 15 12.3424 14.8871 12.5433 14.6862C12.7443 14.4853 12.8571 14.2127 12.8571 13.9286Z" fill="white"/>
<path d="M6.02679 4.82227H2.27679C2.17023 4.82227 2.06803 4.8646 1.99268 4.93995C1.91733 5.0153 1.875 5.11749 1.875 5.22405C1.875 5.33061 1.91733 5.43281 1.99268 5.50816C2.06803 5.58351 2.17023 5.62584 2.27679 5.62584H6.02679C6.13335 5.62584 6.23554 5.58351 6.31089 5.50816C6.38624 5.43281 6.42857 5.33061 6.42857 5.22405C6.42857 5.11749 6.38624 5.0153 6.31089 4.93995C6.23554 4.8646 6.13335 4.82227 6.02679 4.82227Z" fill="white"/>
<path d="M2.27679 8.30273C2.17023 8.30273 2.06803 8.34507 1.99268 8.42041C1.91733 8.49576 1.875 8.59796 1.875 8.70452C1.875 8.81108 1.91733 8.91328 1.99268 8.98863C2.06803 9.06398 2.17023 9.10631 2.27679 9.10631H10.5804C10.6869 9.10631 10.7891 9.06398 10.8645 8.98863C10.9398 8.91328 10.9821 8.81108 10.9821 8.70452C10.9821 8.59796 10.9398 8.49576 10.8645 8.42041C10.7891 8.34507 10.6869 8.30273 10.5804 8.30273H2.27679Z" fill="white"/>
<path d="M2.27679 11.7849C2.17023 11.7849 2.06803 11.8272 1.99268 11.9026C1.91733 11.9779 1.875 12.0801 1.875 12.1867C1.875 12.2932 1.91733 12.3954 1.99268 12.4708C2.06803 12.5461 2.17023 12.5884 2.27679 12.5884H10.5804C10.6869 12.5884 10.7891 12.5461 10.8645 12.4708C10.9398 12.3954 10.9821 12.2932 10.9821 12.1867C10.9821 12.0801 10.9398 11.9779 10.8645 11.9026C10.7891 11.8272 10.6869 11.7849 10.5804 11.7849H2.27679Z" fill="white"/>
<path d="M9.3625 2.975C9.46828 3.39813 9.86181 3.72535 10.3474 3.78272C10.3905 3.80621 10.442 3.81901 10.5 3.81901C10.7917 3.81901 11.025 3.96484 11.0833 4.16901V4.25651C11.0833 4.46166 10.8804 4.64426 10.6134 4.68538C10.5793 4.67316 10.5413 4.66667 10.5 4.66667C10.4587 4.66667 10.4207 4.67316 10.3866 4.68538C10.1196 4.64426 9.91667 4.46166 9.91667 4.25651V4.16901C9.975 4.02318 9.85833 3.84818 9.7125 3.81901C9.56667 3.76068 9.39167 3.87734 9.3625 4.02318C9.33333 4.08151 9.33333 4.13984 9.33333 4.22734C9.33333 4.69462 9.7066 5.09968 10.2083 5.21522V5.54167C10.2083 5.71667 10.325 5.83333 10.5 5.83333C10.675 5.83333 10.7917 5.71667 10.7917 5.54167V5.21522C11.2934 5.09968 11.6667 4.69461 11.6667 4.22734C11.6667 4.13984 11.6667 4.08151 11.6375 4.05234C11.5317 3.62921 11.1382 3.302 10.6526 3.24463C10.6095 3.22114 10.558 3.20833 10.5 3.20833C10.2083 3.20833 9.975 3.0625 9.91667 2.85833V2.77083C9.91667 2.5375 10.1792 2.33333 10.5 2.33333C10.8208 2.33333 11.0833 2.5375 11.0833 2.74167V2.82917C11.0422 2.93192 11.088 3.04916 11.1697 3.11966L11.1708 3.12083C11.2292 3.17917 11.2875 3.20833 11.375 3.20833C11.4625 3.20833 11.5208 3.17917 11.5792 3.12083C11.6375 3.0625 11.6667 3.00417 11.6667 2.91667C11.6667 2.90149 11.6658 2.88719 11.664 2.87361C11.6667 2.84347 11.6667 2.81008 11.6667 2.77083C11.6667 2.30356 11.2934 1.8985 10.7917 1.78296V1.45833C10.7917 1.28333 10.675 1.16667 10.5 1.16667C10.325 1.16667 10.2083 1.28333 10.2083 1.45833V1.78296C9.7066 1.8985 9.33333 2.30356 9.33333 2.77083C9.33333 2.85833 9.33333 2.91667 9.3625 2.975Z" fill="white"/>
<path fill-rule="evenodd" clip-rule="evenodd" d="M7 3.5C7 5.425 8.575 7 10.5 7C12.425 7 14 5.425 14 3.5C14 1.575 12.425 0 10.5 0C8.575 0 7 1.575 7 3.5ZM7.58333 3.5C7.58333 1.89583 8.89583 0.583333 10.5 0.583333C12.1042 0.583333 13.4167 1.89583 13.4167 3.5C13.4167 5.10417 12.1042 6.41667 10.5 6.41667C8.89583 6.41667 7.58333 5.10417 7.58333 3.5Z" fill="white"/>
</svg>
