<svg width="15" height="15" viewBox="0 0 15 15" fill="none" xmlns="http://www.w3.org/2000/svg">
<g clip-path="url(#clip0_4253_5106)">
<path fill-rule="evenodd" clip-rule="evenodd" d="M10.8315 5.03607L10.3307 5.24352C10.1618 5.03167 9.96951 4.83957 9.7575 4.67089L9.9651 4.16971C10.177 3.65815 9.93408 3.07166 9.42252 2.85979C8.91094 2.64788 8.32448 2.89081 8.11258 3.40236L7.90498 3.90354C7.6358 3.87291 7.36402 3.87279 7.09481 3.90319L6.88739 3.40236C6.67548 2.89081 6.08899 2.64788 5.57744 2.85979C5.06589 3.07166 4.82296 3.65815 5.03486 4.16971L5.24228 4.6705C5.03043 4.83939 4.83834 5.03166 4.66965 5.24367L4.1685 5.03607C3.65692 4.8242 3.07045 5.06709 2.85855 5.57868C2.64668 6.09023 2.8896 6.67669 3.40113 6.88859L3.90231 7.09619C3.87169 7.36537 3.87157 7.63715 3.90196 7.90636L3.40113 8.11381C2.8896 8.32572 2.64668 8.91218 2.85855 9.42373C3.07045 9.93531 3.65692 10.1782 4.16847 9.96634L4.6693 9.75889C4.83818 9.97074 5.03045 10.1628 5.24246 10.3315L5.03486 10.8327C4.82296 11.3443 5.06589 11.9307 5.57744 12.1426C6.08899 12.3545 6.67548 12.1116 6.88739 11.6L7.09495 11.0989C7.36415 11.1295 7.63594 11.1296 7.90516 11.0992L8.11258 11.6C8.32448 12.1116 8.91094 12.3545 9.42252 12.1426C9.93408 11.9307 10.177 11.3443 9.9651 10.8327L9.75768 10.3319C9.96951 10.163 10.1616 9.97073 10.3303 9.75874L10.8315 9.96634C11.343 10.1782 11.9295 9.93531 12.1414 9.42373C12.3533 8.91218 12.1104 8.32572 11.5988 8.11381L11.0976 7.90622C11.1279 7.63962 11.1287 7.36795 11.098 7.09601L11.5988 6.88859C12.1104 6.67669 12.3533 6.09023 12.1414 5.57868C11.9295 5.06709 11.343 4.82417 10.8315 5.03607ZM5.71347 9.16061C6.15849 9.63991 6.79423 9.93991 7.49999 9.93991C8.84677 9.93991 9.93895 8.84772 9.93895 7.50036C9.93895 6.15359 8.84677 5.06141 7.49999 5.06141C6.15322 5.06141 5.06104 6.15359 5.06104 7.50036C5.06104 7.8279 5.12549 8.14021 5.24297 8.42556L5.71347 9.16061ZM7.50011 8.89889C8.2727 8.89889 8.89912 8.27244 8.89912 7.49959C8.89912 6.727 8.2727 6.10055 7.50011 6.10055C6.7275 6.10055 6.10107 6.727 6.10107 7.49959C6.10107 8.27244 6.7275 8.89889 7.50011 8.89889Z" fill="white"/>
<path d="M0.744543 5.74414C0.429339 5.74414 0.186264 5.46834 0.2235 5.15533C0.352757 4.0686 0.838996 3.06302 1.62479 2.27719C2.33975 1.56223 3.23673 1.09556 4.21117 0.919809V0.576364C4.21117 0.295144 4.52154 0.124607 4.75891 0.275427L6.07082 1.10907C6.29125 1.24914 6.29125 1.57084 6.07082 1.71091L4.75891 2.54455C4.52154 2.69537 4.21117 2.52483 4.21117 2.24361V1.99198C2.6542 2.35731 1.4578 3.66931 1.26518 5.28506C1.23386 5.54762 1.00898 5.74414 0.744543 5.74414Z" fill="white"/>
<path d="M14.2553 9.25635C14.5705 9.25635 14.8135 9.53215 14.7763 9.84516C14.6471 10.9319 14.1608 11.9375 13.375 12.7233C12.6601 13.4383 11.7631 13.9049 10.7886 14.0807V14.4241C10.7886 14.7054 10.4783 14.8759 10.2409 14.7251L8.92899 13.8914C8.70856 13.7514 8.70856 13.4297 8.92899 13.2896L10.2409 12.4559C10.4783 12.3051 10.7886 12.4757 10.7886 12.7569V13.0085C12.3456 12.6432 13.542 11.3312 13.7346 9.71543C13.766 9.45288 13.9908 9.25635 14.2553 9.25635Z" fill="white"/>
<path d="M12.1048 2.50011C12.539 2.97706 12.8554 3.563 13.0074 4.21133H12.7558C12.4745 4.21133 12.304 4.52188 12.4549 4.75918L13.2884 6.07109C13.4287 6.29141 13.7504 6.29141 13.8904 6.07109L14.7239 4.75918C14.8748 4.52188 14.7043 4.21133 14.423 4.21133H14.0797C13.9039 3.23692 13.4372 2.34015 12.7224 1.62501C11.9363 0.839273 10.9309 0.352947 9.84394 0.223748C9.53105 0.186541 9.25537 0.429704 9.25537 0.744937C9.25537 1.00919 9.45166 1.23419 9.71445 1.26554C10.3508 1.34142 10.9402 1.57316 11.4433 1.9212" fill="white"/>
<path d="M5.74462 14.2545C5.74462 14.5697 5.46882 14.8128 5.15582 14.7755C4.06908 14.6463 3.0635 14.16 2.27767 13.3742C1.56271 12.6593 1.09604 11.7623 0.920292 10.7878H0.576846C0.295626 10.7878 0.12509 10.4775 0.275909 10.2401L1.10955 8.92821C1.24962 8.70778 1.57133 8.70778 1.71139 8.92821L2.54503 10.2401C2.69585 10.4775 2.52532 10.7878 2.2441 10.7878H1.99247C2.3578 12.3448 3.6698 13.5412 5.28554 13.7338C5.5481 13.7652 5.74462 13.99 5.74462 14.2545Z" fill="white"/>
</g>
<defs>
<clipPath id="clip0_4253_5106">
<rect width="15" height="15" fill="white"/>
</clipPath>
</defs>
</svg>
