<svg width="15" height="15" viewBox="0 0 15 15" fill="none" xmlns="http://www.w3.org/2000/svg">
<g clip-path="url(#clip0_4253_5089)">
<path d="M5.9635 10.1078L8.03508 3.89299C8.11181 3.66275 7.98738 3.41387 7.75714 3.33711C7.52692 3.26039 7.27802 3.38481 7.20126 3.61505L5.12968 9.82989C5.05295 10.0601 5.17737 10.309 5.40762 10.3858C5.4537 10.4011 5.50058 10.4084 5.54663 10.4084C5.73061 10.4084 5.90209 10.292 5.9635 10.1078ZM9.06829 8.17983C9.79523 8.17983 10.3867 7.58841 10.3867 6.86147C10.3867 6.13453 9.79523 5.54311 9.06829 5.54311C8.34135 5.54311 7.74993 6.13453 7.74993 6.86147C7.74993 7.58841 8.34135 8.17983 9.06829 8.17983ZM9.06829 6.42202C9.31061 6.42202 9.50774 6.61916 9.50774 6.86147C9.50774 7.10378 9.31061 7.30092 9.06829 7.30092C8.82598 7.30092 8.62884 7.10378 8.62884 6.86147C8.62884 6.61916 8.82598 6.42202 9.06829 6.42202ZM4.09644 5.54311C3.36949 5.54311 2.77808 6.13453 2.77808 6.86147C2.77808 7.58841 3.36949 8.17983 4.09644 8.17983C4.82338 8.17983 5.41479 7.58841 5.41479 6.86147C5.41479 6.13453 4.82341 5.54311 4.09644 5.54311ZM4.09644 7.30092C3.85412 7.30092 3.65698 7.10378 3.65698 6.86147C3.65698 6.61916 3.85412 6.42202 4.09644 6.42202C4.33875 6.42202 4.53589 6.61916 4.53589 6.86147C4.53589 7.10378 4.33878 7.30092 4.09644 7.30092Z" fill="white"/>
<path d="M14.9123 5.44921L13.3799 3.40596L13.4397 2.98751C13.4494 2.91997 13.4431 2.85112 13.4216 2.78639C13.4 2.72167 13.3636 2.66286 13.3154 2.61462L12.3832 1.6824L13.3154 0.750169C13.487 0.578577 13.487 0.300315 13.3154 0.128694C13.1438 -0.0428978 12.8655 -0.0428978 12.6939 0.128694L11.7617 1.06092L10.8295 0.128694C10.7812 0.0804811 10.7224 0.0441525 10.6577 0.0225787C10.593 0.00100486 10.5241 -0.00522294 10.4566 0.00438739L6.1062 0.625862C6.01208 0.639314 5.92485 0.682931 5.85762 0.750169L0.471448 6.13634C-0.156824 6.76458 -0.156824 7.78687 0.471448 8.41511L5.02896 12.9726C5.12016 13.0638 5.22199 13.1437 5.33227 13.2105V13.3887C5.33227 14.2772 6.05511 15 6.9436 15H13.3889C14.2774 15 15.0002 14.2772 15.0002 13.3887V5.71288C15.0002 5.61781 14.9694 5.52527 14.9123 5.44921ZM1.09292 7.79364C0.807336 7.50805 0.807336 7.0434 1.09292 6.75781L6.3755 1.47524L10.3633 0.905559L11.1402 1.68242L10.5187 2.3039L10.208 1.99315C10.0364 1.82156 9.75812 1.82156 9.5865 1.99315C9.41488 2.16474 9.41488 2.443 9.5865 2.61462L10.8295 3.8576C10.9153 3.94341 11.0278 3.98633 11.1402 3.98633C11.2526 3.98633 11.3651 3.94341 11.4509 3.8576C11.6225 3.68601 11.6225 3.40775 11.4509 3.23613L11.1402 2.92537L11.7616 2.3039L12.5385 3.08076L11.9688 7.0686L6.68625 12.3512C6.54791 12.4895 6.36399 12.5657 6.16834 12.5657C5.9727 12.5657 5.78877 12.4895 5.65043 12.3512L1.09292 7.79364ZM14.1213 13.3887C14.1213 13.7925 13.7928 14.1211 13.3889 14.1211H6.9436C6.55793 14.1211 6.24117 13.8214 6.21337 13.4427C6.61084 13.4317 7.00503 13.2753 7.3077 12.9726L12.6939 7.58648C12.7611 7.51925 12.8047 7.43202 12.8182 7.33789L13.2041 4.63643L14.1213 5.85937V13.3887Z" fill="white"/>
</g>
<defs>
<clipPath id="clip0_4253_5089">
<rect width="15" height="15" fill="white"/>
</clipPath>
</defs>
</svg>
