<svg width="18" height="18" viewBox="0 0 18 18" fill="none" xmlns="http://www.w3.org/2000/svg">
<circle cx="9" cy="9" r="9" fill="#D9D9D9"/>
<path d="M8.77176 11.9083C8.83301 11.9752 8.91381 12.0108 8.99982 12.0108C9.08582 12.0108 9.16662 11.9738 9.22787 11.9083L11.8785 9.01349C11.9397 8.9466 11.9723 8.85836 11.9723 8.76443C11.9723 8.6705 11.9384 8.58226 11.8785 8.51537C11.7573 8.38301 11.5449 8.38301 11.4237 8.51537L9.32169 10.811V5.35154C9.32169 5.15798 9.17704 5 8.99982 5C8.82259 5 8.67794 5.15798 8.67794 5.35154V10.811L6.57597 8.51537C6.45347 8.38301 6.24236 8.38301 6.12117 8.51537C6.05992 8.58226 6.02734 8.6705 6.02734 8.76443C6.02734 8.85836 6.06123 8.9466 6.12117 9.01349L8.77176 11.9083Z" fill="black"/>
<path d="M12.6768 11.248C12.4996 11.248 12.3549 11.406 12.3549 11.5996V13.0769C12.3549 13.1979 12.2676 13.2961 12.1595 13.2961H5.83922C5.73106 13.2961 5.64375 13.1979 5.64375 13.0769V11.5996C5.64375 11.406 5.4991 11.248 5.32188 11.248C5.14465 11.248 5 11.406 5 11.5996V13.2534C5 13.6647 5.30624 13.9991 5.68285 13.9991H12.3172C12.6938 13.9991 13 13.6647 13 13.2534V11.5996C12.9987 11.406 12.854 11.248 12.6768 11.248Z" fill="black"/>
</svg>
