<svg width="15" height="15" viewBox="0 0 15 15" fill="none" xmlns="http://www.w3.org/2000/svg">
<path d="M6.92682 5.77264C6.81005 5.8894 6.65168 5.955 6.48655 5.955C6.32142 5.955 6.16305 5.8894 6.04629 5.77264C5.92952 5.65587 5.86392 5.4975 5.86392 5.33237C5.86392 5.16724 5.92952 5.00887 6.04629 4.89211L7.10423 3.83824C7.64377 3.30138 8.37393 3 9.13506 3C9.89619 3 10.6264 3.30138 11.1659 3.83824L11.1716 3.84475C11.7059 4.38466 12.0051 5.11389 12.0041 5.8735C12.003 6.63311 11.7017 7.3615 11.1659 7.89991L10.108 8.95378C9.99119 9.07055 9.83282 9.13614 9.66769 9.13614C9.50256 9.13614 9.34419 9.07055 9.22743 8.95378C9.11066 8.83701 9.04506 8.67865 9.04506 8.51351C9.04506 8.34838 9.11066 8.19001 9.22743 8.07325L10.2854 7.01531C10.5877 6.70942 10.7572 6.2967 10.7572 5.86663C10.7572 5.43657 10.5877 5.02384 10.2854 4.71795L10.2764 4.709C9.96989 4.40819 9.55726 4.24014 9.12779 4.24121C8.69832 4.24227 8.28653 4.41237 7.9815 4.7147L6.92763 5.77264H6.92682ZM8.06614 6.0298C8.18523 5.926 8.33934 5.87136 8.49722 5.87695C8.6551 5.88255 8.80496 5.94796 8.91641 6.05993C9.02786 6.1719 9.09257 6.32205 9.09744 6.47996C9.1023 6.63786 9.04695 6.79171 8.9426 6.91033L5.91038 9.94254C5.79271 10.0543 5.63605 10.1157 5.47378 10.1136C5.31152 10.1116 5.15647 10.0462 5.04166 9.93154C4.92686 9.81684 4.86138 9.66185 4.85917 9.49958C4.85697 9.33732 4.91821 9.1806 5.02985 9.06283L8.06288 6.0298H8.06614ZM7.05377 10.2469C7.17155 10.1353 7.32826 10.074 7.49053 10.0762C7.65279 10.0784 7.80778 10.1439 7.92248 10.2587C8.03717 10.3735 8.10251 10.5286 8.10457 10.6908C8.10662 10.8531 8.04524 11.0098 7.93349 11.1274L6.89996 12.1618C6.36254 12.6966 5.63579 12.9979 4.87757 13C4.11935 13.0021 3.39092 12.705 2.8505 12.1732L2.82771 12.1512C2.29547 11.6107 1.99803 10.882 2.00001 10.1235C2.00199 9.36493 2.30324 8.6378 2.83829 8.1001L3.87181 7.06902C3.92827 7.00629 3.99688 6.95569 4.0735 6.92029C4.15011 6.8849 4.23312 6.86545 4.31748 6.86313C4.40184 6.86081 4.48579 6.87567 4.56423 6.9068C4.64267 6.93793 4.71397 6.98469 4.77378 7.04422C4.83359 7.10376 4.88068 7.17484 4.91217 7.25313C4.94366 7.33143 4.95891 7.41531 4.95698 7.49968C4.95505 7.58405 4.93599 7.66715 4.90095 7.74393C4.86591 7.8207 4.81563 7.88955 4.75316 7.94629L3.71882 8.98063C3.41621 9.28669 3.2465 9.69973 3.2465 10.1301C3.2465 10.5605 3.41621 10.9736 3.71882 11.2796C4.02474 11.5831 4.4382 11.7534 4.86913 11.7534C5.30005 11.7534 5.71351 11.5831 6.01943 11.2796L7.05377 10.2469Z" fill="#00072E"/>
</svg>
