<svg width="16" height="16" viewBox="0 0 16 16" fill="none" xmlns="http://www.w3.org/2000/svg">
<path d="M14.5938 0C15.3691 0 16 0.630875 16 1.40625V3.28125C16 4.05662 15.3691 4.6875 14.5938 4.6875H13.1562V12.25H14.5625C14.6868 12.25 14.806 12.2994 14.894 12.3873C14.9819 12.4752 15.0312 12.5944 15.0312 12.7188V14.5938C15.0312 15.3691 14.4004 16 13.625 16H4.25C3.47463 16 2.84375 15.3691 2.84375 14.5938V4.6875H1.40625C0.630875 4.6875 0 4.05662 0 3.28125V1.40625C0 0.630875 0.630875 0 1.40625 0H14.5938ZM8 6.59375C8.77538 6.59375 9.40625 7.22463 9.40625 8C9.40635 8.2929 9.31649 8.57876 9.14881 8.81891C8.98114 9.05907 8.74375 9.24192 8.46875 9.34275V9.90625C8.46875 10.0306 8.41936 10.1498 8.33146 10.2377C8.24355 10.3256 8.12432 10.375 8 10.375C7.87568 10.375 7.75645 10.3256 7.66854 10.2377C7.58064 10.1498 7.53125 10.0306 7.53125 9.90625V9.3565C7.28737 9.27675 7.052 9.133 6.84088 8.9285C6.79614 8.88579 6.76031 8.83465 6.73543 8.77803C6.71055 8.7214 6.69713 8.66042 6.69592 8.59858C6.69472 8.53675 6.70577 8.47528 6.72843 8.41774C6.75109 8.36019 6.78491 8.3077 6.82795 8.26328C6.87099 8.21886 6.92239 8.1834 6.9792 8.15894C7.036 8.13448 7.09709 8.12151 7.15893 8.12076C7.22077 8.12001 7.28215 8.13151 7.33953 8.1546C7.39691 8.17768 7.44915 8.21189 7.49325 8.25525C7.71762 8.4725 7.95637 8.5435 8.16575 8.45475C8.347 8.378 8.46875 8.19525 8.46875 8C8.46862 7.87572 8.41919 7.75657 8.33131 7.66869C8.24343 7.58081 8.12428 7.53138 8 7.53125C7.62225 7.53125 7.26638 7.37675 6.99825 7.09625C6.73738 6.82338 6.59375 6.46737 6.59375 6.09375C6.59375 5.50475 6.9655 4.97375 7.51875 4.77212L7.53125 4.76788V4.21875C7.53125 4.09443 7.58064 3.9752 7.66854 3.88729C7.75645 3.79939 7.87568 3.75 8 3.75C8.12432 3.75 8.24355 3.79939 8.33146 3.88729C8.41936 3.9752 8.46875 4.09443 8.46875 4.21875V4.76325C8.778 4.86737 9.073 5.07475 9.32638 5.3765C9.40473 5.47188 9.4423 5.59432 9.43092 5.71724C9.41955 5.84015 9.36015 5.95362 9.26562 6.033C9.17109 6.11239 9.04907 6.15128 8.92604 6.14124C8.80301 6.1312 8.6889 6.07304 8.6085 5.97937C8.36062 5.68437 8.08037 5.56537 7.83962 5.65312C7.74935 5.68624 7.67139 5.74623 7.61625 5.82502C7.56111 5.9038 7.53145 5.99759 7.53125 6.09375C7.53125 6.36 7.75025 6.59375 8 6.59375ZM4.25 15.0625H12.2994C12.246 14.912 12.2187 14.7535 12.2188 14.5938V2.8125H3.78125V14.5938C3.78138 14.718 3.83081 14.8372 3.91869 14.9251C4.00657 15.0129 4.12572 15.0624 4.25 15.0625ZM14.0938 13.1875H13.1562V14.5938C13.1564 14.718 13.2058 14.8372 13.2937 14.9251C13.3816 15.0129 13.5007 15.0624 13.625 15.0625C13.7493 15.0624 13.8684 15.0129 13.9563 14.9251C14.0442 14.8372 14.0936 14.718 14.0938 14.5938V13.1875ZM15.0625 3.28125V1.40625C15.0624 1.28197 15.0129 1.16282 14.9251 1.07494C14.8372 0.987061 14.718 0.937632 14.5938 0.9375H1.40625C1.28197 0.937632 1.16282 0.987061 1.07494 1.07494C0.987061 1.16282 0.937632 1.28197 0.9375 1.40625V3.28125C0.937632 3.40553 0.987061 3.52468 1.07494 3.61256C1.16282 3.70044 1.28197 3.74987 1.40625 3.75H2.84375V2.8125H2.34375C2.21943 2.8125 2.1002 2.76311 2.01229 2.67521C1.92439 2.5873 1.875 2.46807 1.875 2.34375C1.875 2.21943 1.92439 2.1002 2.01229 2.01229C2.1002 1.92439 2.21943 1.875 2.34375 1.875H13.6562C13.7806 1.875 13.8998 1.92439 13.9877 2.01229C14.0756 2.1002 14.125 2.21943 14.125 2.34375C14.125 2.46807 14.0756 2.5873 13.9877 2.67521C13.8998 2.76311 13.7806 2.8125 13.6562 2.8125H13.1562V3.75H14.5938C14.718 3.74987 14.8372 3.70044 14.9251 3.61256C15.0129 3.52468 15.0624 3.40553 15.0625 3.28125ZM10.8125 11.3125C10.9368 11.3125 11.056 11.3619 11.144 11.4498C11.2319 11.5377 11.2812 11.6569 11.2812 11.7812C11.2812 11.9056 11.2319 12.0248 11.144 12.1127C11.056 12.2006 10.9368 12.25 10.8125 12.25H5.1875C5.06318 12.25 4.94395 12.2006 4.85604 12.1127C4.76814 12.0248 4.71875 11.9056 4.71875 11.7812C4.71875 11.6569 4.76814 11.5377 4.85604 11.4498C4.94395 11.3619 5.06318 11.3125 5.1875 11.3125H10.8125ZM10.8125 13.1875C10.9368 13.1875 11.056 13.2369 11.144 13.3248C11.2319 13.4127 11.2812 13.5319 11.2812 13.6562C11.2812 13.7806 11.2319 13.8998 11.144 13.9877C11.056 14.0756 10.9368 14.125 10.8125 14.125H5.1875C5.06318 14.125 4.94395 14.0756 4.85604 13.9877C4.76814 13.8998 4.71875 13.7806 4.71875 13.6562C4.71875 13.5319 4.76814 13.4127 4.85604 13.3248C4.94395 13.2369 5.06318 13.1875 5.1875 13.1875H10.8125Z" fill="white"/>
</svg>
