<svg width="15" height="15" viewBox="0 0 15 15" fill="none" xmlns="http://www.w3.org/2000/svg">
<g clip-path="url(#clip0_3893_3989)">
<path d="M13.9733 12.2611C12.3792 11.5413 12.3186 8.45131 12.3174 8.37335V6.30035C12.3174 4.3052 11.0982 2.58959 9.36575 1.8591C9.36202 0.833335 8.52658 0 7.50006 0C6.47351 0 5.63809 0.833384 5.63434 1.85905C3.90194 2.58954 2.68274 4.30515 2.68274 6.3003V8.3733C2.68162 8.45126 2.62093 11.5412 1.02683 12.2611C0.845241 12.3431 0.745436 12.5408 0.787422 12.7356C0.829358 12.9304 1.00164 13.0696 1.20093 13.0696H5.24211C5.32495 13.5253 5.54044 13.9493 5.87003 14.2927C6.30777 14.7488 6.88667 15 7.49998 15C8.11334 15 8.69224 14.7488 9.12994 14.2927C9.45957 13.9493 9.67506 13.5253 9.75785 13.0696H13.799C13.9983 13.0696 14.1706 12.9305 14.2126 12.7356C14.2546 12.5408 14.1548 12.3432 13.9733 12.2611ZM11.8734 10.7809C12.041 11.2889 12.2783 11.7991 12.6147 12.2237H2.38532C2.72174 11.7992 2.95902 11.289 3.12659 10.7809H11.8734ZM7.50006 0.845957C7.9644 0.845957 8.35699 1.15797 8.47984 1.58326C8.16337 1.51763 7.83567 1.48302 7.50006 1.48302C7.16444 1.48302 6.83675 1.5176 6.52028 1.58326C6.64314 1.15799 7.03574 0.845957 7.50006 0.845957ZM3.5287 8.3759V6.30028C3.5287 4.1105 5.31022 2.32897 7.50006 2.32897C9.68989 2.32897 11.4714 4.1105 11.4714 6.30028V8.37935C11.472 8.44298 11.4819 9.11168 11.6504 9.93487H3.34961C3.51824 9.1109 3.52819 8.44102 3.5287 8.3759ZM7.50006 14.1541C6.85444 14.1541 6.29099 13.6886 6.11013 13.0696H8.88994C8.70908 13.6886 8.14572 14.1541 7.50006 14.1541Z" fill="black"/>
<path d="M7.50007 2.92188C5.68021 2.92188 4.19965 4.40239 4.19965 6.22222C4.19965 6.45583 4.38903 6.64521 4.62264 6.64521C4.85624 6.64521 5.04563 6.45583 5.04563 6.22222C5.04563 4.86886 6.14668 3.76783 7.50009 3.76783C7.7337 3.76783 7.92308 3.57844 7.92308 3.34484C7.92306 3.11121 7.73367 2.92188 7.50007 2.92188Z" fill="black"/>
</g>
<defs>
<clipPath id="clip0_3893_3989">
<rect width="15" height="15" fill="white"/>
</clipPath>
</defs>
</svg>
