<svg width="16" height="16" viewBox="0 0 16 16" fill="none" xmlns="http://www.w3.org/2000/svg">
<path d="M12.9769 11.9046H11.2626C11.0921 11.9046 10.9285 11.8369 10.808 11.7163C10.6874 11.5958 10.6197 11.4322 10.6197 11.2617C10.6197 11.0912 10.6874 10.9277 10.808 10.8072C10.9285 10.6866 11.0921 10.6189 11.2626 10.6189H12.9769C13.261 10.6189 13.5336 10.506 13.7345 10.3051C13.9354 10.1042 14.0483 9.83158 14.0483 9.54744V6.11886C14.0483 5.8347 13.9354 5.56218 13.7345 5.36125C13.5336 5.16032 13.261 5.04743 12.9769 5.04743H2.69113C2.40697 5.04743 2.13445 5.16032 1.93352 5.36125C1.73259 5.56218 1.6197 5.8347 1.6197 6.11886V9.54744C1.6197 9.83158 1.73259 10.1042 1.93352 10.3051C2.13445 10.506 2.40697 10.6189 2.69113 10.6189H4.40542C4.57591 10.6189 4.73943 10.6866 4.85999 10.8072C4.98054 10.9277 5.04828 11.0912 5.04828 11.2617C5.04828 11.4322 4.98054 11.5958 4.85999 11.7163C4.73943 11.8369 4.57591 11.9046 4.40542 11.9046H2.69113C2.06597 11.9046 1.46643 11.6563 1.02438 11.2142C0.582325 10.7721 0.333984 10.1726 0.333984 9.54744V6.11886C0.333984 5.49371 0.582325 4.89416 1.02438 4.45211C1.46643 4.01006 2.06597 3.76172 2.69113 3.76172H12.9769C13.602 3.76172 14.2015 4.01006 14.6436 4.45211C15.0857 4.89416 15.334 5.49371 15.334 6.11886V9.54744C15.334 10.1726 15.0857 10.7721 14.6436 11.2142C14.2015 11.6563 13.602 11.9046 12.9769 11.9046Z" fill="white"/>
<path d="M11.2617 5.04828C11.0919 5.04606 10.9297 4.97761 10.8096 4.85753C10.6895 4.73745 10.6211 4.57523 10.6189 4.40542V1.6197H5.04743V4.40542C5.04743 4.57591 4.9797 4.73943 4.85915 4.85999C4.73859 4.98054 4.57507 5.04828 4.40458 5.04828C4.23408 5.04828 4.07056 4.98054 3.95001 4.85999C3.82945 4.73943 3.76172 4.57591 3.76172 4.40542V1.40541C3.76172 1.12125 3.8746 0.848734 4.07554 0.647802C4.27647 0.44687 4.54899 0.333984 4.83315 0.333984H10.8332C11.1173 0.333984 11.3899 0.44687 11.5908 0.647802C11.7917 0.848734 11.9046 1.12125 11.9046 1.40541V4.40542C11.9024 4.57523 11.834 4.73745 11.7139 4.85753C11.5938 4.97761 11.4315 5.04606 11.2617 5.04828Z" fill="white"/>
<path d="M10.8332 15.3343H4.83315C4.54899 15.3343 4.27647 15.2214 4.07554 15.0205C3.8746 14.8196 3.76172 14.547 3.76172 14.2628V8.26284C3.76172 7.97869 3.8746 7.70612 4.07554 7.50521C4.27647 7.30429 4.54899 7.19141 4.83315 7.19141H10.8332C11.1173 7.19141 11.3899 7.30429 11.5908 7.50521C11.7917 7.70612 11.9046 7.97869 11.9046 8.26284V14.2628C11.9046 14.547 11.7917 14.8196 11.5908 15.0205C11.3899 15.2214 11.1173 15.3343 10.8332 15.3343ZM5.04743 14.0486H10.6189V8.47712H5.04743V14.0486Z" fill="white"/>
</svg>
