<svg width="63" height="75" viewBox="0 0 63 75" fill="none" xmlns="http://www.w3.org/2000/svg">
<path d="M27.0518 70.8382H8.09472C5.92642 70.8382 4.16181 68.957 4.16181 66.6431V17.309L17.309 4.16181H50.1665C52.3348 4.16181 54.1035 6.04295 54.1035 8.35692V39.5372C54.1035 40.0891 54.3228 40.6184 54.713 41.0086C55.1033 41.3989 55.6326 41.6181 56.1845 41.6181C56.7363 41.6181 57.2656 41.3989 57.6559 41.0086C58.0461 40.6184 58.2654 40.0891 58.2654 39.5372V8.35692C58.2654 3.74979 54.6321 1.52793e-07 50.1665 1.52793e-07H16.4724C16.1963 -0.000105976 15.923 0.0550766 15.6685 0.162293C15.4141 0.26951 15.1836 0.426589 14.9908 0.624271C14.9617 0.649242 14.9284 0.657566 14.9034 0.682537L0.607624 14.9784C0.405161 15.184 0.248275 15.4301 0.147171 15.7004C0.0460673 15.9707 0.00301288 16.2593 0.020809 16.5474C0.0166472 16.5807 0 16.6098 0 16.6472V66.6431C0 71.2502 3.63326 75 8.09472 75H27.0518C27.6037 75 28.133 74.7808 28.5232 74.3905C28.9134 74.0003 29.1327 73.471 29.1327 72.9191C29.1327 72.3672 28.9134 71.8379 28.5232 71.4477C28.133 71.0574 27.6037 70.8382 27.0518 70.8382Z" fill="#00072E"/>
<path d="M39.5372 22.8906H18.7281C18.1762 22.8906 17.6469 23.1099 17.2567 23.5001C16.8665 23.8904 16.6472 24.4196 16.6472 24.9715C16.6472 25.5234 16.8665 26.0527 17.2567 26.443C17.6469 26.8332 18.1762 27.0524 18.7281 27.0524H39.5372C40.0891 27.0524 40.6184 26.8332 41.0086 26.443C41.3988 26.0527 41.6181 25.5234 41.6181 24.9715C41.6181 24.4196 41.3988 23.8904 41.0086 23.5001C40.6184 23.1099 40.0891 22.8906 39.5372 22.8906ZM39.5372 35.3761H18.7281C18.1762 35.3761 17.6469 35.5953 17.2567 35.9855C16.8665 36.3758 16.6472 36.9051 16.6472 37.457C16.6472 38.0089 16.8665 38.5381 17.2567 38.9284C17.6469 39.3186 18.1762 39.5379 18.7281 39.5379H39.5372C40.0891 39.5379 40.6184 39.3186 41.0086 38.9284C41.3988 38.5381 41.6181 38.0089 41.6181 37.457C41.6181 36.9051 41.3988 36.3758 41.0086 35.9855C40.6184 35.5953 40.0891 35.3761 39.5372 35.3761ZM47.8608 54.1042C46.2046 54.1042 44.6162 54.7621 43.4451 55.9333C42.2739 57.1044 41.616 58.6928 41.616 60.349C41.616 62.0052 42.2739 63.5936 43.4451 64.7648C44.6162 65.9359 46.2046 66.5938 47.8608 66.5938C49.517 66.5938 51.1054 65.9359 52.2765 64.7648C53.4477 63.5936 54.1056 62.0052 54.1056 60.349C54.1056 58.6928 53.4477 57.1044 52.2765 55.9333C51.1054 54.7621 49.517 54.1042 47.8608 54.1042Z" fill="#00072E"/>
<path d="M47.8608 70.7502C45.1024 70.7469 42.4579 69.6496 40.5074 67.6991C38.5568 65.7486 37.4596 63.1041 37.4563 60.3456C37.4563 54.6107 42.1217 49.9411 47.8608 49.9411C53.6 49.9411 58.2653 54.6107 58.2653 60.3456C58.2653 66.0806 53.6 70.7502 47.8608 70.7502ZM47.8608 45.7793C45.0724 45.7793 42.4879 46.6075 40.2697 47.9726C40.0866 47.9226 39.9076 47.8602 39.7078 47.8602H18.8988C18.3469 47.8602 17.8176 48.0794 17.4274 48.4697C17.0371 48.8599 16.8179 49.3892 16.8179 49.9411C16.8179 50.493 17.0371 51.0223 17.4274 51.4125C17.8176 51.8028 18.3469 52.022 18.8988 52.022H35.9372C34.2209 54.4585 33.298 57.3653 33.2945 60.3456C33.2945 68.3779 39.8285 74.912 47.8608 74.912C55.8931 74.912 62.4272 68.3779 62.4272 60.3456C62.4272 52.3133 55.8931 45.7793 47.8608 45.7793Z" fill="#00072E"/>
</svg>
