<svg width="13" height="17" viewBox="0 0 13 17" fill="none" xmlns="http://www.w3.org/2000/svg">
<path d="M2.06482 6.57935H2.41809V5.51379C2.41809 4.27612 2.90479 3.14954 3.68909 2.33154C4.47644 1.50989 5.56372 1 6.7605 1C7.9574 1 9.04456 1.50989 9.83215 2.33142C10.6163 3.14941 11.103 4.27612 11.103 5.51367V6.57922H11.4563C11.7494 6.57922 12.0157 6.69885 12.2085 6.89172C12.4012 7.08459 12.521 7.35083 12.521 7.64392V14.9352C12.521 15.2283 12.4014 15.4946 12.2085 15.6874C12.0156 15.8801 11.7494 15.9999 11.4563 15.9999H2.06482C1.77161 15.9999 1.50537 15.8802 1.3125 15.6874C1.11963 15.4945 1 15.2285 1 14.9353V7.64404C1 7.35095 1.11975 7.08459 1.3125 6.89185C1.50537 6.6991 1.77161 6.57935 2.06482 6.57935ZM6.37109 11.6569L5.85962 12.9971H7.66162L7.1875 11.6384C7.4884 11.4834 7.69409 11.1697 7.69409 10.808C7.69409 10.2925 7.276 9.87451 6.76062 9.87451C6.24512 9.87451 5.82703 10.2926 5.82703 10.808C5.8269 11.1846 6.04993 11.5092 6.37109 11.6569ZM3.16711 6.57935H10.354V5.51379C10.354 4.47485 9.948 3.53186 9.2937 2.84949C8.64282 2.17053 7.74622 1.74915 6.7605 1.74915C5.77478 1.74915 4.87817 2.17053 4.22729 2.84937C3.57312 3.53174 3.16699 4.47473 3.16699 5.51367L3.16711 6.57935ZM11.4563 7.32849H2.06482C1.97839 7.32849 1.89966 7.36414 1.84229 7.42151C1.78491 7.47888 1.74927 7.55774 1.74927 7.64404V14.9353C1.74927 15.0216 1.78491 15.1005 1.84229 15.1577C1.89966 15.2152 1.97852 15.2507 2.06482 15.2507H11.4564C11.5428 15.2507 11.6217 15.2152 11.679 15.1577C11.7363 15.1003 11.772 15.0216 11.772 14.9353V7.64404C11.772 7.55774 11.7363 7.47888 11.679 7.42151C11.6215 7.36414 11.5427 7.32849 11.4563 7.32849Z" fill="white" stroke="white" stroke-width="0.5"/>
</svg>
