<svg width="17" height="16" viewBox="0 0 17 16" fill="none" xmlns="http://www.w3.org/2000/svg">
<path d="M15.9967 1.26394C15.9902 1.22811 15.9772 1.19224 15.9576 1.16292C15.9544 1.15641 15.9511 1.14663 15.9479 1.1401C15.9446 1.13359 15.9381 1.13032 15.9316 1.12381C15.9185 1.10753 15.9023 1.09122 15.886 1.0782C15.8729 1.06843 15.8599 1.05865 15.8469 1.04888C15.8404 1.04561 15.8371 1.0391 15.8306 1.03583C15.8208 1.03256 15.8078 1.02606 15.7948 1.02279C15.7785 1.01628 15.7622 1.00974 15.7459 1.00651C15.7263 1.00324 15.7068 1 15.6872 1C15.6709 1 15.6546 1 15.6384 1C15.6155 1.00327 15.5927 1.00978 15.5732 1.01628C15.5634 1.01955 15.5504 1.01955 15.5406 1.02279L1.1966 7.22377C1.03041 7.29547 0.955479 7.48771 1.02715 7.6539C1.05974 7.72559 1.11513 7.78749 1.18682 7.82008L6.54381 10.3389V15.3472C6.54381 15.5265 6.69045 15.6731 6.86967 15.6731C6.98371 15.6731 7.08801 15.6144 7.14666 15.5167L9.41131 11.8346L12.911 13.6789C13.0706 13.7636 13.2661 13.7017 13.3509 13.542C13.3639 13.516 13.3737 13.4866 13.3802 13.4606L15.9935 1.39429C15.9935 1.38778 15.9935 1.38125 15.9935 1.37474C15.9968 1.35519 15.9968 1.33891 16 1.32259C16 1.30304 16 1.28349 15.9967 1.26394ZM6.80448 9.73605L2.12527 7.53332L14.2339 2.30665L6.80448 9.73605ZM7.19551 14.1905V10.668L8.83453 11.5315L7.19551 14.1905ZM12.836 12.9001L9.75669 11.2806L9.20276 10.9385L9.17994 10.9776L7.41707 10.0489L15.117 2.34252L12.836 12.9001Z" fill="white" stroke="white" stroke-width="0.3"/>
</svg>
