<svg width="17" height="17" viewBox="0 0 17 17" fill="none" xmlns="http://www.w3.org/2000/svg">
<path d="M13.3933 14.6025C12.9601 14.6025 12.5678 14.4267 12.2839 14.1429C12.0001 13.8591 11.8244 13.4667 11.8244 13.0336C11.824 12.7518 11.8998 12.4751 12.0439 12.2329L11.4836 11.7565C11.6479 11.647 11.7891 11.525 11.9128 11.3906L12.4086 11.8122C12.6873 11.5869 13.0349 11.4642 13.3933 11.4647C13.8264 11.4647 14.2188 11.6404 14.5026 11.9242C14.7864 12.208 14.9621 12.6004 14.9621 13.0336C14.9621 13.4667 14.7864 13.8591 14.5026 14.1429C14.2188 14.4267 13.8264 14.6025 13.3933 14.6025ZM8.10175 7.00834H9.47278L9.49553 8.69059L8.75976 8.24172L8.06843 8.67961L8.10175 7.00834ZM6.54633 6.07094H11.0173C11.1855 6.07094 11.3382 6.13947 11.4487 6.24996C11.5055 6.30655 11.5505 6.3738 11.5812 6.44784C11.6119 6.52188 11.6277 6.60126 11.6277 6.68141V10.4027C11.6277 10.5692 11.5588 10.7218 11.4482 10.8327L11.4473 10.8337C11.3358 10.9444 11.1836 11.0131 11.0173 11.0131H6.54633C6.46618 11.0132 6.3868 10.9974 6.31276 10.9667C6.23872 10.9359 6.17147 10.8909 6.11488 10.8342L6.10075 10.8186C5.9986 10.7095 5.93592 10.563 5.93592 10.4027V6.68141C5.93592 6.51341 6.00473 6.36068 6.11515 6.25026C6.22566 6.13975 6.37845 6.07094 6.54633 6.07094ZM11.0173 6.51546H6.54633C6.50125 6.51546 6.45972 6.53436 6.42948 6.56459C6.41403 6.57989 6.40175 6.59808 6.39333 6.61812C6.38492 6.63817 6.38054 6.65967 6.38044 6.68141V10.4027C6.38044 10.4447 6.39605 10.4833 6.42155 10.5126L6.42921 10.5198C6.44457 10.5352 6.46282 10.5475 6.48292 10.5559C6.50301 10.5642 6.52456 10.5686 6.54633 10.5686H11.0173C11.0389 10.5686 11.0604 10.5643 11.0804 10.556C11.1004 10.5477 11.1186 10.5356 11.1339 10.5202L11.1348 10.5193C11.1501 10.504 11.1623 10.4859 11.1706 10.4658C11.1789 10.4458 11.1832 10.4244 11.1832 10.4027V6.68141C11.1831 6.65965 11.1788 6.6381 11.1704 6.61801C11.162 6.59792 11.1498 6.57968 11.1344 6.56432C11.119 6.54887 11.1008 6.5366 11.0807 6.52822C11.0606 6.51984 11.039 6.5155 11.0173 6.51546ZM7.24043 12.436L6.94472 13.1224C6.96587 13.1381 6.9866 13.1544 7.007 13.1712C7.32246 13.4307 7.53896 13.811 7.58163 14.2501C7.62409 14.6882 7.48482 15.1025 7.22531 15.4178C6.96572 15.7333 6.58548 15.9498 6.14635 15.9925C5.70831 16.0349 5.29397 15.8957 4.97864 15.6362C4.66318 15.3766 4.44668 14.9963 4.40401 14.5572C4.36155 14.1191 4.50079 13.7048 4.76033 13.3895C5.01989 13.074 5.40017 12.8575 5.83926 12.8148C6.04313 12.7949 6.24895 12.8145 6.44539 12.8726L6.68449 12.3176C6.85276 12.3691 7.03748 12.4085 7.24043 12.436ZM12.7604 6.88771L13.3063 6.68147C13.2634 6.51039 13.2491 6.33336 13.2642 6.15761C13.2643 6.14053 13.266 6.12381 13.2691 6.10764C13.3159 5.69551 13.5218 5.31796 13.8429 5.05538C14.1585 4.79687 14.5734 4.65875 15.0124 4.70233C15.2212 4.72272 15.4239 4.78416 15.6089 4.88312C15.7938 4.98207 15.9574 5.1166 16.0902 5.27897C16.3488 5.59461 16.4869 6.00944 16.4433 6.44847C16.4229 6.65725 16.3615 6.85995 16.2625 7.04492C16.1636 7.22988 16.029 7.39347 15.8666 7.52628C15.5458 7.78946 15.1349 7.91692 14.7215 7.88148C14.7047 7.88134 14.688 7.87969 14.6715 7.87656C14.243 7.82713 13.8729 7.61226 13.6193 7.30269C13.5896 7.26639 13.5615 7.22881 13.535 7.19004L12.9795 7.39984C12.9242 7.22205 12.8508 7.05043 12.7604 6.88771ZM9.84349 4.13425L9.84328 4.13594L9.72419 4.9356C9.54202 4.89891 9.35841 4.86977 9.17383 4.84824L9.28938 4.07226C9.04008 3.9979 8.81329 3.86248 8.62957 3.67829C8.32317 3.37189 8.17001 2.97037 8.17001 2.56888C8.17001 2.17568 8.31792 1.78165 8.61369 1.47685L8.62957 1.45955C8.93582 1.15331 9.3374 1 9.73889 1C10.1327 1 10.5268 1.14802 10.8311 1.44383L10.8482 1.45955C11.1545 1.7658 11.3078 2.16744 11.3078 2.56888C11.3078 2.96967 11.1545 3.37074 10.8482 3.67714L10.8471 3.67829C10.5791 3.94718 10.2223 4.10927 9.84349 4.13425ZM4.04039 9.63635L4.9331 9.46252C4.96014 9.65581 4.98968 9.8389 5.02264 10.0124L4.13721 10.1848C4.13624 10.4504 4.06759 10.7114 3.93773 10.9432C3.93141 10.9565 3.92402 10.9693 3.91564 10.9815C3.6985 11.3463 3.35556 11.5916 2.97438 11.6937C2.596 11.7951 2.17912 11.7549 1.81004 11.5505C1.79233 11.5426 1.77548 11.5328 1.75976 11.5215C1.41165 11.3126 1.15841 10.9765 1.05356 10.5843C0.949811 10.1971 0.993962 9.76961 1.21073 9.3942C1.42729 9.01917 1.77537 8.76733 2.16289 8.66352C2.54823 8.56025 2.97332 8.6035 3.34741 8.81752L3.35311 8.82069C3.67081 9.00352 3.91409 9.29225 4.04039 9.63635ZM5.70735 5.84545L5.07333 5.31787C5.03752 5.34511 5.00051 5.37074 4.9624 5.39467C4.634 5.60097 4.22723 5.68209 3.82003 5.58923C3.41166 5.4961 3.07982 5.24644 2.87364 4.9184C2.66734 4.59015 2.58626 4.18323 2.67902 3.77604C2.77215 3.36772 3.02191 3.03582 3.34986 2.82965C3.67829 2.62335 4.08503 2.54226 4.49222 2.63509C4.90047 2.72816 5.23237 2.97782 5.43861 3.30586C5.64491 3.6342 5.72618 4.04103 5.63323 4.44829C5.59656 4.61002 5.53357 4.76463 5.44676 4.90594L6.13229 5.47643C5.97935 5.5858 5.83708 5.70935 5.70735 5.84545ZM3.94207 5.0466C4.06488 5.07484 4.19205 5.07855 4.31629 5.05752C4.44053 5.03648 4.55939 4.99111 4.66605 4.92402C4.87383 4.79343 5.03193 4.58367 5.0906 4.32627C5.11883 4.20345 5.12253 4.07627 5.10148 3.95201C5.08044 3.82776 5.03506 3.70888 4.96795 3.60221C4.83734 3.39443 4.62766 3.23642 4.37021 3.17772C4.2474 3.14948 4.12022 3.14578 3.99598 3.16682C3.87173 3.18786 3.75287 3.23323 3.64621 3.30034C3.43843 3.43092 3.28036 3.64066 3.22166 3.89808C3.19345 4.02088 3.18976 4.14805 3.2108 4.27229C3.23185 4.39653 3.27722 4.51539 3.3443 4.62205C3.47485 4.82983 3.68459 4.9879 3.94207 5.0466ZM2.06342 11.0556C2.30472 11.1944 2.58019 11.2224 2.83055 11.1555C3.07532 11.0899 3.29547 10.9329 3.43562 10.6997C3.4409 10.6891 3.44679 10.6788 3.45343 10.669C3.58543 10.4312 3.61108 10.1618 3.5455 9.91667C3.47998 9.67217 3.32309 9.4519 3.09014 9.31175C3.07944 9.30643 3.06909 9.30043 3.05915 9.29379C2.82134 9.16179 2.55188 9.13614 2.30668 9.20181C2.05669 9.26881 1.83195 9.43128 1.69238 9.6731C1.55298 9.91456 1.5248 10.1902 1.59185 10.4405C1.65897 10.6911 1.82112 10.9158 2.06209 11.0549L2.06342 11.0556ZM9.01054 1.86669C8.82217 2.06158 8.72798 2.31499 8.72798 2.56888C8.72798 2.82762 8.82675 3.08649 9.02403 3.2838C9.22133 3.4811 9.48017 3.57979 9.73889 3.57979C9.99797 3.57979 10.257 3.48131 10.4543 3.28437C10.6513 3.08707 10.7498 2.82805 10.7498 2.56888C10.7498 2.31022 10.6511 2.05135 10.4538 1.85401L10.4414 1.84083C10.2458 1.65236 9.99242 1.55797 9.73889 1.55797C9.48017 1.55797 9.22133 1.65674 9.02403 1.85401L9.01054 1.86669ZM14.0508 6.9497C14.2194 7.15557 14.4662 7.29735 14.7509 7.32575L14.7517 7.32584C15.037 7.35415 15.3074 7.26385 15.5136 7.09486C15.7197 6.92601 15.8615 6.67888 15.8898 6.39394C15.9182 6.1086 15.8278 5.83829 15.6588 5.63197C15.49 5.42591 15.2428 5.28413 14.9579 5.25579C14.6725 5.22746 14.4022 5.31787 14.1959 5.48684C13.99 5.65554 13.8483 5.9023 13.8199 6.18706L13.8198 6.18782C13.7914 6.473 13.8818 6.74346 14.0508 6.9497ZM5.33163 15.2068C5.43717 15.2938 5.55886 15.3591 5.6897 15.399C5.82054 15.4388 5.95797 15.4524 6.09408 15.439C6.37945 15.4113 6.62694 15.2702 6.796 15.0648C6.883 14.9593 6.94829 14.8376 6.98813 14.7068C7.02797 14.5759 7.04157 14.4385 7.02816 14.3024C7.00046 14.017 6.85946 13.7695 6.65401 13.6005C6.54848 13.5135 6.42679 13.4482 6.29595 13.4083C6.1651 13.3685 6.02768 13.3549 5.89156 13.3683C5.60619 13.396 5.3587 13.5371 5.18964 13.7425C5.10264 13.848 5.03735 13.9697 4.99751 14.1005C4.95767 14.2314 4.94406 14.3688 4.95748 14.5049C4.98518 14.7903 5.12624 15.0378 5.33163 15.2068ZM12.6784 13.7484C12.8613 13.9313 13.1141 14.0445 13.3933 14.0445C13.6724 14.0445 13.9252 13.9313 14.1081 13.7484C14.291 13.5656 14.4042 13.3127 14.4042 13.0336C14.4042 12.7544 14.291 12.5016 14.1081 12.3187C13.9252 12.1358 13.6724 12.0226 13.3933 12.0226C13.1141 12.0226 12.8613 12.1358 12.6784 12.3187C12.4955 12.5016 12.3824 12.7544 12.3824 13.0336C12.3824 13.3127 12.4955 13.5656 12.6784 13.7484Z" fill="white" stroke="white" stroke-width="0.3"/>
</svg>
