<svg width="15" height="17" viewBox="0 0 15 17" fill="none" xmlns="http://www.w3.org/2000/svg">
<mask id="path-1-outside-1_4253_5054" maskUnits="userSpaceOnUse" x="0" y="0" width="15" height="17" fill="black">
<rect fill="white" width="15" height="17"/>
<path fill-rule="evenodd" clip-rule="evenodd" d="M12.3552 11.0468L13.8037 13.5701C13.8972 13.7103 13.8504 13.9439 13.7103 14.0374C13.6635 14.0841 13.57 14.0841 13.5234 14.0841H11.5607L10.5795 15.8131C10.4861 15.9999 10.2991 16.0467 10.1121 15.9533L9.972 15.8131L8.47664 13.1963L8.19631 13.4298C7.9626 13.6168 7.68225 13.7104 7.4019 13.7104C7.16821 13.7104 6.88781 13.6167 6.65427 13.4298L6.3738 13.1963L4.87857 15.8131L4.73832 15.9533C4.59806 16.0467 4.36453 15.9999 4.27105 15.8131L3.28974 14.0841H1.32717C1.23369 14.0841 1.18691 14.0841 1.18691 13.9907C1 13.8972 0.95322 13.7103 1.0468 13.5233L2.49534 11C2.26165 10.8598 2.07475 10.7196 1.93467 10.486C1.79441 10.2524 1.74761 9.97188 1.79441 9.6915L1.93467 8.80366L1.32717 8.1495C1.14026 7.91581 1.0468 7.63543 1.0468 7.35511C1.0468 7.07476 1.14026 6.8411 1.32717 6.6075V6.5607L1.93467 5.90655L1.70094 5.01867C1.65415 4.73835 1.70094 4.458 1.84106 4.22434C1.9813 3.9906 2.21499 3.80367 2.49534 3.71025L3.3832 3.42993L3.66356 2.54205C3.75702 2.2617 3.94393 2.02801 4.1776 1.8879C4.41117 1.74765 4.69165 1.70099 4.97203 1.74765L5.90651 1.93454H5.95334L6.60749 1.2804C6.8412 1.09349 7.12152 1 7.4019 1C7.68225 1 7.91592 1.09348 8.14947 1.2804L8.19626 1.32706L8.85042 1.93454L9.78506 1.79444C10.0654 1.74765 10.3457 1.79444 10.5795 1.93454C10.813 2.07479 10.9999 2.30834 11.0934 2.58866L11.3738 3.47655L12.2617 3.75704C12.542 3.85048 12.7756 4.03742 12.9158 4.27094C13.0561 4.50463 13.1027 4.78498 13.0561 5.06533L12.8691 5.95318L13.5234 6.65413C13.7103 6.84105 13.8037 7.12137 13.8037 7.40186C13.8037 7.68221 13.7103 7.96258 13.5234 8.19627L13.4766 8.2429L12.8691 8.89709L13.0561 9.78493C13.1027 10.0654 13.0561 10.3458 12.9159 10.5794C12.7756 10.7663 12.5887 10.9533 12.3552 11.0468ZM3.75705 13.5232L4.55145 14.8784L5.67298 12.7289L4.92524 12.9159C4.64488 13.0093 4.36454 12.9626 4.13085 12.8225C3.89725 12.6822 3.71024 12.4485 3.61678 12.1682L3.33644 11.2803L3.05608 11.1869L1.84107 13.3364H3.42989C3.57013 13.3364 3.71025 13.4298 3.75705 13.5232ZM6.38476 12.2976L6.39144 12.3043L7.40185 13.2425L8.41223 12.3044L8.46391 12.2528C8.49326 12.2275 8.59305 12.1721 8.68597 12.1411L8.94373 12.055L8.95696 12.0581L10.3068 12.4134L10.7456 11.097L10.7503 11.078C10.7675 11.0092 10.7979 10.9469 10.8954 10.8491C10.9936 10.7512 11.0559 10.7208 11.1246 10.7036L11.1397 10.6998L12.486 10.2747L12.2013 8.9223L12.199 8.91304C12.1727 8.80765 12.1727 8.75307 12.199 8.64769L12.2142 8.58646V8.5525C12.2345 8.50065 12.2699 8.44671 12.3444 8.37214L12.351 8.36552L13.2893 7.35514L12.351 6.34476L12.3444 6.33814C12.2464 6.24006 12.2161 6.17774 12.199 6.10925C12.173 6.00515 12.1728 5.90393 12.1983 5.79991L12.5555 4.44273L11.1864 4.01041L11.1713 4.00662C10.9811 3.95907 10.8448 3.8227 10.7972 3.63252L10.7934 3.61735L10.3681 2.27103L9.0157 2.55569L9.00641 2.55799C8.95331 2.57127 8.90224 2.57772 8.85045 2.57772C8.79857 2.57772 8.74756 2.57127 8.69476 2.5581C8.62593 2.54086 8.5636 2.51054 8.4658 2.41271L8.45904 2.40598L7.44845 1.46766L6.43802 2.40605L6.38474 2.45936C6.28685 2.55722 6.22465 2.58753 6.15567 2.60474C6.10263 2.61802 6.0517 2.62447 5.99996 2.62447C5.94822 2.62447 5.89731 2.61802 5.84431 2.60474L5.83489 2.60238L4.48949 2.31915L4.0582 3.61327L4.05343 3.63226C4.0362 3.70104 4.00581 3.76336 3.90823 3.8611C3.81008 3.95916 3.74793 3.98944 3.67945 4.00652L3.6642 4.01033L2.31773 4.43549L2.60243 5.78796L2.60475 5.79726C2.63096 5.90217 2.63096 6.00417 2.60478 6.10896C2.5876 6.17772 2.55727 6.23999 2.45935 6.33791L2.45262 6.34462L1.51445 7.35508L2.39617 8.30469L2.42431 8.36093L2.44197 8.38744C2.49738 8.47055 2.55421 8.55583 2.58945 8.62497V8.65336L2.61579 8.73237C2.6263 8.76392 2.63202 8.85048 2.60475 8.95978L2.60245 8.96901L2.31775 10.3213L3.66418 10.7466L3.67946 10.7504C3.74802 10.7675 3.81018 10.7978 3.90806 10.8957C4.00586 10.9934 4.03619 11.0558 4.05344 11.1247L4.05721 11.1397L4.48949 12.5088L5.84671 12.1515C5.89884 12.1387 5.94897 12.1325 5.99996 12.1325C6.05187 12.1325 6.10294 12.139 6.15554 12.152C6.22442 12.1693 6.28676 12.1996 6.38476 12.2976ZM11 13.5232C11.0934 13.3832 11.187 13.3364 11.3271 13.3364V13.3364H12.8224L11.6074 11.1869L11.3271 11.2803L11.0468 12.1682V12.215C10.9533 12.4953 10.7664 12.6822 10.5327 12.8225H10.4861C10.2524 12.9159 9.972 12.9626 9.69164 12.9159L8.9907 12.7757L10.2056 14.8784L11 13.5232ZM10.4393 7.35509C10.4393 8.19628 10.1121 8.94389 9.55138 9.50459C8.9907 10.0654 8.24295 10.4393 7.4019 10.3458C6.56084 10.3458 5.8131 10.0187 5.25239 9.4579C4.69165 8.89711 4.36454 8.1495 4.36454 7.30845C4.36454 6.46726 4.69166 5.71965 5.25239 5.15881C5.8131 4.59806 6.56083 4.27095 7.4019 4.27095C8.24295 4.27095 8.9907 4.64489 9.55138 5.20559C10.1121 5.76629 10.4393 6.51404 10.4393 7.35509ZM7.4019 9.73832C8.05606 9.73832 8.66355 9.4579 9.08414 9.03732C9.50474 8.61676 9.78509 8.00926 9.83175 7.40189C9.83175 6.74761 9.55138 6.1401 9.13077 5.71965C8.71035 5.29904 8.10283 5.01865 7.44857 5.01865C6.79441 5.01865 6.18691 5.29904 5.76645 5.71965C5.34586 6.1401 5.0655 6.74761 5.0655 7.40189C5.0655 8.00926 5.29901 8.61676 5.71962 9.03732C6.14025 9.4579 6.74775 9.73832 7.4019 9.73832ZM6.89661 7.89948L8.05017 6.75406L8.56447 6.23968C8.58458 6.21943 8.60849 6.20336 8.63483 6.19239C8.66118 6.18143 8.68942 6.17578 8.71796 6.17578C8.74649 6.17578 8.77474 6.18143 8.80108 6.19239C8.82742 6.20336 8.85133 6.21943 8.87144 6.23968C8.91168 6.28076 8.93407 6.33607 8.93373 6.39358C8.9334 6.45109 8.91037 6.50614 8.86966 6.54674L7.04745 8.35924C7.02736 8.37952 7.00345 8.39563 6.97711 8.40661C6.95077 8.4176 6.92251 8.42326 6.89397 8.42326C6.86542 8.42326 6.83716 8.4176 6.81082 8.40661C6.78448 8.39563 6.76057 8.37952 6.74048 8.35924L5.97933 7.59235C5.89592 7.50718 5.89592 7.36868 5.98111 7.28522C6.02217 7.24494 6.07747 7.22253 6.13497 7.22286C6.19246 7.2232 6.2475 7.24625 6.28808 7.28701L6.89661 7.89948Z"/>
</mask>
<path fill-rule="evenodd" clip-rule="evenodd" d="M12.3552 11.0468L13.8037 13.5701C13.8972 13.7103 13.8504 13.9439 13.7103 14.0374C13.6635 14.0841 13.57 14.0841 13.5234 14.0841H11.5607L10.5795 15.8131C10.4861 15.9999 10.2991 16.0467 10.1121 15.9533L9.972 15.8131L8.47664 13.1963L8.19631 13.4298C7.9626 13.6168 7.68225 13.7104 7.4019 13.7104C7.16821 13.7104 6.88781 13.6167 6.65427 13.4298L6.3738 13.1963L4.87857 15.8131L4.73832 15.9533C4.59806 16.0467 4.36453 15.9999 4.27105 15.8131L3.28974 14.0841H1.32717C1.23369 14.0841 1.18691 14.0841 1.18691 13.9907C1 13.8972 0.95322 13.7103 1.0468 13.5233L2.49534 11C2.26165 10.8598 2.07475 10.7196 1.93467 10.486C1.79441 10.2524 1.74761 9.97188 1.79441 9.6915L1.93467 8.80366L1.32717 8.1495C1.14026 7.91581 1.0468 7.63543 1.0468 7.35511C1.0468 7.07476 1.14026 6.8411 1.32717 6.6075V6.5607L1.93467 5.90655L1.70094 5.01867C1.65415 4.73835 1.70094 4.458 1.84106 4.22434C1.9813 3.9906 2.21499 3.80367 2.49534 3.71025L3.3832 3.42993L3.66356 2.54205C3.75702 2.2617 3.94393 2.02801 4.1776 1.8879C4.41117 1.74765 4.69165 1.70099 4.97203 1.74765L5.90651 1.93454H5.95334L6.60749 1.2804C6.8412 1.09349 7.12152 1 7.4019 1C7.68225 1 7.91592 1.09348 8.14947 1.2804L8.19626 1.32706L8.85042 1.93454L9.78506 1.79444C10.0654 1.74765 10.3457 1.79444 10.5795 1.93454C10.813 2.07479 10.9999 2.30834 11.0934 2.58866L11.3738 3.47655L12.2617 3.75704C12.542 3.85048 12.7756 4.03742 12.9158 4.27094C13.0561 4.50463 13.1027 4.78498 13.0561 5.06533L12.8691 5.95318L13.5234 6.65413C13.7103 6.84105 13.8037 7.12137 13.8037 7.40186C13.8037 7.68221 13.7103 7.96258 13.5234 8.19627L13.4766 8.2429L12.8691 8.89709L13.0561 9.78493C13.1027 10.0654 13.0561 10.3458 12.9159 10.5794C12.7756 10.7663 12.5887 10.9533 12.3552 11.0468ZM3.75705 13.5232L4.55145 14.8784L5.67298 12.7289L4.92524 12.9159C4.64488 13.0093 4.36454 12.9626 4.13085 12.8225C3.89725 12.6822 3.71024 12.4485 3.61678 12.1682L3.33644 11.2803L3.05608 11.1869L1.84107 13.3364H3.42989C3.57013 13.3364 3.71025 13.4298 3.75705 13.5232ZM6.38476 12.2976L6.39144 12.3043L7.40185 13.2425L8.41223 12.3044L8.46391 12.2528C8.49326 12.2275 8.59305 12.1721 8.68597 12.1411L8.94373 12.055L8.95696 12.0581L10.3068 12.4134L10.7456 11.097L10.7503 11.078C10.7675 11.0092 10.7979 10.9469 10.8954 10.8491C10.9936 10.7512 11.0559 10.7208 11.1246 10.7036L11.1397 10.6998L12.486 10.2747L12.2013 8.9223L12.199 8.91304C12.1727 8.80765 12.1727 8.75307 12.199 8.64769L12.2142 8.58646V8.5525C12.2345 8.50065 12.2699 8.44671 12.3444 8.37214L12.351 8.36552L13.2893 7.35514L12.351 6.34476L12.3444 6.33814C12.2464 6.24006 12.2161 6.17774 12.199 6.10925C12.173 6.00515 12.1728 5.90393 12.1983 5.79991L12.5555 4.44273L11.1864 4.01041L11.1713 4.00662C10.9811 3.95907 10.8448 3.8227 10.7972 3.63252L10.7934 3.61735L10.3681 2.27103L9.0157 2.55569L9.00641 2.55799C8.95331 2.57127 8.90224 2.57772 8.85045 2.57772C8.79857 2.57772 8.74756 2.57127 8.69476 2.5581C8.62593 2.54086 8.5636 2.51054 8.4658 2.41271L8.45904 2.40598L7.44845 1.46766L6.43802 2.40605L6.38474 2.45936C6.28685 2.55722 6.22465 2.58753 6.15567 2.60474C6.10263 2.61802 6.0517 2.62447 5.99996 2.62447C5.94822 2.62447 5.89731 2.61802 5.84431 2.60474L5.83489 2.60238L4.48949 2.31915L4.0582 3.61327L4.05343 3.63226C4.0362 3.70104 4.00581 3.76336 3.90823 3.8611C3.81008 3.95916 3.74793 3.98944 3.67945 4.00652L3.6642 4.01033L2.31773 4.43549L2.60243 5.78796L2.60475 5.79726C2.63096 5.90217 2.63096 6.00417 2.60478 6.10896C2.5876 6.17772 2.55727 6.23999 2.45935 6.33791L2.45262 6.34462L1.51445 7.35508L2.39617 8.30469L2.42431 8.36093L2.44197 8.38744C2.49738 8.47055 2.55421 8.55583 2.58945 8.62497V8.65336L2.61579 8.73237C2.6263 8.76392 2.63202 8.85048 2.60475 8.95978L2.60245 8.96901L2.31775 10.3213L3.66418 10.7466L3.67946 10.7504C3.74802 10.7675 3.81018 10.7978 3.90806 10.8957C4.00586 10.9934 4.03619 11.0558 4.05344 11.1247L4.05721 11.1397L4.48949 12.5088L5.84671 12.1515C5.89884 12.1387 5.94897 12.1325 5.99996 12.1325C6.05187 12.1325 6.10294 12.139 6.15554 12.152C6.22442 12.1693 6.28676 12.1996 6.38476 12.2976ZM11 13.5232C11.0934 13.3832 11.187 13.3364 11.3271 13.3364V13.3364H12.8224L11.6074 11.1869L11.3271 11.2803L11.0468 12.1682V12.215C10.9533 12.4953 10.7664 12.6822 10.5327 12.8225H10.4861C10.2524 12.9159 9.972 12.9626 9.69164 12.9159L8.9907 12.7757L10.2056 14.8784L11 13.5232ZM10.4393 7.35509C10.4393 8.19628 10.1121 8.94389 9.55138 9.50459C8.9907 10.0654 8.24295 10.4393 7.4019 10.3458C6.56084 10.3458 5.8131 10.0187 5.25239 9.4579C4.69165 8.89711 4.36454 8.1495 4.36454 7.30845C4.36454 6.46726 4.69166 5.71965 5.25239 5.15881C5.8131 4.59806 6.56083 4.27095 7.4019 4.27095C8.24295 4.27095 8.9907 4.64489 9.55138 5.20559C10.1121 5.76629 10.4393 6.51404 10.4393 7.35509ZM7.4019 9.73832C8.05606 9.73832 8.66355 9.4579 9.08414 9.03732C9.50474 8.61676 9.78509 8.00926 9.83175 7.40189C9.83175 6.74761 9.55138 6.1401 9.13077 5.71965C8.71035 5.29904 8.10283 5.01865 7.44857 5.01865C6.79441 5.01865 6.18691 5.29904 5.76645 5.71965C5.34586 6.1401 5.0655 6.74761 5.0655 7.40189C5.0655 8.00926 5.29901 8.61676 5.71962 9.03732C6.14025 9.4579 6.74775 9.73832 7.4019 9.73832ZM6.89661 7.89948L8.05017 6.75406L8.56447 6.23968C8.58458 6.21943 8.60849 6.20336 8.63483 6.19239C8.66118 6.18143 8.68942 6.17578 8.71796 6.17578C8.74649 6.17578 8.77474 6.18143 8.80108 6.19239C8.82742 6.20336 8.85133 6.21943 8.87144 6.23968C8.91168 6.28076 8.93407 6.33607 8.93373 6.39358C8.9334 6.45109 8.91037 6.50614 8.86966 6.54674L7.04745 8.35924C7.02736 8.37952 7.00345 8.39563 6.97711 8.40661C6.95077 8.4176 6.92251 8.42326 6.89397 8.42326C6.86542 8.42326 6.83716 8.4176 6.81082 8.40661C6.78448 8.39563 6.76057 8.37952 6.74048 8.35924L5.97933 7.59235C5.89592 7.50718 5.89592 7.36868 5.98111 7.28522C6.02217 7.24494 6.07747 7.22253 6.13497 7.22286C6.19246 7.2232 6.2475 7.24625 6.28808 7.28701L6.89661 7.89948Z" fill="white"/>
<path d="M13.8037 13.5701L13.6299 13.6699L13.6373 13.681L13.8037 13.5701ZM12.3552 11.0468L12.2809 10.8611L12.0671 10.9466L12.1817 11.1463L12.3552 11.0468ZM13.7103 14.0374L13.5993 13.871L13.5829 13.8819L13.5689 13.8958L13.7103 14.0374ZM11.5607 14.0841V13.8841H11.4443L11.3868 13.9854L11.5607 14.0841ZM10.5795 15.8131L10.4053 15.7142L10.4006 15.7236L10.5795 15.8131ZM10.1121 15.9533L9.97057 16.0946L9.99357 16.1177L10.0227 16.1322L10.1121 15.9533ZM9.972 15.8131L9.79835 15.9123L9.81161 15.9355L9.8305 15.9544L9.972 15.8131ZM8.47664 13.1963L8.65029 13.0971L8.53192 12.8899L8.34862 13.0426L8.47664 13.1963ZM8.19631 13.4298L8.32125 13.5861L8.32433 13.5835L8.19631 13.4298ZM6.65427 13.4298L6.52626 13.5836L6.52931 13.586L6.65427 13.4298ZM6.3738 13.1963L6.50178 13.0426L6.31849 12.89L6.20015 13.0971L6.3738 13.1963ZM4.87857 15.8131L5.01998 15.9545L5.03893 15.9355L5.05222 15.9123L4.87857 15.8131ZM4.73832 15.9533L4.84922 16.1197L4.86572 16.1087L4.87974 16.0947L4.73832 15.9533ZM4.27105 15.8131L4.45017 15.7235L4.44499 15.7143L4.27105 15.8131ZM3.28974 14.0841L3.46367 13.9854L3.40619 13.8841H3.28974V14.0841ZM1.18691 13.9907H1.38691V13.8671L1.27635 13.8118L1.18691 13.9907ZM1.0468 13.5233L0.873068 13.4235L0.867939 13.4338L1.0468 13.5233ZM2.49534 11L2.66879 11.0996L2.76646 10.9294L2.59825 10.8285L2.49534 11ZM1.93467 10.486L2.10622 10.3831L2.10613 10.383L1.93467 10.486ZM1.79441 9.6915L1.99169 9.72443L1.99196 9.72271L1.79441 9.6915ZM1.93467 8.80366L2.13222 8.83487L2.1474 8.73882L2.08122 8.66756L1.93467 8.80366ZM1.32717 8.1495L1.17098 8.27442L1.17559 8.28019L1.18062 8.2856L1.32717 8.1495ZM1.32717 6.6075L1.48334 6.73245L1.52717 6.67766V6.6075H1.32717ZM1.32717 6.5607L1.18062 6.4246L1.12717 6.48215V6.5607H1.32717ZM1.93467 5.90655L2.08122 6.04265L2.15609 5.96203L2.12808 5.85564L1.93467 5.90655ZM1.70094 5.01867L1.50366 5.05159L1.50518 5.06068L1.50753 5.06958L1.70094 5.01867ZM1.84106 4.22434L1.66956 4.12144L1.66953 4.12148L1.84106 4.22434ZM2.49534 3.71025L2.43512 3.51951L2.43212 3.52051L2.49534 3.71025ZM3.3832 3.42993L3.44341 3.62065L3.5426 3.58934L3.57391 3.49015L3.3832 3.42993ZM3.66356 2.54205L3.4738 2.47879L3.47285 2.48182L3.66356 2.54205ZM4.1776 1.8879L4.28045 2.05943L4.28056 2.05936L4.1776 1.8879ZM4.97203 1.74765L5.01127 1.55143L5.00486 1.55037L4.97203 1.74765ZM5.90651 1.93454L5.86729 2.13066L5.88671 2.13454H5.90651V1.93454ZM5.95334 1.93454V2.13454H6.03618L6.09476 2.07597L5.95334 1.93454ZM6.60749 1.2804L6.48257 1.1242L6.47391 1.13113L6.46607 1.13898L6.60749 1.2804ZM8.14947 1.2804L8.29071 1.13879L8.28297 1.13108L8.27445 1.12425L8.14947 1.2804ZM8.19626 1.32706L8.05493 1.46876L8.06016 1.47361L8.19626 1.32706ZM8.85042 1.93454L8.71432 2.0811L8.78487 2.14661L8.88007 2.13233L8.85042 1.93454ZM9.78506 1.79444L9.81471 1.99226L9.81798 1.99171L9.78506 1.79444ZM10.5795 1.93454L10.6824 1.76308L10.6823 1.76301L10.5795 1.93454ZM11.0934 2.58866L11.2841 2.52841L11.2831 2.5254L11.0934 2.58866ZM11.3738 3.47655L11.1831 3.53679L11.2144 3.63593L11.3136 3.66725L11.3738 3.47655ZM12.2617 3.75704L12.3249 3.56727L12.3219 3.56633L12.2617 3.75704ZM12.9158 4.27094L13.0873 4.16802L13.0873 4.16798L12.9158 4.27094ZM13.0561 5.06533L13.252 5.10659L13.2534 5.09816L13.0561 5.06533ZM12.8691 5.95318L12.6734 5.91196L12.6519 6.01367L12.7229 6.08966L12.8691 5.95318ZM13.5234 6.65413L13.3771 6.79068L13.3819 6.79554L13.5234 6.65413ZM13.5234 8.19627L13.6645 8.33795L13.6725 8.32999L13.6796 8.32118L13.5234 8.19627ZM13.4766 8.2429L13.3353 8.10111L13.33 8.10681L13.4766 8.2429ZM12.8691 8.89709L12.7225 8.761L12.652 8.83693L12.6734 8.93832L12.8691 8.89709ZM13.0561 9.78493L13.2536 9.75209L13.2518 9.7437L13.0561 9.78493ZM12.9159 10.5794L13.0758 10.6994L13.082 10.6912L13.0873 10.6823L12.9159 10.5794ZM4.55145 14.8784L4.37891 14.9796L4.56163 15.2913L4.72876 14.971L4.55145 14.8784ZM3.75705 13.5232L3.57784 13.613L3.58451 13.6244L3.75705 13.5232ZM5.67298 12.7289L5.85029 12.8214L6.05612 12.4269L5.62445 12.5349L5.67298 12.7289ZM4.92524 12.9159L4.87672 12.7219L4.86928 12.7237L4.862 12.7262L4.92524 12.9159ZM4.13085 12.8225L4.0279 12.9939L4.02801 12.994L4.13085 12.8225ZM3.61678 12.1682L3.42604 12.2284L3.42704 12.2314L3.61678 12.1682ZM3.33644 11.2803L3.52716 11.2201L3.49645 11.1228L3.39968 11.0906L3.33644 11.2803ZM3.05608 11.1869L3.11932 10.9971L2.96303 10.945L2.88197 11.0885L3.05608 11.1869ZM1.84107 13.3364L1.66696 13.2379L1.49828 13.5364H1.84107V13.3364ZM6.39144 12.3043L6.24992 12.4458L6.25535 12.4509L6.39144 12.3043ZM6.38476 12.2976L6.24333 12.4391L6.24334 12.4391L6.38476 12.2976ZM7.40185 13.2425L7.26576 13.3891L7.40185 13.5155L7.53794 13.3891L7.40185 13.2425ZM8.41223 12.3044L8.54841 12.451L8.55352 12.4459L8.41223 12.3044ZM8.46391 12.2528L8.33344 12.1012L8.32784 12.106L8.32261 12.1112L8.46391 12.2528ZM8.68597 12.1411L8.62262 11.9514L8.62261 11.9514L8.68597 12.1411ZM8.94373 12.055L8.98983 11.8604L8.9344 11.8472L8.88037 11.8653L8.94373 12.055ZM8.95696 12.0581L9.00788 11.8646L9.00306 11.8635L8.95696 12.0581ZM10.3068 12.4134L10.2559 12.6068L10.4372 12.6545L10.4965 12.4766L10.3068 12.4134ZM10.7456 11.097L10.9353 11.1603L10.9377 11.1529L10.9396 11.1454L10.7456 11.097ZM10.7503 11.078L10.5563 11.0294L10.5563 11.0295L10.7503 11.078ZM10.8954 10.8491L10.7541 10.7076L10.7539 10.7078L10.8954 10.8491ZM11.1246 10.7036L11.1731 10.8977L11.1739 10.8975L11.1246 10.7036ZM11.1397 10.6998L11.189 10.894L11.1999 10.8905L11.1397 10.6998ZM12.486 10.2747L12.5462 10.4655L12.719 10.4109L12.6817 10.2335L12.486 10.2747ZM12.2013 8.9223L12.3971 8.88108L12.3954 8.87411L12.2013 8.9223ZM12.199 8.91304L12.3931 8.86485L12.393 8.86461L12.199 8.91304ZM12.199 8.64769L12.393 8.69612L12.393 8.69607L12.199 8.64769ZM12.2142 8.58646L12.4083 8.63484L12.4142 8.61101V8.58646H12.2142ZM12.2142 8.5525L12.028 8.47969L12.0142 8.5148V8.5525H12.2142ZM12.3444 8.37214L12.203 8.23072L12.2029 8.23078L12.3444 8.37214ZM12.351 8.36552L12.4925 8.50703L12.4976 8.50162L12.351 8.36552ZM13.2893 7.35514L13.4359 7.49124L13.5623 7.35514L13.4359 7.21904L13.2893 7.35514ZM12.351 6.34476L12.4977 6.20857L12.4924 6.20334L12.351 6.34476ZM12.3444 6.33814L12.2029 6.47946L12.203 6.47956L12.3444 6.33814ZM12.199 6.10925L12.0049 6.15773L12.0049 6.15779L12.199 6.10925ZM12.1983 5.79991L12.0049 5.749L12.0041 5.75221L12.1983 5.79991ZM12.5555 4.44273L12.7489 4.49364L12.7974 4.30939L12.6157 4.25201L12.5555 4.44273ZM11.1864 4.01041L11.2467 3.81933L11.2349 3.81638L11.1864 4.01041ZM11.1713 4.00662L11.1228 4.20065L11.1228 4.20065L11.1713 4.00662ZM10.7972 3.63252L10.9912 3.584L10.9911 3.58361L10.7972 3.63252ZM10.7934 3.61735L10.9876 3.56835L10.9841 3.5571L10.7934 3.61735ZM10.3681 2.27103L10.5588 2.21079L10.5042 2.038L10.3269 2.07532L10.3681 2.27103ZM9.0157 2.55569L8.97448 2.35986L8.96766 2.36155L9.0157 2.55569ZM9.00641 2.55799L8.95836 2.36385L8.9579 2.36396L9.00641 2.55799ZM8.69476 2.5581L8.64616 2.7521L8.64637 2.75216L8.69476 2.5581ZM8.4658 2.41271L8.60725 2.27131L8.60691 2.27097L8.4658 2.41271ZM8.45904 2.40598L8.60023 2.26416L8.59513 2.25942L8.45904 2.40598ZM7.44845 1.46766L7.58453 1.32109L7.44843 1.19473L7.31235 1.32111L7.44845 1.46766ZM6.43802 2.40605L6.30183 2.2594L6.29656 2.26467L6.43802 2.40605ZM6.38474 2.45936L6.52614 2.6008L6.52621 2.60074L6.38474 2.45936ZM6.15567 2.60474L6.10725 2.41069L6.10711 2.41073L6.15567 2.60474ZM5.84431 2.60474L5.79565 2.79874L5.79572 2.79875L5.84431 2.60474ZM5.83489 2.60238L5.88358 2.40825L5.87609 2.40667L5.83489 2.60238ZM4.48949 2.31915L4.53069 2.12344L4.35615 2.08669L4.29975 2.25591L4.48949 2.31915ZM4.0582 3.61327L3.86846 3.55004L3.86607 3.55721L3.86422 3.56454L4.0582 3.61327ZM4.05343 3.63226L3.85945 3.58353L3.85942 3.58367L4.05343 3.63226ZM3.90823 3.8611L4.04958 4.00259L4.04976 4.00241L3.90823 3.8611ZM3.67945 4.00652L3.63107 3.81245L3.63094 3.81249L3.67945 4.00652ZM3.6642 4.01033L3.6156 3.81594L3.60397 3.81961L3.6642 4.01033ZM2.31773 4.43549L2.25751 4.24478L2.08469 4.29935L2.12202 4.47669L2.31773 4.43549ZM2.60243 5.78796L2.40659 5.82919L2.40837 5.83632L2.60243 5.78796ZM2.60475 5.79726L2.41068 5.84561L2.41071 5.84573L2.60475 5.79726ZM2.60478 6.10896L2.79882 6.15743L2.79882 6.15743L2.60478 6.10896ZM2.45935 6.33791L2.60061 6.47949L2.60077 6.47933L2.45935 6.33791ZM2.45262 6.34462L2.31125 6.20294L2.30605 6.20854L2.45262 6.34462ZM1.51445 7.35508L1.36788 7.219L1.24153 7.35508L1.36788 7.49116L1.51445 7.35508ZM2.39617 8.30469L2.57504 8.2152L2.56222 8.18959L2.54273 8.1686L2.39617 8.30469ZM2.42431 8.36093L2.24544 8.45042L2.25099 8.46151L2.25787 8.47183L2.42431 8.36093ZM2.44197 8.38744L2.27553 8.49833L2.27556 8.49838L2.44197 8.38744ZM2.58945 8.62497H2.78945V8.57694L2.76764 8.53414L2.58945 8.62497ZM2.58945 8.65336H2.38945V8.6858L2.39971 8.71659L2.58945 8.65336ZM2.61579 8.73237L2.80553 8.66915L2.80553 8.66913L2.61579 8.73237ZM2.60475 8.95978L2.4107 8.91135L2.41068 8.91142L2.60475 8.95978ZM2.60245 8.96901L2.40825 8.92062L2.40674 8.9278L2.60245 8.96901ZM2.31775 10.3213L2.12204 10.2801L2.0847 10.4574L2.2575 10.512L2.31775 10.3213ZM3.66418 10.7466L3.60383 10.9376L3.61559 10.9406L3.66418 10.7466ZM3.67946 10.7504L3.63087 10.9444L3.63106 10.9445L3.67946 10.7504ZM3.90806 10.8957L3.76665 11.0371L3.90806 10.8957ZM4.05344 11.1247L4.24746 11.0761L4.24744 11.076L4.05344 11.1247ZM4.05721 11.1397L3.86283 11.1884L3.86649 11.1999L4.05721 11.1397ZM4.48949 12.5088L4.29877 12.569L4.35614 12.7507L4.54041 12.7022L4.48949 12.5088ZM5.84671 12.1515L5.79908 11.9572L5.79579 11.958L5.84671 12.1515ZM6.15554 12.152L6.20424 11.9581L6.20384 11.958L6.15554 12.152ZM11.3271 13.3364H11.5271V13.1364H11.3271V13.3364ZM11 13.5232L10.8333 13.4121L10.8274 13.4221L11 13.5232ZM11.3271 13.3364H11.1271V13.5364H11.3271V13.3364ZM12.8224 13.3364V13.5364H13.1652L12.9966 13.238L12.8224 13.3364ZM11.6074 11.1869L11.7816 11.0885L11.7005 10.9451L11.5442 10.9971L11.6074 11.1869ZM11.3271 11.2803L11.2638 11.0906L11.1671 11.1228L11.1364 11.2201L11.3271 11.2803ZM11.0468 12.1682L10.856 12.108L10.8468 12.1374V12.1682H11.0468ZM11.0468 12.215L11.2365 12.2782L11.2468 12.2474V12.215H11.0468ZM10.5327 12.8225V13.0225H10.5881L10.6356 12.9939L10.5327 12.8225ZM10.4861 12.8225V12.6225H10.4475L10.4118 12.6368L10.4861 12.8225ZM9.69164 12.9159L9.65239 13.1121L9.65881 13.1132L9.69164 12.9159ZM8.9907 12.7757L9.02993 12.5796L8.59629 12.4928L8.81752 12.8757L8.9907 12.7757ZM10.2056 14.8784L10.0324 14.9785L10.2043 15.2761L10.3781 14.9796L10.2056 14.8784ZM9.55138 9.50459L9.40996 9.36318L9.40995 9.36319L9.55138 9.50459ZM7.4019 10.3458L7.42399 10.147L7.41298 10.1458H7.4019V10.3458ZM5.25239 9.4579L5.39382 9.31649L5.39382 9.31649L5.25239 9.4579ZM5.25239 5.15881L5.11097 5.01739L5.11096 5.0174L5.25239 5.15881ZM9.55138 5.20559L9.69281 5.06417L9.55138 5.20559ZM9.08414 9.03732L8.94273 8.8959L8.94272 8.8959L9.08414 9.03732ZM9.83175 7.40189L10.0312 7.41721L10.0317 7.40956V7.40189H9.83175ZM9.13077 5.71965L8.98932 5.86104L8.98938 5.86109L9.13077 5.71965ZM5.76645 5.71965L5.90785 5.86109L5.9079 5.86104L5.76645 5.71965ZM5.71962 9.03732L5.86103 8.89589L5.86103 8.89589L5.71962 9.03732ZM8.05017 6.75406L8.19109 6.89598L8.1916 6.89547L8.05017 6.75406ZM6.89661 7.89948L6.75473 8.04044L6.89565 8.18227L7.03753 8.0414L6.89661 7.89948ZM8.56447 6.23968L8.7059 6.3811L8.70639 6.38061L8.56447 6.23968ZM8.63483 6.19239L8.55796 6.00776L8.55796 6.00776L8.63483 6.19239ZM8.80108 6.19239L8.87795 6.00776L8.87795 6.00776L8.80108 6.19239ZM8.87144 6.23968L9.01431 6.09972L9.01336 6.09876L8.87144 6.23968ZM8.93373 6.39358L8.73374 6.39242V6.39242L8.93373 6.39358ZM8.86966 6.54674L9.0107 6.68854L9.01089 6.68836L8.86966 6.54674ZM7.04745 8.35924L6.9064 8.21744L6.90535 8.2185L7.04745 8.35924ZM6.97711 8.40661L7.0541 8.5912L7.0541 8.5912L6.97711 8.40661ZM6.81082 8.40661L6.73383 8.5912L6.73383 8.5912L6.81082 8.40661ZM6.74048 8.35924L6.88258 8.2185L6.88243 8.21835L6.74048 8.35924ZM5.97933 7.59235L5.83644 7.73229L5.83738 7.73324L5.97933 7.59235ZM5.98111 7.28522L6.12107 7.42809L6.12118 7.42798L5.98111 7.28522ZM6.13497 7.22286L6.1338 7.42286L6.13497 7.22286ZM6.28808 7.28701L6.42996 7.14604L6.4298 7.14588L6.28808 7.28701ZM13.9772 13.4705L12.5286 10.9472L12.1817 11.1463L13.6303 13.6697L13.9772 13.4705ZM13.8212 14.2037C13.9454 14.1209 14.0154 13.987 14.0407 13.8605C14.066 13.734 14.0529 13.5834 13.9701 13.4592L13.6373 13.681C13.6479 13.697 13.6582 13.7333 13.6485 13.782C13.6387 13.8307 13.6153 13.8603 13.5993 13.871L13.8212 14.2037ZM13.5234 14.2841C13.5455 14.2841 13.5961 14.2844 13.6496 14.2755C13.6986 14.2674 13.7839 14.2465 13.8516 14.1789L13.5689 13.8958C13.5807 13.8841 13.5906 13.8799 13.5922 13.8792C13.5937 13.8786 13.5915 13.8797 13.5839 13.881C13.5766 13.8822 13.5675 13.8831 13.5566 13.8836C13.5456 13.884 13.5352 13.8841 13.5234 13.8841V14.2841ZM11.5607 14.2841H13.5234V13.8841H11.5607V14.2841ZM10.7534 15.9118L11.7347 14.1828L11.3868 13.9854L10.4055 15.7143L10.7534 15.9118ZM10.0227 16.1322C10.1514 16.1965 10.2966 16.2204 10.4359 16.1806C10.5778 16.14 10.6897 16.0399 10.7584 15.9025L10.4006 15.7236C10.3759 15.7731 10.3475 15.7898 10.3259 15.796C10.3016 15.803 10.2598 15.8035 10.2015 15.7744L10.0227 16.1322ZM9.8305 15.9544L9.97057 16.0946L10.2536 15.8119L10.1135 15.6717L9.8305 15.9544ZM8.30299 13.2955L9.79835 15.9123L10.1456 15.7138L8.65029 13.0971L8.30299 13.2955ZM8.32433 13.5835L8.60466 13.3499L8.34862 13.0426L8.06828 13.2762L8.32433 13.5835ZM7.4019 13.9104C7.72699 13.9104 8.05154 13.8017 8.32122 13.586L8.07139 13.2737C7.87365 13.4318 7.6375 13.5104 7.4019 13.5104V13.9104ZM6.52931 13.586C6.79572 13.7992 7.11957 13.9104 7.4019 13.9104V13.5104C7.21685 13.5104 6.9799 13.4343 6.77924 13.2737L6.52931 13.586ZM6.24581 13.35L6.52629 13.5835L6.78226 13.2762L6.50178 13.0426L6.24581 13.35ZM5.05222 15.9123L6.54745 13.2955L6.20015 13.0971L4.70492 15.7138L5.05222 15.9123ZM4.87974 16.0947L5.01998 15.9545L4.73715 15.6716L4.59691 15.8119L4.87974 16.0947ZM4.09218 15.9025C4.23924 16.1966 4.60848 16.2801 4.84922 16.1197L4.62742 15.7869C4.61189 15.7972 4.57924 15.8059 4.53871 15.7951C4.50106 15.785 4.46865 15.761 4.44992 15.7236L4.09218 15.9025ZM3.1158 14.1828L4.09711 15.9118L4.44499 15.7143L3.46367 13.9854L3.1158 14.1828ZM1.32717 14.2841H3.28974V13.8841H1.32717V14.2841ZM0.98691 13.9907C0.98691 14.0277 0.991065 14.0768 1.01297 14.126C1.03797 14.1822 1.08009 14.2251 1.13265 14.2513C1.178 14.274 1.22235 14.2797 1.24923 14.2819C1.27678 14.2842 1.30639 14.2841 1.32717 14.2841V13.8841C1.30122 13.8841 1.28992 13.8839 1.28241 13.8833C1.27422 13.8826 1.28935 13.8825 1.31132 13.8935C1.32378 13.8997 1.33778 13.9091 1.35081 13.9227C1.36385 13.9362 1.37271 13.9506 1.37839 13.9633C1.3886 13.9863 1.38691 14.0003 1.38691 13.9907H0.98691ZM0.867939 13.4338C0.803535 13.5625 0.77958 13.7077 0.819364 13.847C0.859922 13.989 0.960041 14.1009 1.09747 14.1696L1.27635 13.8118C1.22687 13.7871 1.21015 13.7587 1.20398 13.7372C1.19704 13.7129 1.19649 13.6711 1.22567 13.6128L0.867939 13.4338ZM2.32189 10.9004L0.873353 13.4237L1.22026 13.6229L2.66879 11.0996L2.32189 10.9004ZM1.76313 10.5888C1.92827 10.8643 2.14841 11.025 2.39244 11.1715L2.59825 10.8285C2.37489 10.6945 2.22122 10.575 2.10622 10.3831L1.76313 10.5888ZM1.59714 9.65857C1.54324 9.98147 1.59625 10.3109 1.76321 10.5889L2.10613 10.383C1.99257 10.1939 1.95198 9.9623 1.99168 9.72443L1.59714 9.65857ZM1.73712 8.77245L1.59686 9.66029L1.99196 9.72271L2.13222 8.83487L1.73712 8.77245ZM1.18062 8.2856L1.78812 8.93976L2.08122 8.66756L1.47372 8.0134L1.18062 8.2856ZM0.846804 7.35511C0.846804 7.6801 0.955261 8.0047 1.17098 8.27442L1.48336 8.02458C1.32527 7.82692 1.2468 7.59075 1.2468 7.35511H0.846804ZM1.17101 6.48255C0.960594 6.74552 0.846804 7.02211 0.846804 7.35511H1.2468C1.2468 7.1274 1.31993 6.93667 1.48334 6.73245L1.17101 6.48255ZM1.12717 6.5607V6.6075H1.52717V6.5607H1.12717ZM1.78812 5.77045L1.18062 6.4246L1.47372 6.6968L2.08122 6.04265L1.78812 5.77045ZM1.50753 5.06958L1.74126 5.95747L2.12808 5.85564L1.89435 4.96775L1.50753 5.06958ZM1.66953 4.12148C1.50279 4.39953 1.44978 4.72874 1.50366 5.05159L1.89821 4.98574C1.85852 4.74796 1.89908 4.51646 2.01258 4.3272L1.66953 4.12148ZM2.43212 3.52051C2.10857 3.62831 1.83549 3.84489 1.66956 4.12144L2.01255 4.32724C2.12712 4.13631 2.32141 3.97902 2.55857 3.9L2.43212 3.52051ZM3.32298 3.23921L2.43513 3.51953L2.55556 3.90097L3.44341 3.62065L3.32298 3.23921ZM3.47285 2.48182L3.19248 3.36971L3.57391 3.49015L3.85428 2.60227L3.47285 2.48182ZM4.07476 1.71637C3.79821 1.88218 3.58167 2.1553 3.47383 2.4788L3.8533 2.6053C3.93237 2.3681 4.08965 2.17383 4.28045 2.05943L4.07476 1.71637ZM5.00486 1.55037C4.6821 1.49665 4.35273 1.54946 4.07465 1.71643L4.28056 2.05936C4.46961 1.94585 4.70119 1.90533 4.9392 1.94494L5.00486 1.55037ZM5.94573 1.73843L5.01125 1.55154L4.93281 1.94377L5.86729 2.13066L5.94573 1.73843ZM5.95334 1.73454H5.90651V2.13454H5.95334V1.73454ZM6.46607 1.13898L5.81192 1.79312L6.09476 2.07597L6.74891 1.42182L6.46607 1.13898ZM7.4019 0.8C7.07682 0.8 6.75229 0.908501 6.48257 1.1242L6.7324 1.43659C6.9301 1.27848 7.16621 1.2 7.4019 1.2V0.8ZM8.27445 1.12425C8.01151 0.913809 7.7349 0.8 7.4019 0.8V1.2C7.6296 1.2 7.82034 1.27314 8.0245 1.43654L8.27445 1.12425ZM8.33749 1.18545L8.29071 1.13879L8.00824 1.422L8.05502 1.46867L8.33749 1.18545ZM8.98652 1.78799L8.33235 1.18051L8.06016 1.47361L8.71432 2.0811L8.98652 1.78799ZM9.75541 1.59665L8.82077 1.73675L8.88007 2.13233L9.81471 1.99223L9.75541 1.59665ZM10.6823 1.76301C10.4042 1.5963 10.075 1.54328 9.75214 1.59717L9.81798 1.99171C10.0558 1.95202 10.2873 1.99258 10.4766 2.10608L10.6823 1.76301ZM11.2831 2.5254C11.1752 2.2019 10.9587 1.92899 10.6824 1.76308L10.4765 2.10601C10.6673 2.22059 10.8246 2.41479 10.9036 2.65192L11.2831 2.5254ZM11.5645 3.4163L11.2841 2.52842L10.9027 2.6489L11.1831 3.53679L11.5645 3.4163ZM12.3219 3.56633L11.4341 3.28584L11.3136 3.66725L12.2014 3.94774L12.3219 3.56633ZM13.0873 4.16798C12.9214 3.89172 12.6485 3.67514 12.3249 3.5673L12.1984 3.94677C12.4356 4.02582 12.6298 4.18312 12.7444 4.3739L13.0873 4.16798ZM13.2534 5.09816C13.3071 4.77541 13.2543 4.44619 13.0873 4.16802L12.7444 4.37385C12.8579 4.56307 12.8984 4.79455 12.8588 5.03251L13.2534 5.09816ZM13.0648 5.99441L13.2518 5.10656L12.8604 5.0241L12.6734 5.91196L13.0648 5.99441ZM13.6696 6.51766L13.0153 5.81671L12.7229 6.08966L13.3772 6.7906L13.6696 6.51766ZM14.0037 7.40186C14.0037 7.08168 13.8977 6.74564 13.6648 6.51272L13.3819 6.79554C13.5228 6.93647 13.6037 7.16106 13.6037 7.40186H14.0037ZM13.6796 8.32118C13.8953 8.05146 14.0037 7.72688 14.0037 7.40186H13.6037C13.6037 7.63755 13.5252 7.8737 13.3672 8.07136L13.6796 8.32118ZM13.6177 8.38458L13.6645 8.33795L13.3822 8.05459L13.3354 8.10122L13.6177 8.38458ZM13.0156 9.03319L13.6231 8.37899L13.33 8.10681L12.7225 8.761L13.0156 9.03319ZM13.2518 9.7437L13.0648 8.85587L12.6734 8.93832L12.8604 9.82616L13.2518 9.7437ZM13.0873 10.6823C13.2543 10.4043 13.3071 10.075 13.2534 9.75212L12.8588 9.81774C12.8984 10.0559 12.8579 10.2874 12.7444 10.4764L13.0873 10.6823ZM12.4294 11.2324C12.7119 11.1195 12.9257 10.8995 13.0758 10.6994L12.7559 10.4594C12.6256 10.633 12.4656 10.7872 12.2809 10.8611L12.4294 11.2324ZM4.72399 14.7773L3.9296 13.4221L3.58451 13.6244L4.37891 14.9796L4.72399 14.7773ZM5.49566 12.6364L4.37413 14.7859L4.72876 14.971L5.85029 12.8214L5.49566 12.6364ZM4.97377 13.1099L5.7215 12.9229L5.62445 12.5349L4.87672 12.7219L4.97377 13.1099ZM4.02801 12.994C4.30646 13.1609 4.64715 13.2194 4.98848 13.1056L4.862 12.7262C4.6426 12.7993 4.42262 12.7642 4.23369 12.6509L4.02801 12.994ZM3.42704 12.2314C3.5349 12.555 3.75156 12.828 4.0279 12.9939L4.2338 12.651C4.04295 12.5364 3.88557 12.3421 3.80651 12.1049L3.42704 12.2314ZM3.14572 11.3405L3.42606 12.2284L3.8075 12.108L3.52716 11.2201L3.14572 11.3405ZM2.99284 11.3766L3.2732 11.4701L3.39968 11.0906L3.11932 10.9971L2.99284 11.3766ZM2.01518 13.4348L3.23019 11.2853L2.88197 11.0885L1.66696 13.2379L2.01518 13.4348ZM3.42989 13.1364H1.84107V13.5364H3.42989V13.1364ZM3.93588 13.4337C3.89103 13.3441 3.8127 13.272 3.7314 13.2233C3.64816 13.1733 3.54291 13.1364 3.42989 13.1364V13.5364C3.45711 13.5364 3.49204 13.5461 3.52562 13.5663C3.5417 13.5759 3.55488 13.5864 3.56452 13.5961C3.56926 13.6008 3.5727 13.6049 3.57505 13.608C3.57743 13.6112 3.57827 13.6129 3.57823 13.6128L3.93588 13.4337ZM6.53286 12.1629L6.52618 12.1562L6.24334 12.4391L6.25002 12.4457L6.53286 12.1629ZM7.53794 13.096L6.52753 12.1578L6.25535 12.4509L7.26576 13.3891L7.53794 13.096ZM8.27614 12.1578L7.26576 13.096L7.53794 13.3891L8.54832 12.4509L8.27614 12.1578ZM8.32261 12.1112L8.27094 12.1628L8.55352 12.4459L8.6052 12.3943L8.32261 12.1112ZM8.62261 11.9514C8.56394 11.971 8.506 11.9971 8.45895 12.0216C8.41652 12.0436 8.36673 12.0725 8.33344 12.1012L8.59437 12.4044C8.58985 12.4083 8.59117 12.4065 8.60308 12.3991C8.61314 12.3929 8.62685 12.3851 8.64326 12.3766C8.67667 12.3592 8.71509 12.3422 8.74934 12.3308L8.62261 11.9514ZM8.88037 11.8653L8.62262 11.9514L8.74933 12.3308L9.00708 12.2447L8.88037 11.8653ZM9.00306 11.8635L8.98983 11.8604L8.89762 12.2496L8.91085 12.2527L9.00306 11.8635ZM10.3577 12.22L9.00786 11.8647L8.90605 12.2515L10.2559 12.6068L10.3577 12.22ZM10.5558 11.0338L10.117 12.3501L10.4965 12.4766L10.9353 11.1603L10.5558 11.0338ZM10.5563 11.0295L10.5515 11.0486L10.9396 11.1454L10.9444 11.1264L10.5563 11.0295ZM10.7539 10.7078C10.6364 10.8255 10.584 10.9185 10.5563 11.0294L10.9443 11.1265C10.9491 11.1073 10.9543 11.0938 10.964 11.0776C10.9751 11.0594 10.9955 11.032 11.037 10.9904L10.7539 10.7078ZM11.0761 10.5096C10.9651 10.5373 10.8721 10.5898 10.7541 10.7076L11.0367 10.9907C11.0786 10.9489 11.106 10.9284 11.1244 10.9173C11.1406 10.9076 11.154 10.9024 11.1731 10.8977L11.0761 10.5096ZM11.0904 10.506L11.0753 10.5098L11.1739 10.8975L11.1889 10.8937L11.0904 10.506ZM12.4257 10.084L11.0794 10.5091L11.1999 10.8905L12.5462 10.4655L12.4257 10.084ZM12.0056 8.9635L12.2902 10.3159L12.6817 10.2335L12.397 8.8811L12.0056 8.9635ZM12.0049 8.96123L12.0072 8.97049L12.3954 8.87411L12.3931 8.86485L12.0049 8.96123ZM12.0049 8.59925C11.9899 8.65937 11.9792 8.71719 11.9792 8.78036C11.9792 8.84352 11.9899 8.90134 12.0049 8.96147L12.393 8.86461C12.3817 8.81934 12.3792 8.79718 12.3792 8.78036C12.3792 8.76354 12.3817 8.74138 12.393 8.69612L12.0049 8.59925ZM12.0202 8.53808L12.0049 8.59931L12.393 8.69607L12.4083 8.63484L12.0202 8.53808ZM12.0142 8.5525V8.58646H12.4142V8.5525H12.0142ZM12.2029 8.23078C12.1165 8.31727 12.0616 8.39375 12.028 8.47969L12.4005 8.62531C12.4074 8.60756 12.4233 8.57614 12.4859 8.5135L12.2029 8.23078ZM12.2096 8.2241L12.203 8.23072L12.4858 8.51356L12.4924 8.50693L12.2096 8.2241ZM13.1428 7.21904L12.2045 8.22942L12.4976 8.50162L13.4359 7.49124L13.1428 7.21904ZM12.2045 6.48086L13.1428 7.49124L13.4359 7.21904L12.4976 6.20866L12.2045 6.48086ZM12.203 6.47956L12.2096 6.48618L12.4924 6.20334L12.4858 6.19672L12.203 6.47956ZM12.0049 6.15779C12.0327 6.26854 12.0851 6.36156 12.2029 6.47946L12.4859 6.19682C12.4442 6.15502 12.4237 6.12757 12.4126 6.10925C12.4028 6.09307 12.3977 6.07963 12.393 6.06071L12.0049 6.15779ZM12.0041 5.75221C11.9708 5.88785 11.971 6.02209 12.0049 6.15773L12.393 6.06077C12.3749 5.98821 12.3748 5.92 12.3925 5.84761L12.0041 5.75221ZM12.3621 4.39182L12.0049 5.749L12.3917 5.85082L12.7489 4.49364L12.3621 4.39182ZM11.1262 4.20112L12.4953 4.63345L12.6157 4.25201L11.2466 3.81969L11.1262 4.20112ZM11.1228 4.20065L11.1379 4.20443L11.2349 3.81638L11.2198 3.8126L11.1228 4.20065ZM10.6032 3.68104C10.6686 3.94286 10.861 4.13517 11.1228 4.20065L11.2198 3.8126C11.1013 3.78296 11.0209 3.70253 10.9912 3.584L10.6032 3.68104ZM10.5994 3.66626L10.6033 3.68143L10.9911 3.58361L10.9873 3.56843L10.5994 3.66626ZM10.1774 2.33128L10.6027 3.67759L10.9841 3.5571L10.5588 2.21079L10.1774 2.33128ZM9.0569 2.7514L10.4093 2.46675L10.3269 2.07532L8.97451 2.35998L9.0569 2.7514ZM9.05445 2.75213L9.06375 2.74983L8.96766 2.36155L8.95836 2.36385L9.05445 2.75213ZM8.85045 2.77772C8.91946 2.77772 8.98682 2.76904 9.05492 2.75202L8.9579 2.36396C8.9198 2.37349 8.88501 2.37772 8.85045 2.37772V2.77772ZM8.64637 2.75216C8.71413 2.76905 8.78139 2.77772 8.85045 2.77772V2.37772C8.81575 2.37772 8.78099 2.37348 8.74314 2.36404L8.64637 2.75216ZM8.32436 2.55411C8.44218 2.67197 8.53523 2.72432 8.64616 2.7521L8.74336 2.36409C8.72412 2.35928 8.71059 2.35411 8.69445 2.34437C8.67619 2.33336 8.64886 2.31294 8.60725 2.27132L8.32436 2.55411ZM8.31794 2.54772L8.3247 2.55445L8.60691 2.27097L8.60015 2.26424L8.31794 2.54772ZM7.31237 1.61422L8.32296 2.55255L8.59513 2.25942L7.58453 1.32109L7.31237 1.61422ZM6.57413 2.5526L7.58455 1.61421L7.31235 1.32111L6.30192 2.2595L6.57413 2.5526ZM6.52621 2.60074L6.57949 2.54743L6.29656 2.26467L6.24328 2.31798L6.52621 2.60074ZM6.20408 2.7988C6.31537 2.77103 6.40833 2.71857 6.52614 2.6008L6.24334 2.31792C6.20163 2.35961 6.1743 2.38004 6.15606 2.39104C6.13996 2.40075 6.12648 2.4059 6.10725 2.41069L6.20408 2.7988ZM5.99996 2.82447C6.06896 2.82447 6.13621 2.81579 6.20423 2.79876L6.10711 2.41073C6.06906 2.42025 6.03443 2.42447 5.99996 2.42447V2.82447ZM5.79572 2.79875C5.86372 2.81578 5.93094 2.82447 5.99996 2.82447V2.42447C5.96549 2.42447 5.9309 2.42025 5.89289 2.41074L5.79572 2.79875ZM5.78623 2.79637L5.79565 2.79874L5.89296 2.41075L5.88355 2.40839L5.78623 2.79637ZM4.44829 2.51486L5.79369 2.79809L5.87609 2.40667L4.53069 2.12344L4.44829 2.51486ZM4.24794 3.67651L4.67923 2.38238L4.29975 2.25591L3.86846 3.55004L4.24794 3.67651ZM4.2474 3.68098L4.25217 3.662L3.86422 3.56454L3.85945 3.58353L4.2474 3.68098ZM4.04976 4.00241C4.16722 3.88476 4.21966 3.79176 4.24744 3.68085L3.85942 3.58367C3.85463 3.60279 3.84946 3.61634 3.83969 3.63254C3.82866 3.65084 3.80823 3.67819 3.76669 3.71979L4.04976 4.00241ZM3.72782 4.20058C3.8388 4.17291 3.93168 4.12038 4.04958 4.00259L3.76687 3.71961C3.72499 3.76146 3.69757 3.78196 3.67932 3.79298C3.66324 3.80269 3.64992 3.80776 3.63107 3.81245L3.72782 4.20058ZM3.7127 4.20436L3.72795 4.20055L3.63094 3.81249L3.61569 3.8163L3.7127 4.20436ZM2.37795 4.62621L3.72442 4.20105L3.60397 3.81961L2.25751 4.24478L2.37795 4.62621ZM2.79814 5.74677L2.51344 4.39429L2.12202 4.47669L2.40672 5.82916L2.79814 5.74677ZM2.79882 5.7489L2.7965 5.73961L2.40837 5.83632L2.41068 5.84561L2.79882 5.7489ZM2.79882 6.15743C2.83295 6.02079 2.83294 5.8855 2.79879 5.74878L2.41071 5.84573C2.42898 5.91884 2.42897 5.98754 2.41074 6.06048L2.79882 6.15743ZM2.60077 6.47933C2.7186 6.3615 2.77107 6.26849 2.79882 6.15743L2.41074 6.06048C2.40597 6.07958 2.40084 6.09303 2.39111 6.10915C2.38009 6.12741 2.35964 6.15477 2.31793 6.19649L2.60077 6.47933ZM2.59388 6.4862L2.60061 6.47949L2.31809 6.19633L2.31136 6.20304L2.59388 6.4862ZM1.66101 7.49116L2.59919 6.4807L2.30605 6.20854L1.36788 7.219L1.66101 7.49116ZM2.54273 8.1686L1.66101 7.21899L1.36788 7.49116L2.24961 8.44077L2.54273 8.1686ZM2.60318 8.27145L2.57504 8.2152L2.21731 8.39417L2.24544 8.45042L2.60318 8.27145ZM2.60841 8.27654L2.59075 8.25004L2.25787 8.47183L2.27553 8.49833L2.60841 8.27654ZM2.76764 8.53414C2.72592 8.45229 2.66146 8.35612 2.60838 8.2765L2.27556 8.49838C2.3333 8.58499 2.38251 8.65938 2.41126 8.71579L2.76764 8.53414ZM2.78945 8.65336V8.62497H2.38945V8.65336H2.78945ZM2.80553 8.66913L2.77919 8.59012L2.39971 8.71659L2.42604 8.7956L2.80553 8.66913ZM2.7988 9.0082C2.81616 8.93862 2.82349 8.87453 2.82441 8.8203C2.82524 8.77098 2.82105 8.71572 2.80553 8.66915L2.42604 8.79559C2.42264 8.78538 2.42285 8.78163 2.42356 8.78799C2.4241 8.7928 2.42467 8.8014 2.42447 8.81353C2.42405 8.83779 2.42061 8.87164 2.4107 8.91135L2.7988 9.0082ZM2.79652 9.01736L2.79882 9.00813L2.41068 8.91142L2.40838 8.92065L2.79652 9.01736ZM2.51345 10.3625L2.79816 9.01021L2.40674 8.9278L2.12204 10.2801L2.51345 10.3625ZM3.72442 10.5559L2.37799 10.1305L2.2575 10.512L3.60394 10.9373L3.72442 10.5559ZM3.72805 10.5564L3.71277 10.5526L3.61559 10.9406L3.63087 10.9444L3.72805 10.5564ZM4.04947 10.7542C3.93175 10.6365 3.83883 10.584 3.72787 10.5564L3.63106 10.9445C3.64999 10.9492 3.66335 10.9543 3.6794 10.964C3.69761 10.975 3.72494 10.9954 3.76665 11.0371L4.04947 10.7542ZM4.24744 11.076C4.21965 10.9651 4.16731 10.872 4.04947 10.7542L3.76665 11.0371C3.80825 11.0787 3.82867 11.106 3.83968 11.1243C3.84944 11.1405 3.85462 11.154 3.85944 11.1733L4.24744 11.076ZM4.25123 11.0912L4.24746 11.0761L3.85943 11.1732L3.86319 11.1883L4.25123 11.0912ZM4.68021 12.4486L4.24793 11.0795L3.86649 11.1999L4.29877 12.569L4.68021 12.4486ZM5.79579 11.958L4.43857 12.3154L4.54041 12.7022L5.89764 12.3449L5.79579 11.958ZM5.99996 11.9325C5.93213 11.9325 5.86601 11.9408 5.79909 11.9572L5.89434 12.3457C5.93167 12.3365 5.96582 12.3325 5.99996 12.3325V11.9325ZM6.20384 11.958C6.13635 11.9412 6.06906 11.9325 5.99996 11.9325V12.3325C6.03467 12.3325 6.06953 12.3367 6.10725 12.3461L6.20384 11.958ZM6.52619 12.1562C6.40817 12.0382 6.31513 11.9859 6.20424 11.9581L6.10685 12.346C6.12616 12.3509 6.13973 12.3561 6.15591 12.3658C6.17421 12.3769 6.2016 12.3973 6.24333 12.4391L6.52619 12.1562ZM11.3271 13.1364C11.234 13.1364 11.1395 13.1521 11.0489 13.2024C10.9596 13.252 10.8913 13.3257 10.8336 13.4123L11.1663 13.6342C11.202 13.5807 11.2273 13.5609 11.2431 13.5521C11.2577 13.544 11.28 13.5364 11.3271 13.5364V13.1364ZM11.5271 13.3364V13.3364H11.1271V13.3364H11.5271ZM12.8224 13.1364H11.3271V13.5364H12.8224V13.1364ZM11.4333 11.2853L12.6483 13.4348L12.9966 13.238L11.7816 11.0885L11.4333 11.2853ZM11.3903 11.4701L11.6707 11.3766L11.5442 10.9971L11.2638 11.0906L11.3903 11.4701ZM11.2375 12.2284L11.5178 11.3405L11.1364 11.2201L10.856 12.108L11.2375 12.2284ZM11.2468 12.215V12.1682H10.8468V12.215H11.2468ZM10.6356 12.9939C10.8981 12.8364 11.124 12.6157 11.2365 12.2782L10.857 12.1517C10.7826 12.3749 10.6347 12.528 10.4298 12.651L10.6356 12.9939ZM10.4861 13.0225H10.5327V12.6225H10.4861V13.0225ZM9.65881 13.1132C9.98099 13.1668 10.2985 13.1128 10.5603 13.0082L10.4118 12.6368C10.2062 12.719 9.963 12.7583 9.72448 12.7186L9.65881 13.1132ZM8.95146 12.9718L9.65241 13.112L9.73088 12.7198L9.02993 12.5796L8.95146 12.9718ZM10.3787 14.7784L9.16387 12.6756L8.81752 12.8757L10.0324 14.9785L10.3787 14.7784ZM10.8274 13.4221L10.033 14.7773L10.3781 14.9796L11.1725 13.6244L10.8274 13.4221ZM9.69281 9.64601C10.2901 9.04871 10.6393 8.2506 10.6393 7.35509H10.2393C10.2393 8.14197 9.93405 8.83907 9.40996 9.36318L9.69281 9.64601ZM7.37981 10.5446C8.29771 10.6466 9.10243 10.2365 9.69282 9.646L9.40995 9.36319C8.87897 9.89429 8.18819 10.232 7.42399 10.147L7.37981 10.5446ZM5.11097 9.59932C5.70828 10.1967 6.50654 10.5458 7.4019 10.5458V10.1458C6.61515 10.1458 5.91792 9.84064 5.39382 9.31649L5.11097 9.59932ZM4.16454 7.30845C4.16454 8.20381 4.51362 9.00192 5.11097 9.59932L5.39382 9.31649C4.86967 8.79229 4.56454 8.09519 4.56454 7.30845H4.16454ZM5.11096 5.0174C4.51364 5.61484 4.16454 6.41295 4.16454 7.30845H4.56454C4.56454 6.52156 4.86969 5.82446 5.39383 5.30021L5.11096 5.0174ZM7.4019 4.07095C6.50653 4.07095 5.70828 4.42002 5.11097 5.01739L5.39382 5.30022C5.91791 4.77609 6.61513 4.47095 7.4019 4.47095V4.07095ZM9.69281 5.06417C9.10129 4.47264 8.30475 4.07095 7.4019 4.07095V4.47095C8.18115 4.47095 8.8801 4.81714 9.40996 5.34701L9.69281 5.06417ZM10.6393 7.35509C10.6393 6.45973 10.2901 5.66148 9.69281 5.06417L9.40996 5.34701C9.93404 5.87111 10.2393 6.56835 10.2393 7.35509H10.6393ZM8.94272 8.8959C8.5571 9.28151 7.99954 9.53832 7.4019 9.53832V9.93832C8.11258 9.93832 8.76999 9.6343 9.22556 9.17875L8.94272 8.8959ZM9.63234 7.38657C9.58931 7.9467 9.32929 8.50936 8.94273 8.8959L9.22556 9.17875C9.68018 8.72416 9.98087 8.07181 10.0312 7.41721L9.63234 7.38657ZM8.98938 5.86109C9.37497 6.24655 9.63175 6.80411 9.63175 7.40189H10.0317C10.0317 6.69111 9.72779 6.03366 9.27217 5.5782L8.98938 5.86109ZM7.44857 5.21865C8.04633 5.21865 8.6039 5.47544 8.98932 5.86104L9.27222 5.57826C8.8168 5.12263 8.15933 4.81865 7.44857 4.81865V5.21865ZM5.9079 5.86104C6.29336 5.47544 6.85092 5.21865 7.44857 5.21865V4.81865C6.7379 4.81865 6.08046 5.12263 5.625 5.57825L5.9079 5.86104ZM5.2655 7.40189C5.2655 6.8041 5.52227 6.24655 5.90785 5.86109L5.62505 5.5782C5.16944 6.03366 4.8655 6.69111 4.8655 7.40189H5.2655ZM5.86103 8.89589C5.48112 8.51602 5.2655 7.96088 5.2655 7.40189H4.8655C4.8655 8.05763 5.1169 8.7175 5.57821 9.17875L5.86103 8.89589ZM7.4019 9.53832C6.80427 9.53832 6.24669 9.28151 5.86103 8.89589L5.57821 9.17875C6.0338 9.6343 6.69123 9.93832 7.4019 9.93832V9.53832ZM7.90925 6.61214L6.75569 7.75755L7.03753 8.0414L8.19108 6.89598L7.90925 6.61214ZM8.42304 6.09827L7.90873 6.61265L8.1916 6.89547L8.7059 6.3811L8.42304 6.09827ZM8.55796 6.00776C8.50726 6.02887 8.46124 6.0598 8.42255 6.09876L8.70639 6.38061C8.70791 6.37907 8.70972 6.37786 8.71171 6.37703L8.55796 6.00776ZM8.71796 5.97578C8.66304 5.97578 8.60866 5.98665 8.55796 6.00776L8.7117 6.37703C8.71369 6.3762 8.71581 6.37578 8.71796 6.37578V5.97578ZM8.87795 6.00776C8.82725 5.98665 8.77288 5.97578 8.71796 5.97578V6.37578C8.7201 6.37578 8.72222 6.3762 8.72421 6.37703L8.87795 6.00776ZM9.01336 6.09876C8.97467 6.0598 8.92865 6.02887 8.87795 6.00776L8.72421 6.37703C8.72619 6.37786 8.728 6.37907 8.72952 6.38061L9.01336 6.09876ZM9.13373 6.39474C9.13437 6.28451 9.09146 6.17847 9.01431 6.09972L8.72858 6.37965C8.7319 6.38304 8.73377 6.38763 8.73374 6.39242L9.13373 6.39474ZM9.01089 6.68836C9.08895 6.61051 9.13309 6.50497 9.13373 6.39474L8.73374 6.39242C8.73371 6.39721 8.73179 6.40178 8.72843 6.40513L9.01089 6.68836ZM7.18849 8.50104L9.0107 6.68854L8.72861 6.40494L6.90641 8.21744L7.18849 8.50104ZM7.0541 8.5912C7.10483 8.57004 7.15087 8.53904 7.18955 8.49998L6.90535 8.2185C6.90385 8.22001 6.90207 8.22121 6.90012 8.22203L7.0541 8.5912ZM6.89397 8.62326C6.94894 8.62326 7.00337 8.61236 7.0541 8.5912L6.90012 8.22203C6.89816 8.22284 6.89607 8.22326 6.89397 8.22326V8.62326ZM6.73383 8.5912C6.78456 8.61236 6.83899 8.62326 6.89397 8.62326V8.22326C6.89186 8.22326 6.88976 8.22284 6.88781 8.22203L6.73383 8.5912ZM6.59838 8.49998C6.63706 8.53903 6.6831 8.57004 6.73383 8.5912L6.88781 8.22203C6.88586 8.22121 6.88408 8.22002 6.88258 8.2185L6.59838 8.49998ZM5.83738 7.73324L6.59853 8.50013L6.88243 8.21835L6.12128 7.45146L5.83738 7.73324ZM5.84116 7.14235C5.67535 7.30477 5.67743 7.56993 5.83644 7.73229L6.12222 7.45241C6.11901 7.44914 6.11697 7.44453 6.11699 7.43894C6.11701 7.43354 6.11889 7.43023 6.12107 7.42809L5.84116 7.14235ZM6.13613 7.02287C6.02583 7.02222 5.91977 7.06522 5.84105 7.14246L6.12118 7.42798C6.12457 7.42466 6.12911 7.42283 6.1338 7.42286L6.13613 7.02287ZM6.4298 7.14588C6.35198 7.06773 6.24643 7.02351 6.13613 7.02287L6.1338 7.42286C6.1385 7.42289 6.14302 7.42477 6.14637 7.42813L6.4298 7.14588ZM7.03848 7.75851L6.42996 7.14604L6.14621 7.42797L6.75473 8.04044L7.03848 7.75851Z" fill="white" mask="url(#path-1-outside-1_4253_5054)"/>
</svg>
