<svg width="18" height="18" viewBox="0 0 18 18" fill="none" xmlns="http://www.w3.org/2000/svg">
<circle cx="9" cy="9" r="9" fill="#D5E3FF"/>
<path d="M9.00001 5C11.4921 5 13.5653 6.79309 14 9.15949C13.5653 11.5259 11.4921 13.319 9.00001 13.319C6.50793 13.319 4.43467 11.5259 4 9.15949C4.43467 6.79309 6.50793 5 9.00001 5ZM9.00001 12.3947C10.9576 12.3947 12.6326 11.0322 13.0566 9.15949C12.6326 7.28681 10.9576 5.92433 9.00001 5.92433C7.04242 5.92433 5.36735 7.28681 4.94335 9.15949C5.36735 11.0322 7.04242 12.3947 9.00001 12.3947ZM9.00001 11.2392C7.85138 11.2392 6.92025 10.3081 6.92025 9.15949C6.92025 8.01088 7.85138 7.07975 9.00001 7.07975C10.1486 7.07975 11.0798 8.01088 11.0798 9.15949C11.0798 10.3081 10.1486 11.2392 9.00001 11.2392ZM9.00001 10.3149C9.63813 10.3149 10.1554 9.7976 10.1554 9.15949C10.1554 8.52138 9.63813 8.00408 9.00001 8.00408C8.3619 8.00408 7.84458 8.52138 7.84458 9.15949C7.84458 9.7976 8.3619 10.3149 9.00001 10.3149Z" fill="#3D46C1"/>
</svg>
