<svg width="100" height="100" viewBox="0 0 100 100" fill="none" xmlns="http://www.w3.org/2000/svg">
<rect width="100" height="100" rx="50" fill="#E2DADA"/>
<path d="M51.0068 15.141C48.8739 15.551 47.1218 16.4974 45.4975 18.1217C43.5197 20.1131 42.6297 22.2602 42.5026 25.4109C42.4176 27.5016 42.644 28.928 43.364 30.708C44.5647 33.6601 46.6975 35.9344 49.5932 37.333C51.3303 38.1808 52.1075 38.3779 52.6018 38.0958C53.0539 37.8558 53.266 37.3044 53.1382 36.7822C53.0396 36.3865 52.9967 36.3587 51.1746 35.638C46.8518 33.9008 44.1118 29.2816 44.719 24.7466C45.0018 22.5288 45.764 20.9324 47.1768 19.5338C50.1718 16.5817 55.0446 16.3981 57.7996 19.1103C60.611 21.8931 60.1588 26.6395 56.9517 28.2216C54.7482 29.3095 52.3325 28.7016 51.2875 26.7952C50.9061 26.1031 50.8775 25.9195 50.8639 24.6338C50.8639 23.2917 50.8496 23.2209 50.4968 22.9667C50.2139 22.7545 50.0025 22.7124 49.6775 22.7831C48.9289 22.9388 48.7454 23.4045 48.7454 25.1138C48.7454 26.4838 48.7739 26.6673 49.1975 27.5438C51.1046 31.5837 56.8539 32.163 60.046 28.6173C61.2467 27.2895 61.8117 25.6788 61.8117 23.5745C61.8117 21.1445 61.0345 19.2517 59.3395 17.5567C58.2517 16.4689 57.1924 15.8474 55.6667 15.3674C54.411 14.9853 52.3346 14.8867 51.0068 15.141Z" fill="#3A0707"/>
<path d="M30.6799 41.2313L30.3128 41.5278L30.3413 57.2219L30.3835 72.9296L30.7078 73.721C30.877 74.1446 31.2449 74.8653 31.5128 75.3175C31.7813 75.7696 32.007 76.1653 32.007 76.1932C32.007 76.2074 30.0149 76.2496 27.5999 76.2782C23.4471 76.3203 23.1364 76.3346 22.5285 76.6174C21.5821 77.0553 20.9178 77.7196 20.4236 78.6796C20.0564 79.4138 20 79.6967 20 80.6431C20 81.6038 20.0564 81.8438 20.4664 82.621C20.7771 83.2424 21.1443 83.6802 21.625 84.0481C23.0093 85.0931 21.1021 85.0224 49.0997 84.9802L74.1731 84.9381L74.9216 84.5988C75.9388 84.1324 76.9416 83.0167 77.2809 81.9717C77.9309 79.881 76.9702 77.6353 74.9781 76.6603C74.3424 76.3353 74.1866 76.321 70.401 76.2789L66.4881 76.2367L66.9681 75.361C67.8581 73.7368 68.1974 72.6346 68.296 71.0382L68.381 69.5689L69.2853 69.3854C73.9752 68.4247 78.213 63.2261 79.7809 56.4883C80.1766 54.7648 80.2894 51.1348 79.9787 49.6934C79.343 46.642 77.2945 44.5942 74.0738 43.7749C72.7602 43.4356 70.811 43.1956 69.4124 43.1956H68.311V42.5599C68.311 41.7828 68.0988 41.2885 67.6467 41.0906C67.4067 40.9778 62.166 40.9349 49.184 40.9349H31.0606L30.6799 41.2313ZM66.0224 57.7733L65.9803 72.3653L65.3867 73.566C65.076 74.2303 64.5674 75.106 64.2567 75.501L63.7203 76.2496H49.354H35.002L34.3384 75.5153C33.9856 75.106 33.4206 74.2296 33.0956 73.5803L32.502 72.3939L32.4599 57.7876L32.4313 43.1956H49.2412H66.051L66.0224 57.7733ZM71.9838 45.6249C75.2045 46.0627 76.9416 47.2777 77.6766 49.6084C78.143 51.092 78.1002 53.9591 77.5916 56.1491C76.7016 59.9769 74.6674 63.5511 72.2945 65.4583C71.4467 66.1504 69.5403 67.1254 68.7774 67.2804L68.311 67.379V65.1754C68.311 63.424 68.3531 62.9719 68.4946 62.9719C68.6074 62.9719 69.0738 62.774 69.5538 62.5483C71.1931 61.7283 72.6759 59.7226 73.4102 57.3212C73.8902 55.7955 73.8902 53.3234 73.4245 52.3062C72.8452 51.0491 71.8845 50.3005 70.3588 49.8905C69.9774 49.7777 69.4545 49.6927 69.2003 49.6927C68.2967 49.6927 68.3103 49.7213 68.3103 47.4041V45.2856L69.6238 45.3842C70.331 45.427 71.4045 45.5399 71.9838 45.6249ZM70.2324 52.1791C71.2495 52.5462 71.4752 52.9277 71.5324 54.3262C71.5888 55.7391 71.3345 56.9255 70.7131 58.1548C70.2467 59.0726 69.371 60.104 68.7496 60.4712L68.3117 60.7254V56.2612V51.7977L68.9896 51.8827C69.3567 51.9248 69.9074 52.0662 70.2324 52.1791ZM74.2438 78.821C74.9638 79.3153 75.2609 79.7953 75.2609 80.516C75.2752 81.2931 74.9081 81.9852 74.2438 82.4231L73.7774 82.7481H48.7605C24.6614 82.7481 23.715 82.7338 23.2493 82.4795C22.6985 82.1831 22.1193 81.2224 22.1193 80.601C22.1193 80.0074 22.5993 79.1603 23.1364 78.8067L23.6028 78.5103H48.6905H73.7781L74.2438 78.821Z" fill="#3A0707"/>
<path d="M36.5985 48.9161C36.2592 49.2411 36.2456 49.3261 36.2456 51.2896C36.2456 53.0839 36.2742 53.3803 36.5142 53.6632C36.8392 54.0725 37.6584 54.101 38.082 53.7196C38.3363 53.4796 38.3649 53.296 38.3649 51.3039V49.1425L37.9977 48.8597C37.5027 48.4639 37.022 48.4918 36.5985 48.9161Z" fill="#3A0707"/>
<path d="M36.5985 58.6632L36.2456 59.0025V64.3138V69.6252L36.5985 69.9645C37.022 70.3881 37.5027 70.4167 37.997 70.0209L38.3642 69.7381V64.3138V58.8896L37.997 58.6068C37.5027 58.211 37.022 58.2389 36.5985 58.6632Z" fill="#3A0707"/>
</svg>
