<svg width="100" height="100" viewBox="0 0 100 100" fill="none" xmlns="http://www.w3.org/2000/svg">
<rect width="100" height="100" rx="50" fill="#FFF4D9"/>
<path d="M47.68 26.0604C46.1471 25.8867 45.1202 26.6494 44.4482 28.0614L42.8247 33.5208C42.7492 33.8304 42.5302 33.9588 42.2357 33.9814L24.589 34.0041L26.892 69.3202H47.7178L49.7641 33.9814H46.0716C45.679 34.0267 45.5431 33.7851 45.6714 33.2565L46.7437 29.5414C47.008 28.8618 47.5139 28.4692 48.2841 28.3635L59.2557 28.3257L59.2633 26L47.68 26.0604ZM69.0947 49.5743H55.299C51.6971 49.9669 49.9604 51.9529 50.0888 55.5094H73.8745C73.6933 51.8773 72.1 49.899 69.0947 49.5743ZM74.3125 60.0929C74.0029 57.9559 72.8627 57.1178 71.2316 57.0422C70.318 56.929 69.5025 57.3065 68.7398 57.9635C68.1282 57.2914 67.3504 57.012 66.4141 57.1404C65.6665 56.9818 64.9492 57.2914 64.2545 57.9257C63.7939 57.4047 63.0992 57.1404 62.2157 57.0876C61.4984 57.0498 60.6376 57.2763 60.0108 57.9031C59.9353 57.9786 59.8598 57.9635 59.7994 57.9257C59.1576 57.2008 58.3194 57.0196 57.3831 57.0196C56.4694 57.012 55.7596 57.4198 55.1933 58.122C54.4382 57.2763 53.5924 56.9214 52.6637 57.0422C50.7759 57.1782 49.5678 58.1522 49.4469 60.4553C49.6055 62.6904 50.8892 61.7012 52.6788 61.9504C53.5698 61.89 54.4608 61.5276 55.1102 60.9008C55.8502 61.5276 56.6506 61.8975 57.6322 61.9655C58.561 61.9731 59.3161 61.7239 59.8145 61.1047C60.2751 61.6559 61.0151 61.9429 62.0647 61.9353C63.1218 61.9353 63.9675 61.588 64.4282 61.1122C65.0096 61.7163 65.7798 61.9806 66.6859 62.0184C67.5694 61.89 68.2792 61.5653 68.8455 61.1575C69.5855 61.8598 70.469 62.0712 71.4355 61.9806C73.5347 61.5125 74.4257 62.0712 74.3125 60.0929ZM53.8643 69.2522L70.182 69.1465C73.1873 68.8143 73.7537 67.1757 73.9273 63.5437L50.0737 63.5739C49.9453 67.138 50.5418 68.7916 53.8643 69.2522ZM24 70.6794C24.0604 74.0018 26.5296 73.9112 29.9578 73.9716L71.209 73.7678C74.2143 73.4355 75.6414 74.1076 75.8227 70.4755L24 70.6794ZM47.3402 36.9263L47.008 43.4429C46.9853 43.6241 46.872 43.7147 46.6682 43.7222L43.1947 43.76C42.9682 43.7373 42.8624 43.5788 42.8322 43.3371L44.6067 36.8508C44.6898 36.6092 44.8559 36.4733 45.1278 36.4657L46.8418 36.5035C47.1439 36.4808 47.242 36.579 47.3402 36.9263ZM39.6457 43.828L28.1304 43.9639C27.768 43.9941 27.5565 43.8053 27.4508 43.458L27.1261 36.7753C27.1488 36.5941 27.262 36.5035 27.4659 36.5035L41.5259 36.4884C41.7524 36.5035 41.8582 36.6696 41.8884 36.9112L40.1667 43.4429C40.0837 43.6845 39.9176 43.8204 39.6457 43.828Z" fill="#FFB800"/>
</svg>
