<svg width="100" height="100" viewBox="0 0 100 100" fill="none" xmlns="http://www.w3.org/2000/svg">
<rect opacity="0.15" width="100" height="100" rx="50" fill="#18468B"/>
<path d="M49.552 27.1934C47.6566 27.8204 46.4179 29.3872 46.4179 31.1786V31.8204L43.0597 34.4475L39.7015 37.0592H33.5372H27.373L26.5969 37.4475C26.0148 37.7311 25.7163 38.0148 25.4031 38.5219L25 39.2235V55.5668C25 71.8505 25 71.9102 25.3133 72.5071C25.4776 72.8357 25.9102 73.298 26.2536 73.552L26.8954 74H50H73.1046L73.7464 73.552C74.0898 73.2985 74.5224 72.8357 74.6867 72.5071C75 71.9102 75 71.8505 75 55.5668V39.2235L74.627 38.5816C74.4031 38.1786 74 37.7755 73.5821 37.5367L72.9107 37.1337L67.075 37.0592L61.224 36.9847L58.0301 34.4475L54.8209 31.9102L54.7464 31C54.5673 28.8505 52.9704 27.2837 50.851 27.1342C50.3434 27.0893 49.7612 27.1189 49.552 27.1934ZM51.851 30.0291C52.2393 30.4173 52.3138 30.6112 52.299 31.2082C52.299 31.5964 52.2541 32.1036 52.1944 32.3577C52.0898 32.7903 52.1643 32.8653 56.0602 35.9398C58.2541 37.6561 60.2097 39.149 60.4332 39.2531C60.7168 39.3872 62.4184 39.4321 66.5673 39.4469C70.8357 39.4469 72.3735 39.4918 72.5077 39.626C72.7612 39.8796 72.7612 71.2531 72.5077 71.5066C72.3735 71.6408 67.1643 71.6857 50 71.6857C32.8357 71.6857 27.627 71.6408 27.4923 71.5066C27.2388 71.2531 27.2388 39.8796 27.4923 39.626C27.6265 39.4918 29.2536 39.4469 33.8806 39.4469C37.2837 39.4469 40.2092 39.402 40.3883 39.3571C40.5673 39.3122 42.5821 37.8199 44.8658 36.0286C47.9551 33.6255 49.0301 32.7153 49 32.4913C48.9852 32.3418 48.9255 31.924 48.8658 31.5811C48.8061 31.1781 48.8362 30.775 48.9556 30.4918C49.4179 29.3725 50.9403 29.1337 51.851 30.0291Z" fill="#18468B"/>
<path d="M49.1342 42.2237C48.9551 42.3431 48.4923 42.9849 48.1194 43.6268L47.448 44.8059L46.299 45.0446C44.702 45.388 44.3439 45.5523 44.1051 46.0298C43.7321 46.7314 43.8214 47.2686 44.4633 48.0599C44.7765 48.4477 45.2245 48.9406 45.4485 49.1492L45.8515 49.5222L45.7464 51.1043C45.627 52.8804 45.7163 53.1936 46.4178 53.5518C47.0449 53.8804 47.3582 53.8355 48.6117 53.2533C49.2388 52.9696 49.8653 52.7309 50 52.7309C50.1347 52.7309 50.7612 52.9696 51.3883 53.2533C52.6418 53.8355 52.9556 53.8804 53.5821 53.5518C54.2837 53.1936 54.373 52.8804 54.2536 51.1043L54.149 49.5222L54.552 49.1492C54.776 48.9401 55.224 48.4477 55.5372 48.0599C56.1791 47.2686 56.2684 46.7314 55.8954 46.0298C55.6566 45.5523 55.2388 45.3584 53.9551 45.1191C53.4627 45.0293 52.9403 44.9099 52.8056 44.8804C52.6714 44.8355 52.2536 44.2834 51.8801 43.6268C51.1046 42.2982 50.7612 41.985 50 41.985C49.7015 41.985 49.3133 42.0895 49.1342 42.2237ZM50.1495 45.388C50.1495 45.4625 50.3883 45.7911 50.6719 46.1344C51.0602 46.5671 51.4627 46.8508 52.1046 47.0747L53 47.4033L52.627 47.7916C52.1046 48.3431 51.7908 49.164 51.7908 50.0446C51.7908 50.4477 51.7607 50.7911 51.7311 50.7911C51.7015 50.7911 51.4326 50.6865 51.149 50.5671C50.8505 50.4477 50.3281 50.3431 49.9995 50.3431C49.6709 50.3431 49.1485 50.4477 48.85 50.5671C48.5663 50.6865 48.298 50.7911 48.2679 50.7911C48.2383 50.7911 48.2082 50.5074 48.2082 50.1492C48.2082 49.2237 47.9546 48.4625 47.4617 47.8957L47.0138 47.4033L47.9092 47.0747C48.5362 46.8508 48.9388 46.5671 49.327 46.1344C49.6107 45.7911 49.8495 45.463 49.8495 45.388C49.8495 45.3283 49.924 45.2686 49.999 45.2686C50.0898 45.2686 50.1495 45.3283 50.1495 45.388Z" fill="#18468B"/>
<path d="M30.0745 57.7304C29.6265 58.1636 29.5969 58.835 29.9847 59.3126L30.2684 59.6708L49.6566 59.7157C60.3133 59.7304 69.1791 59.7157 69.373 59.6708C70.2837 59.4468 70.5969 58.3871 69.925 57.7304L69.5668 57.3575H50H30.4327L30.0745 57.7304Z" fill="#18468B"/>
<path d="M30.0744 64.8949C29.8356 65.1189 29.7014 65.4321 29.7014 65.7158C29.7014 65.9995 29.8356 66.3127 30.0744 66.5367L30.4325 66.9097H49.9999H69.5672L69.9254 66.5367C70.4177 66.0592 70.4177 65.3724 69.9254 64.8949L69.5672 64.5219H49.9999H30.4325L30.0744 64.8949Z" fill="#18468B"/>
</svg>
