<svg width="100" height="100" viewBox="0 0 100 100" fill="none" xmlns="http://www.w3.org/2000/svg">
<rect width="100" height="100" rx="50" fill="#CFFCFF"/>
<path d="M36.3958 55.2047C35.356 55.1908 34.3434 54.8698 33.4856 54.282C32.6277 53.6942 31.9627 52.8659 31.5744 51.9012C31.186 50.9365 31.0916 49.8785 31.3029 48.8603C31.5143 47.8421 32.0219 46.909 32.7621 46.1786C33.5023 45.4481 34.442 44.9528 35.4629 44.755C36.4839 44.5572 37.5405 44.6656 38.5 45.0667C39.4595 45.4678 40.2789 46.1437 40.8553 47.0092C41.4317 47.8748 41.7393 48.8915 41.7394 49.9315C41.7209 51.3364 41.1497 52.6776 40.1496 53.6646C39.1495 54.6515 37.8009 55.2048 36.3958 55.2047Z" fill="#017B83"/>
<path d="M49.9295 55.2047C52.8417 55.2047 55.2025 52.8439 55.2025 49.9317C55.2025 47.0195 52.8417 44.6587 49.9295 44.6587C47.0173 44.6587 44.6565 47.0195 44.6565 49.9317C44.6565 52.8439 47.0173 55.2047 49.9295 55.2047Z" fill="#017B83"/>
<path d="M63.9899 55.2042C62.9441 55.218 61.9179 54.9205 61.0417 54.3495C60.1654 53.7785 59.4788 52.9599 59.069 51.9977C58.6593 51.0355 58.5449 49.9731 58.7405 48.9457C58.936 47.9183 59.4327 46.9723 60.1673 46.2279C60.9019 45.4835 61.8413 44.9744 62.866 44.7652C63.8907 44.5561 64.9544 44.6564 65.922 45.0533C66.8896 45.4503 67.7172 46.1261 68.2998 46.9946C68.8823 47.8632 69.1934 48.8854 69.1935 49.9312C69.1936 51.3178 68.6476 52.6486 67.6737 53.6355C66.6997 54.6224 65.3763 55.186 63.9899 55.2042Z" fill="#017B83"/>
<path d="M65.6781 70C65.1612 69.9904 64.6582 69.831 64.2301 69.5412C63.802 69.2514 63.4672 68.8436 63.2662 68.3673C63.0653 67.891 63.0068 67.3666 63.098 66.8577C63.1891 66.3488 63.426 65.8773 63.7798 65.5004L79.1418 50.068L63.7095 34.5654C63.4505 34.324 63.2427 34.033 63.0986 33.7095C62.9545 33.3861 62.877 33.037 62.8708 32.683C62.8645 32.329 62.9296 31.9774 63.0622 31.6491C63.1949 31.3208 63.3922 31.0226 63.6426 30.7722C63.8929 30.5219 64.1912 30.3245 64.5194 30.1919C64.8477 30.0593 65.1994 29.9942 65.5534 30.0004C65.9074 30.0067 66.2565 30.0841 66.5799 30.2282C66.9033 30.3723 67.1944 30.5801 67.4358 30.8391L84.7312 48.0291C85.225 48.5235 85.5023 49.1936 85.5023 49.8923C85.5023 50.5909 85.225 51.2611 84.7312 51.7554L67.5412 69.0509C67.3118 69.3278 67.0282 69.5548 66.7078 69.718C66.3874 69.8813 66.037 69.9772 65.6781 70Z" fill="#017B83"/>
<path d="M34.7783 69.9671C34.4319 69.9687 34.0887 69.9011 33.7687 69.7683C33.4488 69.6355 33.1586 69.4402 32.9152 69.1937L15.6197 51.9685C15.3841 51.6887 15.2093 51.363 15.1064 51.012C15.0036 50.6609 14.9748 50.2924 15.0221 49.9296C15.0302 49.2322 15.3073 48.5647 15.7955 48.0665L32.8097 30.7711C33.3041 30.2773 33.9742 30 34.6728 30C35.3715 30 36.0416 30.2773 36.536 30.7711C37.0297 31.2654 37.307 31.9355 37.307 32.6342C37.307 33.3329 37.0297 34.003 36.536 34.4973L21.2091 49.9296L36.6414 65.2917C37.1352 65.786 37.4125 66.4561 37.4125 67.1548C37.4125 67.8535 37.1352 68.5236 36.6414 69.0179C36.4134 69.2964 36.1301 69.5246 35.8094 69.6879C35.4887 69.8513 35.1376 69.9464 34.7783 69.9671Z" fill="#017B83"/>
</svg>
