<svg width="100" height="100" viewBox="0 0 100 100" fill="none" xmlns="http://www.w3.org/2000/svg">
<rect opacity="0.15" width="100" height="100" rx="50" fill="#E40000"/>
<path d="M50.533 43.0658C50.8797 43.0658 51.1585 42.9754 51.3696 42.7794C51.5806 42.5835 51.6861 42.3121 51.6861 41.9729V35.0613C51.6861 34.7825 51.5806 34.5639 51.3696 34.3905C51.1585 34.2172 50.8797 34.1343 50.533 34.1343C50.2164 34.1343 49.9601 34.2172 49.7642 34.3905C49.5682 34.5639 49.4702 34.7825 49.4702 35.0613V41.9729C49.4702 42.3197 49.5682 42.591 49.7491 42.7794C49.93 42.9754 50.1938 43.0658 50.533 43.0658Z" fill="#E40000"/>
<path d="M56.2461 55.834C55.8843 55.834 55.5376 55.9244 55.1758 56.1053C54.8366 56.2862 54.505 56.5575 54.196 56.9042V51.877H51.8745V67.494H54.196V66.6121C54.4974 66.9664 54.8291 67.2226 55.1758 67.3885C55.5225 67.5618 55.922 67.6372 56.3817 67.6372C57.0601 67.6372 57.5877 67.4261 57.9419 66.989C58.3113 66.5518 58.4846 65.9262 58.4846 65.1198V58.7282C58.4846 57.7861 58.2962 57.0625 57.9043 56.5726C57.5274 56.0752 56.9696 55.834 56.2461 55.834ZM56.1179 64.7881C56.1179 65.1575 56.0501 65.4213 55.922 65.5795C55.7863 65.7454 55.5828 65.8283 55.3039 65.8283C55.108 65.8283 54.9271 65.783 54.7462 65.7001C54.5653 65.6248 54.3844 65.474 54.2035 65.2931V58.1177C54.3618 57.9595 54.5125 57.8389 54.6708 57.7635C54.8291 57.6881 54.9949 57.6504 55.1607 57.6504C55.4697 57.6504 55.7109 57.7484 55.8767 57.9519C56.0426 58.1554 56.1179 58.4494 56.1179 58.8413V64.7881Z" fill="#E40000"/>
<path d="M34.6218 54.1456H37.3051V67.494H39.8978V54.1456H42.5811V51.877H34.6218V54.1456Z" fill="#E40000"/>
<path d="M47.8493 64.7199C47.6307 64.9686 47.3971 65.1721 47.1333 65.3379C46.877 65.4962 46.666 65.5791 46.5002 65.5791C46.2816 65.5791 46.1308 65.5264 46.0329 65.3982C45.9424 65.2776 45.8897 65.0817 45.8897 64.8103V55.9692H43.5908V65.6017C43.5908 66.2876 43.7265 66.7926 43.9903 67.1393C44.2616 67.486 44.6611 67.6519 45.1962 67.6519C45.6259 67.6519 46.0706 67.5388 46.5303 67.2901C46.9901 67.0489 47.4272 66.6871 47.8569 66.2198V67.486H50.1557V55.9692H47.8569V64.7199H47.8493Z" fill="#E40000"/>
<path d="M50.9322 13C30.5366 13 14 29.5667 14 50C14 70.4333 30.5366 87 50.9322 87C71.3278 87 87.8643 70.4333 87.8643 50C87.8643 29.5667 71.3353 13 50.9322 13ZM56.4117 32.2575H58.9969V41.988C58.9969 42.2895 59.0572 42.5005 59.1628 42.6362C59.2683 42.7794 59.4492 42.8397 59.6904 42.8397C59.8788 42.8397 60.12 42.7492 60.4139 42.5759C60.7003 42.395 60.9717 42.1689 61.2053 41.89V32.2575H63.7981V44.9426H61.2053V43.5406C60.7305 44.0532 60.233 44.4526 59.7205 44.724C59.2004 44.9878 58.7105 45.1385 58.2206 45.1385C57.6252 45.1385 57.1729 44.9426 56.8715 44.5582C56.57 44.1888 56.4192 43.616 56.4192 42.8623V32.2575H56.4117ZM46.8093 35.1593C46.8093 34.1795 47.156 33.3956 47.8495 32.8152C48.5429 32.2349 49.485 31.9409 50.6608 31.9409C51.7311 31.9409 52.6054 32.2424 53.2988 32.8605C53.9772 33.471 54.3164 34.2699 54.3164 35.2347V41.792C54.3164 42.8774 53.9847 43.7215 53.3139 44.3471C52.6431 44.9652 51.716 45.2742 50.5402 45.2742C49.4097 45.2742 48.5052 44.9501 47.8268 44.3094C47.1485 43.6688 46.8093 42.8171 46.8093 41.7393V35.1593ZM39.7621 27.7503L41.6539 34.6242H41.8423L43.6437 27.7503H46.6058L43.2141 37.8199V44.9501H40.3047V38.1289L36.8376 27.7503H39.7621ZM73.6417 63.9438C73.6417 68.5339 69.9258 72.2573 65.3432 72.2573H36.5135C31.9309 72.2573 28.2227 68.5264 28.2227 63.9438V57.2583C28.2227 52.6757 31.9385 48.9448 36.5135 48.9448H65.3432C69.9258 48.9448 73.6417 52.6682 73.6417 57.2583V63.9438Z" fill="#E40000"/>
<path d="M63.1799 55.6831C62.1473 55.6831 61.3182 55.9921 60.6625 56.6253C60.0143 57.2508 59.6902 58.0724 59.6902 59.0673V64.2453C59.6902 65.3533 59.9917 66.2276 60.5796 66.8532C61.175 67.4939 61.9815 67.8029 63.0141 67.8029C64.1597 67.8029 65.019 67.5089 65.5918 66.9135C66.1722 66.3105 66.4586 65.4211 66.4586 64.2453V63.6574H64.0994V64.1775C64.0994 64.8558 64.0165 65.293 63.8733 65.4965C63.715 65.7 63.4512 65.798 63.0668 65.798C62.7051 65.798 62.4413 65.6849 62.2905 65.4513C62.1398 65.2101 62.0644 64.788 62.0644 64.185V62.0219H66.4661V59.0824C66.4661 57.9895 66.1797 57.1529 65.6219 56.5725C65.0416 55.9771 64.2351 55.6831 63.1799 55.6831ZM64.0919 60.2129H62.0569V59.0522C62.0569 58.5698 62.1398 58.2156 62.298 58.0196C62.4563 57.8011 62.7201 57.6955 63.0819 57.6955C63.4286 57.6955 63.6924 57.8011 63.8507 58.0196C64.009 58.2231 64.0919 58.5698 64.0919 59.0522V60.2129Z" fill="#E40000"/>
</svg>
